<?xml version="1.0" encoding="UTF-8"?>
<svg width="400px" height="299px" viewBox="0 0 400 299" version="1.1" xmlns="http://www.w3.org/2000/svg" xmlns:xlink="http://www.w3.org/1999/xlink">
    <!-- Generator: Sketch 63.1 (92452) - https://sketch.com -->
    <title>Outer space-rafiki</title>
    <desc>Created with Sketch.</desc>
    <g id="Page-1" stroke="none" stroke-width="1" fill="none" fill-rule="evenodd">
        <g id="Company_About-Us" transform="translate(-142.000000, -869.000000)" fill-rule="nonzero">
            <g id="Outer-space-rafiki" transform="translate(342.000000, 1018.500000) scale(-1, 1) translate(-342.000000, -1018.500000) translate(142.000000, 869.000000)">
                <g id="freepik--background-complete--inject-179">
                    <rect id="Rectangle" fill="#EBEBEB" x="0" y="261.92" width="400" height="1"></rect>
                    <rect id="Rectangle" fill="#EBEBEB" x="333.424" y="274.792" width="26.496" height="1"></rect>
                    <rect id="Rectangle" fill="#EBEBEB" x="258.024" y="276.968" width="6.952" height="1"></rect>
                    <rect id="Rectangle" fill="#EBEBEB" x="317.272" y="267.368" width="15.352" height="1"></rect>
                    <rect id="Rectangle" fill="#EBEBEB" x="41.968" y="268.712" width="34.552" height="1"></rect>
                    <rect id="Rectangle" fill="#EBEBEB" x="83.648" y="268.712" width="5.064" height="1"></rect>
                    <rect id="Rectangle" fill="#EBEBEB" x="105.176" y="272.088" width="74.944" height="1"></rect>
                    <path d="M189.6,226.24 L35.128,226.24 C32.608288,226.235587 30.568,224.191716 30.568,221.672 L30.568,4.528 C30.5899244,2.02391344 32.6238211,0.00428963178 35.128,1.13686838e-14 L189.6,1.13686838e-14 C192.122837,1.13686838e-14 194.168,2.04516326 194.168,4.568 L194.168,221.672 C194.168,224.194837 192.122837,226.24 189.6,226.24 Z M35.128,0.16 C32.718745,0.164412562 30.768,2.11874096 30.768,4.528 L30.768,221.672 C30.768,224.081259 32.718745,226.035587 35.128,226.04 L189.6,226.04 C192.010554,226.035597 193.963597,224.082554 193.968,221.672 L193.968,4.528 C193.963597,2.11744629 192.010554,0.164402849 189.6,0.16 L35.128,0.16 Z" id="Shape" fill="#EBEBEB"></path>
                    <path d="M362.648,226.24 L208.168,226.24 C205.64699,226.235596 203.604404,224.19301 203.6,221.672 L203.6,4.528 C203.626278,2.02262429 205.66249,0.00424246166 208.168,0 L362.648,0 C365.149059,0.0086645695 367.178114,2.02702213 367.2,4.528 L367.2,221.672 C367.2,224.188602 365.164586,226.231185 362.648,226.24 Z M208.168,0.16 C205.757446,0.164402849 203.804403,2.11744629 203.8,4.528 L203.8,221.672 C203.804403,224.082554 205.757446,226.035597 208.168,226.04 L362.648,226.04 C365.058554,226.035597 367.011597,224.082554 367.016,221.672 L367.016,4.528 C367.011597,2.11744629 365.058554,0.164402849 362.648,0.16 L208.168,0.16 Z" id="Shape" fill="#EBEBEB"></path>
                    <path d="M237.408,16.272 L236.728,17.64 C236.648674,17.7995233 236.496265,17.9100951 236.32,17.936 L234.808,18.16 C234.602605,18.1889587 234.431553,18.3322013 234.366979,18.5293208 C234.302406,18.7264403 234.35555,18.9431264 234.504,19.088 L235.6,20.16 C235.726694,20.2854126 235.786108,20.4636535 235.76,20.64 L235.496,22.144 C235.456698,22.3516102 235.54117,22.5631975 235.712645,22.6866595 C235.88412,22.8101216 236.111575,22.8231213 236.296,22.72 L237.648,22.008 C237.809287,21.9279793 237.998713,21.9279793 238.16,22.008 L239.512,22.72 C239.696425,22.8231213 239.92388,22.8101216 240.095355,22.6866595 C240.26683,22.5631975 240.351302,22.3516102 240.312,22.144 L240.056,20.64 C240.021027,20.4629844 240.081813,20.2806289 240.216,20.16 L241.304,19.088 C241.45245,18.9431264 241.505594,18.7264403 241.441021,18.5293208 C241.376447,18.3322013 241.205395,18.1889587 241,18.16 L239.488,17.936 C239.311735,17.9100951 239.159326,17.7995233 239.08,17.64 L238.4,16.272 C238.31211,16.0768874 238.117994,15.9514278 237.904,15.9514278 C237.690006,15.9514278 237.49589,16.0768874 237.408,16.272 Z" id="Path" fill="#F5F5F5"></path>
                    <path d="M220.24,242.552 L219.568,243.928 C219.486037,244.08872 219.330706,244.199244 219.152,244.224 L217.64,244.448 C217.434605,244.476959 217.263553,244.620201 217.198979,244.817321 C217.134406,245.01444 217.18755,245.231126 217.336,245.376 L218.432,246.44 C218.561175,246.567182 218.620795,246.749025 218.592,246.928 L218.328,248.432 C218.295408,248.637852 218.381536,248.84451 218.550673,248.966288 C218.719809,249.088066 218.943114,249.1042 219.128,249.008 L220.48,248.296 C220.638507,248.216128 220.825493,248.216128 220.984,248.296 L222.336,249.008 C222.520425,249.111121 222.74788,249.098122 222.919355,248.97466 C223.09083,248.851197 223.175302,248.63961 223.136,248.432 L222.88,246.928 C222.851205,246.749025 222.910825,246.567182 223.04,246.44 L224.136,245.376 C224.28445,245.231126 224.337594,245.01444 224.273021,244.817321 C224.208447,244.620201 224.037395,244.476959 223.832,244.448 L222.32,244.224 C222.140229,244.201955 221.983751,244.090614 221.904,243.928 L221.232,242.552 C221.139427,242.362465 220.946934,242.242256 220.736,242.242256 C220.525066,242.242256 220.332573,242.362465 220.24,242.552 L220.24,242.552 Z" id="Path" fill="#F0F0F0"></path>
                    <path d="M339.472,156.304 L338.792,157.672 C338.713595,157.833707 338.561378,157.947124 338.384,157.976 L336.872,158.192 C336.666777,158.224337 336.49709,158.369163 336.432914,158.566758 C336.368738,158.764353 336.420942,158.981247 336.568,159.128 L337.664,160.192 C337.792688,160.319255 337.849663,160.502176 337.816,160.68 L337.56,162.184 C337.520698,162.39161 337.60517,162.603197 337.776645,162.72666 C337.94812,162.850122 338.175575,162.863121 338.36,162.76 L339.712,162.048 C339.87125,161.959717 340.06475,161.959717 340.224,162.048 L341.576,162.76 C341.760425,162.863121 341.98788,162.850122 342.159355,162.72666 C342.33083,162.603197 342.415302,162.39161 342.376,162.184 L342.12,160.68 C342.086337,160.502176 342.143312,160.319255 342.272,160.192 L343.368,159.128 C343.515058,158.981247 343.567262,158.764353 343.503086,158.566758 C343.43891,158.369163 343.269223,158.224337 343.064,158.192 L341.552,157.976 C341.374622,157.947124 341.222405,157.833707 341.144,157.672 L340.464,156.304 C340.37611,156.108887 340.181994,155.983428 339.968,155.983428 C339.754006,155.983428 339.55989,156.108887 339.472,156.304 L339.472,156.304 Z" id="Path" fill="#F0F0F0"></path>
                    <path d="M172.192,201.336 L171.784,202.136 C171.737809,202.230563 171.648074,202.296368 171.544,202.312 L170.64,202.44 C170.515832,202.457101 170.412267,202.54347 170.373141,202.662546 C170.334016,202.781623 170.366173,202.912586 170.456,203 L171.112,203.64 C171.187495,203.715337 171.220494,203.823334 171.2,203.928 L171.048,204.824 C171.021887,204.947378 171.070673,205.074588 171.172589,205.148866 C171.274506,205.223143 171.410543,205.230636 171.52,205.168 L172.32,204.744 C172.415539,204.695538 172.528461,204.695538 172.624,204.744 L173.424,205.168 C173.534483,205.228132 173.669624,205.219784 173.771866,205.146511 C173.874108,205.073237 173.92544,204.947947 173.904,204.824 L173.744,203.928 C173.729619,203.822308 173.76508,203.715925 173.84,203.64 L174.496,203 C174.585827,202.912586 174.617984,202.781623 174.578859,202.662546 C174.539733,202.54347 174.436168,202.457101 174.312,202.44 L173.408,202.312 C173.303926,202.296368 173.214191,202.230563 173.168,202.136 L172.76,201.336 C172.701394,201.234571 172.593143,201.172098 172.476,201.172098 C172.358857,201.172098 172.250606,201.234571 172.192,201.336 L172.192,201.336 Z" id="Path" fill="#F0F0F0"></path>
                    <path d="M263.744,201.336 L263.336,202.136 C263.289809,202.230563 263.200074,202.296368 263.096,202.312 L262.192,202.44 C262.067832,202.457101 261.964267,202.54347 261.925141,202.662546 C261.886016,202.781623 261.918173,202.912586 262.008,203 L262.664,203.64 C262.73892,203.715925 262.774381,203.822308 262.76,203.928 L262.6,204.824 C262.580734,204.945648 262.63124,205.067837 262.730775,205.140379 C262.830309,205.212921 262.962094,205.223588 263.072,205.168 L263.872,204.744 C263.967539,204.695538 264.080461,204.695538 264.176,204.744 L264.976,205.168 C265.085457,205.230636 265.221494,205.223143 265.323411,205.148866 C265.425327,205.074588 265.474113,204.947378 265.448,204.824 L265.296,203.928 C265.275506,203.823334 265.308505,203.715337 265.384,203.64 L266.04,203 C266.129827,202.912586 266.161984,202.781623 266.122859,202.662546 C266.083733,202.54347 265.980168,202.457101 265.856,202.44 L264.952,202.312 C264.847926,202.296368 264.758191,202.230563 264.712,202.136 L264.304,201.336 C264.244443,201.238385 264.138349,201.178833 264.024,201.178833 C263.909651,201.178833 263.803557,201.238385 263.744,201.336 Z" id="Path" fill="#F5F5F5"></path>
                    <path d="M62.184,17.52 L61.776,18.32 C61.7307252,18.4187699 61.6361787,18.4858674 61.528,18.496 L60.624,18.632 C60.5012108,18.6515945 60.4000589,18.7389365 60.3627777,18.8575587 C60.3254964,18.9761809 60.3584967,19.1056851 60.448,19.192 L61.096,19.824 C61.1731739,19.8985231 61.2090253,20.0060771 61.192,20.112 L61.04,21.016 C61.0207339,21.1376483 61.0712403,21.2598365 61.1707749,21.3323787 C61.2703094,21.4049208 61.4020936,21.4155884 61.512,21.36 L62.312,20.936 C62.4075391,20.8875375 62.5204609,20.8875375 62.616,20.936 L63.416,21.36 C63.5259064,21.4155884 63.6576906,21.4049208 63.7572251,21.3323787 C63.8567597,21.2598365 63.9072661,21.1376483 63.888,21.016 L63.736,20.112 C63.7189747,20.0060771 63.7548261,19.8985231 63.832,19.824 L64.488,19.192 C64.577827,19.1045864 64.6099838,18.9736231 64.5708586,18.8545464 C64.5317335,18.7354698 64.4281675,18.6491011 64.304,18.632 L63.4,18.496 C63.2924025,18.4843187 63.1985448,18.4177101 63.152,18.32 L62.752,17.52 C62.6969564,17.413988 62.5874502,17.3474585 62.468,17.3474585 C62.3485498,17.3474585 62.2390436,17.413988 62.184,17.52 L62.184,17.52 Z" id="Path" fill="#F5F5F5"></path>
                    <path d="M69.136,168.504 L68.432,169.92 C68.351647,170.086917 68.1918754,170.20147 68.008,170.224 L66.408,170.456 C66.1946722,170.484728 66.0166918,170.633189 65.9501599,170.837902 C65.883628,171.042615 65.9403218,171.267345 66.096,171.416 L67.224,172.52 C67.3582876,172.650656 67.4183373,172.839812 67.384,173.024 L67.12,174.624 C67.0923472,174.82923 67.1785788,175.033246 67.3450423,175.156429 C67.5115058,175.279612 67.7318178,175.302439 67.92,175.216 L69.312,174.48 C69.4769554,174.391822 69.6750446,174.391822 69.84,174.48 L71.24,175.216 C71.4281822,175.302439 71.6484942,175.279612 71.8149577,175.156429 C71.9814212,175.033246 72.0676528,174.82923 72.04,174.624 L71.768,173.024 C71.7371406,172.83855 71.8000423,172.649844 71.936,172.52 L73.064,171.416 C73.2196782,171.267345 73.276372,171.042615 73.2098401,170.837902 C73.1433082,170.633189 72.9653278,170.484728 72.752,170.456 L71.152,170.224 C70.9681246,170.20147 70.808353,170.086917 70.728,169.92 L70.032,168.504 C69.9243731,168.36591 69.7590781,168.28517 69.584,168.28517 C69.4089219,168.28517 69.2436269,168.36591 69.136,168.504 Z" id="Path" fill="#F0F0F0"></path>
                    <path d="M154.832,35.912 C154.832012,36.3430732 155.092122,36.7315428 155.490694,36.89575 C155.889267,37.0599572 156.347533,36.96745 156.651195,36.6614871 C156.954858,36.3555242 157.043904,35.8965729 156.876693,35.499251 C156.709483,35.101929 156.319061,34.8447588 155.888,34.848 C155.60654,34.8479919 155.336723,34.9603462 155.138453,35.1601183 C154.940183,35.3598903 154.829868,35.6305478 154.832,35.912 L154.832,35.912 Z" id="Path" fill="#F0F0F0"></path>
                    <circle id="Oval" fill="#F5F5F5" cx="125.352" cy="242.136" r="1.064"></circle>
                    <path d="M85.64,62.512 C80.0034697,60.8258777 74.5263256,58.6467989 69.272,56 C71.0279593,62.9711219 76.3091281,68.5119214 83.1880236,70.6001576 C90.0669191,72.6883937 97.5370417,71.018522 102.872,66.2 C97.0308494,65.4790511 91.2645622,64.2449479 85.64,62.512 L85.64,62.512 Z" id="Path" fill="#F2F1FF"></path>
                    <path d="M89.136,49.464 C96.4,51.672 104.608,50.264 109.52,53.08 C110.49382,43.3479086 104.452866,34.2846122 95.0953918,31.4386319 C85.7379175,28.5926516 75.6736912,32.7577218 71.064,41.384 C76.696,41.808 81.872,47.256 89.136,49.464 Z" id="Path" fill="#F2F1FF"></path>
                    <path d="M58.288,41.656 C57.368,44.672 70.44,51.312 87.48,56.488 C104.52,61.664 119.072,63.424 119.984,60.416 C120.896,57.408 107.832,50.76 90.792,45.6 C73.752,40.44 59.2,38.648 58.288,41.656 Z" id="Path" fill="#F2F1FF"></path>
                    <path d="M313.696,121.144 C308.586399,140.868738 292.89848,156.094437 273.029795,160.612037 C253.161111,165.129637 232.43207,158.184167 219.296,142.608 L219.296,142.608 C211.680282,133.57102 207.207664,122.303842 206.552,110.504 C206.344786,106.794095 206.524421,103.072698 207.088,99.4 C207.371198,97.5284349 207.750364,95.6726555 208.224,93.84 C215.719637,65.1760812 244.745184,47.7544685 273.566423,54.6203978 C302.387663,61.4863271 320.440926,90.1232722 314.208,119.088 C314.04,119.768 313.872,120.456 313.696,121.144 Z" id="Path" fill="#F2F1FF"></path>
                    <path d="M343.44,73.816 C342.60465,77.0423903 340.038896,79.5330694 336.789128,80.2722654 C333.539359,81.0114614 330.148716,79.8756313 328,77.328 L328,77.328 C326.757308,75.849676 326.027477,74.0082567 325.92,72.08 C325.885621,71.4732554 325.915117,70.8645777 326.008,70.264 C326.053913,69.9570913 326.115325,69.6527022 326.192,69.352 C327.407338,64.6514715 332.161598,61.7886232 336.884648,62.9132627 C341.607698,64.0379022 344.561524,68.7361784 343.528,73.48 C343.496,73.6 343.472,73.704 343.44,73.816 Z" id="Path" fill="#F5F4FF"></path>
                    <path d="M314.184,119.072 L311.696,115.928 L308,125.6 L302.704,118.28 L299.864,107.232 L287.704,99.864 L289.2,103.144 L295.944,106.216 L299.144,112.616 L289.032,112.24 L278.4,102.4 L284.96,113.264 L290.112,117.328 L285.68,120 L277.88,130.712 L278.528,135.328 C278.528,135.328 272.128,139.944 271.432,140.128 C270.736,140.312 257.192,149.176 257.192,149.176 L262.4,131.144 L262.264,117.44 L249.464,118.144 L239.04,109.272 L246.048,94.496 L251.288,91.736 L256.624,93.12 L274.448,99.672 L274.368,96.432 L264.288,86.832 L257.808,85.656 L252.6,88 L249.6,87.2 L254.8,80.672 L259.6,78.544 L270.472,75.696 L278.592,78.632 L290.968,80.8 C290.968,80.8 301.128,78.152 306.024,76.856 C314.438261,89.205198 317.390111,104.476681 314.184,119.072 L314.184,119.072 Z" id="Path" fill="#EAE9FF"></path>
                    <path d="M276,159.872 C255.348115,165.7921 233.144987,159.032175 219.296,142.608 L227.024,146.696 L234.048,152.536 L252.584,157.336 L268.312,157.392 L276,159.872 Z" id="Path" fill="#FAFAFA"></path>
                    <polygon id="Path" fill="#EAE9FF" points="247.44 57.984 241.792 59.192 244.84 63.888 242.208 74.048 265.08 70.192 266.072 66.36 258.656 64.088"></polygon>
                    <path d="M239.392,68.488 L235.656,76.392 L227.2,80.728 L218.008,84.544 L213.6,89.112 L209.984,88.176 C214.722481,75.622633 223.942015,65.2688257 235.864,59.112 L239.392,68.488 Z" id="Path" fill="#FAFAFA"></path>
                    <path d="M229.264,121.144 L222.656,125.944 L222.384,130.896 L221.648,133.72 L221.256,138.48 L219.264,137.128 L215.464,129.776 L212.264,118.152 L207.936,111.584 L206.512,110.464 C206.304786,106.754095 206.484421,103.032698 207.048,99.36 L208.728,101.4 L216.16,100.52 L222.752,102.224 L224.192,108.32 L226.8,113.784 L232.8,117.12 L229.264,121.144 Z" id="Path" fill="#FAFAFA"></path>
                </g>
                <g id="freepik--Shadow--inject-179" transform="translate(44.800000, 279.200000)" fill="#F2F2FF">
                    <ellipse id="freepik--path--inject-179" cx="155.2" cy="9.792" rx="155.112" ry="9.056"></ellipse>
                </g>
                <g id="freepik--Character--inject-179" transform="translate(88.800000, 18.400000)">
                    <path d="M95.088,72.8 C98.12,70.864 99.888,66.928 102.288,64.304 C107.088,59.096 114.504,50.592 115.624,45.76 L97,39.36 L90.832,54.4 C89.528,57.888 83.72,62.984 80.496,64.64 C78.608,65.624 76.544,66.496 74.448,67.368 C70.24,69.064 65.72,70.568 61.344,72.08 L62.448,80.024 C64.9957838,80.0470253 67.5430861,79.9402201 70.08,79.704 C72.6,79.464 75.128,79.144 77.656,78.664 C80.2519727,78.1946757 82.8167719,77.5668343 85.336,76.784 C87.928,76 92.416,74.496 95.088,72.8 Z" id="Path" fill="#3E3CDA"></path>
                    <path d="M95.088,72.8 C98.12,70.864 99.888,66.928 102.288,64.304 C107.088,59.096 114.504,50.592 115.624,45.76 L97,39.36 L90.832,54.4 C89.528,57.888 83.72,62.984 80.496,64.64 C78.608,65.624 76.544,66.496 74.448,67.368 C70.24,69.064 65.72,70.568 61.344,72.08 L62.448,80.024 C64.9957838,80.0470253 67.5430861,79.9402201 70.08,79.704 C72.6,79.464 75.128,79.144 77.656,78.664 C80.2519727,78.1946757 82.8167719,77.5668343 85.336,76.784 C87.928,76 92.416,74.496 95.088,72.8 Z" id="Path" fill="#FFFFFF" opacity="0.8"></path>
                    <path d="M75.648,80.112 L72.272,67.384 C72.272,67.384 52.712,70.952 52.088,76.368 C51.448,81.968 65.064,81.832 75.648,80.112 Z" id="Path" fill="#252482"></path>
                    <path d="M61.6,73.4800321 L64.432,69.48 C64.432,69.48 54.496,68.224 54.232,69.816 C53.904,72 56.856,73.488 61.6,73.4800321 Z" id="Path" fill="#252482"></path>
                    <path d="M151.72,158.680008 C151.513263,158.680008 151.31259,158.610199 151.152,158.48 C147.288,155.392 135.024,144.456 139.152,133.52 C142.528,124.544 150.72,116.984 160.512,113.776 C164.273734,112.651859 168.117378,111.82268 172.008,111.296 C174.64,110.872 177.36,110.432 179.96,109.808 C191.92,106.936 197.944,99.04 195.68,89.2 C194.648,84.744 191.888,81.144 188.96,77.328 C186.632,74.304 184.24,71.176 182.792,67.592 C182.792,67.592 182.792,67.528 182.792,67.496 C181.424,62.608 183.368,57.896 185.256,53.368 C185.696,52.304 186.112,51.296 186.496,50.28 C188.096,45.936 189.576,41.264 189.328,36.544 C189.032,30.944 185.28,24.896 179.776,21.224 C171.176,15.472 155.304,10.336 148.576,17.56 C148.003032,18.2107539 147.468779,18.894598 146.976,19.608 C146.301914,20.5690934 145.547186,21.4710204 144.72,22.304 C141.929641,24.8502661 138.128628,25.9817305 134.4,25.376 C130.529133,24.7173368 127.186591,22.2917754 125.36,18.816 C125.252596,18.5997958 125.236131,18.3496142 125.314273,18.1211988 C125.392415,17.8927833 125.558672,17.7051119 125.776,17.6 C125.993383,17.4922696 126.244732,17.4755955 126.47444,17.5536664 C126.704149,17.6317373 126.893283,17.798118 127,18.016 C128.498198,20.9182828 131.260337,22.959278 134.474619,23.5391339 C137.688902,24.1189898 140.990105,23.1718203 143.408,20.976 C144.157173,20.2151623 144.842172,19.3936987 145.456,18.52 C145.995244,17.7542629 146.577513,17.0197484 147.2,16.32 C155.472,7.456 173.384,14.776 180.8,19.704 C186.76,23.704 190.832,30.264 191.16,36.448 C191.424,41.504 189.904,46.392 188.208,50.92 C187.824,51.968 187.408,53.032 186.952,54.072 C185.192,58.312 183.368,62.688 184.552,66.96 C185.904,70.296 188.216,73.304 190.456,76.216 C193.368,80.016 196.384,83.944 197.504,88.792 C199.976,99.552 193.28,108.496 180.432,111.584 C177.768,112.224 175.016,112.672 172.352,113.096 C168.562227,113.605207 164.817663,114.407613 161.152,115.496 C151.872,118.528 144.12,125.68 140.928,134.144 C137.24,143.936 148.752,154.144 152.368,157.04 C152.651132,157.285956 152.754826,157.680168 152.629356,158.033602 C152.503887,158.387036 152.17484,158.627624 151.8,158.64 L151.72,158.680008 Z" id="Path" fill="#3E3CDA"></path>
                    <path d="M151.72,158.680008 C151.513263,158.680008 151.31259,158.610199 151.152,158.48 C147.288,155.392 135.024,144.456 139.152,133.52 C142.528,124.544 150.72,116.984 160.512,113.776 C164.273734,112.651859 168.117378,111.82268 172.008,111.296 C174.64,110.872 177.36,110.432 179.96,109.808 C191.92,106.936 197.944,99.04 195.68,89.2 C194.648,84.744 191.888,81.144 188.96,77.328 C186.632,74.304 184.24,71.176 182.792,67.592 C182.792,67.592 182.792,67.528 182.792,67.496 C181.424,62.608 183.368,57.896 185.256,53.368 C185.696,52.304 186.112,51.296 186.496,50.28 C188.096,45.936 189.576,41.264 189.328,36.544 C189.032,30.944 185.28,24.896 179.776,21.224 C171.176,15.472 155.304,10.336 148.576,17.56 C148.003032,18.2107539 147.468779,18.894598 146.976,19.608 C146.301914,20.5690934 145.547186,21.4710204 144.72,22.304 C141.929641,24.8502661 138.128628,25.9817305 134.4,25.376 C130.529133,24.7173368 127.186591,22.2917754 125.36,18.816 C125.252596,18.5997958 125.236131,18.3496142 125.314273,18.1211988 C125.392415,17.8927833 125.558672,17.7051119 125.776,17.6 C125.993383,17.4922696 126.244732,17.4755955 126.47444,17.5536664 C126.704149,17.6317373 126.893283,17.798118 127,18.016 C128.498198,20.9182828 131.260337,22.959278 134.474619,23.5391339 C137.688902,24.1189898 140.990105,23.1718203 143.408,20.976 C144.157173,20.2151623 144.842172,19.3936987 145.456,18.52 C145.995244,17.7542629 146.577513,17.0197484 147.2,16.32 C155.472,7.456 173.384,14.776 180.8,19.704 C186.76,23.704 190.832,30.264 191.16,36.448 C191.424,41.504 189.904,46.392 188.208,50.92 C187.824,51.968 187.408,53.032 186.952,54.072 C185.192,58.312 183.368,62.688 184.552,66.96 C185.904,70.296 188.216,73.304 190.456,76.216 C193.368,80.016 196.384,83.944 197.504,88.792 C199.976,99.552 193.28,108.496 180.432,111.584 C177.768,112.224 175.016,112.672 172.352,113.096 C168.562227,113.605207 164.817663,114.407613 161.152,115.496 C151.872,118.528 144.12,125.68 140.928,134.144 C137.24,143.936 148.752,154.144 152.368,157.04 C152.651132,157.285956 152.754826,157.680168 152.629356,158.033602 C152.503887,158.387036 152.17484,158.627624 151.8,158.64 L151.72,158.680008 Z" id="Path" fill="#FFFFFF" opacity="0.7"></path>
                    <path d="M97.6,58.944 C96.568,60.664 96.336,66.144 96.864,71.328 C98.912,69.264 100.4,66.36 102.304,64.28 L102.704,63.848 C100.592,60.872 98.192,57.888 97.6,58.944 Z" id="Path" fill="#000000" opacity="0.2"></path>
                    <path d="M96.984,39.296 C96.984,39.296 92.184,58.888 105.832,91.296 L142.4,84.8 C141.776,79.816 133.92,57.2 135.2,32.976 C131.069299,32.5064911 126.898701,32.5064911 122.768,32.976 C117.535055,33.6374282 112.339041,34.5639527 107.2,35.752 C103.717161,36.6968066 100.303711,37.8809557 96.984,39.296 L96.984,39.296 Z" id="Path" fill="#3E3CDA"></path>
                    <path d="M96.984,39.296 C96.984,39.296 92.184,58.888 105.832,91.296 L142.4,84.8 C141.776,79.816 133.92,57.2 135.2,32.976 C131.069299,32.5064911 126.898701,32.5064911 122.768,32.976 C117.535055,33.6374282 112.339041,34.5639527 107.2,35.752 C103.717161,36.6968066 100.303711,37.8809557 96.984,39.296 L96.984,39.296 Z" id="Path" fill="#FFFFFF" opacity="0.8"></path>
                    <path d="M130.968,51.272 C132.563839,53.2714889 134.389766,55.0759343 136.408,56.648 C136.168,54.976 135.944,53.264 135.76,51.52 L130.968,51.272 Z" id="Path" fill="#000000" opacity="0.2"></path>
                    <path d="M105.832,91.336 C105.832,91.336 87.304,112.856 88.816,131.432 C90.416,150.76 110.528,182.432 110.528,182.432 L122.752,176.304 C122.752,176.304 114.752,143.016 108.544,133.344 C115.312,122.072 124.248,108.616 130.416,87.984 C119.12,90 105.832,91.336 105.832,91.336 Z" id="Path" fill="#3E3CDA"></path>
                    <path d="M105.832,91.336 C105.832,91.336 87.304,112.856 88.816,131.432 C90.416,150.76 110.528,182.432 110.528,182.432 L122.752,176.304 C122.752,176.304 114.752,143.016 108.544,133.344 C115.312,122.072 124.248,108.616 130.416,87.984 C119.12,90 105.832,91.336 105.832,91.336 Z" id="Path" fill="#FFFFFF" opacity="0.8"></path>
                    <path d="M123.2,102.6 C119.84,105.136 117.792,112.592 117.736,117.8 C120.575727,112.715793 123.126444,107.475472 125.376,102.104 C124.613084,101.948324 123.820089,102.129081 123.2,102.6 Z" id="Path" fill="#000000" opacity="0.2"></path>
                    <path d="M110.856,181.28 L121.256,174.936 C121.597495,174.770023 122.008616,174.866954 122.24,175.168 L126.68,182.832 C126.969441,183.140598 127.105722,183.562456 127.051529,183.982065 C126.997336,184.401673 126.758347,184.775065 126.4,185 C123.336,186.6 123.104,186.456 119.288,188.552 C116.944,189.848 112.256,192.784 109.016,194.568 C105.776,196.352 103.552,193.16 104.512,191.912 C108.072,187.312 109.056,185.512 109.896,182.504 C110.038548,181.983588 110.384543,181.542444 110.856,181.28 L110.856,181.28 Z" id="Path" fill="#3E3CDA"></path>
                    <path d="M110.856,181.28 L121.256,174.936 C121.597495,174.770023 122.008616,174.866954 122.24,175.168 L126.68,182.832 C126.969441,183.140598 127.105722,183.562456 127.051529,183.982065 C126.997336,184.401673 126.758347,184.775065 126.4,185 C123.336,186.6 123.104,186.456 119.288,188.552 C116.944,189.848 112.256,192.784 109.016,194.568 C105.776,196.352 103.552,193.16 104.512,191.912 C108.072,187.312 109.056,185.512 109.896,182.504 C110.038548,181.983588 110.384543,181.542444 110.856,181.28 L110.856,181.28 Z" id="Path" fill="#FFFFFF" opacity="0.8"></path>
                    <polygon id="Path" fill="#3E3CDA" points="192.264 193.312 131.32 255.72 120.832 234.456 170.76 183.328"></polygon>
                    <polygon id="Path" fill="#000000" opacity="0.4" points="192.264 193.312 131.32 255.72 120.832 234.456 170.76 183.328"></polygon>
                    <polygon id="Path" fill="#3E3CDA" points="185.128 207.648 145.488 248.248 127.736 223.744 160.216 190.488"></polygon>
                    <polygon id="Path" fill="#000000" opacity="0.3" points="185.128 207.648 145.488 248.248 127.736 223.744 160.216 190.488"></polygon>
                    <path d="M73.128,194.696 C73.128,194.696 88.728,211.312 102.128,225.768 C105.926294,229.970156 107.208529,235.872704 105.496,241.272 C102.4,251.672 106.936,270.016 106.936,270.016 C92.112,257.376 52.304,246.32 73.128,194.696 Z" id="Path" fill="#3E3CDA"></path>
                    <path d="M73.128,194.696 C73.128,194.696 88.728,211.312 102.128,225.768 C105.926294,229.970156 107.208529,235.872704 105.496,241.272 C102.4,251.672 106.936,270.016 106.936,270.016 C92.112,257.376 52.304,246.32 73.128,194.696 Z" id="Path" fill="#000000" opacity="0.3"></path>
                    <path d="M129.88,136.584 C129.88,136.584 146.864,151.784 161.632,164.84 C165.922895,168.534986 171.851644,169.676887 177.208,167.84 C187.496,164.496 206.008,168.6 206.008,168.6 C192.992,154.08 181,114.544 129.88,136.584 Z" id="Path" fill="#3E3CDA"></path>
                    <path d="M129.88,136.584 C129.88,136.584 146.864,151.784 161.632,164.84 C165.922895,168.534986 171.851644,169.676887 177.208,167.84 C187.496,164.496 206.008,168.6 206.008,168.6 C192.992,154.08 181,114.544 129.88,136.584 Z" id="Path" fill="#000000" opacity="0.3"></path>
                    <path d="M90.96,96.528 C57.56,67.448 21.504,58.408 6.96,73.328 C-7.584,88.248 2.312,124.064 32.168,156.76 L106.248,237.88 C109.189816,241.097216 113.326462,242.961295 117.685301,243.033943 C122.04414,243.10659 126.240608,241.381396 129.288,238.264 L174.752,191.712 C177.797601,188.591882 179.423192,184.354817 179.246085,179.998275 C179.068977,175.641733 177.104818,171.550604 173.816,168.688 L90.96,96.528 Z" id="Path" fill="#3E3CDA"></path>
                    <path d="M130.232,226.008 C131.064262,226.422717 131.649244,227.209028 131.807234,228.125373 C131.965225,229.041719 131.677333,229.978526 131.032,230.648 L131.032,230.648 C126.152,235.688 116.912,234.408 110.824,227.84 L37.328,148.64 C22.56,132.728 12.056,116.64 6.616,103.128 C5.016,99.128 10.568,96.32 12.88,99.928 C20.248,111.44 31.232,125.184 44.984,139.512 L122.344,220 C124.62407,222.423906 127.289376,224.453972 130.232,226.008 Z" id="Path" fill="#FFFFFF" opacity="0.1"></path>
                    <path d="M37.68,67.432 C30.208,67.16 20.824,71.432 13.112,79.32 C5.4,87.208 1.368,96.696 1.808,104.168 C-1.208,91.088 0.368,80.056 6.952,73.304 C13.536,66.552 24.536,64.72 37.68,67.432 Z" id="Path" fill="#000000" opacity="0.1"></path>
                    <circle id="Oval" fill="#000000" opacity="0.3" transform="translate(62.942053, 128.014981) rotate(-1.140000) translate(-62.942053, -128.014981) " cx="62.9420535" cy="128.014981" r="28.376"></circle>
                    <circle id="Oval" fill="#FFFFFF" transform="translate(62.011468, 127.070396) rotate(-51.920000) translate(-62.011468, -127.070396) " cx="62.0114679" cy="127.070396" r="28.376"></circle>
                    <circle id="Oval" fill="#3E3CDA" opacity="0.7" transform="translate(62.008403, 127.090369) rotate(-48.920000) translate(-62.008403, -127.090369) " cx="62.008403" cy="127.090369" r="25.672"></circle>
                    <g id="Group" opacity="0.2" transform="translate(37.600000, 101.600000)" fill="#FFFFFF">
                        <path d="M6.048,7.528 C3.60322412,10.0107514 1.69683857,12.9710958 0.448,16.224 L0.448,16.224 L12.736,48.336 C17.6997895,50.8581871 23.3483392,51.7004162 28.832,50.736 L10.832,3.68 C9.08874257,4.76610936 7.48252785,6.05806468 6.048,7.528 Z" id="Path"></path>
                        <path d="M12.72,2.616 L30.952,50.288 C33.7579607,49.5536862 36.4195018,48.3500421 38.824,46.728 L20.984,0 C18.0984507,0.386066633 15.3020803,1.27126811 12.72,2.616 L12.72,2.616 Z" id="Path"></path>
                    </g>
                    <path d="M158.312,183.52 L163.744,172.68 C163.946503,172.362612 164.342902,172.229368 164.696,172.36 L172.376,175.96 C172.784286,176.068375 173.122866,176.353378 173.299297,176.737194 C173.475729,177.12101 173.471586,177.563554 173.288,177.944 C171.56,180.92 171.424,181.448 169.288,185.232 C167.992,187.56 165.584,192.512 163.792,195.728 C162,198.944 158.424,197.416 158.576,195.856 C159.144,190.088 159,188.024 158.128,185.064 C157.976697,184.545736 158.04314,183.988193 158.312,183.52 L158.312,183.52 Z" id="Path" fill="#3E3CDA"></path>
                    <path d="M158.312,183.52 L163.744,172.68 C163.946503,172.362612 164.342902,172.229368 164.696,172.36 L172.376,175.96 C172.784286,176.068375 173.122866,176.353378 173.299297,176.737194 C173.475729,177.12101 173.471586,177.563554 173.288,177.944 C171.56,180.92 171.424,181.448 169.288,185.232 C167.992,187.56 165.584,192.512 163.792,195.728 C162,198.944 158.424,197.416 158.576,195.856 C159.144,190.088 159,188.024 158.128,185.064 C157.976697,184.545736 158.04314,183.988193 158.312,183.52 L158.312,183.52 Z" id="Path" fill="#FFFFFF" opacity="0.8"></path>
                    <path d="M118.792,89.032 C118.792,89.032 118.864,123.08 126.184,139.536 C134.2,157.6 158.808,185.6 158.808,185.6 L168.088,176.28 C168.088,176.28 156.384,150.68 145.52,136.992 C145.296,120.128 147.12,101.728 142.64,86.44 C134.766291,87.8965702 126.794782,88.7629805 118.792,89.032 L118.792,89.032 Z" id="Path" fill="#3E3CDA"></path>
                    <path d="M118.792,89.032 C118.792,89.032 118.864,123.08 126.184,139.536 C134.2,157.6 158.808,185.6 158.808,185.6 L168.088,176.28 C168.088,176.28 156.384,150.68 145.52,136.992 C145.296,120.128 147.12,101.728 142.64,86.44 C134.766291,87.8965702 126.794782,88.7629805 118.792,89.032 L118.792,89.032 Z" id="Path" fill="#FFFFFF" opacity="0.8"></path>
                    <path d="M141.456,89.048 C124.488,92.968 111.712,93.368 106.504,93.328 C105.837274,93.3296356 105.199915,93.0538505 104.74467,92.5667384 C104.289425,92.0796263 104.057327,91.4250923 104.104,90.76 L104.104,90.76 C104.164396,89.4628129 105.245612,88.4489515 106.544,88.472 C117.941452,88.3626025 129.29032,86.9698235 140.376,84.32 C140.996698,84.1711093 141.651137,84.2756111 142.194601,84.6103966 C142.738064,84.9451822 143.125776,85.4826687 143.272,86.104 L143.272,86.104 C143.434721,86.7359894 143.333064,87.4069925 142.990448,87.962423 C142.647832,88.5178535 142.093803,88.9098125 141.456,89.048 Z" id="Path" fill="#252482"></path>
                    <path d="M160.272,53.552 C158.832,50.248 156.832,48.056 154.136,45.736 C148.8,41.12 140,33.968 135.2,33.008 L129.368,51.832 L144.696,57.488 C147.728,59.648 148.408,61.072 149.304,64.584 C149.84,66.648 150.232,68.848 150.616,71.088 C151.328,75.56 151.824,80.32 152.296,84.912 L160.296,85.6 C160.885653,83.1213493 161.347595,80.6140457 161.68,78.088 C162.008,75.584 162.256,73.048 162.352,70.472 C162.476428,67.837276 162.433676,65.1973134 162.224,62.568 C162.064653,59.4769517 161.405442,56.4321526 160.272,53.552 L160.272,53.552 Z" id="Path" fill="#3E3CDA"></path>
                    <path d="M160.272,53.552 C158.832,50.248 156.832,48.056 154.136,45.736 C148.8,41.12 140,33.968 135.2,33.008 L129.368,51.832 L144.696,57.488 C147.728,59.648 148.408,61.072 149.304,64.584 C149.84,66.648 150.232,68.848 150.616,71.088 C151.328,75.56 151.824,80.32 152.296,84.912 L160.296,85.6 C160.885653,83.1213493 161.347595,80.6140457 161.68,78.088 C162.008,75.584 162.256,73.048 162.352,70.472 C162.476428,67.837276 162.433676,65.1973134 162.224,62.568 C162.064653,59.4769517 161.405442,56.4321526 160.272,53.552 L160.272,53.552 Z" id="Path" fill="#FFFFFF" opacity="0.8"></path>
                    <path d="M162.704,73.176 L150.08,73.176 C150.08,73.176 149.208,93.048 154.344,94.856 C159.656,96.752 162.024,83.88 162.704,73.176 Z" id="Path" fill="#252482"></path>
                    <path d="M153.648,84.944 L150.4,81.296 C150.4,81.296 147.368,89.592 149.216,90.616 C151.064,91.64 152.6,89.6 153.648,84.944 Z" id="Path" fill="#252482"></path>
                    <path d="M122.728,32.992 C117.508757,33.6494795 112.32613,34.5706575 107.2,35.752 C105.24,36.264 103.352,36.88 101.728,37.448 C105.21896,38.7222336 108.975892,39.091046 112.648,38.52 C113.959775,38.302754 115.240868,37.9294376 116.464,37.408 C119.983828,36.5250428 123.280732,34.9174613 126.144,32.688 C125.016,32.744 123.864,32.84 122.728,32.992 Z" id="Path" fill="#000000" opacity="0.2"></path>
                    <path d="M116.52,18.216 C116.44,22.768 117.016,31.016 120.616008,33.368 C120.616008,33.368 120.664,35.36 113.224,36.664 C107.152,37.728 106.944,35.8 106.944,35.8 C111.64,33.752 110.864,30.136 109.4,26.872 L116.52,18.216 Z" id="Path" fill="#FFB573"></path>
                    <path d="M113.6,21.744 L109.392,26.872 C109.740397,27.6279662 110.024079,28.4121072 110.24,29.216 C112.072,28.616 114.28,26.104 114.128,24.104 C114.093737,23.2921947 113.914937,22.4930104 113.6,21.744 L113.6,21.744 Z" id="Path" fill="#000000" opacity="0.2"></path>
                    <path d="M102.608,17.72 C100.456,14.8 98.024,10.568 99.072,8.472 C100.12,6.376 104.488,5.152 106.472,6.688 C108.96,8.632 107.144,14.672 102.608,17.72 Z" id="Path" fill="#252482"></path>
                    <path d="M116.8,12 C116.984,18.056 117.4,21.6 114.64,24.968 C110.488,30.04 102.8,27.96 100.808,22.08 C99.024,16.8 99.032,7.744 104.704,4.8 C107.247025,3.47375671 110.295565,3.55943447 112.760088,5.02641258 C115.224611,6.49339068 116.753372,9.13229617 116.8,12 L116.8,12 Z" id="Path" fill="#FFB573"></path>
                    <path d="M116.592,17.656 C113.904,15.256 110.68,11.552 111.296,9.288 C111.912,7.024 115.944,4.96 118.192,6.088 C121.016,7.48 120.432,13.768 116.592,17.656 Z" id="Path" fill="#252482"></path>
                    <path d="M113.6,8.912 C109.464,10.056 97.768,12.36 99.408,7.432 C101.048,2.504 107.48,1.568 109.808,2.632 C112.136,3.696 113.976,0.88 113.976,0.88 C114.312,1.68 112.528,3.88 109.976,4.24 C107.424,4.6 121,2.24 117.44,7.072 C113.88,11.904 113.6,8.912 113.6,8.912 Z" id="Path" fill="#252482"></path>
                    <path d="M120.136,18.4 C119.445734,19.7590111 118.242268,20.7868519 116.792,21.256 C114.872,21.872 113.84,20.168 114.312,18.312 C114.736,16.64 116.256,14.312 118.216,14.512 C119.08571,14.6138308 119.844674,15.1491887 120.232395,15.9343235 C120.620116,16.7194584 120.583833,17.6475309 120.136,18.4 L120.136,18.4 Z" id="Path" fill="#FFB573"></path>
                    <path d="M107.824,14.496 C107.872,14.984 107.648,15.408 107.328,15.44 C107.008,15.472 106.712,15.096 106.664,14.64 C106.616,14.184 106.84,13.728 107.16,13.704 C107.48,13.68 107.776,14.008 107.824,14.496 Z" id="Path" fill="#252482"></path>
                    <path d="M102.28,15.008 C102.328,15.496 102.104,15.92 101.784,15.944 C101.464,15.968 101.16,15.6 101.12,15.144 C101.08,14.688 101.296,14.232 101.616,14.2 C101.936,14.168 102.232,14.512 102.28,15.008 Z" id="Path" fill="#252482"></path>
                    <path d="M104.064,15.088 C103.617146,16.6407168 102.957556,18.1241218 102.104,19.496 C102.829997,19.926588 103.71086,20.0088018 104.504,19.72 L104.064,15.088 Z" id="Path" fill="#ED893E"></path>
                    <path d="M108.48,19.952 C107.801769,20.5227925 106.963306,20.8693573 106.08,20.944 C106.000471,20.944 105.936,20.879529 105.936,20.8 C105.936,20.720471 106.000471,20.656 106.08,20.656 C107.321385,20.5720553 108.448015,19.9002395 109.112,18.848 C109.128897,18.8139728 109.159257,18.7885644 109.195729,18.7779268 C109.232201,18.7672892 109.271459,18.7723921 109.304,18.792 C109.374294,18.827691 109.40282,18.913271 109.368,18.984 C109.131227,19.3563754 108.830621,19.6840632 108.48,19.952 L108.48,19.952 Z" id="Path" fill="#252482"></path>
                    <path d="M109.488,12.488 C109.376413,12.5956942 109.199587,12.5956942 109.088,12.488 C108.609919,11.9288079 107.893533,11.6315525 107.16,11.688 C107.083474,11.7018495 107.004599,11.6841615 106.941315,11.6389589 C106.878031,11.5937562 106.835718,11.5248816 106.824,11.448 C106.799777,11.2894796 106.906192,11.1404984 107.064,11.112 C107.992425,11.0203351 108.907737,11.3840748 109.52,12.088 C109.574227,12.1420389 109.604707,12.2154444 109.604707,12.292 C109.604707,12.3685556 109.574227,12.4419611 109.52,12.496 L109.488,12.488 Z" id="Path" fill="#252482"></path>
                    <path d="M99.84,13.256 C99.759826,13.3230827 99.6495968,13.3414542 99.552,13.304 C99.479871,13.2788669 99.4211405,13.2253578 99.3894195,13.1558737 C99.3576985,13.0863896 99.3557408,13.0069625 99.384,12.936 C99.6932473,12.0561689 100.408328,11.3798222 101.304,11.12 C101.405463,11.0985641 101.510655,11.1328865 101.579951,11.2100385 C101.649247,11.2871904 101.672119,11.3954506 101.639951,11.4940385 C101.607784,11.5926264 101.525463,11.6665641 101.424,11.688 C100.718839,11.9004773 100.159069,12.4394048 99.92,13.136 C99.9028121,13.1815664 99.8754506,13.2226087 99.84,13.256 L99.84,13.256 Z" id="Path" fill="#252482"></path>
                    <path d="M130.008,15.904 C131.88,25.8 126.08,35.16 116.936,37.352 C116.584,37.432 116.224,37.504 115.864,37.568 C111.455361,38.3223917 106.92508,37.3636779 103.2,34.888 C110.171774,36.6228172 117.425676,33.3641244 120.759082,26.9998783 C124.092489,20.6356323 122.640533,12.8170654 117.244421,8.07394415 C111.848309,3.33082289 103.908085,2.89377143 98.024,7.016 C99.8154475,4.61012384 102.203356,2.71303265 104.952,1.512 L104.952,1.512 C106.185389,0.981149875 107.476925,0.597179894 108.8,0.368 C118.568,-1.328 128.056,5.6 130.008,15.904 Z" id="Path" fill="#3E3CDA"></path>
                    <path d="M130.008,15.904 C131.88,25.8 126.08,35.16 116.936,37.352 C116.584,37.432 116.224,37.504 115.864,37.568 C111.455361,38.3223917 106.92508,37.3636779 103.2,34.888 C110.171774,36.6228172 117.425676,33.3641244 120.759082,26.9998783 C124.092489,20.6356323 122.640533,12.8170654 117.244421,8.07394415 C111.848309,3.33082289 103.908085,2.89377143 98.024,7.016 C99.8154475,4.61012384 102.203356,2.71303265 104.952,1.512 L104.952,1.512 C106.185389,0.981149875 107.476925,0.597179894 108.8,0.368 C118.568,-1.328 128.056,5.6 130.008,15.904 Z" id="Path" fill="#FFFFFF" opacity="0.8"></path>
                    <path d="M126.4,17.104 C128.152,25.952 124.056,34.264 116.976,37.352 C115.832785,37.8425643 114.634917,38.1944046 113.408,38.4 C107.632,39.344 101.904,36.92 97.944,32.448 C104.388243,37.0553135 113.264167,36.0918183 118.569696,30.2090492 C123.875224,24.3262802 123.920158,15.398327 118.674114,9.46245157 C113.428069,3.52657614 104.562292,2.47378641 98.072,7.016 C96.5561572,8.06637594 95.2441161,9.38383871 94.2,10.904 C96.0964877,6.23034707 100.10837,2.74149492 105,1.512 L105,1.512 C105.344,1.432 105.688,1.368 106.032,1.304 C115.2,-0.224 124.336,6.864 126.4,17.104 Z" id="Path" fill="#3E3CDA"></path>
                    <path d="M126.4,17.104 C128.152,25.952 124.056,34.264 116.976,37.352 C115.832785,37.8425643 114.634917,38.1944046 113.408,38.4 C107.632,39.344 101.904,36.92 97.944,32.448 C104.388243,37.0553135 113.264167,36.0918183 118.569696,30.2090492 C123.875224,24.3262802 123.920158,15.398327 118.674114,9.46245157 C113.428069,3.52657614 104.562292,2.47378641 98.072,7.016 C96.5561572,8.06637594 95.2441161,9.38383871 94.2,10.904 C96.0964877,6.23034707 100.10837,2.74149492 105,1.512 L105,1.512 C105.344,1.432 105.688,1.368 106.032,1.304 C115.2,-0.224 124.336,6.864 126.4,17.104 Z" id="Path" fill="#FFFFFF" opacity="0.6"></path>
                    <path d="M122.528,19.032 C122.937851,27.6241551 116.305138,34.9218893 107.713014,35.3323934 C99.1208897,35.7428975 91.8226511,29.1107395 91.4114935,20.5186469 C91.0003358,11.9265542 97.6319386,4.62781117 106.224,4.216 C110.35089,4.01820118 114.387289,5.46815003 117.444989,8.2467862 C120.502689,11.0254224 122.331143,14.9050646 122.528,19.032 Z" id="Path" fill="#3E3CDA" opacity="0.2"></path>
                    <path d="M91.408,20.52 C91.8188999,29.1135507 99.1184493,35.7468999 107.712,35.336 C116.305551,34.9251001 122.9389,27.6255507 122.528,19.032 C115.536,17.456 98.624,16.352 91.408,20.52 Z" id="Path" fill="#3E3CDA" opacity="0.2"></path>
                    <path d="M124.88,56.856 C117.742938,57.2842376 110.646709,58.2334318 103.648,59.696 L103.256,59.336 L124.12,45.056 L124.504,45.416 C124.504,45.416 124.672,53.064 124.88,56.856 Z" id="Path" fill="#000000" opacity="0.2"></path>
                    <path d="M124.496,56.496 C117.356344,56.9247578 110.257494,57.873945 103.256,59.336 C102.864,55.504 102.56,51.648 102.368,47.76 C109.547364,46.3564316 116.8155,45.4529266 124.12,45.056 C124.162667,48.8906667 124.288,52.704 124.496,56.496 Z" id="Path" fill="#FFFFFF"></path>
                    <path d="M119.944,48.752 C119.939773,49.5358479 119.322023,50.1788857 118.538975,50.2145393 C117.755927,50.2501929 117.082296,49.6659541 117.006855,48.8857336 C116.931413,48.1055132 117.480628,47.4030342 118.256,47.288 C119.122665,47.2372353 119.871693,47.8868656 119.944,48.752 Z" id="Path" fill="#3E3CDA" opacity="0.3"></path>
                    <path d="M120.072,53.304 C120.068388,54.0890436 119.449336,54.7331056 118.665051,54.7677906 C117.880766,54.8024756 117.207275,54.2155762 117.134376,53.4339163 C117.061477,52.6522564 117.614826,51.9509396 118.392,51.84 C119.255641,51.7937307 119.999724,52.4421454 120.072,53.304 Z" id="Path" fill="#3E3CDA" opacity="0.3"></path>
                    <path d="M105.88,56.064 C108.466623,55.6014431 111.075442,55.2730042 113.696,55.08 C111.96,52.68 109.36,48.576 109.36,48.576 C108.061911,51.0054713 106.900113,53.5053411 105.88,56.064 L105.88,56.064 Z" id="Path" fill="#3E3CDA"></path>
                </g>
            </g>
        </g>
    </g>
</svg>