<?xml version="1.0" encoding="UTF-8"?>
<svg width="390px" height="368px" viewBox="0 0 390 368" version="1.1" xmlns="http://www.w3.org/2000/svg" xmlns:xlink="http://www.w3.org/1999/xlink">
    <!-- Generator: Sketch 63.1 (92452) - https://sketch.com -->
    <title>Job hunt-rafiki</title>
    <desc>Created with Sketch.</desc>
    <g id="Page-1" stroke="none" stroke-width="1" fill="none" fill-rule="evenodd">
        <g id="Job-hunt-rafiki" fill-rule="nonzero">
            <g id="freepik--background-simple--inject-92" transform="translate(14.000000, 35.000000)" fill="#3E3CDA" opacity="0.0760583212">
                <path d="M293.08,20.91 C231.83,-25.09 212.08,18.6 159.08,36.77 C116.81,51.25 56,32.64 20.92,66.59 C-9.65,96.16 -1.67,159.66 20.67,191.16 C47.9,229.53 97.4,234.16 140.96,215.71 C174.15,201.63 196.46,146.41 233.42,148.1 C275.95,150.1 277.91,203.29 322.33,200.34 C437.93,192.65 335.62,52.84 293.08,20.91 Z" id="Path"></path>
            </g>
            <g id="freepik--Shadow--inject-92" transform="translate(0.000000, 344.000000)" fill="#E1DFFF" opacity="0.368323038">
                <ellipse id="freepik--path--inject-92" cx="194" cy="12.24" rx="193.89" ry="11.32"></ellipse>
            </g>
            <g id="freepik--Briefcases--inject-92" transform="translate(28.000000, 0.000000)">
                <rect id="Rectangle" fill="#3E3CDA" x="96.47" y="202.73" width="64.21" height="28.6" rx="1.56"></rect>
                <rect id="Rectangle" fill="#FFFFFF" opacity="0.6" x="96.47" y="202.73" width="64.21" height="28.6" rx="1.56"></rect>
                <path d="M159.11,202.73 L98,202.73 C97.1384358,202.73 96.44,203.428436 96.44,204.29 L96.44,212.46 L128.24,218.72 C128.434646,218.759873 128.635354,218.759873 128.83,218.72 L160.64,212.46 L160.64,204.29 C160.64,203.440017 159.959826,202.746346 159.11,202.73 Z" id="Path" fill="#000000" opacity="0.1"></path>
                <path d="M160.45,192.27 L141.79,192.27 L141.79,189.14 C141.784499,186.447132 139.602868,184.265501 136.91,184.26 L120.24,184.26 C117.547132,184.265501 115.365501,186.447132 115.36,189.14 L115.36,192.27 L96.71,192.27 C95.8594815,192.27 95.17,192.959481 95.17,193.81 L95.17,209.22 C95.1741105,209.953283 95.6915188,210.583353 96.41,210.73 L128.28,217 C128.475516,217.03008 128.674484,217.03008 128.87,217 L160.74,210.73 C161.460364,210.583994 161.98109,209.954957 161.99,209.22 L161.99,193.81 C161.99,192.959481 161.300519,192.27 160.45,192.27 L160.45,192.27 Z M119.07,189.14 C119.075335,188.494408 119.594477,187.970829 120.24,187.96 L136.91,187.96 C137.555523,187.970829 138.074665,188.494408 138.08,189.14 L138.08,192.27 L119.08,192.27 L119.07,189.14 Z" id="Shape" fill="#3E3CDA"></path>
                <path d="M160.45,192.27 L141.79,192.27 L141.79,189.14 C141.784499,186.447132 139.602868,184.265501 136.91,184.26 L120.24,184.26 C117.547132,184.265501 115.365501,186.447132 115.36,189.14 L115.36,192.27 L96.71,192.27 C95.8594815,192.27 95.17,192.959481 95.17,193.81 L95.17,209.22 C95.1741105,209.953283 95.6915188,210.583353 96.41,210.73 L128.28,217 C128.475516,217.03008 128.674484,217.03008 128.87,217 L160.74,210.73 C161.460364,210.583994 161.98109,209.954957 161.99,209.22 L161.99,193.81 C161.99,192.959481 161.300519,192.27 160.45,192.27 L160.45,192.27 Z M119.07,189.14 C119.075335,188.494408 119.594477,187.970829 120.24,187.96 L136.91,187.96 C137.555523,187.970829 138.074665,188.494408 138.08,189.14 L138.08,192.27 L119.08,192.27 L119.07,189.14 Z" id="Shape" fill="#FFFFFF" opacity="0.6"></path>
                <rect id="Rectangle" fill="#3E3CDA" x="123.81" y="212.79" width="9.54" height="7.12" rx="1.48"></rect>
                <rect id="Rectangle" fill="#FFFFFF" opacity="0.3" x="123.81" y="212.79" width="9.54" height="7.12" rx="1.48"></rect>
                <rect id="Rectangle" fill="#3E3CDA" x="96.47" y="18.77" width="64.21" height="28.6" rx="1.56"></rect>
                <rect id="Rectangle" fill="#FFFFFF" opacity="0.6" x="96.47" y="18.77" width="64.21" height="28.6" rx="1.56"></rect>
                <path d="M159.11,18.77 L98,18.77 C97.1384358,18.77 96.44,19.4684358 96.44,20.33 L96.44,28.5 L128.24,34.76 C128.434646,34.7998727 128.635354,34.7998727 128.83,34.76 L160.64,28.5 L160.64,20.33 C160.64,19.4800168 159.959826,18.7863458 159.11,18.77 Z" id="Path" fill="#000000" opacity="0.1"></path>
                <path d="M160.45,8.31 L141.79,8.31 L141.79,5.18 C141.784499,2.48713242 139.602868,0.305501279 136.91,0.3 L120.24,0.3 C117.547132,0.305501279 115.365501,2.48713242 115.36,5.18 L115.36,8.31 L96.71,8.31 C96.3015666,8.31 95.9098616,8.47224953 95.6210556,8.76105556 C95.3322495,9.04986158 95.17,9.44156661 95.17,9.85 L95.17,25.26 C95.17,25.994676 95.6893989,26.6268813 96.41,26.77 L128.28,33 C128.474646,33.0398727 128.675354,33.0398727 128.87,33 L160.74,26.73 C161.452014,26.5948257 161.975312,25.9843111 162,25.26 L162,9.85 C162,9.43982808 161.836387,9.04659993 161.545415,8.75750472 C161.254442,8.46840951 160.860163,8.30733655 160.45,8.31 L160.45,8.31 Z M119.07,5.18 C119.07,4.53218935 119.592213,4.00548992 120.24,4 L136.91,4 C137.553909,4.00543412 138.074566,4.52609116 138.08,5.17 L138.08,8.3 L119.08,8.3 L119.07,5.18 Z" id="Shape" fill="#3E3CDA"></path>
                <path d="M160.45,8.31 L141.79,8.31 L141.79,5.18 C141.784499,2.48713242 139.602868,0.305501279 136.91,0.3 L120.24,0.3 C117.547132,0.305501279 115.365501,2.48713242 115.36,5.18 L115.36,8.31 L96.71,8.31 C96.3015666,8.31 95.9098616,8.47224953 95.6210556,8.76105556 C95.3322495,9.04986158 95.17,9.44156661 95.17,9.85 L95.17,25.26 C95.17,25.994676 95.6893989,26.6268813 96.41,26.77 L128.28,33 C128.474646,33.0398727 128.675354,33.0398727 128.87,33 L160.74,26.73 C161.452014,26.5948257 161.975312,25.9843111 162,25.26 L162,9.85 C162,9.43982808 161.836387,9.04659993 161.545415,8.75750472 C161.254442,8.46840951 160.860163,8.30733655 160.45,8.31 L160.45,8.31 Z M119.07,5.18 C119.07,4.53218935 119.592213,4.00548992 120.24,4 L136.91,4 C137.553909,4.00543412 138.074566,4.52609116 138.08,5.17 L138.08,8.3 L119.08,8.3 L119.07,5.18 Z" id="Shape" fill="#FFFFFF" opacity="0.6"></path>
                <rect id="Rectangle" fill="#3E3CDA" x="123.81" y="28.84" width="9.54" height="7.12" rx="1.48"></rect>
                <rect id="Rectangle" fill="#FFFFFF" opacity="0.3" x="123.81" y="28.84" width="9.54" height="7.12" rx="1.48"></rect>
                <rect id="Rectangle" fill="#3E3CDA" x="1.31" y="202.73" width="64.21" height="28.6" rx="1.56"></rect>
                <rect id="Rectangle" fill="#FFFFFF" opacity="0.6" x="1.31" y="202.73" width="64.21" height="28.6" rx="1.56"></rect>
                <path d="M64,202.73 L2.87,202.73 C2.00843579,202.73 1.31,203.428436 1.31,204.29 L1.31,212.46 L33.11,218.72 C33.3080134,218.759866 33.5119866,218.759866 33.71,218.72 L65.5200001,212.46 L65.5200001,204.29 C65.5200001,203.443818 64.8459038,202.751697 64,202.73 Z" id="Path" fill="#000000" opacity="0.1"></path>
                <path d="M65.28,192.27 L46.62,192.27 L46.62,189.14 C46.6144987,186.447132 44.4328676,184.265501 41.74,184.26 L25.08,184.26 C22.3871324,184.265501 20.2055013,186.447132 20.2,189.14 L20.2,192.27 L1.54,192.27 C0.689481485,192.27 0,192.959481 0,193.81 L0,209.22 C0.00411052246,209.953283 0.521518821,210.583353 1.24,210.73 L33.11,217 C33.3088622,217.030171 33.5111378,217.030171 33.71,217 L65.58,210.73 C66.2984812,210.583353 66.8158895,209.953283 66.82,209.22 L66.82,193.81 C66.82,192.959481 66.1305185,192.27 65.28,192.27 L65.28,192.27 Z M23.9,189.14 C23.9106999,188.492788 24.4327878,187.9707 25.08,187.96 L41.74,187.96 C42.3872122,187.9707 42.9093001,188.492788 42.92,189.14 L42.92,192.27 L23.92,192.27 L23.9,189.14 Z" id="Shape" fill="#3E3CDA"></path>
                <path d="M65.28,192.27 L46.62,192.27 L46.62,189.14 C46.6144987,186.447132 44.4328676,184.265501 41.74,184.26 L25.08,184.26 C22.3871324,184.265501 20.2055013,186.447132 20.2,189.14 L20.2,192.27 L1.54,192.27 C0.689481485,192.27 0,192.959481 0,193.81 L0,209.22 C0.00411052246,209.953283 0.521518821,210.583353 1.24,210.73 L33.11,217 C33.3088622,217.030171 33.5111378,217.030171 33.71,217 L65.58,210.73 C66.2984812,210.583353 66.8158895,209.953283 66.82,209.22 L66.82,193.81 C66.82,192.959481 66.1305185,192.27 65.28,192.27 L65.28,192.27 Z M23.9,189.14 C23.9106999,188.492788 24.4327878,187.9707 25.08,187.96 L41.74,187.96 C42.3872122,187.9707 42.9093001,188.492788 42.92,189.14 L42.92,192.27 L23.92,192.27 L23.9,189.14 Z" id="Shape" fill="#FFFFFF" opacity="0.6"></path>
                <rect id="Rectangle" fill="#3E3CDA" x="28.64" y="212.79" width="9.54" height="7.12" rx="1.48"></rect>
                <rect id="Rectangle" fill="#FFFFFF" opacity="0.3" x="28.64" y="212.79" width="9.54" height="7.12" rx="1.48"></rect>
                <rect id="Rectangle" fill="#3E3CDA" x="1.31" y="18.77" width="64.21" height="28.6" rx="1.56"></rect>
                <rect id="Rectangle" fill="#FFFFFF" opacity="0.6" x="1.31" y="18.77" width="64.21" height="28.6" rx="1.56"></rect>
                <path d="M64,18.77 L2.87,18.77 C2.00843579,18.77 1.31,19.4684358 1.31,20.33 L1.31,28.5 L33.11,34.76 C33.3079865,34.8001351 33.5120135,34.8001351 33.71,34.76 L65.5200001,28.5 L65.5200001,20.33 C65.5200001,19.4838181 64.8459038,18.7916969 64,18.77 Z" id="Path" fill="#000000" opacity="0.1"></path>
                <path d="M65.28,8.31 L46.62,8.31 L46.62,5.18 C46.6144987,2.48713242 44.4328676,0.305501279 41.74,0.3 L25.08,0.3 C22.3871324,0.305501279 20.2055013,2.48713242 20.2,5.18 L20.2,8.31 L1.54,8.31 C1.13156661,8.31 0.73986158,8.47224953 0.451055557,8.76105556 C0.162249534,9.04986158 0,9.44156661 0,9.85 L0,25.26 C0,25.994676 0.519398907,26.6268813 1.24,26.77 L33.11,33 C33.3079865,33.0401351 33.5120135,33.0401351 33.71,33 L65.58,26.73 C66.3006011,26.5868813 66.82,25.954676 66.82,25.22 L66.82,9.85 C66.82,8.99948149 66.1305185,8.31 65.28,8.31 Z M23.9,5.18 C23.9054349,4.53056851 24.4305685,4.00543486 25.08,4 L41.74,4 C42.3855918,4.00533451 42.9091714,4.52447693 42.92,5.17 L42.92,8.3 L23.92,8.3 L23.9,5.18 Z" id="Shape" fill="#3E3CDA"></path>
                <path d="M65.28,8.31 L46.62,8.31 L46.62,5.18 C46.6144987,2.48713242 44.4328676,0.305501279 41.74,0.3 L25.08,0.3 C22.3871324,0.305501279 20.2055013,2.48713242 20.2,5.18 L20.2,8.31 L1.54,8.31 C1.13156661,8.31 0.73986158,8.47224953 0.451055557,8.76105556 C0.162249534,9.04986158 0,9.44156661 0,9.85 L0,25.26 C0,25.994676 0.519398907,26.6268813 1.24,26.77 L33.11,33 C33.3079865,33.0401351 33.5120135,33.0401351 33.71,33 L65.58,26.73 C66.3006011,26.5868813 66.82,25.954676 66.82,25.22 L66.82,9.85 C66.82,8.99948149 66.1305185,8.31 65.28,8.31 Z M23.9,5.18 C23.9054349,4.53056851 24.4305685,4.00543486 25.08,4 L41.74,4 C42.3855918,4.00533451 42.9091714,4.52447693 42.92,5.17 L42.92,8.3 L23.92,8.3 L23.9,5.18 Z" id="Shape" fill="#FFFFFF" opacity="0.6"></path>
                <rect id="Rectangle" fill="#3E3CDA" x="28.64" y="28.84" width="9.54" height="7.12" rx="1.48"></rect>
                <rect id="Rectangle" fill="#FFFFFF" opacity="0.3" x="28.64" y="28.84" width="9.54" height="7.12" rx="1.48"></rect>
                <path d="M56,139.35 L2.87,139.35 C2.00291294,139.35 1.3,138.647087 1.3,137.78 L1.3,112.31 C1.30155386,112.099959 1.34578244,111.892425 1.43,111.7 C1.47065277,111.610227 1.51742974,111.523356 1.57,111.44 C1.62567055,111.354424 1.69298324,111.277014 1.77,111.21 C2.06129499,110.917066 2.45688938,110.751636 2.87,110.75 L53.16,110.75 C52.7416253,114.240012 52.6045169,117.758012 52.75,121.27 C52.75,121.84 52.75,122.41 52.84,122.97 C52.91,124.02 52.99,125.08 53.11,126.13 C53.62471,130.622907 54.5929807,135.052159 56,139.35 Z" id="Path" fill="#3E3CDA"></path>
                <path d="M56,139.35 L2.87,139.35 C2.00291294,139.35 1.3,138.647087 1.3,137.78 L1.3,112.31 C1.30155386,112.099959 1.34578244,111.892425 1.43,111.7 C1.47065277,111.610227 1.51742974,111.523356 1.57,111.44 C1.62567055,111.354424 1.69298324,111.277014 1.77,111.21 C2.06129499,110.917066 2.45688938,110.751636 2.87,110.75 L53.16,110.75 C52.7416253,114.240012 52.6045169,117.758012 52.75,121.27 C52.75,121.84 52.75,122.41 52.84,122.97 C52.91,124.02 52.99,125.08 53.11,126.13 C53.62471,130.622907 54.5929807,135.052159 56,139.35 Z" id="Path" fill="#FFFFFF" opacity="0.6"></path>
                <path d="M53.16,110.75 C52.7416253,114.240012 52.6045169,117.758012 52.75,121.27 C52.75,121.84 52.75,122.41 52.84,122.97 L38.18,125.85 L33.7,126.73 C33.5065062,126.77996 33.3034938,126.77996 33.11,126.73 L28.64,125.86 L1.31,120.48 L1.31,112.3 C1.31315914,112.094364 1.35382555,111.891032 1.43,111.7 C1.47065277,111.610227 1.51742974,111.523356 1.57,111.44 C1.62567055,111.354424 1.69298324,111.277014 1.77,111.21 C2.06129499,110.917066 2.45688938,110.751636 2.87,110.75 L53.16,110.75 Z" id="Path" fill="#000000" opacity="0.1"></path>
                <path d="M55.25,100.29 L46.63,100.29 L46.63,97.16 C46.6190076,94.4655156 44.4345012,92.2854766 41.74,92.28 L25.08,92.28 C22.3848504,92.28 20.2,94.4648504 20.2,97.16 L20.2,100.29 L1.54,100.29 C1.13156661,100.29 0.73986158,100.45225 0.451055557,100.741056 C0.162249534,101.029862 0,101.421567 0,101.83 L0,117.23 C0,117.970122 0.523873436,118.606751 1.25,118.75 L1.31,118.75 L28.64,124.14 L33.11,125.01 C33.3046457,125.049873 33.5053543,125.049873 33.7,125.01 L38.18,124.13 L52.75,121.26 C52.6045169,117.748012 52.7416253,114.230012 53.16,110.74 C53.5753029,107.206256 54.2742241,103.71165 55.25,100.29 Z M23.9,97.16 C23.9108286,96.5144769 24.4344082,95.9953345 25.08,95.99 L41.74,95.99 C42.3839088,95.9954341 42.9045659,96.5160912 42.91,97.16 L42.91,100.29 L23.91,100.29 L23.9,97.16 Z" id="Shape" fill="#3E3CDA"></path>
                <path d="M55.25,100.29 L46.63,100.29 L46.63,97.16 C46.6190076,94.4655156 44.4345012,92.2854766 41.74,92.28 L25.08,92.28 C22.3848504,92.28 20.2,94.4648504 20.2,97.16 L20.2,100.29 L1.54,100.29 C1.13156661,100.29 0.73986158,100.45225 0.451055557,100.741056 C0.162249534,101.029862 0,101.421567 0,101.83 L0,117.23 C0,117.970122 0.523873436,118.606751 1.25,118.75 L1.31,118.75 L28.64,124.14 L33.11,125.01 C33.3046457,125.049873 33.5053543,125.049873 33.7,125.01 L38.18,124.13 L52.75,121.26 C52.6045169,117.748012 52.7416253,114.230012 53.16,110.74 C53.5753029,107.206256 54.2742241,103.71165 55.25,100.29 Z M23.9,97.16 C23.9108286,96.5144769 24.4344082,95.9953345 25.08,95.99 L41.74,95.99 C42.3839088,95.9954341 42.9045659,96.5160912 42.91,97.16 L42.91,100.29 L23.91,100.29 L23.9,97.16 Z" id="Shape" fill="#FFFFFF" opacity="0.6"></path>
                <rect id="Rectangle" fill="#3E3CDA" x="28.64" y="120.81" width="9.54" height="7.12" rx="1.48"></rect>
                <rect id="Rectangle" fill="#FFFFFF" opacity="0.3" x="28.64" y="120.81" width="9.54" height="7.12" rx="1.48"></rect>
                <rect id="Rectangle" fill="#3E3CDA" transform="translate(223.735000, 217.020000) rotate(180.000000) translate(-223.735000, -217.020000) " x="191.63" y="202.72" width="64.21" height="28.6" rx="1.56"></rect>
                <rect id="Rectangle" fill="#FFFFFF" opacity="0.6" transform="translate(223.735000, 217.020000) rotate(180.000000) translate(-223.735000, -217.020000) " x="191.63" y="202.72" width="64.21" height="28.6" rx="1.56"></rect>
                <path d="M193.2,202.73 L254.28,202.73 C255.141564,202.73 255.84,203.428436 255.84,204.29 L255.84,212.46 L224,218.72 C223.805354,218.759873 223.604646,218.759873 223.41,218.72 L191.6,212.46 L191.6,204.29 C191.6,203.869238 191.769698,203.466261 192.070964,203.172527 C192.37223,202.878793 192.779376,202.719211 193.2,202.73 Z" id="Path" fill="#000000" opacity="0.1"></path>
                <path d="M191.87,192.27 L210.53,192.27 L210.53,189.14 C210.535501,186.447132 212.717132,184.265501 215.41,184.26 L232.08,184.26 C234.772868,184.265501 236.954499,186.447132 236.96,189.14 L236.96,192.27 L255.61,192.27 C256.018433,192.27 256.410138,192.43225 256.698944,192.721056 C256.98775,193.009862 257.15,193.401567 257.15,193.81 L257.15,209.22 C257.145889,209.953283 256.628481,210.583353 255.91,210.73 L224,217 C223.801138,217.030171 223.598862,217.030171 223.4,217 L191.53,210.73 C190.811519,210.583353 190.294111,209.953283 190.29,209.22 L190.29,193.81 C190.29,193.394541 190.457589,192.99665 190.755105,192.706666 C191.052621,192.416682 191.454681,192.259209 191.87,192.27 L191.87,192.27 Z M233.25,189.14 C233.244665,188.494408 232.725523,187.970829 232.08,187.96 L215.41,187.96 C214.762788,187.9707 214.2407,188.492788 214.23,189.14 L214.23,192.27 L233.23,192.27 L233.25,189.14 Z" id="Shape" fill="#3E3CDA"></path>
                <path d="M191.87,192.27 L210.53,192.27 L210.53,189.14 C210.535501,186.447132 212.717132,184.265501 215.41,184.26 L232.08,184.26 C234.772868,184.265501 236.954499,186.447132 236.96,189.14 L236.96,192.27 L255.61,192.27 C256.018433,192.27 256.410138,192.43225 256.698944,192.721056 C256.98775,193.009862 257.15,193.401567 257.15,193.81 L257.15,209.22 C257.145889,209.953283 256.628481,210.583353 255.91,210.73 L224,217 C223.801138,217.030171 223.598862,217.030171 223.4,217 L191.53,210.73 C190.811519,210.583353 190.294111,209.953283 190.29,209.22 L190.29,193.81 C190.29,193.394541 190.457589,192.99665 190.755105,192.706666 C191.052621,192.416682 191.454681,192.259209 191.87,192.27 L191.87,192.27 Z M233.25,189.14 C233.244665,188.494408 232.725523,187.970829 232.08,187.96 L215.41,187.96 C214.762788,187.9707 214.2407,188.492788 214.23,189.14 L214.23,192.27 L233.23,192.27 L233.25,189.14 Z" id="Shape" fill="#FFFFFF" opacity="0.6"></path>
                <rect id="Rectangle" fill="#3E3CDA" transform="translate(223.740000, 216.350000) rotate(180.000000) translate(-223.740000, -216.350000) " x="218.97" y="212.79" width="9.54" height="7.12" rx="1.48"></rect>
                <rect id="Rectangle" fill="#FFFFFF" opacity="0.3" transform="translate(223.740000, 216.350000) rotate(180.000000) translate(-223.740000, -216.350000) " x="218.97" y="212.79" width="9.54" height="7.12" rx="1.48"></rect>
                <rect id="Rectangle" fill="#3E3CDA" transform="translate(223.735000, 33.060000) rotate(180.000000) translate(-223.735000, -33.060000) " x="191.63" y="18.76" width="64.21" height="28.6" rx="1.56"></rect>
                <rect id="Rectangle" fill="#FFFFFF" opacity="0.6" transform="translate(223.735000, 33.060000) rotate(180.000000) translate(-223.735000, -33.060000) " x="191.63" y="18.76" width="64.21" height="28.6" rx="1.56"></rect>
                <path d="M193.2,18.77 L254.28,18.77 C255.141564,18.77 255.84,19.4684358 255.84,20.33 L255.84,28.5 L224,34.76 C223.805354,34.7998727 223.604646,34.7998727 223.41,34.76 L191.64,28.5 L191.64,20.33 C191.64,19.4684358 192.338436,18.77 193.2,18.77 Z" id="Path" fill="#000000" opacity="0.1"></path>
                <path d="M191.87,8.31 L210.53,8.31 L210.53,5.18 C210.535501,2.48713242 212.717132,0.305501279 215.41,0.299907784 L232.08,0.299907784 C233.380367,0.292019466 234.630359,0.802316196 235.55362,1.7180714 C236.476882,2.6338266 236.997365,3.87961073 237,5.18 L237,8.31 L255.65,8.31 C256.500519,8.31 257.19,8.99948149 257.19,9.85 L257.19,25.26 C257.19,25.994676 256.670601,26.6268813 255.95,26.77 L224,33 C223.802014,33.0401351 223.597986,33.0401351 223.4,33 L191.53,26.73 C190.809399,26.5868813 190.29,25.954676 190.29,25.22 L190.29,9.85 C190.29,9.43454075 190.457589,9.03664969 190.755105,8.74666579 C191.052621,8.45668188 191.454681,8.29920883 191.87,8.31 L191.87,8.31 Z M233.25,5.18 C233.25,4.53218935 232.727787,4.00548992 232.08,4 L215.41,4 C214.764408,4.00533451 214.240829,4.52447693 214.23,5.17 L214.23,8.3 L233.23,8.3 L233.25,5.18 Z" id="Shape" fill="#3E3CDA"></path>
                <path d="M191.87,8.31 L210.53,8.31 L210.53,5.18 C210.535501,2.48713242 212.717132,0.305501279 215.41,0.299907784 L232.08,0.299907784 C233.380367,0.292019466 234.630359,0.802316196 235.55362,1.7180714 C236.476882,2.6338266 236.997365,3.87961073 237,5.18 L237,8.31 L255.65,8.31 C256.500519,8.31 257.19,8.99948149 257.19,9.85 L257.19,25.26 C257.19,25.994676 256.670601,26.6268813 255.95,26.77 L224,33 C223.802014,33.0401351 223.597986,33.0401351 223.4,33 L191.53,26.73 C190.809399,26.5868813 190.29,25.954676 190.29,25.22 L190.29,9.85 C190.29,9.43454075 190.457589,9.03664969 190.755105,8.74666579 C191.052621,8.45668188 191.454681,8.29920883 191.87,8.31 L191.87,8.31 Z M233.25,5.18 C233.25,4.53218935 232.727787,4.00548992 232.08,4 L215.41,4 C214.764408,4.00533451 214.240829,4.52447693 214.23,5.17 L214.23,8.3 L233.23,8.3 L233.25,5.18 Z" id="Shape" fill="#FFFFFF" opacity="0.6"></path>
                <rect id="Rectangle" fill="#3E3CDA" transform="translate(223.740000, 32.390000) rotate(-180.000000) translate(-223.740000, -32.390000) " x="218.97" y="28.83" width="9.54" height="7.12" rx="1.48"></rect>
                <rect id="Rectangle" fill="#FFFFFF" opacity="0.3" transform="translate(223.740000, 32.390000) rotate(-180.000000) translate(-223.740000, -32.390000) " x="218.97" y="28.83" width="9.54" height="7.12" rx="1.48"></rect>
                <path d="M201.19,139.35 L254.29,139.35 C255.153179,139.344502 255.85,138.643197 255.85,137.78 L255.85,112.31 C255.848446,112.099959 255.804218,111.892425 255.72,111.7 C255.68336,111.608297 255.63639,111.521068 255.58,111.44 C255.524329,111.354424 255.457017,111.277014 255.38,111.21 C255.089972,110.915187 254.693558,110.749414 254.28,110.749998 L204,110.749998 C204.418375,114.240012 204.555483,117.758012 204.41,121.27 C204.41,121.84 204.41,122.41 204.32,122.97 C204.26,124.02 204.17,125.08 204.05,126.13 C203.545051,130.621859 202.586836,135.05109 201.19,139.35 Z" id="Path" fill="#3E3CDA"></path>
                <path d="M201.19,139.35 L254.29,139.35 C255.153179,139.344502 255.85,138.643197 255.85,137.78 L255.85,112.31 C255.848446,112.099959 255.804218,111.892425 255.72,111.7 C255.68336,111.608297 255.63639,111.521068 255.58,111.44 C255.524329,111.354424 255.457017,111.277014 255.38,111.21 C255.089972,110.915187 254.693558,110.749414 254.28,110.749998 L204,110.749998 C204.418375,114.240012 204.555483,117.758012 204.41,121.27 C204.41,121.84 204.41,122.41 204.32,122.97 C204.26,124.02 204.17,125.08 204.05,126.13 C203.545051,130.621859 202.586836,135.05109 201.19,139.35 Z" id="Path" fill="#FFFFFF" opacity="0.6"></path>
                <path d="M204,110.749998 C204.418375,114.240012 204.555483,117.758012 204.41,121.27 C204.41,121.84 204.41,122.41 204.32,122.97 L219,125.85 L223.48,126.73 C223.673494,126.77996 223.876506,126.77996 224.07,126.73 L228.54,125.86 L255.87,120.48 L255.87,112.3 C255.866841,112.094364 255.826174,111.891032 255.75,111.7 C255.71336,111.608297 255.66639,111.521068 255.61,111.44 C255.554329,111.354424 255.487017,111.277014 255.41,111.21 C255.119972,110.915187 254.723558,110.749414 254.31,110.749998 L204,110.749998 Z" id="Path" fill="#000000" opacity="0.1"></path>
                <path d="M201.9,100.29 L210.53,100.29 L210.53,97.16 C210.535501,94.4671324 212.717132,92.2855013 215.41,92.28 L232.07,92.28 C234.766772,92.28 236.954485,94.4632336 236.96,97.16 L236.96,100.29 L255.61,100.29 C256.460519,100.29 257.150001,100.979481 257.150001,101.83 L257.150001,117.23 C257.150626,117.967042 256.632151,118.602592 255.91,118.75 L255.84,118.75 L228.51,124.14 L224,125 C223.805354,125.039873 223.604646,125.039873 223.41,125 L218.93,124.12 L204.36,121.25 C204.643649,114.161792 203.799806,107.073511 201.86,100.25 L201.9,100.29 Z M233.25,97.16 C233.239171,96.5144769 232.715592,95.9953345 232.07,95.99 L215.41,95.99 C214.766091,95.9954341 214.245434,96.5160912 214.24,97.16 L214.24,100.29 L233.24,100.29 L233.25,97.16 Z" id="Shape" fill="#3E3CDA"></path>
                <path d="M201.9,100.29 L210.53,100.29 L210.53,97.16 C210.535501,94.4671324 212.717132,92.2855013 215.41,92.28 L232.07,92.28 C234.766772,92.28 236.954485,94.4632336 236.96,97.16 L236.96,100.29 L255.61,100.29 C256.460519,100.29 257.150001,100.979481 257.150001,101.83 L257.150001,117.23 C257.150626,117.967042 256.632151,118.602592 255.91,118.75 L255.84,118.75 L228.51,124.14 L224,125 C223.805354,125.039873 223.604646,125.039873 223.41,125 L218.93,124.12 L204.36,121.25 C204.643649,114.161792 203.799806,107.073511 201.86,100.25 L201.9,100.29 Z M233.25,97.16 C233.239171,96.5144769 232.715592,95.9953345 232.07,95.99 L215.41,95.99 C214.766091,95.9954341 214.245434,96.5160912 214.24,97.16 L214.24,100.29 L233.24,100.29 L233.25,97.16 Z" id="Shape" fill="#FFFFFF" opacity="0.6"></path>
                <rect id="Rectangle" fill="#3E3CDA" transform="translate(223.740000, 124.380000) rotate(180.000000) translate(-223.740000, -124.380000) " x="218.97" y="120.82" width="9.54" height="7.12" rx="1.48"></rect>
                <rect id="Rectangle" fill="#FFFFFF" opacity="0.3" transform="translate(223.740000, 124.380000) rotate(180.000000) translate(-223.740000, -124.380000) " x="218.97" y="120.82" width="9.54" height="7.12" rx="1.48"></rect>
                <rect id="Rectangle" fill="#3E3CDA" x="85.68" y="104.54" width="92.26" height="41.09" rx="2.24"></rect>
                <path d="M143.78,98 L119.83,98 C116.049133,97.9944925 112.985507,94.9308669 112.98,91.15 L112.98,85 C112.985507,81.2191331 116.049133,78.1555075 119.83,78.15 L143.78,78.15 C147.563151,78.15 150.630066,81.2168495 150.630066,85 L150.630066,91.12 C150.637979,92.9419253 149.919809,94.6919665 148.634319,95.9830865 C147.348829,97.2742064 145.601943,98 143.78,98 L143.78,98 Z M119.83,83.18 C118.827668,83.1907058 118.016198,83.997742 118,85 L118,91.12 C118,92.1417268 118.828273,92.97 119.85,92.97 L143.8,92.97 C144.821727,92.97 145.65,92.1417268 145.65,91.12 L145.65,85 C145.65,83.9782732 144.821727,83.15 143.8,83.15 L119.83,83.18 Z" id="Shape" fill="#3E3CDA"></path>
                <path d="M175.69,104.539978 L87.93,104.539978 C87.3341843,104.53734 86.7618592,104.772165 86.3396124,105.192535 C85.9173656,105.612905 85.68,106.184178 85.68,106.78 L85.68,118.53 L131.38,127.53 C131.66006,127.590904 131.94994,127.590904 132.23,127.53 L177.94,118.53 L177.94,106.78 C177.94,106.184178 177.702634,105.612905 177.280388,105.192535 C176.858141,104.772165 176.285816,104.53734 175.69,104.539978 L175.69,104.539978 Z" id="Path" fill="#000000" opacity="0.2"></path>
                <path d="M178,116 L132.21,125 C131.925521,125.050084 131.634479,125.050084 131.35,125 L85.56,116 C84.5227159,115.795213 83.7737913,114.887299 83.77,113.83 L83.77,91.73 C83.77,91.1438716 84.0028386,90.5817494 84.417294,90.167294 C84.8317494,89.7528386 85.3938716,89.52 85.98,89.52 L177.6,89.52 C178.186128,89.52 178.748251,89.7528386 179.162706,90.167294 C179.577161,90.5817494 179.81,91.1438716 179.81,91.73 L179.81,113.87 C179.789295,114.919835 179.032734,115.810152 178,116 Z" id="Path" fill="#3E3CDA"></path>
                <rect id="Rectangle" fill="#3E3CDA" x="124.96" y="119.01" width="13.71" height="10.23" rx="2.12"></rect>
                <rect id="Rectangle" fill="#000000" opacity="0.4" x="124.96" y="119.01" width="13.71" height="10.23" rx="2.12"></rect>
            </g>
            <g id="freepik--Character--inject-92" transform="translate(76.000000, 33.000000)">
                <path d="M248.9,94.21 C250.05,96.58 250.9,98.82 251.9,101.16 C252.9,103.5 253.63,105.83 254.41,108.22 C255.991256,113.065786 257.158771,118.036927 257.9,123.08 C258,123.71 258.05,124.39 258.12,125.08 L258.22,126.08 C258.22,126.26 258.22,126.39 258.22,126.6 L258.22,127.25 C258.253607,128.76633 258.122845,130.281838 257.83,131.77 C257.334214,134.356428 256.628546,136.898167 255.72,139.37 C254.01243,144.069001 251.883776,148.604104 249.36,152.92 L244.28,150.77 C245.41,146.21 246.55,141.56 247.41,137.07 C247.830531,134.918741 248.127682,132.745192 248.3,130.56 C248.359071,129.666645 248.338993,128.769816 248.24,127.88 L248.13,127.25 L247.99,126.45 C247.88,125.92 247.81,125.39 247.68,124.85 C246.683136,120.435838 245.393621,116.092909 243.82,111.85 C243.06,109.68 242.22,107.52 241.38,105.35 C240.54,103.18 239.61,101 238.75,99 L248.9,94.21 Z" id="Path" fill="#7F3E3B"></path>
                <path d="M244.5,149.44 L240.6,153.24 L249.11,157.24 C249.11,157.24 251.17,153.64 249.75,150.38 L244.5,149.44 Z" id="Path" fill="#7F3E3B"></path>
                <polygon id="Path" fill="#7F3E3B" points="237.46 158.91 244.64 161.85 249.11 157.2 240.6 153.24"></polygon>
                <path d="M91.81,154.81 C131.323352,150.38451 159.76964,114.767911 155.349904,75.253915 C150.930169,35.7399186 115.317713,7.28844462 75.8030735,11.7024255 C36.2884339,16.1164065 7.83177379,51.7247179 12.24,91.24 C14.3577272,110.223279 23.9318852,127.587092 38.8551543,139.509578 C53.7784235,151.432064 72.8276484,156.936021 91.81,154.81 L91.81,154.81 Z" id="Path" fill="#3E3CDA" opacity="0.2"></path>
                <path d="M39.42,26.54 L148.92,114 C149.39,113 149.83,112 150.26,111 C153.004281,104.470627 154.756986,97.567664 155.46,90.52 L155.46,90.52 L60.88,15 C53.1182199,17.5884777 45.8591788,21.4919882 39.42,26.54 L39.42,26.54 Z" id="Path" fill="#FFFFFF" opacity="0.1"></path>
                <path d="M14.16,64.87 L117.1,147.12 C126.881142,142.018671 135.359283,134.738008 141.88,125.84 L29.46,36 C22.214999,44.3236953 16.9802231,54.201341 14.16,64.87 L14.16,64.87 Z" id="Path" fill="#FFFFFF" opacity="0.1"></path>
                <path d="M261.17,164.12 C261.038454,162.30013 260.442852,160.544309 259.44,159.02 C258.711282,157.898808 257.69163,156.996675 256.49,156.41 L249.66,153.06 C245.12,150.81 240.55,148.62 235.98,146.43 C231.41,144.24 226.81,142.09 222.23,139.92 C217.65,137.75 213.03,135.64 208.4,133.57 C199.16,129.383333 189.86,125.31 180.5,121.35 C175.82,119.35 171.13,117.43 166.4,115.55 L166.4,115.55 C163.534364,114.421451 162.034519,111.264343 162.97,108.33 C176.102264,66.9261722 155.119868,22.3954903 114.830213,6.16351723 C74.5405568,-10.0684559 28.547923,7.47919883 9.30958205,46.4229988 C-9.92875893,85.3667987 4.08324793,132.556906 41.4572474,154.690985 C78.8312469,176.825065 126.947463,166.429281 151.85,130.84 C153.613664,128.309275 157.037263,127.579082 159.68,129.17 L159.68,129.17 C164.053333,131.77 168.446667,134.326667 172.86,136.84 C181.68,141.866667 190.566667,146.766667 199.52,151.54 C203.99,153.96 208.52,156.29 212.97,158.66 C217.42,161.03 221.97,163.34 226.5,165.66 C231.03,167.98 235.5,170.25 240.09,172.49 L246.9,175.87 C248.096508,176.47165 249.434822,176.734471 250.77,176.63 C252.58732,176.501202 254.340587,175.905298 255.86,174.9 C259.557883,172.628723 261.623139,168.435982 261.17,164.12 L261.17,164.12 Z M54.8,142 C31.0270634,130.269262 16.6619302,105.372608 18.4035591,78.9202079 C20.1451879,52.4678081 37.6505617,29.6695112 62.7563192,21.1569518 C87.8620767,12.6443923 115.623593,20.0941344 133.094713,40.0321055 C150.565833,59.9700767 154.305588,88.4694571 142.57,112.24 C134.878065,127.826078 121.309262,139.717893 104.848939,145.299062 C88.3886155,150.880231 70.3852996,149.693512 54.8,142 L54.8,142 Z" id="Shape" fill="#3E3CDA"></path>
                <path d="M211.19,63.3 C211.19,63.89 210.88,64.37 210.49,64.37 C210.1,64.37 209.79,63.89 209.79,63.3 C209.79,62.71 210.1,62.22 210.49,62.22 C210.88,62.22 211.19,62.7 211.19,63.3 Z" id="Path" fill="#252482"></path>
                <path d="M210.93,64.37 C210.227233,66.1814569 209.278316,67.8874877 208.11,69.44 C208.928838,70.0257789 209.964681,70.2197708 210.94,69.97 L210.93,64.37 Z" id="Path" fill="#630F0F"></path>
                <path d="M213.29,60 C213.438829,59.9958242 213.568727,59.8979492 213.613777,59.7560404 C213.658828,59.6141316 213.609169,59.4592547 213.49,59.37 C212.593772,58.6981537 211.429537,58.4972954 210.36,58.83 C210.231178,58.8650964 210.133546,58.9704276 210.10831,59.1015382 C210.083074,59.2326488 210.13463,59.3666957 210.24122,59.4471041 C210.34781,59.5275126 210.490861,59.540273 210.61,59.48 L210.61,59.48 C211.461173,59.2267653 212.38206,59.3938617 213.09,59.93 C213.146375,59.9761008 213.217181,60.0008828 213.29,60 Z" id="Path" fill="#252482"></path>
                <path d="M231.42,67.76 C230.36,73.14 229.31,82.99 233.07,86.57 C233.07,86.57 231.6,92.02 221.62,92.02 C210.62,92.02 216.37,86.57 216.37,86.57 C222.37,85.14 222.21,80.69 221.16,76.57 L231.42,67.76 Z" id="Path" fill="#7F3E3B"></path>
                <path d="M235,83.2 C235.83,83.47 234.75,88.41 234.75,88.41 C234.75,88.41 233.38,91.86 216.36,90.66 C215.05,90.56 215.55,85.82 216.8,85.13 C220.83,82.93 232.32,82.32 235,83.2 Z" id="Path" fill="#252482"></path>
                <path d="M269.57,289.81 C270.49,289.72 271.83,288.03 272.21,287.41 C272.244371,287.354922 272.244371,287.285078 272.21,287.23 C272.176605,287.169367 272.108006,287.137085 272.04,287.15 C271.94,287.15 269.52,287.61 268.93,288.55 C268.804098,288.749396 268.767809,288.992531 268.83,289.22 C268.96,289.66 269.21,289.78 269.41,289.81 L269.57,289.81 Z M271.68,287.58 C271.03,288.48 269.96,289.53 269.45,289.46 C269.4,289.46 269.25,289.46 269.16,289.12 C269.120396,288.987588 269.142427,288.844385 269.22,288.73 C269.909316,288.11347 270.764882,287.71351 271.68,287.58 L271.68,287.58 Z" id="Shape" fill="#3E3CDA"></path>
                <path d="M271.58,287.58 C271.758866,287.564826 271.936151,287.534721 272.11,287.49 C272.170005,287.47067 272.215525,287.421357 272.23,287.36 C272.241863,287.296679 272.218981,287.231847 272.17,287.19 C272.11,287.13 270.49,285.75 269.39,285.86 L269.39,285.86 C269.122353,285.877489 268.874925,286.008481 268.71,286.22 C268.515515,286.407382 268.485852,286.708245 268.64,286.93 C269,287.5 270.58,287.68 271.58,287.58 Z M271.66,287.23 C270.66,287.35 269.2,287.15 268.92,286.74 C268.92,286.74 268.84,286.61 268.98,286.43 C269.093544,286.296667 269.255426,286.213927 269.43,286.2 L269.43,286.2 C270.259023,286.314612 271.035246,286.673136 271.66,287.23 L271.66,287.23 Z" id="Shape" fill="#3E3CDA"></path>
                <path d="M200.82,316.11 C201.577626,316.1072 202.333657,316.040294 203.08,315.91 C203.148112,315.891326 203.201326,315.838112 203.22,315.77 C203.232551,315.69678 203.196106,315.623891 203.13,315.59 C203.02,315.52 200.46,314.06 199.23,314.39 C198.999728,314.448697 198.802016,314.596082 198.68,314.8 C198.519506,315.027914 198.519506,315.332086 198.68,315.56 C199,316 199.88,316.11 200.82,316.11 Z M202.52,315.65 C201.15,315.84 199.29,315.83 198.95,315.36 C198.9,315.3 198.86,315.19 198.95,314.97 C199.024052,314.845294 199.147696,314.758016 199.29,314.73 C200.08,314.52 201.62,315.19 202.52,315.65 L202.52,315.65 Z" id="Shape" fill="#3E3CDA"></path>
                <path d="M203,315.91 C203.035946,315.920282 203.074054,315.920282 203.11,315.91 C203.156616,315.87021 203.182415,315.811242 203.18,315.75 C203.18,315.67 202.97,313.69 202.04,312.92 C201.76149,312.68788 201.40029,312.57952 201.04,312.62 C200.56,312.67 200.43,312.91 200.39,313.11 C200.26,313.94 202.02,315.53 202.9,315.93 L203,315.91 Z M201.21,312.91 C201.433317,312.916375 201.648067,312.997346 201.82,313.14 C202.375111,313.774298 202.723914,314.562593 202.82,315.4 C201.91,314.86 200.72,313.61 200.82,313.11 C200.82,313.11 200.82,312.95 201.16,312.92 L201.21,312.91 Z" id="Shape" fill="#3E3CDA"></path>
                <polygon id="Path" fill="#7F3E3B" points="211.12 315.74 203.78 315.74 203.04 298.72 210.39 298.72"></polygon>
                <polygon id="Path" fill="#7F3E3B" points="278.63 282.03 272.9 286.62 258.32 276.5 264.06 271.91"></polygon>
                <path d="M271.85,286.33 L277.71,280.52 C277.926214,280.311831 278.256845,280.278768 278.51,280.44 L284.14,284.06 C284.416682,284.238877 284.595529,284.535245 284.62483,284.863408 C284.65413,285.191572 284.530615,285.514936 284.29,285.74 C282.21,287.74 281.1,288.6 278.52,291.15 C276.94,292.73 273.07,297.43 270.88,299.6 C268.69,301.77 266.25,299.89 266.96,298.8 C270.11,293.94 271.18,289.93 271.32,287.49 C271.35008,287.051838 271.538448,286.639559 271.85,286.33 L271.85,286.33 Z" id="Path" fill="#252482"></path>
                <path d="M203.82,314.88999 L211.82,314.88999 C212.119171,314.888311 212.37827,315.097262 212.44,315.39 L213.89,321.92 C213.963955,322.237947 213.88729,322.572236 213.682179,322.826183 C213.477068,323.08013 213.16639,323.225408 212.84,323.22 C209.94,323.22 205.76,323.01 202.12,323.01 C197.87,323.01 194.2,323.24 189.21,323.24 C186.21,323.24 185.36,320.19 186.62,319.91 C192.37,318.66 197.06,318.52 202.02,315.46 C202.555094,315.105837 203.178581,314.908399 203.82,314.88999 Z" id="Path" fill="#252482"></path>
                <path d="M247.55,88.77 C253.92,91.77 256.55,112.33 256.55,112.33 L241.9,118.08 C239.62612,112.51314 237.784014,106.779546 236.39,100.93 C234.34,91.65 241,85.65 247.55,88.77 Z" id="Path" fill="#3E3CDA"></path>
                <path d="M247.55,88.77 C253.92,91.77 256.55,112.33 256.55,112.33 L241.9,118.08 C239.62612,112.51314 237.784014,106.779546 236.39,100.93 C234.34,91.65 241,85.65 247.55,88.77 Z" id="Path" fill="#FFFFFF" opacity="0.3"></path>
                <path d="M238.06,94.8 C237.560686,94.5575648 237.037992,94.3665806 236.5,94.23 C235.915567,96.4225729 235.894927,98.7273121 236.44,100.93 C237.827963,106.780048 239.666791,112.51385 241.94,118.08 L246.77,116.19 C245.88,110.82 243.15,97.24 238.06,94.8 Z" id="Path" fill="#000000" opacity="0.2"></path>
                <path d="M205.07,88.61 C205.07,88.61 197.25,97.44 204.63,152.11 L243.93,152.11 C244.2,146.11 240.41,116.65 246.23,88.23 C241.883617,87.3941077 237.487813,86.8396218 233.07,86.57 C227.507939,86.2497679 221.932061,86.2497679 216.37,86.57 C212.555898,86.9542823 208.777705,87.6363632 205.07,88.61 L205.07,88.61 Z" id="Path" fill="#3E3CDA"></path>
                <path d="M205.07,88.61 C205.07,88.61 197.25,97.44 204.63,152.11 L243.93,152.11 C244.2,146.11 240.41,116.65 246.23,88.23 C241.883617,87.3941077 237.487813,86.8396218 233.07,86.57 C227.507939,86.2497679 221.932061,86.2497679 216.37,86.57 C212.555898,86.9542823 208.777705,87.6363632 205.07,88.61 L205.07,88.61 Z" id="Path" fill="#FFFFFF" opacity="0.3"></path>
                <path d="M213,100.33 C211.22,94.99 206.94,93.28 202.58,96.45 C201.7,101.63 201.08,109.98 201.79,123.22 L209.46,123.15 C209.46,123.15 215.63,108.28 213,100.33 Z" id="Path" fill="#000000" opacity="0.2"></path>
                <path d="M211.56,98.14 C211.24,100.82 210.8,103.25 210.31,105.78 C209.82,108.31 209.25,110.78 208.6,113.27 C207.316619,118.359162 205.569305,123.319929 203.38,128.09 C202.81,129.32 202.15,130.53 201.45,131.74 C201.09,132.35 200.73,132.96 200.32,133.56 C199.788393,134.393856 199.160767,135.162445 198.45,135.85 C197.07018,137.129599 195.433981,138.101092 193.65,138.7 C192.201454,139.207534 190.703021,139.559515 189.18,139.75 C186.462159,140.086989 183.715259,140.120529 180.99,139.85 C179.656667,139.743333 178.356667,139.573333 177.09,139.34 C175.79,139.11 174.56,138.87 173.22,138.52 L173.87,133.04 C178.434246,132.848378 182.965756,132.178036 187.39,131.04 C188.28989,130.773637 189.163529,130.425521 190,130 C190.54928,129.748196 191.029577,129.367389 191.4,128.89 C191.32,128.96 192.05,127.75 192.48,126.89 C192.91,126.03 193.39,124.89 193.8,123.89 C194.64,121.83 195.36,119.65 196.02,117.42 C196.68,115.19 197.26,112.92 197.8,110.62 C198.34,108.32 198.8,106 199.3,103.62 C199.8,101.24 200.16,98.88 200.52,96.67 L211.56,98.14 Z" id="Path" fill="#7F3E3B"></path>
                <path d="M214.89,94 C216.96,100.71 208.56,120.71 208.56,120.71 L190.87,116.26 C191.952964,109.938364 193.775476,103.765988 196.3,97.87 C202,85.39 212.4,85.91 214.89,94 Z" id="Path" fill="#3E3CDA"></path>
                <path d="M214.89,94 C216.96,100.71 208.56,120.71 208.56,120.71 L190.87,116.26 C191.952964,109.938364 193.775476,103.765988 196.3,97.87 C202,85.39 212.4,85.91 214.89,94 Z" id="Path" fill="#FFFFFF" opacity="0.3"></path>
                <path d="M174.12,133.07 L165.8,132.86 L169.8,141.51 C169.8,141.51 173.18,141.96 175.96,137.39 L178.89,133.9 L175.52,133.22 C175.058482,133.130051 174.590098,133.079866 174.12,133.07 Z" id="Path" fill="#7F3E3B"></path>
                <polygon id="Path" fill="#7F3E3B" points="160.55 134.47 165.32 141.64 169.81 141.51 165.8 132.86"></polygon>
                <polygon id="Path" fill="#000000" opacity="0.2" points="203.05 298.73 203.42 307.5 210.77 307.5 210.39 298.73"></polygon>
                <polygon id="Path" fill="#000000" opacity="0.2" points="264.06 271.91 258.32 276.5 265.84 281.72 271.58 277.13"></polygon>
                <path d="M231,62 C230.56,69.28 230.68,73.56 227,77.3 C221.48,82.92 212.49,79.6 210.75,72.3 C209.18,65.76 210.17,54.96 217.29,52.05 C220.482519,50.7294095 224.13176,51.1612503 226.927866,53.1905177 C229.723973,55.219785 231.265828,58.5553708 231,62 Z" id="Path" fill="#7F3E3B"></path>
                <path d="M236.88,55.24 C236.88,55.24 240.71,56.38 239.51,60.75 C237.7,67.39 233.44,75.03 227.94,75.51 C221.09,76.12 218,69.05 217.1,61.74 C213,58.93 209.96,56.3 210.94,53.38 C212.44,48.88 217.88,45 226.54,46 C235.2,47 239.51,52.6 236.88,55.24 Z" id="Path" fill="#252482"></path>
                <path d="M221.27,63.24 C221.136986,65.045559 220.413027,66.757054 219.21,68.11 C217.61,69.87 215.93,68.77 215.65,66.63 C215.4,64.69 215.92,61.44 217.88,60.47 C219.84,59.5 221.4,61.06 221.27,63.24 Z" id="Path" fill="#7F3E3B"></path>
                <path d="M218.57,152.11 C218.57,152.11 216.09,201.63 220.92,222.61 C228.57,255.83 262.2,282.45 262.2,282.45 L273,273.8 C273,273.8 245.33,253.21 242.84,225.55 C240.61,200.71 243.91,172.18 243.91,152.11 L218.57,152.11 Z" id="Path" fill="#3E3CDA"></path>
                <path d="M218.57,152.11 C218.57,152.11 216.09,201.63 220.92,222.61 C228.57,255.83 262.2,282.45 262.2,282.45 L273,273.8 C273,273.8 245.33,253.21 242.84,225.55 C240.61,200.71 243.91,172.18 243.91,152.11 L218.57,152.11 Z" id="Path" fill="#000000" opacity="0.2"></path>
                <path d="M222.26,166.78 C221.26,164.85 219.31,170.6 217.95,177.98 C217.95,188.16 218.13,199.74 219.02,209.55 C225.81,197 224.37,170.78 222.26,166.78 Z" id="Path" fill="#000000" opacity="0.2"></path>
                <path d="M257.3,280.32 C257.3,280.32 261.4,283.5 261.4,283.5 L273.87,273.39 L270.13,270 L257.3,280.32 Z" id="Path" fill="#2C6BDB"></path>
                <path d="M257.3,280.32 C257.3,280.32 261.4,283.5 261.4,283.5 L273.87,273.39 L270.13,270 L257.3,280.32 Z" id="Path" fill="#FAFAFA" opacity="0.4"></path>
                <path d="M204.63,152.11 C204.63,152.11 193.57,199.01 192.79,221.41 C191.92,246.54 200.68,305.8 200.68,305.8 L213.13,305.8 C213.13,305.8 214.66,246.08 215.22,223.19 C215.82,198.24 230.46,152.11 230.46,152.11 L204.63,152.11 Z" id="Path" fill="#3E3CDA"></path>
                <path d="M204.63,152.11 C204.63,152.11 193.57,199.01 192.79,221.41 C191.92,246.54 200.68,305.8 200.68,305.8 L213.13,305.8 C213.13,305.8 214.66,246.08 215.22,223.19 C215.82,198.24 230.46,152.11 230.46,152.11 L204.63,152.11 Z" id="Path" fill="#000000" opacity="0.2"></path>
                <path d="M198.29,300.84 C198.23,300.84 198.99,306.01 198.99,306.01 L214.13,306.01 L214.54,301.4 L198.29,300.84 Z" id="Path" fill="#2C6BDB"></path>
                <path d="M198.29,300.84 C198.23,300.84 198.99,306.01 198.99,306.01 L214.13,306.01 L214.54,301.4 L198.29,300.84 Z" id="Path" fill="#FAFAFA" opacity="0.4"></path>
            </g>
        </g>
    </g>
</svg>