<?xml version="1.0" encoding="UTF-8"?>
<svg width="480px" height="357px" viewBox="0 0 480 357" version="1.1" xmlns="http://www.w3.org/2000/svg" xmlns:xlink="http://www.w3.org/1999/xlink">
    <!-- Generator: Sketch 63.1 (92452) - https://sketch.com -->
    <title>Address-pana</title>
    <desc>Created with Sketch.</desc>
    <g id="Page-1" stroke="none" stroke-width="1" fill="none" fill-rule="evenodd">
        <g id="Company_About-Us" transform="translate(-729.000000, -1268.000000)" fill-rule="nonzero">
            <g id="Address-pana" transform="translate(969.500000, 1446.500000) scale(-1, 1) translate(-969.500000, -1446.500000) translate(729.000000, 1268.000000)">
                <g id="freepik--background-simple--inject-162" transform="translate(101.000000, 0.000000)" fill="#3E3CDA" opacity="0.098587391">
                    <path d="M149.67,41.28 C151.020813,46.7882042 152.045923,52.3712109 152.74,58 C155.15,78.09 160.8,91.23 173.83,108.3 C188.32,127.3 211.57,137.97 234.58,140.75 C270.77,145.13 288.82,125.51 324.44,133.56 C358.82,141.34 384.04,179.99 378.51,216.4 C373.66,248.31 348.51,273.78 319.78,285.4 C291.05,297.02 246.07,303.5 215.4,300.4 C163.83,295.26 121.76,280.56 78.63,250.4 C35.5,220.24 5.43,166.4 0.63,112.24 C-1.67,86.17 2.93,58.87 16.8,37.14 C30.67,15.41 54.53,0.07 79.48,0.53 C104.43,0.99 141.39,8.69 149.67,41.16 L149.67,41.28 Z" id="Path"></path>
                </g>
                <g id="freepik--Floor--inject-162" transform="translate(0.000000, 355.000000)" fill="#0907AC">
                    <path d="M460.83,1.28 C460.83,1.42 357.848356,1.54 230.837662,1.54 C103.826968,1.54 0.83,1.42 0.83,1.28 C0.83,1.14 103.788657,1 230.83,1 C357.871343,1 460.83,1.13 460.83,1.28 Z" id="Path"></path>
                </g>
                <g id="freepik--Character--inject-162" transform="translate(168.000000, 16.000000)">
                    <path d="M200.93,50.22 C178.78,19.75 146.58,5.55 112.93,5.55 C112.93,5.55 30.64,5.55 6.27,79.22 C-2.73,106.37 -0.73,135.85 10.17,162.29 C14.262306,172.341265 19.4183189,181.925817 25.55,190.88 C46.84,221.58 113,305.39 113,305.39 L127.38,305.39 C145.84,279.75 192.31,194.58 206.23,167.27 C223.68,133 226.36,85.2 200.93,50.22 Z M126.7,186.49 C98.2653942,186.49 72.6308308,169.360872 61.7503127,143.090335 C50.8697946,116.819798 56.8861973,86.58173 76.9939299,66.4768576 C97.1016625,46.3719853 127.340586,40.3598842 153.609575,51.2441394 C179.878564,62.1283946 197.004045,87.7653945 197.000001,116.2 C196.994478,155.021713 165.521713,186.49 126.7,186.49 L126.7,186.49 Z" id="Shape" fill="#2624D0"></path>
                    <path d="M215.4,50.79 C193.25,20.33 161.05,6.13 127.4,6.13 C127.4,6.13 45.11,6.13 20.74,79.8 C11.74,106.95 13.74,136.43 24.65,162.87 C28.7367733,172.921948 33.8895575,182.50673 40.02,191.46 C61.31,222.15 127.44,306 127.44,306 C127.44,306 203.85,200.89 220.67,167.89 C238.15,133.56 240.84,85.78 215.4,50.79 Z M126.79,187.07 C87.9643821,187.07 56.49,155.595618 56.49,116.77 C56.49,77.9443821 87.9643821,46.47 126.79,46.47 C165.615618,46.47 197.09,77.9443821 197.09,116.77 C197.229784,135.457221 189.868094,153.419633 176.653863,166.633863 C163.439633,179.848094 145.477221,187.209784 126.79,187.07 L126.79,187.07 Z" id="Shape" fill="#3E3CDA"></path>
                    <path d="M126.7,45.9 C96.9299008,45.9 70.3873631,64.650977 60.44,92.71 C71.5871369,68.073561 97.7870658,53.8860508 124.510926,58.0149857 C151.234785,62.1439206 171.931188,83.577087 175.123189,110.428976 C178.315189,137.280864 163.220264,162.968701 138.209126,173.247599 C113.197987,183.526497 84.4021479,175.876573 67.79,154.54 C86.1429995,182.73058 121.896404,193.966511 153.075988,181.342132 C184.255572,168.717754 202.120252,135.772264 195.690304,102.75413 C189.260355,69.7359958 160.338392,45.9017325 126.7,45.9 Z" id="Path" fill="#3E3CDA"></path>
                    <path d="M126.7,45.9 C96.9299008,45.9 70.3873631,64.650977 60.44,92.71 C71.5871369,68.073561 97.7870658,53.8860508 124.510926,58.0149857 C151.234785,62.1439206 171.931188,83.577087 175.123189,110.428976 C178.315189,137.280864 163.220264,162.968701 138.209126,173.247599 C113.197987,183.526497 84.4021479,175.876573 67.79,154.54 C86.1429995,182.73058 121.896404,193.966511 153.075988,181.342132 C184.255572,168.717754 202.120252,135.772264 195.690304,102.75413 C189.260355,69.7359958 160.338392,45.9017325 126.7,45.9 Z" id="Path" fill="#000000" opacity="0.4"></path>
                    <path d="M266.87,148.43 C264.04221,146.486934 260.610416,145.62455 257.2,146 C251.44,146.66 243.09,147.51 243.09,147.51 L243.09,147.78 L202.76,150.26 L190.41,125.21 L171.7,137.54 C171.7,137.54 174.16,141.48 184.65,160.85 C188.844218,168.594046 197.4249,172.898362 206.14,171.63 L253.63,164.63 L253.63,164.54 C258.54,164.27 263.85,163.81 264.63,163.1 C266.11,161.76 267.45,156.86 267.45,156.86 C267.45,156.86 275.91,161.86 277.54,162 C279.17,162.14 279.47,160.75 280.48,159.31 C281.2,158.42 272.48,152.25 266.87,148.43 Z" id="Path" fill="#FFBE9D"></path>
                    <path d="M192.93,123.61 C192.93,123.61 185.09,108.52 177.93,94.27 C169.11,76.78 149.66,73.27 149.66,73.27 L121.48,69.57 C121.48,69.57 97.9,58.92 76,85.37 L58,105.48 L61.83,108.93 L79.68,124.93 L83.21,128.11 L91.29,119.79 L87.54,140.86 L80.91,170.24 L80.91,170.24 L95.24,168.51 L104.93,109.26 L159.57,113.61 L155.21,151 C156.09,150.87 162.7,149.57 164.85,140.59 C165.540974,137.724398 165.540974,134.735602 164.85,131.87 L168.01,139.96 L192.93,123.61 Z" id="Path" fill="#3E3CDA"></path>
                    <path d="M104.842247,109.073622 L95.17,168.54 L80.84,170.27 C100.339639,187.093731 127.485169,191.891117 151.57,182.77 L155.21,151 L159.57,113.61 L104.842247,109.073622 Z" id="Path" fill="#252482"></path>
                    <path d="M108.1,66.63 L106.92,114.76 L116,116.2 L117.22,67.42 C117.22,67.42 114.05,65.92 108.1,66.63 Z" id="Path" fill="#252482"></path>
                    <path d="M146.66,115 L154.17,73.66 C154.6,73.2 160.76,75.41 162.62,77.51 L155.88,115.86 L146.66,115 Z" id="Path" fill="#252482"></path>
                    <path d="M116.36,109.12 C116.456557,109.382435 116.504013,109.660394 116.5,109.94 C116.568251,110.698468 116.568251,111.461532 116.5,112.22 C116.429857,113.383648 116.038727,114.505118 115.37,115.46 C114.957906,116.030296 114.411868,116.49048 113.78,116.8 C113.081543,117.115124 112.30348,117.209329 111.55,117.07 C110.12282,116.768236 108.884557,115.888418 108.13,114.64 C107.551295,113.640681 107.209212,112.522069 107.13,111.37 C107.063635,110.611449 107.063635,109.848551 107.13,109.09 C107.124972,108.806164 107.175944,108.524122 107.28,108.26 C107.37,108.26 107.28,109.46 107.49,111.33 C107.629543,112.391668 107.987021,113.413034 108.54,114.33 C109.239196,115.445439 110.361789,116.228727 111.65,116.5 C112.939722,116.727888 114.245008,116.190188 115,115.12 C115.638205,114.237296 116.034637,113.203126 116.15,112.12 C116.37,110.32 116.26,109.12 116.36,109.12 Z" id="Path" fill="#4443AF"></path>
                    <path d="M111,113.37 C109.931329,112.944741 109.409741,111.733671 109.835,110.665 C110.260259,109.596329 111.471329,109.074741 112.54,109.5 C113.231309,109.775094 113.723344,110.398101 113.830759,111.13434 C113.938175,111.870578 113.644653,112.608196 113.060759,113.06934 C112.476866,113.530483 111.691309,113.645095 111,113.37 L111,113.37 Z" id="Path" fill="#4443AF"></path>
                    <path d="M153.720024,113.63 C153.724049,114.476224 153.217412,115.241378 152.436762,115.568023 C151.656112,115.894669 150.75553,115.718334 150.155719,115.121393 C149.555908,114.524452 149.375256,113.624726 149.698154,112.842518 C150.021051,112.060311 150.783766,111.55 151.63,111.55 C152.780381,111.55 153.714496,112.479632 153.720024,113.63 L153.720024,113.63 Z" id="Path" fill="#4443AF"></path>
                    <path d="M156.51,112.19 C156.493379,113.02091 156.334409,113.842818 156.04,114.62 C155.759123,115.503736 155.284204,116.313489 154.65,116.99 C153.829626,117.839781 152.665334,118.26718 151.49,118.15 C150.331955,118.024672 149.262265,117.471999 148.49,116.6 C147.888789,115.887921 147.488362,115.028386 147.33,114.11 C147.213905,113.506949 147.193656,112.88936 147.27,112.28 C147.282203,112.052852 147.34362,111.831068 147.45,111.63 C147.463619,112.438565 147.543891,113.244629 147.69,114.04 C147.8846,114.87143 148.283272,115.641279 148.85,116.28 C149.554759,117.03936 150.509982,117.518747 151.54,117.63 C152.570637,117.737728 153.594143,117.369561 154.32,116.63 C154.92472,116.021124 155.394862,115.292064 155.7,114.49 C156.22,113.1 156.42,112.16 156.51,112.19 Z" id="Path" fill="#4443AF"></path>
                    <path d="M110.83,132 C110.76,132 110.73,131.6 110.75,131 C110.75,130.69 110.75,130.31 110.8,129.9 C110.8,129.68 110.8,129.46 110.85,129.25 L110.85,128.91 L110.85,128.73 L110.85,128.56 L110.85,128.56 L111.14,128.3 L111.14,128.3 C112.314647,128.339914 113.477058,128.55218 114.59,128.93 C113.42039,129.060914 112.237938,129.020488 111.08,128.81 L111.08,128.81 C111.02,128.87 111.63,128.32 111.37,128.56 L111.37,128.56 L111.37,128.71 L111.37,128.89 L111.37,129.24 C111.37,129.46 111.32,129.67 111.29,129.9 C111.29,130.32 111.18,130.69 111.13,131.01 C111,131.58 110.9,132 110.83,132 Z" id="Path" fill="#4443AF"></path>
                    <path d="M109.37,145.74 C109.23827,144.584116 109.275324,143.41522 109.48,142.27 C109.516717,141.105646 109.72565,139.953146 110.1,138.85 C110.244162,140.004982 110.210437,141.175237 110,142.32 C109.954386,143.484235 109.742232,144.635932 109.37,145.74 L109.37,145.74 Z" id="Path" fill="#4443AF"></path>
                    <path d="M111.4,157.67 C110.25731,157.388433 109.162254,156.940303 108.15,156.34 C108.15,156.4 107.88,155.85 108,156.08 L108,156.08 L108,155.93 L108,155.75 L108,155.4 L108.09,154.75 C108.15,154.34 108.21,153.96 108.26,153.65 C108.38,153.03 108.48,152.65 108.55,152.65 C108.62,152.65 108.65,153.06 108.63,153.65 C108.63,153.97 108.61,154.34 108.57,154.76 C108.57,154.99 108.57,155.2 108.51,155.42 L108.51,155.76 L108.51,155.94 L108.51,156.1 L108.51,156.1 C108.64,156.33 108.34,155.78 108.37,155.84 C109.464247,156.29817 110.485168,156.914766 111.4,157.67 Z" id="Path" fill="#4443AF"></path>
                    <path d="M120.64,162.26 C118.957834,161.824344 117.380079,161.055869 116,160 C116.860126,160.141554 117.683063,160.454406 118.42,160.92 C119.241443,161.215232 119.996049,161.670715 120.64,162.26 L120.64,162.26 Z" id="Path" fill="#4443AF"></path>
                    <path d="M131.64,164.79 C130.672266,165.461801 129.610882,165.987439 128.49,166.35 L128.24,166.35 L128.24,166.35 L128.16,166.35 L128,166.27 L127.69,166.11 L127.11,165.81 L126.11,165.26 C125.57,164.94 125.25,164.71 125.28,164.64 C125.31,164.57 125.69,164.64 126.28,164.93 C126.57,165.05 126.92,165.2 127.28,165.38 L127.87,165.66 L128.19,165.81 L128.35,165.88 L128.43,165.88 L128.43,165.88 L128.26,165.88 C129.326369,165.351036 130.465507,164.983681 131.64,164.79 L131.64,164.79 Z" id="Path" fill="#4443AF"></path>
                    <path d="M139.11,161.76 C139.16,161.9 138.37,162.34 137.34,162.76 C136.31,163.18 135.43,163.41 135.34,163.28 C135.25,163.15 136.08,162.7 137.11,162.28 C138.14,161.86 139.05,161.63 139.11,161.76 Z" id="Path" fill="#4443AF"></path>
                    <path d="M146.45,155.45 C146.581986,156.618877 146.548321,157.800533 146.35,158.96 L146.18,159.18 L146.18,159.18 L146.18,159.18 L146.1,159.18 L145.93,159.25 L145.61,159.38 L145,159.61 C144.6,159.75 144.25,159.88 143.94,159.97 C143.34,160.17 142.94,160.26 142.94,160.19 C142.94,160.12 143.26,159.92 143.82,159.63 L144.82,159.16 L145.43,158.9 L145.75,158.77 L145.91,158.7 L146,158.7 L146,158.7 L146,158.7 L145.84,158.92 C145.868235,157.739294 146.073868,156.569548 146.45,155.45 L146.45,155.45 Z" id="Path" fill="#4443AF"></path>
                    <path d="M147.78,142.49 C147.912317,144.672101 147.685982,146.861134 147.11,148.97 C146.970577,147.885596 146.997555,146.78626 147.19,145.71 C147.217603,144.612473 147.416675,143.526013 147.78,142.49 L147.78,142.49 Z" id="Path" fill="#4443AF"></path>
                    <path d="M145.33,132.16 C146.49961,132.029086 147.682062,132.069512 148.84,132.28 L149.07,132.56 L149.07,132.56 L149.07,132.72 L149.07,132.9 L149.07,133.24 C149.07,133.46 149.02,133.67 148.99,133.89 C148.93,134.31 148.88,134.68 148.82,135 C148.71,135.62 148.6,136 148.53,136 C148.46,136 148.44,135.59 148.45,135 C148.45,134.68 148.45,134.3 148.51,133.88 L148.56,133.23 L148.56,132.88 L148.56,132.55 L148.56,132.55 L148.79,132.83 C147.609978,132.778168 146.444074,132.5524 145.33,132.16 L145.33,132.16 Z" id="Path" fill="#4443AF"></path>
                    <path d="M133.06,130.84 C135.12926,130.711369 137.20535,130.934532 139.2,131.5 C138.169753,131.645699 137.12262,131.622054 136.1,131.43 C135.061764,131.39603 134.035569,131.196867 133.06,130.84 L133.06,130.84 Z" id="Path" fill="#4443AF"></path>
                    <path d="M120.79,129.51 C121.820247,129.364301 122.86738,129.387946 123.89,129.58 C124.914747,129.618172 125.927116,129.817271 126.89,130.17 C124.82074,130.298631 122.74465,130.075468 120.75,129.51 L120.79,129.51 Z" id="Path" fill="#4443AF"></path>
                    <path d="M56.5,112.57 C56.43,113.77 56.3999822,114.98 56.3999822,116.2 C56.3966167,120.949597 56.875743,125.687251 57.83,130.34 L57.83,130.48 C57.95,131.06 58.09,131.63 58.23,132.2 C58.77,134.46 59.42,136.69 60.14,138.89 C60.23,139.16 60.32,139.44 60.42,139.71 C63,139.13 70.48,132.65 79.09,124.56 L61.25,108.56 C58.78,111 57.31,112.29 56.5,112.57 Z" id="Path" fill="#FFBE9D"></path>
                    <path d="M169.12,8.71 C169.74,15.62 177.61,21.44 184.55,21.23 C188.37,21.11 192.24,19.41 195.91,20.47 C202.07,22.26 204.56,30.85 210.91,32 C215.63,32.86 219.98,29 224.77,28.78 C228.29,28.59 231.61,30.35 234.53,32.33 C237.45,34.31 240.23,36.6 243.53,37.73 C246.83,38.86 249.93,36.86 253.3,35.83 C254.13,37.97 254.68,40.61 255.75,42.83 C256.82,45.05 258.12,49.16 256.22,50.04 C256.22,50.04 250.91,52.79 247.84,52.64 C250.363936,55.18504 254.056967,56.1845999 257.52,55.26 C258.37,60.4 259.01,66.33 255.52,70.2 C253.889332,71.87769 251.803805,73.0421092 249.52,73.55 C238.38,76.43 226.73,68.64 215.42,70.76 C210.78,71.64 206.53,74.14 201.84,74.76 C197.167367,75.3391077 192.458701,74.0087112 188.78,71.07 C184.32,67.46 181.25,61.42 175.59,60.47 C173.08,60.06 170.54,60.78 168.08,61.47 C165.62,62.16 163.08,62.82 160.57,62.29 C158.06,61.76 155.74,59.64 155.85,57.1" id="Path" fill="#252482"></path>
                    <path d="M147,75.82 C148.25,68.82 149.69,61.55 149.69,61.55 C149.69,61.55 158.93,61.64 162.86,50.25 C166.6,39.39 169.3,13.25 169.3,13.25 L169.3,13.25 C157.161345,5.69365442 141.602,6.49156956 130.3,15.25 L130.3,15.25 L121.09,72 C120.02,78.59 124.83,84.75 131.89,85.84 L131.89,85.84 C139,87 145.77,82.46 147,75.82 Z" id="Path" fill="#FFBE9D"></path>
                    <path d="M162.39,32.83 C162.25671,33.6446582 161.497578,34.2040184 160.68,34.09 C160.286256,34.0549689 159.923545,33.8617745 159.674769,33.5545739 C159.425993,33.2473733 159.312417,32.8524252 159.36,32.46 C159.498124,31.6438923 160.260229,31.085606 161.08,31.2 C161.471941,31.2375594 161.832096,31.4318309 162.078749,31.7387353 C162.325402,32.0456396 162.437642,32.4391568 162.39,32.83 L162.39,32.83 Z" id="Path" fill="#252482"></path>
                    <path d="M165.12,31.58 C164.9,31.74 163.91,30.7 162.29,30.42 C160.67,30.14 159.35,30.73 159.21,30.51 C159.07,30.29 159.39,30.08 159.97,29.8 C160.756465,29.4344968 161.637143,29.3226646 162.49,29.48 C163.326955,29.6323183 164.095806,30.0412071 164.69,30.65 C165.12,31.12 165.23,31.5 165.12,31.58 Z" id="Path" fill="#252482"></path>
                    <path d="M145.79,30.2 C145.651876,31.0161077 144.889771,31.574394 144.07,31.46 C143.678059,31.4224406 143.317904,31.2281691 143.071251,30.9212647 C142.824598,30.6143604 142.712358,30.2208432 142.76,29.83 C142.898124,29.0138923 143.660229,28.455606 144.48,28.57 C144.871941,28.6075594 145.232096,28.8018309 145.478749,29.1087353 C145.725402,29.4156396 145.837642,29.8091568 145.79,30.2 L145.79,30.2 Z" id="Path" fill="#252482"></path>
                    <path d="M148.15,29.19 C147.93,29.35 146.94,28.31 145.32,28.03 C143.7,27.75 142.38,28.35 142.23,28.12 C142.08,27.89 142.41,27.7 143,27.41 C143.785475,27.053115 144.661297,26.9449457 145.51,27.1 C146.352773,27.2437973 147.127301,27.6538412 147.72,28.27 C148.15,28.74 148.26,29.12 148.15,29.19 Z" id="Path" fill="#252482"></path>
                    <path d="M151.9,42.22 C152.799676,42.1050353 153.710324,42.1050353 154.61,42.22 C155.03,42.22 155.44,42.22 155.56,41.97 C155.667247,41.550171 155.64635,41.1078481 155.5,40.7 C155.29,39.63 155.07,38.51 154.83,37.34 C153.92,32.57 153.35,28.67 153.54,28.63 C153.73,28.59 154.62,32.44 155.54,37.22 C155.75,38.39 155.96,39.51 156.15,40.58 C156.325939,41.1238986 156.301104,41.7128442 156.08,42.24 C155.907211,42.5126159 155.620596,42.6926688 155.3,42.73 C155.060745,42.7567495 154.819255,42.7567495 154.58,42.73 C153.669043,42.6712498 152.768863,42.499947 151.9,42.22 Z" id="Path" fill="#252482"></path>
                    <path d="M149.65,61.55 C144.114069,60.6478082 138.937989,58.2242255 134.7,54.55 C134.7,54.55 137.09,63.27 149.01,64.23 L149.65,61.55 Z" id="Path" fill="#EB996E"></path>
                    <path d="M150.53,46 C150.036901,45.1092914 149.125719,44.5294487 148.11,44.46 C147.381891,44.4036404 146.661556,44.6413511 146.11,45.12 C145.569741,45.5962673 145.385808,46.3599906 145.65,47.03 C146.075412,47.7051805 146.861487,48.0628445 147.65,47.94 C148.4587,47.7986802 149.232724,47.5033287 149.93,47.07 C150.136476,46.9717991 150.32296,46.8361746 150.48,46.67 C150.63352,46.5095806 150.673194,46.2715383 150.58,46.07" id="Path" fill="#EB996E"></path>
                    <path d="M147,42.5 C147.27,42.5 147,44.28 148.24,45.79 C149.48,47.3 151.43,47.44 151.4,47.69 C151.37,47.94 150.92,47.95 150.13,47.84 C149.100232,47.6732926 148.162043,47.1493227 147.48,46.36 C146.821151,45.6008836 146.487131,44.6131883 146.55,43.61 C146.56,42.87 146.83,42.46 147,42.5 Z" id="Path" fill="#252482"></path>
                    <path d="M138.23,6.87 C141.36,13.78 151.5,22.18 159.34,25.16 C158.62,23.74 154.22,19.73 153.51,18.31 C156.67,21.74 161.24,26.4 166.07,27.57 C166.626151,27.7542616 167.224084,27.7716434 167.79,27.62 C168.422805,27.2969471 168.869817,26.6984682 169,26 C169.936724,22.5170514 170.493305,18.9428593 170.66,15.34 C170.824761,12.3015621 169.823232,9.31485963 167.86,6.99 C165.19,3.99 160.86,2.55 156.64,1.65 C153.167065,0.753755017 149.551678,0.549879789 146,1.05 C142.53,1.71 139.29,3.71 138.25,6.66" id="Path" fill="#252482"></path>
                    <path d="M119.54,32.88 C119.482176,30.2097508 119.582351,27.538419 119.84,24.88 C120.63,18.78 122.54,-3.39 143,2.31 L140.82,8 C140.82,8 142.39,22.27 131.89,29.93 C131.89,29.93 131.94,44.18 124.66,49.32 C124.66,49.32 119.59,39.66 119.54,32.92" id="Path" fill="#252482"></path>
                    <path d="M132.33,28.93 C131.120048,28.4396387 129.798687,28.290899 128.51,28.5 C127.223048,28.723109 126.074493,29.4409563 125.31,30.5 C124.61601,31.6148206 124.369509,32.9509302 124.62,34.24 C124.878388,35.5192715 125.418087,36.7250542 126.2,37.77 C126.706522,38.5556378 127.391888,39.2101623 128.2,39.68 C129.036714,40.1298011 130.043286,40.1298011 130.88,39.68" id="Path" fill="#FFBE9D"></path>
                    <path d="M130.3,36.4 C130.43,36.47 129.75,37.13 128.66,36.62 C128.081954,36.3049626 127.653587,35.7722041 127.47,35.14 C127.238501,34.4345667 127.150108,33.6900276 127.21,32.95 C127.2517,32.1586212 127.578506,31.4090988 128.13,30.84 C128.595194,30.3448485 129.263851,30.0936404 129.94,30.16 C131.13,30.34 131.35,31.22 131.21,31.22 C131.07,31.22 130.72,30.79 129.91,30.84 C128.87351,31.0456725 128.140132,31.9740538 128.18,33.03 C128.09,34.35 128.38,35.62 129.01,36.03 C129.64,36.44 130.24,36.28 130.3,36.4 Z" id="Path" fill="#EB996E"></path>
                    <path d="M250.8,29.89 C250.663214,30.1918341 250.477364,30.4689194 250.25,30.71 C249.594796,31.4048404 248.749752,31.8916973 247.82,32.11 C246.344525,32.4795738 244.789802,32.3710233 243.38,31.8 C241.569485,31.0020878 239.885077,29.9442795 238.38,28.66 C236.66,27.36 234.74,25.82 232.28,25.29 C231.007908,25.0495834 229.697608,25.1043218 228.45,25.45 C227.118462,25.837775 225.828784,26.3569962 224.6,27 C223.32,27.65 222.02,28.37 220.6,29 C219.186611,29.6925555 217.650784,30.1002971 216.08,30.2 C214.422913,30.2547233 212.791226,29.7820244 211.42,28.85 C210.064737,27.8647652 208.882059,26.6618124 207.92,25.29 C205.92,22.63 204.3,19.74 201.86,17.85 C200.675967,16.9196037 199.263109,16.325443 197.77,16.13 C196.325588,15.9671961 194.8646,16.0313041 193.44,16.32 C190.64,16.84 188.02,17.73 185.44,18.06 C183.046038,18.3490428 180.618139,18.1379211 178.31,17.44 C174.961522,16.4432209 171.967417,14.5107565 169.68,11.87 C168.839926,10.9172579 168.139584,9.84990963 167.6,8.7 C167.660049,8.75850241 167.710651,8.8259725 167.75,8.9 C167.85,9.07 167.98,9.27 168.14,9.52 C170.521912,13.2127412 174.176311,15.9028344 178.41,17.08 C180.680062,17.7461465 183.063757,17.9334368 185.41,17.63 C187.93,17.29 190.53,16.39 193.41,15.85 C194.882143,15.5381326 196.395138,15.467211 197.89,15.64 C199.468289,15.842144 200.963523,16.4637196 202.22,17.44 C204.78,19.44 206.41,22.36 208.39,24.98 C209.313883,26.3063722 210.452899,27.4690479 211.76,28.42 C213.038564,29.2940661 214.561991,29.7388367 216.11,29.69 C217.618341,29.5965745 219.09331,29.2057419 220.45,28.54 C221.82,27.94 223.11,27.23 224.4,26.54 C225.659787,25.8809791 226.983243,25.3515966 228.35,24.96 C229.654805,24.6079655 231.022494,24.5566772 232.35,24.81 C234.665343,25.5009247 236.797206,26.7000976 238.59,28.32 C240.058368,29.5997073 241.701539,30.6637277 243.47,31.48 C244.822438,32.0477534 246.317219,32.1839602 247.75,31.87 C248.653814,31.6677979 249.486376,31.2256075 250.16,30.59 C250.62,30.18 250.78,29.88 250.8,29.89 Z" id="Path" fill="#252482"></path>
                </g>
                <g id="freepik--Tree--inject-162" transform="translate(155.000000, 244.000000)">
                    <polygon id="Path" fill="#3E3CDA" points="33.48 0.54 15.34 37.13 20.75 37.33 5.38 66.41 13.46 66.41 0.86 92.24 71.25 92.24 55.75 66.41 63.18 66.08 48.33 37.02 53.82 36.7"></polygon>
                    <path d="M36.54,43 C36.69,43 36.54,58.5 36.3,77.61 C36.06,96.72 35.67,112.21 35.53,112.21 C35.39,112.21 35.53,96.71 35.78,77.6 C36.03,58.49 36.4,43 36.54,43 Z" id="Path" fill="#0907AC"></path>
                    <path d="M45.17,52.39 C44.8926908,52.9771198 44.5248743,53.517034 44.08,53.99 C43.0921941,55.1920113 42.0371751,56.3371744 40.92,57.42 C39.64,58.71 38.48,59.86 37.67,60.73 C37.2632496,61.2306634 36.8076701,61.6895927 36.31,62.1 C36.5839248,61.5103455 36.9483217,60.9671242 37.39,60.49 C38.383433,59.292898 39.4381781,58.1480323 40.55,57.06 C41.84,55.77 43,54.62 43.81,53.75 C44.2113677,53.2475201 44.6675201,52.7913677 45.17,52.39 L45.17,52.39 Z" id="Path" fill="#0907AC"></path>
                    <path d="M36.37,62.47 C34.9445023,61.6719165 33.6042185,60.7303671 32.37,59.66 C31.0212476,58.7153736 29.7745249,57.6328697 28.65,56.43 C30.0761336,57.227072 31.4165174,58.1686917 32.65,59.24 C34.0004769,60.1824161 35.2474216,61.2651127 36.37,62.47 Z" id="Path" fill="#0907AC"></path>
                    <path d="M35.89,80.42 C34.3200327,79.3095225 32.8142834,78.1109328 31.38,76.83 C29.8335388,75.6827194 28.354424,74.4473413 26.95,73.13 C28.6635456,74.0306827 30.2618255,75.1353762 31.71,76.42 C33.2633003,77.5754469 34.6673442,78.9190296 35.89,80.42 Z" id="Path" fill="#0907AC"></path>
                    <path d="M45.92,69.32 C46.05,69.42 43.99,72.1 41.09,75.05 L37.44,78.87 C36.9784482,79.4389889 36.4589889,79.9584482 35.89,80.42 C35.76,80.32 37.82,77.64 40.72,74.69 L44.37,70.88 C44.83326,70.30953 45.3525209,69.786919 45.92,69.32 L45.92,69.32 Z" id="Path" fill="#0907AC"></path>
                </g>
            </g>
        </g>
    </g>
</svg>