<?xml version="1.0" encoding="UTF-8"?>
<svg width="40px" height="40px" viewBox="0 0 40 40" version="1.1" xmlns="http://www.w3.org/2000/svg" xmlns:xlink="http://www.w3.org/1999/xlink">
    <!-- Generator: Sketch 63.1 (92452) - https://sketch.com -->
    <title>address</title>
    <desc>Created with Sketch.</desc>
    <defs>
        <linearGradient x1="49.999901%" y1="100.000264%" x2="49.999901%" y2="0.000113326558%" id="linearGradient-1">
            <stop stop-color="#5558FF" offset="0%"></stop>
            <stop stop-color="#00C0FF" offset="100%"></stop>
        </linearGradient>
        <linearGradient x1="49.999901%" y1="100.000264%" x2="49.999901%" y2="0.000113326558%" id="linearGradient-2">
            <stop stop-color="#3539FF" offset="0%"></stop>
            <stop stop-color="#00B2ED" offset="100%"></stop>
        </linearGradient>
    </defs>
    <g id="address" stroke="none" stroke-width="1" fill="none" fill-rule="evenodd">
        <g id="favourite" transform="translate(3.000000, 0.000000)" fill-rule="nonzero">
            <path d="M15.3057692,38.8365385 C16.0365385,39.5673077 17.2288462,39.5673077 17.9596154,38.8365385 L28.3980769,28.3980769 C34.8980769,21.8980769 34.8980769,11.3673077 28.3980769,4.875 C21.8980769,-1.625 11.3673077,-1.625 4.875,4.875 C-1.625,11.375 -1.625,21.9057692 4.875,28.3980769 L15.3057692,38.8365385 Z" id="Path" fill="url(#linearGradient-1)"></path>
            <path d="M28.4538462,4.94615385 C24.9,1.39230769 20.1461538,-0.215384615 15.5,0.115384615 C19.3538462,0.392307692 23.1307692,2 26.0769231,4.94615385 C32.5769231,11.4461538 32.5769231,21.9769231 26.0769231,28.4692308 L15.6461538,38.9076923 C15.6,38.9538462 15.5538462,38.9923077 15.5076923,39.0307692 C16.2461538,39.6384615 17.3384615,39.5923077 18.0230769,38.9076923 L28.4615385,28.4692308 C34.9538462,21.9769231 34.9538462,11.4461538 28.4538462,4.94615385 Z" id="Path" fill="url(#linearGradient-2)"></path>
            <g id="Group-2" transform="translate(8.888889, 8.888889)">
                <circle id="Oval" fill="#F3F4F3" cx="7.83162393" cy="7.89316239" r="7.5"></circle>
                <path d="M7.76851521,0.393162393 C7.51011727,0.393162393 7.25171934,0.407945573 6.9982906,0.432584207 C10.8146293,0.812019161 13.7961439,4.01011377 13.7961439,7.89316239 C13.7961439,11.776211 10.8146293,14.9743056 6.9982906,15.3537406 C7.25171934,15.3783792 7.50514808,15.3931624 7.76851521,15.3931624 C11.9476048,15.3931624 15.3316239,12.0324528 15.3316239,7.89316239 C15.3316239,3.75387199 11.9426357,0.393162393 7.76851521,0.393162393 Z" id="Path" fill="#E2ECF0"></path>
            </g>
        </g>
    </g>
</svg>