<?xml version="1.0" encoding="UTF-8"?>
<svg width="90px" height="90px" viewBox="0 0 90 90" version="1.1" xmlns="http://www.w3.org/2000/svg" xmlns:xlink="http://www.w3.org/1999/xlink">
    <title>Any Integration</title>
    <g id="Any-Integration" stroke="none" stroke-width="1" fill="none" fill-rule="evenodd">
        <g id="Group-8-Copy">
            <circle id="Oval-Copy-106" fill="#E8D8FF" cx="45" cy="45" r="45"></circle>
            <g id="Group" transform="translate(21.000000, 21.000000)">
                <polygon id="Path" points="0 0 48 0 48 48 0 48"></polygon>
                <rect id="Rectangle" stroke="#8631FF" stroke-width="3" stroke-linecap="round" stroke-linejoin="round" x="6" y="6" width="12" height="12" rx="2"></rect>
                <rect id="Rectangle" stroke="#8631FF" stroke-width="3" stroke-linecap="round" stroke-linejoin="round" x="30" y="30" width="12" height="12" rx="2"></rect>
                <path d="M42,22 L42,16 C42,13.790861 40.209139,12 38,12 L26,12 L32,18 M32,6 L26,12" id="Shape" stroke="#8631FF" stroke-width="3" stroke-linecap="round" stroke-linejoin="round"></path>
                <path d="M6,26 L6,32 C6,34.209139 7.790861,36 10,36 L22,36 L16,30 M16,42 L22,36" id="Shape" stroke="#8631FF" stroke-width="3" stroke-linecap="round" stroke-linejoin="round"></path>
            </g>
        </g>
    </g>
</svg>