<?xml version="1.0" encoding="UTF-8"?>
<svg width="90px" height="90px" viewBox="0 0 90 90" version="1.1" xmlns="http://www.w3.org/2000/svg" xmlns:xlink="http://www.w3.org/1999/xlink">
    <title>Configurable Multi Tenant Dashboard</title>
    <g id="Configurable-Multi-Tenant-Dashboard" stroke="none" stroke-width="1" fill="none" fill-rule="evenodd">
        <g id="Group-11-Copy">
            <circle id="Oval-Copy-109" fill="#DEFFEA" cx="45" cy="45" r="45"></circle>
            <g id="Group" transform="translate(21.000000, 21.000000)">
                <polygon id="Path" points="0 0 48 0 48 48 0 48"></polygon>
                <path d="M20.65,8.634 C21.502,5.122 26.498,5.122 27.35,8.634 C27.6092861,9.70411841 28.3640675,10.5860485 29.3813031,11.0074916 C30.3985388,11.4289348 31.5558822,11.3392025 32.496,10.766 C35.582,8.886 39.116,12.418 37.236,15.506 C36.6636249,16.4457078 36.5741092,17.6021621 36.9950559,18.6187583 C37.4160026,19.6353545 38.2968576,20.390003 39.366,20.65 C42.878,21.502 42.878,26.498 39.366,27.35 C38.2958816,27.6092861 37.4139515,28.3640675 36.9925084,29.3813031 C36.5710652,30.3985388 36.6607975,31.5558822 37.234,32.496 C39.114,35.582 35.582,39.116 32.494,37.236 C31.5542922,36.6636249 30.3978379,36.5741092 29.3812417,36.9950559 C28.3646455,37.4160026 27.609997,38.2968576 27.35,39.366 C26.498,42.878 21.502,42.878 20.65,39.366 C20.3907139,38.2958816 19.6359325,37.4139515 18.6186969,36.9925084 C17.6014612,36.5710652 16.4441178,36.6607975 15.504,37.234 C12.418,39.114 8.884,35.582 10.764,32.494 C11.3363751,31.5542922 11.4258908,30.3978379 11.0049441,29.3812417 C10.5839974,28.3646455 9.70314242,27.609997 8.634,27.35 C5.122,26.498 5.122,21.502 8.634,20.65 C9.70411841,20.3907139 10.5860485,19.6359325 11.0074916,18.6186969 C11.4289348,17.6014612 11.3392025,16.4441178 10.766,15.504 C8.886,12.418 12.418,8.884 15.506,10.764 C17.506,11.98 20.098,10.904 20.65,8.634 Z" id="Path" stroke="#00D67D" stroke-width="3" stroke-linecap="round" stroke-linejoin="round"></path>
                <circle id="Oval" stroke="#00D67D" stroke-width="3" stroke-linecap="round" stroke-linejoin="round" cx="24" cy="24" r="6"></circle>
            </g>
        </g>
    </g>
</svg>