<?xml version="1.0" encoding="UTF-8"?>
<svg width="90px" height="90px" viewBox="0 0 90 90" version="1.1" xmlns="http://www.w3.org/2000/svg" xmlns:xlink="http://www.w3.org/1999/xlink">
    <!-- Generator: Sketch 63.1 (92452) - https://sketch.com -->
    <title>Artboard</title>
    <desc>Created with Sketch.</desc>
    <g id="Artboard" stroke="none" stroke-width="1" fill="none" fill-rule="evenodd">
        <g id="Condigure" fill-rule="nonzero">
            <circle id="Oval-Copy-107" fill="#FFDDDF" cx="45" cy="45" r="45"></circle>
            <path d="M26.7142857,52.4285714 C27.605367,52.4285714 28.3376556,53.1084435 28.4207239,53.97776 L28.4285714,54.1428571 L28.4285714,58.7142857 C28.4285714,60.226494 29.6033798,61.464311 31.0900967,61.5648371 L31.2857143,61.5714286 L35.8571429,61.5714286 C36.8039167,61.5714286 37.5714286,62.3389404 37.5714286,63.2857143 C37.5714286,64.1767956 36.8915565,64.9090842 36.02224,64.9921525 L35.8571429,65 L31.2857143,65 C27.9055655,65 25.1485715,62.3319573 25.0058074,58.986947 L25,58.7142857 L25,54.1428571 C25,53.1960833 25.7675119,52.4285714 26.7142857,52.4285714 Z M63.2857143,52.4285714 C64.1767956,52.4285714 64.9090842,53.1084435 64.9921525,53.97776 L65,54.1428571 L65,58.7142857 C65,62.0944345 62.3319573,64.8514285 58.986947,64.9941926 L58.7142857,65 L54.1428571,65 C53.1960833,65 52.4285714,64.2324881 52.4285714,63.2857143 C52.4285714,62.394633 53.1084435,61.6623444 53.97776,61.5792761 L54.1428571,61.5714286 L58.7142857,61.5714286 C60.226494,61.5714286 61.464311,60.3966202 61.5648371,58.9099033 L61.5714286,58.7142857 L61.5714286,54.1428571 C61.5714286,53.1960833 62.3389404,52.4285714 63.2857143,52.4285714 Z M45,31.8571429 C48.3801488,31.8571429 51.1371428,34.5251856 51.2799069,37.8701959 L51.2857143,38.1428571 L51.285,41 L51.8571429,41 C53.9993383,41 55.7482217,42.6839685 55.8522475,44.8003597 L55.8571429,45 L55.8571429,51.8571429 C55.8571429,54.0662819 54.0662819,55.8571429 51.8571429,55.8571429 L51.8571429,55.8571429 L38.1428571,55.8571429 C35.9337181,55.8571429 34.1428571,54.0662819 34.1428571,51.8571429 L34.1428571,51.8571429 L34.1428571,45 C34.1428571,42.790861 35.9337181,41 38.1428571,41 L38.1428571,41 L38.714,41 L38.7142857,38.1428571 C38.7142857,34.671353 41.5284959,31.8571429 45,31.8571429 Z M51.8571429,44.4285714 L38.1428571,44.4285714 C37.8272659,44.4285714 37.5714286,44.6844087 37.5714286,45 L37.5714286,45 L37.5714286,51.8571429 C37.5714286,52.1727341 37.8272659,52.4285714 38.1428571,52.4285714 L38.1428571,52.4285714 L51.8571429,52.4285714 C52.1727341,52.4285714 52.4285714,52.1727341 52.4285714,51.8571429 L52.4285714,51.8571429 L52.4285714,45 C52.4285714,44.6844087 52.1727341,44.4285714 51.8571429,44.4285714 L51.8571429,44.4285714 Z M45,35.2857143 C43.4877918,35.2857143 42.2499747,36.4605227 42.1494487,37.9472396 L42.1428571,38.1428571 L42.142,41 L47.857,41 L47.8571429,38.1428571 C47.8571429,36.5649007 46.5779564,35.2857143 45,35.2857143 Z M35.8571429,25 C36.8039167,25 37.5714286,25.7675119 37.5714286,26.7142857 C37.5714286,27.605367 36.8915565,28.3376556 36.02224,28.4207239 L35.8571429,28.4285714 L31.2857143,28.4285714 C29.773506,28.4285714 28.535689,29.6033798 28.4351629,31.0900967 L28.4285714,31.2857143 L28.4285714,35.8571429 C28.4285714,36.8039167 27.6610596,37.5714286 26.7142857,37.5714286 C25.8232044,37.5714286 25.0909158,36.8915565 25.0078475,36.02224 L25,35.8571429 L25,31.2857143 C25,27.9055655 27.6680427,25.1485715 31.013053,25.0058074 L31.2857143,25 L35.8571429,25 Z M58.7142857,25 C62.0944345,25 64.8514285,27.6680427 64.9941926,31.013053 L65,31.2857143 L65,35.8571429 C65,36.8039167 64.2324881,37.5714286 63.2857143,37.5714286 C62.394633,37.5714286 61.6623444,36.8915565 61.5792761,36.02224 L61.5714286,35.8571429 L61.5714286,31.2857143 C61.5714286,29.773506 60.3966202,28.535689 58.9099033,28.4351629 L58.7142857,28.4285714 L54.1428571,28.4285714 C53.1960833,28.4285714 52.4285714,27.6610596 52.4285714,26.7142857 C52.4285714,25.8232044 53.1084435,25.0909158 53.97776,25.0078475 L54.1428571,25 L58.7142857,25 Z" id="Combined-Shape" fill="#FF3945"></path>
        </g>
    </g>
</svg>