<?xml version="1.0" encoding="UTF-8"?>
<svg width="90px" height="90px" viewBox="0 0 90 90" version="1.1" xmlns="http://www.w3.org/2000/svg" xmlns:xlink="http://www.w3.org/1999/xlink">
    <title>Design</title>
    <g id="Design" stroke="none" stroke-width="1" fill="none" fill-rule="evenodd">
        <circle id="Oval-Copy-106" fill="#E8D8FF" cx="45" cy="45" r="45"></circle>
        <g id="Group" transform="translate(25.000000, 25.000000)" fill="#8631FF" fill-rule="nonzero">
            <path d="M31.1419202,0.58636464 C31.6987789,0.0295059275 32.5785594,-0.00761798661 33.1784744,0.474992897 L33.3025242,0.58636464 L39.4136354,6.69747575 C39.9704941,7.25433446 40.007618,8.13411498 39.5250071,8.73402993 L39.4136354,8.8580798 L8.8580798,39.4136354 C8.61942607,39.6522891 8.32146017,39.7954813 8.01163183,39.8432121 L7.8559488,39.8591223 L7.69960675,39.8591223 C7.38714232,39.8432121 7.07863203,39.7318403 6.82152562,39.5250071 L6.69747575,39.4136354 L0.58636464,33.3025242 C0.0295059275,32.7456655 -0.00761798661,31.865885 0.474992897,31.2659701 L0.58636464,31.1419202 L31.1419202,0.58636464 Z M32.2222222,3.82777778 L3.82777778,32.2222222 L7.77777778,36.1722222 L36.1722222,7.77777778 L32.2222222,3.82777778 Z" id="Path"></path>
            <path d="M25.0308091,6.69747575 C25.5876678,6.14061704 26.4674483,6.10349312 27.0673633,6.58610401 L27.1914131,6.69747575 L33.3025242,12.8085869 C33.8991586,13.4052212 33.8991586,14.3725566 33.3025242,14.9691909 C32.7456655,15.5260496 31.865885,15.5631735 31.2659701,15.0805627 L31.1419202,14.9691909 L25.0308091,8.8580798 C24.4341747,8.26144547 24.4341747,7.29411009 25.0308091,6.69747575 Z" id="Path"></path>
            <path d="M13.8888889,0.138888889 L14.0360241,0.145882626 C14.8107621,0.219913383 15.4166667,0.872531732 15.4166667,1.66666667 C15.4166667,3.01435225 16.4636602,4.11749939 17.7886279,4.20708859 L17.962963,4.21296296 C19.9400871,4.21296296 19.9982379,7.09142317 18.1374151,7.26074436 L17.962963,7.26851852 C16.6152774,7.26851852 15.5121302,8.31551209 15.422541,9.64047974 L15.4166667,9.81481481 C15.4166667,11.791939 12.5382065,11.8500897 12.3688853,9.98926695 L12.3552367,9.64047974 C12.2695427,8.37311938 11.2565103,7.36008691 9.98914989,7.27439289 L9.81481481,7.26851852 C7.83769063,7.26851852 7.77953992,4.39005831 9.64036268,4.22073712 L9.81481481,4.21296296 C11.1625004,4.21296296 12.2656475,3.16596939 12.3552367,1.84100174 L12.3611111,1.66666667 C12.3611111,0.872531732 12.9670156,0.219913383 13.7417537,0.145882626 L13.8888889,0.138888889 Z" id="Path"></path>
            <path d="M34.2592593,20.5092593 L34.4063945,20.516253 C35.1327114,20.5856568 35.7106395,21.1635849 35.7800433,21.8899018 L35.787037,22.037037 C35.787037,23.3847226 36.8340306,24.4878698 38.1589983,24.577459 L38.3333333,24.5833333 C40.3104575,24.5833333 40.3686082,27.4617935 38.5077855,27.6311147 L38.3333333,27.6388889 C36.9856477,27.6388889 35.8825006,28.6858825 35.7929114,30.0108501 L35.787037,30.1851852 C35.787037,32.1623094 32.9085768,32.2204601 32.7392556,30.3596373 L32.7314815,30.1851852 C32.7314815,28.8374996 31.6844879,27.7343525 30.3595203,27.6447633 L30.1851852,27.6388889 C28.208061,27.6388889 28.1499103,24.7604287 30.0107331,24.5911075 L30.3595203,24.577459 C31.6268806,24.4917649 32.6399131,23.4787325 32.7256071,22.2113721 L32.7314815,22.037037 C32.7314815,21.2429021 33.337386,20.5902838 34.1121241,20.516253 L34.2592593,20.5092593 Z" id="Path"></path>
        </g>
    </g>
</svg>