<?xml version="1.0" encoding="UTF-8"?>
<svg width="90px" height="90px" viewBox="0 0 90 90" version="1.1" xmlns="http://www.w3.org/2000/svg" xmlns:xlink="http://www.w3.org/1999/xlink">
    <!-- Generator: Sketch 63.1 (92452) - https://sketch.com -->
    <title>financial</title>
    <desc>Created with Sketch.</desc>
    <defs>
        <linearGradient x1="50%" y1="0%" x2="50%" y2="100%" id="linearGradient-1">
            <stop stop-color="#3BE7E1" offset="0%"></stop>
            <stop stop-color="#00AFAE" offset="100%"></stop>
        </linearGradient>
        <linearGradient x1="50%" y1="0%" x2="50%" y2="100%" id="linearGradient-2">
            <stop stop-color="#52F5EF" offset="0%"></stop>
            <stop stop-color="#2BDFDD" offset="100%"></stop>
        </linearGradient>
    </defs>
    <g id="financial" stroke="none" stroke-width="1" fill="none" fill-rule="evenodd">
        <circle id="Oval-Copy-15" cx="45" cy="45" r="45"></circle>
        <g id="Group-35" transform="translate(10.000000, 8.000000)">
            <g id="Group-Copy" transform="translate(19.000000, 11.000000)">
                <circle id="Oval" fill="url(#linearGradient-1)" cx="26" cy="26" r="26"></circle>
                <g id="usd-circle" transform="translate(18.264463, 12.462810)" fill="url(#linearGradient-2)">
                    <path d="M5.80165289,7.73553719 L13.5371901,7.73553719 C14.6052449,7.73553719 15.4710744,6.8697077 15.4710744,5.80165289 C15.4710744,4.73359809 14.6052449,3.8677686 13.5371901,3.8677686 L9.66942149,3.8677686 L9.66942149,1.9338843 C9.66942149,0.865829492 8.803592,0 7.73553719,0 C6.66748238,0 5.80165289,0.865829492 5.80165289,1.9338843 L5.80165289,3.8677686 C2.59748848,3.8677686 0,6.46525707 0,9.66942149 C0,12.8735859 2.59748848,15.4710744 5.80165289,15.4710744 L9.66942149,15.4710744 C10.7374763,15.4710744 11.6033058,16.3369039 11.6033058,17.4049587 C11.6033058,18.4730135 10.7374763,19.338843 9.66942149,19.338843 L1.9338843,19.338843 C0.865829492,19.338843 0,20.2046725 0,21.2727273 C0,22.3407821 0.865829492,23.2066116 1.9338843,23.2066116 L5.80165289,23.2066116 L5.80165289,25.1404959 C5.80165289,26.2085507 6.66748238,27.0743802 7.73553719,27.0743802 C8.803592,27.0743802 9.66942149,26.2085507 9.66942149,25.1404959 L9.66942149,23.2066116 C12.8735859,23.2066115 15.4710744,20.609123 15.4710744,17.4049587 C15.4710744,14.2007943 12.8735859,11.6033059 9.66942149,11.6033058 L5.80165289,11.6033058 C4.73359809,11.6033058 3.8677686,10.7374763 3.8677686,9.66942149 C3.8677686,8.60136668 4.73359809,7.73553719 5.80165289,7.73553719 Z" id="Shape"></path>
                </g>
            </g>
            <circle id="Oval-Copy-27" fill="url(#linearGradient-1)" opacity="0.136082849" cx="28" cy="28" r="28"></circle>
        </g>
    </g>
</svg>