<?xml version="1.0" encoding="UTF-8"?>
<svg width="90px" height="90px" viewBox="0 0 90 90" version="1.1" xmlns="http://www.w3.org/2000/svg" xmlns:xlink="http://www.w3.org/1999/xlink">
    <!-- Generator: Sketch 63.1 (92452) - https://sketch.com -->
    <title>hrms</title>
    <desc>Created with Sketch.</desc>
    <defs>
        <linearGradient x1="0%" y1="0%" x2="100%" y2="94.359739%" id="linearGradient-1">
            <stop stop-color="#FB62FF" offset="0%"></stop>
            <stop stop-color="#BE33F3" offset="100%"></stop>
        </linearGradient>
        <linearGradient x1="50%" y1="0%" x2="50%" y2="100%" id="linearGradient-2">
            <stop stop-color="#BF84FF" offset="0%"></stop>
            <stop stop-color="#A553FF" offset="100%"></stop>
        </linearGradient>
        <linearGradient x1="50%" y1="0%" x2="50%" y2="100%" id="linearGradient-3">
            <stop stop-color="#BF84FF" offset="0%"></stop>
            <stop stop-color="#A553FF" offset="100%"></stop>
        </linearGradient>
    </defs>
    <g id="hrms" stroke="none" stroke-width="1" fill="none" fill-rule="evenodd">
        <circle id="Oval-Copy-12" cx="45" cy="45" r="45"></circle>
        <g id="Group-34" transform="translate(13.000000, 10.000000)">
            <path d="M28,56 C31.4743776,56 34.800955,55.3671923 37.8707629,54.2105461 C39.7720001,53.4941956 39.7956858,50.2154267 37.9418202,44.3742396 C40.5515208,42.2695051 43.1287614,41.0505076 45.6735419,40.7172471 C47.8349104,40.4341976 50.1328114,40.6764906 52.5672451,41.444126 C52.6057996,41.373552 52.6346323,41.3205697 52.6537433,41.2851793 C54.7883435,37.332259 56,32.8076283 56,28 C56,12.536027 43.463973,0 28,0 C12.536027,0 0,12.536027 0,28 C0,43.463973 12.536027,56 28,56 Z" id="Oval-Copy-26" fill="url(#linearGradient-1)" opacity="0.136082849"></path>
            <g id="Group-2" transform="translate(12.000000, 20.000000)">
                <g id="Group">
                    <circle id="Oval-Copy" fill="url(#linearGradient-2)" opacity="0.617028525" cx="36.1411653" cy="7.8" r="7.8"></circle>
                    <path d="M48.1927413,35.3475711 C50.4231647,35.0978943 51.6990675,34.718153 51.6990675,33.1235442 C51.6990675,25.0575728 41.7790248,20.536857 35.1454304,20.536857 C28.511836,20.536857 20.8,27.4792693 20.8,33.4885409 C20.8,34.3699872 21.3877961,35.3475711 22.8812827,35.3475711 C24.3747694,35.3475711 45.9623179,35.5972478 48.1927413,35.3475711 Z" id="Oval-Copy-2" fill="url(#linearGradient-3)" opacity="0.617028525"></path>
                    <circle id="Oval" fill="url(#linearGradient-2)" cx="15.3411653" cy="7.8" r="7.8"></circle>
                    <path d="M27.3927413,35.3475711 C29.6231647,35.0978943 30.8990675,34.718153 30.8990675,33.1235442 C30.8990675,25.0575728 20.9790248,20.536857 14.3454304,20.536857 C7.71183602,20.536857 -5.91171556e-13,27.4792693 -5.91171556e-13,33.4885409 C-5.91171556e-13,34.3699872 0.587796068,35.3475711 2.08128272,35.3475711 C3.57476937,35.3475711 25.1623179,35.5972478 27.3927413,35.3475711 Z" id="Oval" fill="url(#linearGradient-3)"></path>
                </g>
            </g>
        </g>
    </g>
</svg>