<?xml version="1.0" encoding="UTF-8"?>
<svg width="600px" height="448px" viewBox="0 0 600 448" version="1.1" xmlns="http://www.w3.org/2000/svg" xmlns:xlink="http://www.w3.org/1999/xlink">
    <!-- Generator: Sketch 63.1 (92452) - https://sketch.com -->
    <title>Checking boxes-rafiki</title>
    <desc>Created with Sketch.</desc>
    <g id="Page-1" stroke="none" stroke-width="1" fill="none" fill-rule="evenodd">
        <g id="Checking-boxes-rafiki">
            <g id="freepik--background-complete--inject-184" fill-rule="nonzero">
                <rect id="Rectangle" fill="#E7E5FE" x="0" y="392.88" width="600" height="1"></rect>
                <rect id="Rectangle" fill="#E7E5FE" x="500.136" y="412.188" width="39.744" height="1"></rect>
                <rect id="Rectangle" fill="#E7E5FE" x="387.036" y="415.452" width="10.428" height="1"></rect>
                <rect id="Rectangle" fill="#E7E5FE" x="475.908" y="401.052" width="23.028" height="1"></rect>
                <rect id="Rectangle" fill="#E7E5FE" x="62.952" y="403.068" width="51.828" height="1"></rect>
                <rect id="Rectangle" fill="#E7E5FE" x="125.472" y="403.068" width="7.596" height="1"></rect>
                <rect id="Rectangle" fill="#E7E5FE" x="157.764" y="408.132" width="112.416" height="1"></rect>
                <path d="M284.4,339.36 L52.692,339.36 C48.912432,339.353381 45.852,336.287574 45.852,332.508 L45.852,6.792 C45.8848866,3.03587016 48.9357317,0.00643444767 52.692,1.70530257e-14 L284.4,1.70530257e-14 C288.184255,1.70530257e-14 291.252,3.06774489 291.252,6.852 L291.252,332.508 C291.252,336.292255 288.184255,339.36 284.4,339.36 Z M52.692,0.24 C49.0781175,0.246618844 46.152,3.17811144 46.152,6.792 L46.152,332.508 C46.152,336.121889 49.0781175,339.053381 52.692,339.06 L284.4,339.06 C288.015831,339.053396 290.945396,336.123831 290.952,332.508 L290.952,6.792 C290.945396,3.17616943 288.015831,0.246604273 284.4,0.24 L52.692,0.24 Z" id="Shape" fill="#E7E5FE"></path>
                <path d="M543.972,339.36 L312.252,339.36 C308.470484,339.353395 305.406605,336.289516 305.4,332.508 L305.4,6.792 C305.439417,3.03393643 308.493735,0.00636369249 312.252,0 L543.972,0 C547.723588,0.0129968542 550.767171,3.04053319 550.8,6.792 L550.8,332.508 C550.8,336.282902 547.746879,339.346778 543.972,339.36 Z M312.252,0.24 C308.636169,0.246604273 305.706604,3.17616943 305.7,6.792 L305.7,332.508 C305.706604,336.123831 308.636169,339.053396 312.252,339.06 L543.972,339.06 C547.587831,339.053396 550.517396,336.123831 550.524,332.508 L550.524,6.792 C550.517396,3.17616943 547.587831,0.246604273 543.972,0.24 L312.252,0.24 Z" id="Shape" fill="#E7E5FE"></path>
                <rect id="Rectangle" fill="#DDDBFF" x="335.7" y="23.58" width="197.34" height="175.104"></rect>
                <rect id="Rectangle" fill="#F3F2FF" x="340.632" y="28.38" width="187.2" height="165.6"></rect>
                <polygon id="Path" fill="#FFFFFF" points="384.576 28.38 340.632 193.62 340.632 115.98 363.828 28.38"></polygon>
                <polygon id="Path" fill="#FFFFFF" points="400.128 28.38 355.812 193.98 348.744 193.98 393.06 28.38"></polygon>
                <polygon id="Path" fill="#FFFFFF" points="527.832 132.876 527.832 159.336 518.868 193.98 511.8 193.98"></polygon>
                <rect id="Rectangle" fill="#DDDBFF" x="402.78" y="25.404" width="3.156" height="172.272"></rect>
                <rect id="Rectangle" fill="#DDDBFF" x="463.884" y="25.404" width="3.156" height="172.272"></rect>
                <rect id="Rectangle" fill="#F3F2FF" x="62.952" y="295.26" width="108.804" height="97.572"></rect>
                <rect id="Rectangle" fill="#E7E5FE" x="62.952" y="295.26" width="37.872" height="97.572"></rect>
                <rect id="Rectangle" fill="#E7E5FE" x="84.6" y="199.692" width="108.804" height="97.572"></rect>
                <rect id="Rectangle" fill="#DBD8FF" x="84.6" y="199.692" width="37.872" height="97.572"></rect>
                <rect id="Rectangle" fill="#F3F2FF" x="62.952" y="102.408" width="108.804" height="97.572"></rect>
                <rect id="Rectangle" fill="#E7E5FE" x="62.952" y="102.408" width="37.872" height="97.572"></rect>
                <rect id="Rectangle" fill="#E7E5FE" x="181.356" y="295.344" width="108.804" height="97.572"></rect>
                <rect id="Rectangle" fill="#E0E0E0" x="181.356" y="295.344" width="37.872" height="97.572"></rect>
                <rect id="Rectangle" fill="#F3F2FF" x="193.404" y="236.244" width="108.804" height="61.116"></rect>
                <rect id="Rectangle" fill="#E6E6E6" x="193.404" y="236.244" width="37.872" height="61.116"></rect>
                <rect id="Rectangle" fill="#E7E5FE" x="184.956" y="139.692" width="70.296" height="97.572"></rect>
                <rect id="Rectangle" fill="#E0E0E0" x="184.956" y="139.692" width="24.468" height="97.572"></rect>
                <rect id="Rectangle" fill="#F3F2FF" transform="translate(470.214000, 344.226000) rotate(180.000000) translate(-470.214000, -344.226000) " x="415.812" y="295.44" width="108.804" height="97.572"></rect>
                <rect id="Rectangle" fill="#E1DFFF" transform="translate(505.680000, 344.226000) rotate(180.000000) translate(-505.680000, -344.226000) " x="486.744" y="295.44" width="37.872" height="97.572"></rect>
                <rect id="Rectangle" fill="#E7E5FE" transform="translate(448.554000, 257.730000) rotate(180.000000) translate(-448.554000, -257.730000) " x="394.152" y="218.016" width="108.804" height="79.428"></rect>
                <rect id="Rectangle" fill="#E1DFFF" transform="translate(484.032000, 257.730000) rotate(180.000000) translate(-484.032000, -257.730000) " x="465.096" y="218.016" width="37.872" height="79.428"></rect>
                <rect id="Rectangle" fill="#F3F2FF" transform="translate(472.152000, 198.576000) rotate(180.000000) translate(-472.152000, -198.576000) " x="419.688" y="179.136" width="104.928" height="38.88"></rect>
                <rect id="Rectangle" fill="#DFDDFF" transform="translate(506.370000, 198.576000) rotate(180.000000) translate(-506.370000, -198.576000) " x="488.112" y="179.136" width="36.516" height="38.88"></rect>
            </g>
            <g id="freepik--Shadow--inject-184" transform="translate(67.200000, 419.800000)" fill="#F3F2FF" fill-rule="nonzero">
                <ellipse id="freepik--path--inject-184" cx="232.8" cy="13.688" rx="232.668" ry="13.584"></ellipse>
            </g>
            <g id="freepik--bubble-speech--inject-184" transform="translate(390.000000, 65.800000)">
                <rect id="Rectangle" fill="#3E3CDA" fill-rule="nonzero" x="0.6" y="0.14" width="44.268" height="41.16" rx="5.436"></rect>
                <path d="M18.408,36.068 C18.408,36.068 21.204,49.592 40.26,57.092 C40.26,57.092 28.608,49.64 29.328,36.068 L18.408,36.068 Z" id="Path" fill="#3E3CDA" fill-rule="nonzero"></path>
                <polyline id="Path" stroke="#FFFFFF" stroke-width="3.6" stroke-linecap="round" stroke-linejoin="round" points="13.152 19.556 19.476 28.34 32.316 13.112"></polyline>
            </g>
            <g id="freepik--character-2--inject-184" transform="translate(346.800000, 106.800000)">
                <path d="M124.236,6.504 C130.104,10.716 135.408,17.916 131.436,38.076 C127.464,58.236 126.456,63.036 126.456,63.036 L88.056,58.716 C88.056,58.716 86.256,40.872 89.256,24.084 C93.312,2.4 107.052,-5.844 124.236,6.504 Z" id="Path" fill="#252482" fill-rule="nonzero"></path>
                <path d="M85.8,117.9 C85.8,117.9 72.792,187.2 69.324,215.676 C64.788,252.804 46.248,307.116 46.248,307.116 L53.664,309.036 C53.664,309.036 79.8,262.872 84.864,221.352 C105.624,178.908 107.304,126.636 107.304,126.636 L85.8,117.9 Z" id="Path" fill="#EEC1BB" fill-rule="nonzero"></path>
                <path d="M32.4,323.916 C33.5981184,323.364633 34.8877272,323.03918 36.204,322.956 L36.204,322.956 C36.204,322.956 40.764,320.268 45.276,309.852 L50.364,309.852 C52.1208661,309.876484 53.6768183,310.991982 54.264,312.648 C54.3474512,312.875382 54.3960012,313.114086 54.408,313.356 C54.3513427,314.563095 54.2190835,315.765452 54.012,316.956 C53.2677851,321.012303 52.2779639,325.019677 51.048,328.956 L50.184,328.728 L51.744,321.156 C52.272,318.576 49.56,321.06 48.312,323.664 C47.064,326.268 45.18,328.8 39.6,327.6 C33.024,326.04 30.396,325.092 32.4,323.916 Z" id="Path" fill="#252482" fill-rule="nonzero"></path>
                <path d="M54.456,312.744 C55.416,310.284 56.64,305.88 56.64,305.88 L45.756,304.368 C45.756,304.368 45.756,309.72 43.74,313.224 C49.428,313.2 54.456,312.744 54.456,312.744 Z" id="Path" fill="#252482" fill-rule="nonzero"></path>
                <path d="M99.3,116.796 C99.3,116.796 100.92,187.296 103.404,215.856 C106.656,253.128 99.744,310.104 99.744,310.104 L107.4,310.44 C107.4,310.44 123.42,259.872 119.82,218.184 C131.352,172.368 122.22,120.888 122.22,120.888 L99.3,116.796 Z" id="Path" fill="#EEC1BB" fill-rule="nonzero"></path>
                <path d="M87.84,326.244 C88.9731581,325.562339 90.2218701,325.09458 91.524,324.864 L91.524,324.864 C91.524,324.864 95.76,321.708 99.132,310.86 L104.172,310.284 C105.935001,310.118157 107.611775,311.079059 108.36,312.684 C108.467638,312.899175 108.54054,313.130031 108.576,313.368 C108.654003,314.594761 108.654003,315.825239 108.576,317.052 C108.267219,321.146008 107.710195,325.217496 106.908,329.244 L106.032,329.124 L106.764,321.42 C107.004,318.804 104.592,321.564 103.62,324.288 C102.648,327.012 101.016,329.808 95.304,329.088 C88.656,328.284 85.932,327.6 87.84,326.244 Z" id="Path" fill="#252482" fill-rule="nonzero"></path>
                <path d="M108.516,312.744 C109.2,310.2 109.944,305.688 109.944,305.688 L98.964,305.364 C98.964,305.364 99.54,310.68 97.92,314.388 C103.56,313.728 108.516,312.744 108.516,312.744 Z" id="Path" fill="#252482" fill-rule="nonzero"></path>
                <path d="M83.028,106.332 L68.76,204.996 C68.76,204.996 115.224,212.196 133.824,207.984 C133.824,207.984 138.396,151.02 118.98,109.584 L83.028,106.332 Z" id="Path" fill="#252482" fill-rule="nonzero"></path>
                <path d="M40.08,71.448 L27.66,59.184 C27.66,59.184 27.24,55.896 26.028,54.984 C24.816,54.072 16.32,50.976 15.228,51.66 C14.136,52.344 12.732,59.232 14.196,60.492 C15.66,61.752 23.4,63.36 24.192,63.228 L37.668,79.2 L40.08,71.448 Z" id="Path" fill="#EEC1BB" fill-rule="nonzero"></path>
                <path d="M84.528,49.092 C79.176,51.936 60.168,78.504 57.372,79.812 C54.576,81.12 33.18,63.78 33.18,63.78 L29.58,69.936 C29.58,69.936 47.124,94.8 57.048,93.6 C66.972,92.4 85.968,71.4 85.968,71.4 L84.528,49.092 Z" id="Path" fill="#3E3CDA" fill-rule="nonzero"></path>
                <path d="M84.528,49.092 C79.176,51.936 60.168,78.504 57.372,79.812 C54.576,81.12 33.18,63.78 33.18,63.78 L29.58,69.936 C29.58,69.936 47.124,94.8 57.048,93.6 C66.972,92.4 85.968,71.4 85.968,71.4 L84.528,49.092 Z" id="Path" fill="#FFFFFF" fill-rule="nonzero" opacity="0.1"></path>
                <polygon id="Path" fill="#3E3CDA" fill-rule="nonzero" points="34.356 64.44 32.868 63.036 28.968 69.636 30.372 72.336"></polygon>
                <path d="M78.336,79.092 C82.776,74.856 85.968,71.34 85.968,71.34 L85.632,66.06 L84,60.936 C79.331163,65.742324 77.2281462,72.4835622 78.336,79.092 L78.336,79.092 Z" id="Path" fill="#000000" fill-rule="nonzero" opacity="0.2"></path>
                <path d="M82.728,105.324 C81.228,78.924 81.9,64.38 82.584,57.12 C83.34,49.38 84.528,49.092 84.528,49.092 C84.528,49.092 92.928,48.276 100.212,48.336 C105.84716,48.5269927 111.461464,49.1205048 117.012,50.112 C122.295271,50.9886361 127.508702,52.24387 132.612,53.868 C131.76,56.268 130.992,58.668 130.272,60.78 C129.324,63.648 128.472,66.3 127.692,68.784 C126.252,73.416 125.124,77.424 124.236,81.012 C121.941925,90.0468329 120.602586,99.2975211 120.24,108.612 C120.24,108.612 129.468,132.732 131.268,150.432 L100.668,153.732 L96.468,136.032 L92.268,154.332 L75.168,148.332 L82.728,105.324 Z" id="Path" fill="#3E3CDA" fill-rule="nonzero"></path>
                <path d="M82.728,105.324 C81.228,78.924 81.9,64.38 82.584,57.12 C83.34,49.38 84.528,49.092 84.528,49.092 C84.528,49.092 92.928,48.276 100.212,48.336 C105.84716,48.5269927 111.461464,49.1205048 117.012,50.112 C122.295271,50.9886361 127.508702,52.24387 132.612,53.868 C131.76,56.268 130.992,58.668 130.272,60.78 C129.324,63.648 128.472,66.3 127.692,68.784 C126.252,73.416 125.124,77.424 124.236,81.012 C121.941925,90.0468329 120.602586,99.2975211 120.24,108.612 C120.24,108.612 129.468,132.732 131.268,150.432 L100.668,153.732 L96.468,136.032 L92.268,154.332 L75.168,148.332 L82.728,105.324 Z" id="Path" fill="#FFFFFF" fill-rule="nonzero" opacity="0.1"></path>
                <path d="M122.748,87.48 C123.156,85.464 123.636,83.316 124.224,81.012 C124.596,79.548 125.004,78.012 125.424,76.38 C124.224,72.288 123.024,75.492 123.024,75.492 C122.279853,79.4463138 122.186626,83.4956292 122.748,87.48 L122.748,87.48 Z" id="Path" fill="#000000" fill-rule="nonzero" opacity="0.2"></path>
                <path d="M100.632,49.944 C101.001618,49.7569211 101.382329,49.5926146 101.772,49.452 C102.636,48.768 103.692,47.124 103.644,43.128 C103.60496,41.5436615 103.456607,39.9639071 103.2,38.4 L114.324,36.324 C114.324,36.324 110.532,43.812 113.688,49.38 C114.78,49.86 115.428,50.58 115.308,51.456 C114.48,57.876 100.656,64.092 100.656,64.092 C100.656,64.092 93.924,53.628 100.632,49.944 Z" id="Path" fill="#EEC1BB" fill-rule="nonzero"></path>
                <path d="M103.2,38.4 C103.450944,39.9523039 103.595282,41.5199719 103.632,43.092 C111.144,43.092 114.324,36.324 114.324,36.324 L103.2,38.4 Z" id="Path" fill="#000000" fill-rule="nonzero" opacity="0.2"></path>
                <path d="M109.356,7.332 C99.684,6.804 96.288,11.808 95.04,21.732 C93.468,34.14 95.748,43.14 107.988,41.148 C124.608,38.4 125.424,8.208 109.356,7.332 Z" id="Path" fill="#EEC1BB" fill-rule="nonzero"></path>
                <path d="M101.316,21.6 C100.462595,23.0014238 99.44323,24.2947688 98.28,25.452 C98.8204796,26.2891623 99.7846275,26.7526949 100.776,26.652 L101.316,21.6 Z" id="Path" fill="#D4827D" fill-rule="nonzero"></path>
                <path d="M107.28,21.072 C107.28,21.864 107.592,22.548 108.12,22.584 C108.648,22.62 109.128,22.02 109.2,21.228 C109.272,20.436 108.876,19.752 108.348,19.716 C107.82,19.68 107.34,20.28 107.28,21.072 Z" id="Path" fill="#252482" fill-rule="nonzero"></path>
                <path d="M108.564,19.764 L106.896,18.96 C106.896,18.96 107.64,20.472 108.564,19.764 Z" id="Path" fill="#252482" fill-rule="nonzero"></path>
                <path d="M97.428,20.136 C97.368,20.928 97.74,21.6 98.268,21.648 C98.796,21.696 99.288,21.084 99.348,20.28 C99.408,19.476 99.024,18.816 98.496,18.768 C97.968,18.72 97.488,19.344 97.428,20.136 Z" id="Path" fill="#252482" fill-rule="nonzero"></path>
                <path d="M98.712,18.828 L97.044,18.012 C97.044,18.012 97.788,19.536 98.712,18.828 Z" id="Path" fill="#252482" fill-rule="nonzero"></path>
                <path d="M107.748,14.4 C109.304698,14.2950279 110.821601,14.9204176 111.852,16.092" id="Path" stroke="#252482" stroke-width="0.8234856" stroke-linecap="round" stroke-linejoin="round"></path>
                <path d="M100.8,13.608 C99.4804475,13.191874 98.0429213,13.4041856 96.9,14.184" id="Path" stroke="#252482" stroke-width="0.8234856" stroke-linecap="round" stroke-linejoin="round"></path>
                <path d="M119.04,24.216 C119.04,24.216 114.948,16.02 115.968,9.924 C115.968,9.924 97.236,1.044 95.22,20.436 C95.22,20.436 94.296,3.06 110.94,3.636 C127.584,4.212 126.18,28.488 117.204,35.268 C117.204,35.22 121.56,29.34 119.04,24.216 Z" id="Path" fill="#252482" fill-rule="nonzero"></path>
                <path d="M117.348,26.172 C117.682121,23.8540335 119.829198,22.2437253 122.148,22.572 C125.124,23.064 126.216,29.304 118.68,30.372 C117.6,30.492 117.036,29.412 117.348,26.172 Z" id="Path" fill="#EEC1BB" fill-rule="nonzero"></path>
                <path d="M108.324,28.884 C106.845384,30.3430378 104.845155,31.1509055 102.768,31.128" id="Path" stroke="#252482" stroke-width="0.8234856" stroke-linecap="round" stroke-linejoin="round"></path>
                <path d="M115.968,9.924 C115.968,9.924 95.064,4.488 93.312,24.084" id="Path" stroke="#252482" stroke-width="0.8234856" stroke-linecap="round" stroke-linejoin="round"></path>
                <path d="M97.32,54.708 C97.32,54.708 95.724,70.596 98.34,85.056 C98.34,85.056 104.508,62.712 113.172,55.116 L103.212,56.544 L97.32,54.708 Z" id="Path" fill="#3E3CDA" fill-rule="nonzero"></path>
                <path d="M97.32,54.708 C97.32,54.708 95.724,70.596 98.34,85.056 C98.34,85.056 104.508,62.712 113.172,55.116 L103.212,56.544 L97.32,54.708 Z" id="Path" fill="#FFFFFF" fill-rule="nonzero" opacity="0.5"></path>
                <path d="M113.316,47.64 L103.2,55.116 L103.2,47.172 C103.2,47.172 95.028,50.136 95.604,59.172 L102.312,56.088 L102.312,59.172 L103.884,56.196 L109.188,62.256 C109.188,62.256 115.68,54.684 116.388,52.404 C117.096,50.124 113.316,47.64 113.316,47.64 Z" id="Path" fill="#3E3CDA" fill-rule="nonzero"></path>
                <path d="M113.316,47.64 L103.2,55.116 L103.2,47.172 C103.2,47.172 95.028,50.136 95.604,59.172 L102.312,56.088 L102.312,59.172 L103.884,56.196 L109.188,62.256 C109.188,62.256 115.68,54.684 116.388,52.404 C117.096,50.124 113.316,47.64 113.316,47.64 Z" id="Path" fill="#FFFFFF" fill-rule="nonzero" opacity="0.7"></path>
                <path d="M123.876,117.744 L114.588,73.428 C114.389351,72.4721952 113.548227,71.7862783 112.572,71.784 L84,71.784 C83.5743117,71.7845257 83.1706699,71.9733713 82.897468,72.2998243 C82.6242662,72.6262773 82.5095042,73.0568804 82.584,73.476 L90.324,116.868 C90.4896488,117.832666 91.3135588,118.546052 92.292,118.572 L122.496,119.472 C122.922977,119.462854 123.323866,119.264653 123.590374,118.930938 C123.856883,118.597223 123.961513,118.162426 123.876,117.744 Z" id="Path" fill="#201F7B" fill-rule="nonzero"></path>
                <path d="M136.224,103.392 L121.452,94.08 C121.452,94.08 120.324,90.972 118.956,90.336 C117.588,89.7 108.612,88.512 107.736,89.412 C106.86,90.312 106.932,97.332 108.636,98.256 C110.34,99.18 118.236,99.072 118.98,98.772 L135.528,111.444 L136.224,103.392 Z" id="Path" fill="#EEC1BB" fill-rule="nonzero"></path>
                <path d="M132.612,53.868 C132.612,53.868 123.012,67.884 124.368,79.884 L137.172,101.076 L128.568,96.684 L124.668,104.028 C124.668,104.028 134.568,119.28 147.168,115.68 C159.768,112.08 132.612,53.868 132.612,53.868 Z" id="Path" fill="#3E3CDA" fill-rule="nonzero"></path>
                <path d="M132.612,53.868 C132.612,53.868 123.012,67.884 124.368,79.884 L137.172,101.076 L128.568,96.684 L124.668,104.028 C124.668,104.028 134.568,119.28 147.168,115.68 C159.768,112.08 132.612,53.868 132.612,53.868 Z" id="Path" fill="#FFFFFF" fill-rule="nonzero" opacity="0.1"></path>
                <polygon id="Path" fill="#3E3CDA" fill-rule="nonzero" points="129.468 96.276 124.572 105.384 123.468 102.78 127.368 95.376"></polygon>
                <path d="M111.6,71.784 C110.472,71.784 110.472,101.304 110.472,101.304 L84.672,100.56 C84.672,100.56 81.768,75.6 84.672,71.76 L111.6,71.784 Z" id="Path" fill="#FFFFFF" fill-rule="nonzero"></path>
                <path d="M111.6,71.784 C110.472,71.784 110.472,101.304 110.472,101.304 L84.672,100.56 C84.672,100.56 81.768,75.6 84.672,71.76 L111.6,71.784 Z" id="Path" fill="#000000" fill-rule="nonzero" opacity="0.1"></path>
                <path d="M5.04,48.396 L29.436,58.656 C29.7020273,58.7718381 29.9110158,58.9887873 30.0168324,59.2589573 C30.122649,59.5291273 30.1165925,59.8303025 30,60.096 L30,60.096 C29.7642101,60.6355985 29.1361477,60.882529 28.596,60.648 L4.044,50.244 L3.816,50.124 L0.96,48 L4.716,48.324 C4.82712004,48.3307715 4.93647038,48.3550716 5.04,48.396 L5.04,48.396 Z" id="Path" fill="#252482" fill-rule="nonzero"></path>
            </g>
            <g id="freepik--character-1--inject-184" transform="translate(121.200000, 61.200000)" fill-rule="nonzero">
                <g id="freepik--group--inject-184">
                    <path d="M149.7,144.564 L126,146.676 L116.496,141.312 C116.496,141.312 86.016,124.332 78.096,118.968 C75.696,117.324 73.452,113.748 71.52,109.548 C69.8988087,105.946523 68.5040947,102.247325 67.344,98.472 C66.804,96.78 66.324,95.16 65.916,93.672 C65.004,90.468 64.44,88.068 64.284,87.42 L64.284,87.42 C64.2909286,87.3682308 64.2909286,87.3157692 64.284,87.264 L64.284,87.264 L64.344,87.264 L71.856,84.864 L78.132,82.872 C78.132,82.872 78.42,84.36 78.912,86.628 L79.344,88.632 C79.476,89.208 79.608,89.832 79.752,90.456 C81.336,97.44 83.772,106.968 85.536,108.528 C88.38,111.036 124.14,135.408 125.412,136.044 C126.684,136.68 138.072,136.044 138.072,136.044 L149.7,144.564 Z" id="Path" fill="#E4897B"></path>
                    <path d="M64.092,53.616 C75.012,53.448 81.96,87.288 81.96,87.288 L67.56,94.488 C63.469422,87.4056692 61.3364899,79.3626518 61.38,71.184 C61.716,58.2 64.092,53.616 64.092,53.616 Z" id="Path" fill="#3E3CDA"></path>
                    <path d="M64.092,53.616 C75.012,53.448 81.96,87.288 81.96,87.288 L67.56,94.488 C63.469422,87.4056692 61.3364899,79.3626518 61.38,71.184 C61.716,58.2 64.092,53.616 64.092,53.616 Z" id="Path" fill="#FFFFFF" opacity="0.5"></path>
                    <polygon id="Path" fill="#3E3CDA" points="83.556 87.948 79.668 90.468 74.592 93.756 67.296 98.472 65.988 99.324 64.404 94.512 65.868 93.72 66.828 93.192 73.5 89.556 78.828 86.64 81.492 85.188 81.96 84.936"></polygon>
                    <path d="M75.24,99.324 C75.2623893,103.075645 73.9236497,106.708149 71.472,109.548 C69.8508087,105.946523 68.4560947,102.247325 67.296,98.472 L65.988,99.324 L64.404,94.524 L65.868,93.732 C64.956,90.528 64.392,88.128 64.236,87.48 L64.236,87.48 L64.236,87.288 L65.964,74.088 C68.2313687,77.4956889 70.1681588,81.1121019 71.748,84.888 C72.372,86.364 72.948,87.936 73.476,89.568 C73.66,90.128 73.828,90.704 73.98,91.296 C74.208,92.112 74.4,92.94 74.568,93.768 C74.9579841,95.5961301 75.1828887,97.4556088 75.24,99.324 L75.24,99.324 Z" id="Path" fill="#000000" opacity="0.2"></path>
                    <polygon id="Path" fill="#E4897B" points="62.46 364.032 72.504 365.1 74.388 343.44 64.344 342.372"></polygon>
                    <polygon id="Path" fill="#E4897B" points="12.36 363.3 22.08 363.3 22.884 340.764 13.152 340.764"></polygon>
                    <path d="M23.436,362.172 L11.616,362.172 C11.2181975,362.178642 10.8763574,362.456077 10.788,362.844 L8.868,371.508 C8.7862889,371.880547 8.85700619,372.270301 9.0643908,372.590395 C9.27177541,372.910488 9.59859145,373.134319 9.972,373.212 C10.0752676,373.229455 10.1807324,373.229455 10.284,373.212 C14.112,373.212 16.896,372.924 21.696,372.924 C24.66,372.924 33.588,373.224 37.668,373.224 C41.748,373.224 42.288,369.192 40.608,368.82 C33.108,367.188 27.408,364.92 25.008,362.82 C24.5806363,362.4194 24.0215201,362.188924 23.436,362.172 Z" id="Path" fill="#252482"></path>
                    <path d="M24.108,363.528 C24.0115306,363.503859 23.9399418,363.422725 23.928,363.324 C23.9166291,363.236721 23.9593539,363.151271 24.036,363.108 C24.384,362.88 27.528,360.948 28.608,361.512 C28.8591962,361.621276 29.0167783,361.874362 29.004,362.148 C29.052776,362.602832 28.872998,363.052277 28.524,363.348 C27.9765717,363.726376 27.3154017,363.904383 26.652,363.852 C25.7944622,363.840751 24.9409827,363.732053 24.108,363.528 Z M24.768,363.204 C25.9044767,363.589745 27.1455652,363.525328 28.236,363.024 C28.4668779,362.814081 28.5829361,362.506081 28.548,362.196 C28.548,362.016 28.464,361.932 28.392,361.932 C28.3046461,361.882349 28.2039137,361.861364 28.104,361.872 C26.9165178,362.09675 25.7837145,362.549057 24.768,363.204 L24.768,363.204 Z" id="Shape" fill="#3E3CDA"></path>
                    <path d="M24,363.6 C23.9295984,363.551061 23.88891,363.469685 23.892,363.384 C23.892,363.252 24.144,360.456 25.272,359.544 C25.5354914,359.304826 25.8915451,359.194933 26.244,359.244 C26.6030057,359.241973 26.913924,359.492714 26.988,359.844 C27.18,360.876 25.236,363.012 24.24,363.564 L24.132,363.564 C24.092425,363.588553 24.046561,363.601062 24,363.6 Z M25.56,359.808 C24.8621235,360.679939 24.4438619,361.742323 24.36,362.856 C25.368,362.1 26.604,360.456 26.484,359.844 C26.484,359.784 26.484,359.616 26.148,359.616 L26.04,359.616 C25.8789253,359.628145 25.7247683,359.686474 25.596,359.784 L25.56,359.808 Z" id="Shape" fill="#3E3CDA"></path>
                    <path d="M73.56,361.872 L61.74,361.872 C61.3442019,361.872969 61.001193,362.146381 60.912,362.532 L58.992,371.196 C58.8288323,371.970942 59.3220463,372.732207 60.096,372.9 L60.42,372.9 C64.236,372.828 67.02,372.6 71.832,372.6 C74.784,372.6 83.712,372.912 87.792,372.912 C91.872,372.912 92.412,368.868 90.744,368.496 C83.244,366.864 77.544,364.608 75.144,362.496 C74.709993,362.101424 74.1465126,361.879447 73.56,361.872 Z" id="Path" fill="#252482"></path>
                    <path d="M74.232,363.216 C74.1355306,363.191859 74.0639418,363.110725 74.052,363.012 C74.0388857,362.921209 74.0879849,362.83283 74.172,362.796 C74.52,362.568 77.664,360.636 78.732,361.2 C78.978692,361.314431 79.1341646,361.56413 79.128,361.836 C79.1789518,362.291129 78.9987784,362.741563 78.648,363.036 C78.1122875,363.425135 77.4617046,363.62369 76.8,363.6 C75.9321785,363.570116 75.0706031,363.441282 74.232,363.216 Z M74.892,362.892 C76.0284647,363.270704 77.2654619,363.21078 78.36,362.724 C78.5925774,362.515239 78.7089773,362.206332 78.672,361.896 C78.672,361.704 78.588,361.62 78.528,361.62 C78.4363648,361.570133 78.3317661,361.549213 78.228,361.56 C77.0420977,361.79015 75.9102883,362.24206 74.892,362.892 L74.892,362.892 Z" id="Shape" fill="#3E3CDA"></path>
                    <path d="M74.172,363.264 C74.1005692,363.220182 74.055593,363.143723 74.052,363.06 C74.052,362.916 74.304,360.12 75.432,359.208 C75.6954914,358.968826 76.0515451,358.858933 76.404,358.908 C76.766698,358.907117 77.0789155,359.163941 77.148,359.52 C77.352,360.54 75.408,362.688 74.4,363.228 L74.292,363.228 C74.2561464,363.25097 74.2145769,363.263441 74.172,363.264 L74.172,363.264 Z M75.732,359.472 C75.0287942,360.340842 74.6098518,361.404956 74.532,362.52 C75.528,361.764 76.764,360.12 76.644,359.52 C76.644,359.448 76.644,359.28 76.308,359.28 L76.2,359.28 C76.0274054,359.291979 75.8632788,359.359313 75.732,359.472 Z" id="Shape" fill="#3E3CDA"></path>
                    <polygon id="Path" fill="#000000" opacity="0.2" points="64.344 342.372 74.388 343.44 73.404 354.612 63.36 353.544"></polygon>
                    <polygon id="Path" fill="#000000" opacity="0.2" points="13.152 340.776 22.884 340.776 22.464 352.404 12.732 352.404"></polygon>
                    <path d="M17.16,143.064 L68.76,143.064 C73.668,169.884 89.04,264.768 78.012,349.308 L60.528,347.136 C60.528,347.136 62.148,234.9 46.716,193.416 C44.94,215.616 42.828,239.244 41.004,251.82 C36.552,282.756 26.94,350.4 26.94,350.4 L9.144,350.4 C9.144,350.4 12.744,285.672 14.46,255.252 C16.296,222.228 17.1,149.844 17.16,143.064 Z" id="Path" fill="#3E3CDA"></path>
                    <path d="M46.8,193.416 C49.3437761,200.689993 51.27451,208.164061 52.572,215.76 C54.012,195.996 48.24,175.044 48.24,175.044 L46.8,193.416 Z" id="Path" fill="#000000" opacity="0.2"></path>
                    <polygon id="Path" fill="#3E3CDA" points="80.064 353.376 58.428 350.16 59.088 344.172 81.588 347.124"></polygon>
                    <polygon id="Path" fill="#FFFFFF" opacity="0.6" points="80.064 353.376 58.428 350.16 59.088 344.172 81.588 347.124"></polygon>
                    <polygon id="Path" fill="#3E3CDA" points="29.076 350.532 8.088 350.532 8.088 344.256 29.868 343.848"></polygon>
                    <polygon id="Path" fill="#FFFFFF" opacity="0.6" points="29.076 350.532 8.088 350.532 8.088 344.256 29.868 343.848"></polygon>
                    <polygon id="Path" fill="#252482" points="17.064 152.04 17.016 144.564 69.648 141.312 70.02 148.56"></polygon>
                    <rect id="Rectangle" fill="#3E3CDA" x="28.008" y="142.668" width="2.376" height="10.956"></rect>
                    <rect id="Rectangle" fill="#3E3CDA" transform="translate(65.969608, 144.579010) rotate(-4.170000) translate(-65.969608, -144.579010) " x="64.7816082" y="139.10101" width="2.376" height="10.956"></rect>
                    <path d="M69.6,141.312 L17.016,145.2 C17.016,140.592 16.896,135.456 16.548,130.032 C15.9,120.012 14.664,109.044 13.284,98.76 C10.356,76.908 6.768,58.152 6.768,58.152 C31.248,51.972 64.092,53.58 64.092,53.58 C72.624,85.548 69.6,141.312 69.6,141.312 Z" id="Path" fill="#3E3CDA"></path>
                    <path d="M69.6,141.312 L17.016,145.2 C17.016,140.592 16.896,135.456 16.548,130.032 C15.9,120.012 14.664,109.044 13.284,98.76 C10.356,76.908 6.768,58.152 6.768,58.152 C31.248,51.972 64.092,53.58 64.092,53.58 C72.624,85.548 69.6,141.312 69.6,141.312 Z" id="Path" fill="#FFFFFF" opacity="0.6"></path>
                    <path d="M25.452,54.876 C30.252,59.184 41.808,57.6 41.808,57.6 C41.808,57.6 49.008,55.608 47.532,53.34 C43.26,52.644 41.196,50.652 40.332,48.096 C39.857738,46.5183615 39.7107331,44.8604736 39.9,43.224 C39.9660407,42.3096813 40.0862517,41.4000842 40.26,40.5 L25.86,29.868 C27.792,36.888 30.096,49.788 25.452,54.876 Z" id="Path" fill="#E4897B"></path>
                    <path d="M29.232,36.624 C29.796,45.24 36.876,47.616 40.344,48.096 C39.869738,46.5183615 39.7227331,44.8604736 39.912,43.224 L29.232,36.624 Z" id="Path" fill="#000000" opacity="0.2"></path>
                    <path d="M54,9.396 C57.492,12.708 56.04,22.8 48.924,27.96 C41.808,33.12 41.808,8.16 41.808,8.16 C41.808,8.16 51.78,7.284 54,9.396 Z" id="Path" fill="#252482"></path>
                    <path d="M28.26,38.616 C31.3268305,43.156102 37.0497036,45.0866506 42.24,43.332 C45.5237641,42.291789 48.2874323,40.0387986 49.968,37.032 C50.2054481,36.6151657 50.4217228,36.1866214 50.616,35.748 C54.12,27.6 55.2,13.2 46.572,7.848 C40.403812,3.98239549 32.2704906,5.83990651 28.392,12 C27.2901835,13.7560936 26.6122941,15.7445692 26.412,17.808 C25.356,27.36 24.276,32.952 28.26,38.616 Z" id="Path" fill="#E4897B"></path>
                    <path d="M40.38,22.908 C40.2,23.664 40.548,24.372 41.064,24.456 C41.58,24.54 42.084,23.976 42.264,23.256 C42.444,22.536 42.084,21.792 41.592,21.708 C41.1,21.624 40.524,22.128 40.38,22.908 Z" id="Path" fill="#252482"></path>
                    <path d="M49.128,24.396 C48.948,25.152 49.308,25.872 49.8,25.956 C50.292,26.04 50.832,25.476 51,24.756 C51.168,24.036 50.82,23.28 50.316,23.196 C49.812,23.112 49.26,23.664 49.128,24.396 Z" id="Path" fill="#252482"></path>
                    <path d="M46.284,24.3 C46.8038304,26.8069526 47.6680243,29.2299259 48.852,31.5 C47.6444257,32.0892694 46.237395,32.1112542 45.012,31.56 L46.284,24.3 Z" id="Path" fill="#DE5753"></path>
                    <path d="M38.148,19.608 C38.3140648,19.6565806 38.4933943,19.6207147 38.628,19.512 C39.4592239,18.6828419 40.635884,18.2995359 41.796,18.48 C41.9137715,18.5089064 42.0382063,18.4897114 42.1417924,18.426659 C42.2453786,18.3636066 42.3195832,18.2618905 42.348,18.144 C42.4013953,17.8997939 42.2534474,17.6567366 42.012,17.592 L42.012,17.592 C40.5570583,17.3234412 39.0616501,17.7698318 37.992,18.792 C37.8182799,18.973071 37.8182799,19.258929 37.992,19.44 L37.992,19.44 C38.0324734,19.5056931 38.0854808,19.562778 38.148,19.608 Z" id="Path" fill="#252482"></path>
                    <path d="M43.068,35.4 L43.068,35.4 C40.7635129,35.3627033 38.6241365,34.1965862 37.344,32.28 C37.3092185,32.2246519 37.2985186,32.157511 37.314373,32.0940933 C37.3302274,32.0306755 37.3712642,31.9764688 37.428,31.944 C37.537864,31.8774183 37.6806755,31.9091542 37.752,32.016 L37.752,32.016 C38.9766892,33.758337 40.9512306,34.8212095 43.08,34.884 C43.208,34.8838399 43.3136001,34.98416 43.32,35.112 L43.32,35.112 C43.3139729,35.2353382 43.2153382,35.3339729 43.092,35.34 L43.068,35.4 Z" id="Path" fill="#252482"></path>
                    <path d="M53.4,22.02 C53.4799166,22.0673217 53.5711239,22.0921964 53.664,22.0920012 C53.9023313,22.0169816 54.0432531,21.7716732 53.988,21.528 L53.988,21.528 C53.6101728,20.0906088 52.5521625,18.9294873 51.156,18.42 C50.9176605,18.3496036 50.6668406,18.4830185 50.592,18.72 L50.592,18.72 C50.520834,18.9614343 50.6533759,19.2159147 50.892,19.296 L50.892,19.296 C51.9814697,19.7317758 52.8003852,20.6575064 53.1,21.792 C53.1624549,21.9076948 53.2718071,21.9908025 53.4,22.02 L53.4,22.02 Z" id="Path" fill="#252482"></path>
                    <path d="M35.412,7.128 L35.412,11.4 C33.8473433,11.9263873 32.9491715,13.566073 33.348,15.168 C34.272,18.888 31.596,24.144 28.608,25.968 C28.608,25.968 28.704,24.42 27.408,24.624 C26.112,24.828 25.452,32.88 27.516,36.996 C27.516,36.996 24.108,33.084 22.98,24.42 C21.924,16.404 22.476,9.9 24.432,7.092 L35.412,7.128 Z" id="Path" fill="#252482"></path>
                    <path d="M20.94,24.864 C21.6256524,27.1925146 23.2045057,29.1552967 25.332,30.324 C28.164,31.848 30.288,29.472 30.132,26.436 C29.94,23.724 28.26,19.596 25.116,19.356 C21.972,19.116 20.124,21.996 20.94,24.864 Z" id="Path" fill="#E4897B"></path>
                    <path d="M22.5,14.4 C22.5,14.4 19.536,7.284 27.3,2.064 C35.064,-3.156 53.484,2.928 54.78,7.164 C56.076,11.4 42.144,19.092 22.5,14.4 Z" id="Path" fill="#252482"></path>
                    <polygon id="Path" fill="#3E3CDA" points="27.264 50.448 39.012 56.88 40.62 48.096 48.852 53.448 48.852 64.668 40.14 59.472 34.02 68.64 21.936 55.368"></polygon>
                    <rect id="Rectangle" fill="#FFFFFF" transform="translate(49.572441, 146.390544) rotate(-3.170000) translate(-49.572441, -146.390544) " x="43.5484409" y="141.866544" width="12.048" height="9.048" rx="1.392"></rect>
                    <polygon id="Path" fill="#FFFFFF" opacity="0.5" points="27.264 50.448 39.012 56.88 40.62 48.096 48.852 53.448 48.852 64.668 40.14 59.472 34.02 68.64 21.936 55.368"></polygon>
                    <path d="M35.412,127.752 C31.92,133.008 20.748,132.972 16.548,130.068 C15.9,120.048 14.664,109.08 13.284,98.796 L35.412,127.752 Z" id="Path" fill="#000000" opacity="0.2"></path>
                    <path d="M17.016,87.288 C17.016,87.288 19.5,103.464 21.936,106.62 C24.372,109.776 74.736,137.316 74.736,137.316 L92.148,136.056 L100.152,145.236 C100.152,145.236 76.956,148.836 74.424,148.14 C72.8788946,147.712324 71.3796601,147.133531 69.948,146.412 C69.948,146.412 17.148,125.616 12.708,120.864 C8.268,116.112 3.216,91.716 3.216,91.716 L17.016,87.288 Z" id="Path" fill="#E4897B"></path>
                    <path d="M6.768,58.188 C15.984,56.268 20.748,94.512 20.748,94.512 L1.896,99.312 C1.896,99.312 -4.572,60.564 6.768,58.188 Z" id="Path" fill="#3E3CDA"></path>
                    <path d="M6.768,58.188 C15.984,56.268 20.748,94.512 20.748,94.512 L1.896,99.312 C1.896,99.312 -4.572,60.564 6.768,58.188 Z" id="Path" fill="#FFFFFF" opacity="0.5"></path>
                    <polygon id="Path" fill="#3E3CDA" points="0.792 98.4 21.936 93.336 21.936 96.972 1.74 102.828"></polygon>
                </g>
            </g>
            <g id="freepik--Boxes--inject-184" transform="translate(182.400000, 161.800000)">
                <path d="M12,236.6 L12,72.104 C12.0014221,64.9847141 9.81930049,58.0362693 5.748,52.196 L0,43.964 L102.12,43.964 L107.868,52.196 C111.9393,58.0362693 114.121422,64.9847141 114.120001,72.104 L114.120001,235.04" id="Path" stroke="#252482" stroke-width="7.2" stroke-linecap="round" stroke-linejoin="round"></path>
                <circle id="Oval" fill="#252482" fill-rule="nonzero" cx="229.02" cy="262.088" r="10.572"></circle>
                <path d="M234.312014,262.088 C234.316856,259.9465 233.030585,258.013165 231.053489,257.190282 C229.076394,256.367399 226.798245,256.817193 225.282254,258.329746 C223.766264,259.842299 223.311299,262.119421 224.129692,264.098379 C224.948085,266.077338 226.878495,267.368014 229.02,267.368014 C230.422421,267.371187 231.768495,266.816311 232.761284,265.825773 C233.754073,264.835235 234.312014,263.490425 234.312014,262.088 L234.312014,262.088 Z" id="Path" fill="#FFFFFF" fill-rule="nonzero" opacity="0.4"></path>
                <path d="M227.748,264.44 L227.748,264.44 C226.059515,264.438286 224.550929,263.38467 223.968,261.8 L217.74,244.736 L231.768,244.736 L231.768,260.42 C231.768,262.640185 229.968185,264.44 227.748,264.44 L227.748,264.44 Z" id="Path" fill="#252482" fill-rule="nonzero"></path>
                <path d="M227.748,264.44 L227.748,264.44 C226.059515,264.438286 224.550929,263.38467 223.968,261.8 L217.74,244.736 L231.768,244.736 L231.768,260.42 C231.768,262.640185 229.968185,264.44 227.748,264.44 L227.748,264.44 Z" id="Path" fill="#FFFFFF" fill-rule="nonzero" opacity="0.2"></path>
                <circle id="Oval" fill="#252482" fill-rule="nonzero" cx="111.42" cy="262.088" r="10.572"></circle>
                <path d="M116.712014,262.088 C116.716856,259.9465 115.430585,258.013165 113.453489,257.190282 C111.476394,256.367399 109.198245,256.817193 107.682254,258.329746 C106.166264,259.842299 105.711299,262.119421 106.529692,264.098379 C107.348085,266.077338 109.278495,267.368014 111.42,267.368014 C112.822421,267.371187 114.168495,266.816311 115.161284,265.825773 C116.154073,264.835235 116.712014,263.490425 116.712014,262.088 L116.712014,262.088 Z" id="Path" fill="#FFFFFF" fill-rule="nonzero" opacity="0.4"></path>
                <path d="M110.148,264.44 L110.148,264.44 C108.459515,264.438286 106.950929,263.38467 106.368,261.8 L100.14,244.736 L114.168,244.736 L114.168,260.42 C114.168,262.640185 112.368185,264.44 110.148,264.44 L110.148,264.44 Z" id="Path" fill="#252482" fill-rule="nonzero"></path>
                <path d="M110.148,264.44 L110.148,264.44 C108.459515,264.438286 106.950929,263.38467 106.368,261.8 L100.14,244.736 L114.168,244.736 L114.168,260.42 C114.168,262.640185 112.368185,264.44 110.148,264.44 L110.148,264.44 Z" id="Path" fill="#FFFFFF" fill-rule="nonzero" opacity="0.2"></path>
                <path d="M247.2,232.436 L247.2,242.42 C247.2,244.282304 245.690304,245.792 243.828,245.792 L7.512,245.792 C5.64969582,245.792 4.14,244.282304 4.14,242.42 L4.14,232.436 L247.2,232.436 Z" id="Path" fill="#252482" fill-rule="nonzero"></path>
                <path d="M247.2,232.436 L247.2,242.42 C247.2,244.282304 245.690304,245.792 243.828,245.792 L7.512,245.792 C5.64969582,245.792 4.14,244.282304 4.14,242.42 L4.14,232.436 L247.2,232.436 Z" id="Path" fill="#FFFFFF" fill-rule="nonzero" opacity="0.4"></path>
                <path d="M163.2,232.436 L163.2,242.42 C163.2,244.282304 161.690304,245.792 159.828,245.792 L7.512,245.792 C5.64969582,245.792 4.14,244.282304 4.14,242.42 L4.14,232.436 L163.2,232.436 Z" id="Path" fill="#FFFFFF" fill-rule="nonzero" opacity="0.2"></path>
                <circle id="Oval" fill="#252482" fill-rule="nonzero" cx="143.82" cy="262.088" r="10.572"></circle>
                <path d="M149.112014,262.088 C149.116856,259.9465 147.830585,258.013165 145.853489,257.190282 C143.876394,256.367399 141.598245,256.817193 140.082254,258.329746 C138.566264,259.842299 138.111299,262.119421 138.929692,264.098379 C139.748085,266.077338 141.678495,267.368014 143.82,267.368014 C145.222421,267.371187 146.568495,266.816311 147.561284,265.825773 C148.554073,264.835235 149.112014,263.490425 149.112014,262.088 L149.112014,262.088 Z" id="Path" fill="#FFFFFF" fill-rule="nonzero" opacity="0.6"></path>
                <path d="M142.548,264.44 L142.548,264.44 C140.859515,264.438286 139.350929,263.38467 138.768,261.8 L132.54,244.736 L146.568,244.736 L146.568,260.42 C146.568,262.640185 144.768185,264.44 142.548,264.44 L142.548,264.44 Z" id="Path" fill="#252482" fill-rule="nonzero"></path>
                <path d="M142.548,264.44 L142.548,264.44 C140.859515,264.438286 139.350929,263.38467 138.768,261.8 L132.54,244.736 L146.568,244.736 L146.568,260.42 C146.568,262.640185 144.768185,264.44 142.548,264.44 L142.548,264.44 Z" id="Path" fill="#FFFFFF" fill-rule="nonzero" opacity="0.4"></path>
                <circle id="Oval" fill="#252482" fill-rule="nonzero" cx="26.22" cy="262.088" r="10.572"></circle>
                <path d="M31.5120137,262.088 C31.516856,259.9465 30.230585,258.013165 28.2534895,257.190282 C26.2763939,256.367399 23.9982449,256.817193 22.4822544,258.329746 C20.9662638,259.842299 20.511299,262.119421 21.329692,264.098379 C22.1480849,266.077338 24.078495,267.368014 26.22,267.368014 C27.6224211,267.371187 28.9684946,266.816311 29.9612836,265.825773 C30.9540726,264.835235 31.5120137,263.490425 31.5120137,262.088 Z" id="Path" fill="#FFFFFF" fill-rule="nonzero" opacity="0.6"></path>
                <path d="M24.948,264.44 L24.948,264.44 C23.2595149,264.438286 21.7509288,263.38467 21.168,261.8 L14.94,244.736 L28.968,244.736 L28.968,260.42 C28.968,262.640185 27.1681847,264.44 24.948,264.44 L24.948,264.44 Z" id="Path" fill="#252482" fill-rule="nonzero"></path>
                <path d="M24.948,264.44 L24.948,264.44 C23.2595149,264.438286 21.7509288,263.38467 21.168,261.8 L14.94,244.736 L28.968,244.736 L28.968,260.42 C28.968,262.640185 27.1681847,264.44 24.948,264.44 L24.948,264.44 Z" id="Path" fill="#FFFFFF" fill-rule="nonzero" opacity="0.4"></path>
                <rect id="Rectangle" fill="#3E3CDA" fill-rule="nonzero" x="33.408" y="154.976" width="111.9" height="77.46"></rect>
                <rect id="Rectangle" fill="#FFFFFF" fill-rule="nonzero" opacity="0.4" x="33.408" y="154.976" width="111.9" height="77.46"></rect>
                <rect id="Rectangle" fill="#FFFFFF" fill-rule="nonzero" opacity="0.2" x="33.408" y="154.976" width="51.924" height="77.46"></rect>
                <rect id="Rectangle" fill="#000000" fill-rule="nonzero" opacity="0.2" x="72.828" y="216.056" width="8.7" height="11.076" rx="1.104"></rect>
                <rect id="Rectangle" fill="#000000" fill-rule="nonzero" opacity="0.2" x="61.116" y="216.056" width="8.7" height="11.076" rx="1.104"></rect>
                <rect id="Rectangle" fill="#000000" fill-rule="nonzero" opacity="0.4" x="114.924" y="154.976" width="6.324" height="8.076"></rect>
                <rect id="Rectangle" fill="#000000" fill-rule="nonzero" opacity="0.2" x="94.98" y="188.048" width="43.56" height="10.128"></rect>
                <rect id="Rectangle" fill="#000000" fill-rule="nonzero" opacity="0.2" x="36.792" y="159.008" width="14.892" height="14.892"></rect>
                <rect id="Rectangle" fill="#3E3CDA" fill-rule="nonzero" x="44.832" y="77.516" width="111.9" height="77.46"></rect>
                <rect id="Rectangle" fill="#000000" fill-rule="nonzero" opacity="0.4" x="44.832" y="77.516" width="111.9" height="77.46"></rect>
                <rect id="Rectangle" fill="#FFFFFF" fill-rule="nonzero" opacity="0.2" x="44.832" y="77.516" width="51.924" height="77.46"></rect>
                <rect id="Rectangle" fill="#000000" fill-rule="nonzero" opacity="0.2" x="84.264" y="138.596" width="8.7" height="11.076" rx="1.104"></rect>
                <rect id="Rectangle" fill="#000000" fill-rule="nonzero" opacity="0.2" x="72.552" y="138.596" width="8.7" height="11.076" rx="1.104"></rect>
                <rect id="Rectangle" fill="#000000" fill-rule="nonzero" opacity="0.4" x="126.348" y="77.516" width="6.324" height="8.076"></rect>
                <rect id="Rectangle" fill="#000000" fill-rule="nonzero" opacity="0.2" x="106.404" y="110.588" width="43.56" height="10.128"></rect>
                <rect id="Rectangle" fill="#000000" fill-rule="nonzero" opacity="0.2" x="48.228" y="81.548" width="14.892" height="14.892"></rect>
                <rect id="Rectangle" fill="#3E3CDA" fill-rule="nonzero" x="113.328" y="77.516" width="111.9" height="77.46"></rect>
                <rect id="Rectangle" fill="#FFFFFF" fill-rule="nonzero" opacity="0.4" x="113.328" y="77.516" width="111.9" height="77.46"></rect>
                <rect id="Rectangle" fill="#FFFFFF" fill-rule="nonzero" opacity="0.2" x="113.328" y="77.516" width="51.924" height="77.46"></rect>
                <rect id="Rectangle" fill="#000000" fill-rule="nonzero" opacity="0.2" x="152.76" y="138.596" width="8.7" height="11.076" rx="1.104"></rect>
                <rect id="Rectangle" fill="#000000" fill-rule="nonzero" opacity="0.2" x="141.048" y="138.596" width="8.7" height="11.076" rx="1.104"></rect>
                <rect id="Rectangle" fill="#000000" fill-rule="nonzero" opacity="0.4" x="194.844" y="77.516" width="6.324" height="8.076"></rect>
                <rect id="Rectangle" fill="#000000" fill-rule="nonzero" opacity="0.2" x="174.9" y="110.588" width="43.56" height="10.128"></rect>
                <rect id="Rectangle" fill="#000000" fill-rule="nonzero" opacity="0.2" x="116.724" y="81.548" width="14.892" height="14.892"></rect>
                <rect id="Rectangle" fill="#3E3CDA" fill-rule="nonzero" x="74.628" y="0.056" width="111.9" height="77.46"></rect>
                <rect id="Rectangle" fill="#FFFFFF" fill-rule="nonzero" opacity="0.2" x="74.628" y="0.056" width="51.924" height="77.46"></rect>
                <rect id="Rectangle" fill="#000000" fill-rule="nonzero" opacity="0.2" x="114.048" y="61.136" width="8.7" height="11.076" rx="1.104"></rect>
                <rect id="Rectangle" fill="#000000" fill-rule="nonzero" opacity="0.2" x="102.348" y="61.136" width="8.7" height="11.076" rx="1.104"></rect>
                <rect id="Rectangle" fill="#000000" fill-rule="nonzero" opacity="0.4" x="156.144" y="0.056" width="6.324" height="8.076"></rect>
                <rect id="Rectangle" fill="#000000" fill-rule="nonzero" opacity="0.2" x="136.2" y="33.128" width="43.56" height="10.128"></rect>
                <rect id="Rectangle" fill="#000000" fill-rule="nonzero" opacity="0.2" x="78.012" y="4.088" width="14.892" height="14.892"></rect>
                <rect id="Rectangle" fill="#252482" fill-rule="nonzero" x="104.616" y="154.976" width="111.9" height="77.46"></rect>
                <rect id="Rectangle" fill="#FFFFFF" fill-rule="nonzero" opacity="0.2" x="104.616" y="154.976" width="51.924" height="77.46"></rect>
                <rect id="Rectangle" fill="#000000" fill-rule="nonzero" opacity="0.2" x="144.036" y="216.056" width="8.7" height="11.076" rx="1.104"></rect>
                <rect id="Rectangle" fill="#000000" fill-rule="nonzero" opacity="0.2" x="132.324" y="216.056" width="8.7" height="11.076" rx="1.104"></rect>
                <rect id="Rectangle" fill="#000000" fill-rule="nonzero" opacity="0.4" x="186.132" y="154.976" width="6.324" height="8.076"></rect>
                <rect id="Rectangle" fill="#000000" fill-rule="nonzero" opacity="0.2" x="166.188" y="188.048" width="43.56" height="10.128"></rect>
                <rect id="Rectangle" fill="#000000" fill-rule="nonzero" opacity="0.2" x="108" y="159.008" width="14.892" height="14.892"></rect>
            </g>
        </g>
    </g>
</svg>