<?xml version="1.0" encoding="UTF-8"?>
<svg width="90px" height="90px" viewBox="0 0 90 90" version="1.1" xmlns="http://www.w3.org/2000/svg" xmlns:xlink="http://www.w3.org/1999/xlink">
    <title>Integrate</title>
    <g id="Integrate" stroke="none" stroke-width="1" fill="none" fill-rule="evenodd">
        <circle id="Oval-Copy-108" fill="#FFDEFF" cx="45" cy="45" r="45"></circle>
        <path d="M47.0887388,29.3154336 C47.2386381,29.9340937 47.6749946,30.4439579 48.263082,30.6876039 C48.8511695,30.9312499 49.5202564,30.8793736 50.0642371,30.5477013 C54.5338904,27.8247758 59.6503066,32.9399552 56.9280683,37.4113763 C56.5971651,37.9546431 56.545414,38.6232161 56.788773,39.2109338 C57.0100084,39.7452227 57.4509824,40.1543561 57.9937157,40.3372587 L58.1594705,40.3852415 C58.9644375,40.5809956 59.4583021,41.3922404 59.262548,42.1972073 C59.0667938,43.0021743 58.2555491,43.4960389 57.4505821,43.3002848 C55.9022579,42.923759 54.6266102,41.8308826 54.0169983,40.3586554 C53.4412536,38.9682187 53.5248999,37.3971198 54.2341224,36.0806413 L54.3657663,35.8510532 C55.4280241,34.1062382 53.5005707,32.1154594 51.7474883,33.0401459 L51.6255029,33.109429 C50.2640311,33.9395368 48.5879749,34.0694863 47.1148217,33.4591555 C45.6416684,32.8488246 44.5485995,31.5716199 44.1732035,30.0222955 C43.6944761,28.0489495 40.9514773,27.9941343 40.3467803,29.8585773 L40.3002885,30.023087 C39.5009258,33.3103212 35.7444492,34.867103 32.8510532,33.1079179 C31.1062382,32.0456601 29.1154594,33.9731135 30.0401459,35.7261959 L30.109429,35.8481813 C30.9395368,37.2096531 31.0694863,38.8857093 30.4591555,40.3588626 C29.8809473,41.7544814 28.7042152,42.8089719 27.2646067,43.2352928 L27.0222955,43.3004807 C24.9925682,43.7928861 24.9925682,46.6807981 27.0231021,47.1733994 C28.5714263,47.5499252 29.847074,48.6428016 30.4566859,50.1150288 C31.0324306,51.5054656 30.9487843,53.0765644 30.2395618,54.393043 L30.1079179,54.622631 C29.0456601,56.367446 30.9731135,58.3582248 32.7261959,57.4335383 L32.8481813,57.3642552 C34.2096531,56.5341475 35.8857093,56.4041979 37.3588626,57.0145288 C38.7544814,57.592737 39.8089719,58.769469 40.2352928,60.2090775 L40.3004807,60.4513887 C40.7928861,62.4811161 43.6807981,62.4811161 44.1733994,60.4505821 C44.5499252,58.9022579 45.6428016,57.6266102 47.1150288,57.0169983 C48.587256,56.4073863 50.2620247,56.5370223 51.6229026,57.3659317 C52.3304171,57.796878 52.5546199,58.7197829 52.1236736,59.4272974 C51.718077,60.0931934 50.8766971,60.3309655 50.1892553,59.9973518 L50.0623079,59.9280683 C49.5190411,59.5971651 48.8504681,59.545414 48.2627504,59.788773 C47.6750327,60.032132 47.238753,60.5413746 47.0886386,61.1586639 C45.8736078,66.1671008 38.8402735,66.2441537 37.4461223,61.389428 L37.3849454,61.1582506 C37.2350461,60.5395905 36.7986896,60.0297263 36.2106022,59.7860803 C35.6225148,59.5424343 34.9534278,59.5943106 34.4094471,59.9259829 C29.9397938,62.6489084 24.8233776,57.533729 27.5456159,53.0623079 C27.8765191,52.5190411 27.9282703,51.8504681 27.6849112,51.2627504 C27.4415522,50.6750327 26.9323096,50.238753 26.3150203,50.0886386 C21.3065834,48.8736078 21.2295305,41.8402735 26.0842562,40.4461223 L26.3154336,40.3849454 C26.9340937,40.2350461 27.4439579,39.7986896 27.6876039,39.2106022 C27.9312499,38.6225148 27.8793736,37.9534278 27.5477013,37.4094471 C24.8592432,32.9963717 29.8117129,27.9528035 34.2402942,30.4453886 L34.4103487,30.5449905 C35.568549,31.2491763 37.065579,30.6287681 37.3850456,29.3150203 C38.6190613,24.2283266 45.8546229,24.2283266 47.0887388,29.3154336 Z M52.4004652,52.2632726 C52.6814763,52.7864403 52.6347432,53.449759 52.2312417,53.9339608 C51.7008956,54.5703762 50.7550485,54.6563623 50.1186332,54.1260161 L50.1186332,54.1260161 L46.8028437,51.3628582 L46.6895684,51.2584015 C46.0854336,50.6419173 46.123192,49.6245708 46.8028437,49.0581944 L46.8028437,49.0581944 L50.1186332,46.2950365 L50.2414102,46.2028032 C50.8716563,45.7775888 51.7340422,45.8904524 52.2312417,46.4870918 L52.2312417,46.4870918 L52.323475,46.6098689 C52.7486894,47.240115 52.6358257,48.1025009 52.0391864,48.5997003 L52.0391864,48.5997003 L51.2420517,49.2630517 L54.8073684,49.2631579 L55.0333765,49.2569941 C56.2330816,49.1913805 57.335339,48.6054656 58.0182401,47.6688894 L58.0182401,47.6688894 L58.1842858,47.4506903 C59.4887927,45.8071495 61.5089944,44.8421053 63.6531579,44.8421053 L63.6531579,44.8421053 L65.4473684,44.8421053 L65.5918284,44.8489718 C66.3524803,44.9216566 66.9473684,45.5624091 66.9473684,46.3421053 C66.9473684,47.1705324 66.2757955,47.8421053 65.4473684,47.8421053 L65.4473684,47.8421053 L63.6531579,47.8421053 L63.4271206,47.8482829 C62.2272862,47.9139578 61.1253075,48.4997442 60.4422361,49.4364424 L60.4422361,49.4364424 L60.2762175,49.6546276 C59.9590725,50.0542292 59.599579,50.4137343 59.2062603,50.7290145 C59.70273,51.1163553 60.1473123,51.5758152 60.5227504,52.0975368 L60.5227504,52.0975368 L60.6533693,52.2683292 C61.3748015,53.1568643 62.4864258,53.6842105 63.6724458,53.6842105 L63.6724458,53.6842105 L65.4473684,53.6842105 L65.5918284,53.6910771 C66.3524803,53.7637618 66.9473684,54.4045144 66.9473684,55.1842105 C66.9473684,56.0126377 66.2757955,56.6842105 65.4473684,56.6842105 L65.4473684,56.6842105 L63.6724458,56.6842105 L63.3957233,56.678739 C61.2803265,56.5950266 59.3147309,55.5549535 58.0877016,53.8498317 L58.0877016,53.8498317 L57.9570827,53.6790392 C57.2356505,52.7905042 56.1240262,52.2631579 54.9380062,52.2631579 L54.9380062,52.2631579 Z M49.7006482,43.9207717 C49.8445031,44.7366132 49.2997503,45.5146007 48.4839089,45.6584556 C47.6680674,45.8023105 46.8900798,45.2575577 46.746225,44.4417162 C46.3070891,41.9512528 43.9321796,40.2883233 41.4417162,40.7274592 C38.9512528,41.1665951 37.2883233,43.5415046 37.7274592,46.031968 C38.1665951,48.5224314 40.5415046,50.1853609 43.031968,49.746225 C43.8478094,49.6023701 44.625797,50.1471229 44.7696519,50.9629643 C44.9135067,51.7788058 44.368754,52.5567934 43.5529125,52.7006482 C39.4307662,53.4274938 35.4998816,50.6750588 34.773036,46.5529125 C34.0461904,42.4307662 36.7986254,38.4998816 40.9207717,37.773036 C45.042918,37.0461904 48.9738026,39.7986254 49.7006482,43.9207717 Z" id="Combined-Shape" fill="#F83AF8" fill-rule="nonzero"></path>
    </g>
</svg>