<?xml version="1.0" encoding="UTF-8"?>
<svg width="658px" height="482px" viewBox="0 0 658 482" version="1.1" xmlns="http://www.w3.org/2000/svg" xmlns:xlink="http://www.w3.org/1999/xlink">
    <!-- Generator: Sketch 63.1 (92452) - https://sketch.com -->
    <title>Group 9</title>
    <desc>Created with Sketch.</desc>
    <defs>
        <path d="M335.11442,300.552259 C456.443037,300.552259 484.786718,260.286288 575.385354,238.659879 C665.98399,217.033471 683.115686,30.1153758 617.434722,23.4732786 C600.667744,21.7776899 544.955833,36.7913117 492.885151,31.994871 C443.009899,27.4006602 380.817717,24.2087458 321.148916,18.3221137 C249.880488,11.2911191 175.506469,9.22302924 119.37923,4.41844993 C79.3751928,0.994041869 50.5046752,-3.09051196 30.1767978,3.55404783 C-52.0599588,30.4347218 35.3255905,300.552259 335.11442,300.552259 Z" id="path-1"></path>
        <linearGradient x1="100.591751%" y1="45.5970839%" x2="1.52704097%" y2="51.756697%" id="linearGradient-3">
            <stop stop-color="#8758FF" offset="0%"></stop>
            <stop stop-color="#614EF9" offset="100%"></stop>
        </linearGradient>
        <linearGradient x1="100.591751%" y1="45.4650697%" x2="1.52704097%" y2="51.8093686%" id="linearGradient-4">
            <stop stop-color="#A27FFF" offset="0%"></stop>
            <stop stop-color="#7667F5" offset="100%"></stop>
        </linearGradient>
        <linearGradient x1="100.591751%" y1="45.50677%" x2="1.52704097%" y2="51.7927309%" id="linearGradient-5">
            <stop stop-color="#8758FF" offset="0%"></stop>
            <stop stop-color="#614EF9" offset="100%"></stop>
        </linearGradient>
        <linearGradient x1="83.1205892%" y1="39.1274929%" x2="18.2665075%" y2="54.337966%" id="linearGradient-6">
            <stop stop-color="#8758FF" offset="0%"></stop>
            <stop stop-color="#614EF9" offset="100%"></stop>
        </linearGradient>
        <linearGradient x1="4.67261409%" y1="50.6726442%" x2="100%" y2="49.3273558%" id="linearGradient-7">
            <stop stop-color="#2B0161" offset="0%"></stop>
            <stop stop-color="#0A0197" offset="100%"></stop>
        </linearGradient>
        <linearGradient x1="72.0330769%" y1="39.1274929%" x2="28.8896727%" y2="54.337966%" id="linearGradient-8">
            <stop stop-color="#6534E5" offset="0%"></stop>
            <stop stop-color="#4A37E5" offset="100%"></stop>
        </linearGradient>
        <linearGradient x1="4.67261409%" y1="100%" x2="100%" y2="0%" id="linearGradient-9">
            <stop stop-color="#2B0161" offset="0%"></stop>
            <stop stop-color="#0A0197" offset="100%"></stop>
        </linearGradient>
        <linearGradient x1="4.67261409%" y1="52.4894058%" x2="100%" y2="47.5105942%" id="linearGradient-10">
            <stop stop-color="#2B0161" offset="0%"></stop>
            <stop stop-color="#0A0197" offset="100%"></stop>
        </linearGradient>
        <linearGradient x1="50%" y1="0%" x2="50%" y2="97.4936777%" id="linearGradient-11">
            <stop stop-color="#812E9F" offset="0%"></stop>
            <stop stop-color="#4F2785" offset="100%"></stop>
        </linearGradient>
        <linearGradient x1="50%" y1="0%" x2="50%" y2="97.4936777%" id="linearGradient-12">
            <stop stop-color="#812E9F" offset="0%"></stop>
            <stop stop-color="#4F2785" offset="100%"></stop>
        </linearGradient>
    </defs>
    <g id="Page-1" stroke="none" stroke-width="1" fill="none" fill-rule="evenodd">
        <g id="Group-9" transform="translate(0.000000, 2.000000)">
            <g id="Group-8">
                <g id="Group-68-Copy-2" transform="translate(95.680000, 87.360000)">
                    <polygon id="Path-278" fill="#3E3CDA" points="66.2034727 51.0593146 66.2034727 5.94523515 2.84048337 5.94523515 2.84048337 51.0593146"></polygon>
                    <path d="M3.03652458,0 L64.6345946,0 C66.3116208,1.91238133e-15 67.6711192,1.35949836 67.6711192,3.03652458 L67.6711192,5.20547071 C67.6711192,5.68462106 67.2826911,6.07304916 66.8035408,6.07304916 L0.867578451,6.07304916 C0.388428103,6.07304916 -5.14950729e-16,5.68462106 0,5.20547071 L0,3.03652458 C-2.05376479e-16,1.35949836 1.35949836,3.08064718e-16 3.03652458,0 Z" id="Rectangle" fill="#4C4AEE"></path>
                    <rect id="Rectangle" fill="#FFFFFF" x="15.6164121" y="14.7488337" width="6.07304916" height="5.20547071"></rect>
                    <rect id="Rectangle-Copy-42" fill="#FFFFFF" x="31.2328243" y="14.7488337" width="6.07304916" height="5.20547071"></rect>
                    <rect id="Rectangle-Copy-45" fill="#FFFFFF" x="47.7168148" y="14.7488337" width="6.07304916" height="5.20547071"></rect>
                    <polyline id="Path-281" fill="#FFFFFF" points="46.7841199 51.0593146 46.7841199 24.8836739 21.6894613 24.8836739 21.6894613 51.0593146"></polyline>
                    <polygon id="Path-289" fill="#1E1C8D" points="46.7841199 38.5514924 21.6894613 38.5514924 21.6894613 24.8836739 46.7841199 24.8836739"></polygon>
                </g>
                <g id="Path-88-Copy-4" transform="translate(0.000000, 178.880000)">
                    <mask id="mask-2" fill="white">
                        <use xlink:href="#path-1"></use>
                    </mask>
                    <use id="Mask" fill="#E2E1FF" opacity="0.393926711" xlink:href="#path-1"></use>
                    <path d="M723.781648,289.967438 L319.334196,289.967438 L319.334196,121.481188 C339.21447,125.375111 355.061377,130.132462 366.874917,135.753242 C384.595226,144.184411 409.519589,172.681917 438.228261,198.470231 C466.936933,224.258545 512.79103,205.724313 552.119075,230.937656 C591.44712,256.150998 612.709729,258.475483 640.555885,260.975227 C668.402041,263.47497 675.306246,262.961669 690.415137,271.30599 C700.487732,276.868871 711.609902,283.089354 723.781648,289.967438 Z" id="Path-88-Copy" fill="#DBD6FF" opacity="0.295758929" mask="url(#mask-2)" transform="translate(521.557922, 205.724313) scale(-1, 1) rotate(6.000000) translate(-521.557922, -205.724313) "></path>
                    <path d="M316.760007,243.021105 L-87.7021268,242.179992 L-88.0152055,73.7015049 C-68.1269743,77.6365924 -52.2706521,82.4266807 -40.4462391,88.0717696 C-22.7096195,96.5394029 2.26860141,125.08743 31.0262351,150.93426 C59.7838689,176.78109 105.60519,158.343073 144.981514,183.637043 C184.357838,208.931013 205.625538,211.299609 233.47735,213.857148 C261.329161,216.414687 268.232663,215.915768 283.357608,224.291126 C293.440905,229.874698 304.575038,236.118025 316.760007,243.021105 Z" fill="#DBD6FF" opacity="0.295758929" mask="url(#mask-2)" transform="translate(114.372401, 158.361305) rotate(23.000000) translate(-114.372401, -158.361305) "></path>
                </g>
                <g id="Group-18-Copy-3" transform="translate(116.440000, 157.440000) scale(-1, 1) translate(-116.440000, -157.440000) translate(91.440000, 141.440000)">
                    <polygon id="Path-132" fill="url(#linearGradient-3)" points="48.8542396 -1.59473347e-13 48.8542396 22.4438784 13.5852878 22.4438784 13.5852878 -1.59473347e-13"></polygon>
                    <polygon id="Path-132" fill="url(#linearGradient-4)" points="46.9304786 1.28250734 46.9304786 21.161371 16.1503025 21.161371 16.1503025 1.28250734"></polygon>
                    <polygon id="Path-132" fill="url(#linearGradient-5)" points="45.0067176 2.56501467 45.0067176 19.8788637 18.0740635 19.8788637 18.0740635 2.56501467"></polygon>
                    <path d="M12.2996613,26.360548 L12.2996613,11.1591342 L3.53085349,11.1591342 L2.91608407e-13,19.6326741 L2.91608407e-13,26.360548 L2.13039857,26.360548 C2.7496377,24.9031919 3.88612425,24.0969555 5.53985822,23.9418391 C7.1935922,23.7867226 8.58993742,24.5929589 9.7288939,26.360548 L12.2996613,26.360548 Z" id="Path-133" fill="url(#linearGradient-6)"></path>
                    <polygon id="Path-134" fill="url(#linearGradient-7)" points="12.2996613 22.0983048 49.0473914 22.0983048 49.0473914 26.360548 31.5403905 26.360548 28.8372066 23.9721586 12.2996613 23.9721586"></polygon>
                    <path d="M9.74910059,23.4140325 L9.74910059,12.5980597 L4.09676258,12.5980597 L1.5838632,19.3979254 L1.5838632,24.9709482 L2.05498258,24.9709482 C2.68426847,23.8567393 3.74796281,23.1599423 5.24606557,22.8805574 C6.74416834,22.6011725 8.24518001,22.7789975 9.74910059,23.4140325 Z" id="Path-135" fill="url(#linearGradient-8)"></path>
                    <polygon id="Path-136" fill="#FFFFFF" points="9.0586735 19.9318496 2.32186918 19.9318496 4.60558446 13.2393134 9.0586735 13.2393134"></polygon>
                    <circle id="Oval" fill="url(#linearGradient-9)" cx="5.9624885" cy="28.33753" r="3.36658176"></circle>
                    <circle id="Oval-Copy-18" stroke="#FFFFFF" stroke-width="1.76800005" fill="url(#linearGradient-9)" cx="37.0632914" cy="28.33753" r="4.25058178"></circle>
                    <rect id="Rectangle" fill="#3235AD" x="26.804806" y="23.6884409" width="1" height="1.923761"></rect>
                    <rect id="Rectangle-Copy-26" fill="#3235AD" x="17.1860009" y="23.6884409" width="1" height="1.923761"></rect>
                    <polygon id="Path-140" fill="url(#linearGradient-10)" points="29.5278361 25.3249393 29.5278361 28.4726374 15.4209801 28.4726374 15.4209801 25.3249393"></polygon>
                </g>
                <path d="M443.04,399.36 C430.209095,362.373161 401.834671,335.978865 357.916729,320.177115 C292.039816,296.474489 252.620952,300.250991 178.810938,290.165447 C105.000923,280.079903 52,278.202867 52,213.636301 C52,183.623088 65.2545139,164.410988 91.7635417,156" id="Path-280" stroke="url(#linearGradient-11)" stroke-width="2.51472016" opacity="0.0995861235"></path>
                <path d="M520,212.16 C490.699263,123.231565 468.814044,75.0160692 454.344344,67.5135123 C432.639795,56.259677 417.082124,147.920926 397.121857,168.837699 C377.16159,189.754473 348.330778,197.19998 354.430794,199.988529 C358.497472,201.847563 413.687207,205.90472 520,212.16 Z" id="Path-283" fill="#B9ACFF" opacity="0.230352493"></path>
                <path d="M295.36,193.44 C275.95481,163.345337 262.602682,142.17456 255.303616,129.927667 C238.883946,102.377574 226.388861,76.8556529 214.052565,74.9872125 C201.716268,73.1187722 191.646407,95.8966417 170.128045,125.739603 C162.240747,136.678184 144.358065,155.266907 116.48,181.505774 L295.36,193.44 Z" id="Path-284" fill="#EFECFF"></path>
                <path d="M401.44,203.84 C374.954176,125.356822 355.104728,82.6948711 341.891658,75.854148 C322.072053,65.5930633 301.834183,139.348584 283.607377,158.420196 C265.380572,177.491809 260.817762,188.914001 266.388019,191.456561 C267.948833,192.168999 277.105445,192.314822 293.259596,193.8868 C308.11291,195.332192 344.173044,198.649925 401.44,203.84 Z" id="Path-283-Copy" fill="#B9ACFF" opacity="0.230352493"></path>
                <polygon id="Path-278" fill="#3E3CDA" points="372.32 239.2 372.32 185.12 295.36 185.12 295.36 239.2"></polygon>
                <path d="M295.36,178.88 L368.16,178.88 C370.457505,178.88 372.32,180.742495 372.32,183.04 L372.32,186.158906 C372.32,186.733886 371.853886,187.2 371.278906,187.2 L292.241094,187.2 C291.666114,187.2 291.2,186.733886 291.2,186.158906 L291.2,183.04 C291.2,180.742495 293.062495,178.88 295.36,178.88 Z" id="Rectangle" fill="#4C4AEE"></path>
                <rect id="Rectangle" fill="#FFFFFF" x="309.92" y="197.6" width="8.32" height="6.24"></rect>
                <rect id="Rectangle-Copy-42" fill="#FFFFFF" x="328.64" y="197.6" width="8.32" height="6.24"></rect>
                <rect id="Rectangle-Copy-45" fill="#FFFFFF" x="349.44" y="197.6" width="8.32" height="6.24"></rect>
                <polyline id="Path-281" fill="#FFFFFF" points="347.36 239.2 347.36 208 318.24 208 318.24 239.2"></polyline>
                <polygon id="Path-289" fill="#1E1C8D" points="347.36 224.64 318.24 224.64 318.24 208 347.36 208"></polygon>
                <path d="M122.745542,62.4 L122.719296,62.4 C119.278939,62.4 116.48,65.1757031 116.48,68.5875684 C116.48,70.4580957 117.444176,71.917041 118.518455,73.3698926 L122.710974,79.04 C122.710974,79.04 126.673684,73.7051758 126.921545,73.3700195 C127.995824,71.917168 128.96,70.4582226 128.96,68.5876953 C128.96,65.184209 126.17476,62.413584 122.745542,62.4 Z M122.942857,72.0336842 C120.853803,72.0336842 119.154286,70.3639547 119.154286,68.3115165 C119.154286,66.2592031 120.853803,64.5894737 122.942857,64.5894737 C125.031911,64.5894737 126.731429,66.2592031 126.731429,68.3115165 C126.731429,70.3639547 125.031784,72.0336842 122.942857,72.0336842 Z" id="Shape-Copy-3" fill="#FF0066" fill-rule="nonzero"></path>
                <path d="M492.96,374.4 C485.436289,339.771977 472.087695,313.272359 452.914218,294.901143 C424.154003,267.34432 373.390478,254.773994 329.191528,247.127617 C284.992578,239.48124 233.111519,244.044023 165.388426,234.882446 C128.283713,229.862923 118.328715,203.195577 124.356812,193.117788 C128.375543,186.399263 133.653728,183.04 140.191368,183.04" id="Path-279" stroke="url(#linearGradient-12)" stroke-width="2.51472016" opacity="0.095561"></path>
                <polygon id="Path-278" fill="#3E3CDA" points="266.24 399.36 266.24 268.32 83.2 268.32 83.2 399.36"></polygon>
                <path d="M83.2,251.68 L262.08,251.68 C266.675009,251.68 270.4,255.404991 270.4,260 L270.4,265.80528 C270.4,267.194121 269.274121,268.32 267.88528,268.32 L77.3947202,268.32 C76.0058786,268.32 74.88,267.194121 74.88,265.80528 L74.88,260 C74.88,255.404991 78.6049909,251.68 83.2,251.68 Z" id="Rectangle" fill="#4C4AEE"></path>
                <rect id="Rectangle" fill="#FFFFFF" x="120.64" y="295.36" width="16.64" height="14.56"></rect>
                <rect id="Rectangle-Copy-42" fill="#FFFFFF" x="166.4" y="295.36" width="16.64" height="14.56"></rect>
                <rect id="Rectangle-Copy-45" fill="#FFFFFF" x="214.24" y="295.36" width="16.64" height="14.56"></rect>
                <polyline id="Path-281" fill="#FFFFFF" points="210.08 399.36 210.08 324.48 137.28 324.48 137.28 399.36"></polyline>
                <polygon id="Path-289" fill="#1E1C8D" points="210.08 364 137.28 364 137.28 324.48 210.08 324.48"></polygon>
                <g id="Group-13" transform="translate(158.080000, 368.160000)">
                    <g id="Group-4" transform="translate(0.000000, 12.547447)">
                        <polygon id="Path-128" fill="#FF9F55" points="35.3609858 0 35.3609858 18.2508314 10.2660927 18.2508314 10.2660927 7.59894907e-14"></polygon>
                        <polygon id="Path-129" fill="#FF8155" points="10.2660927 0 10.2660927 18.2508314 0 18.2508314 0 0"></polygon>
                        <polygon id="Path-130" fill="#FFFFFF" style="mix-blend-mode: overlay;" opacity="0.296898251" points="6.08361047 0 6.08361047 8.36496439 3.80225654 8.36496439 3.80225654 0"></polygon>
                        <polygon id="Path-131" fill="#FFFFFF" style="mix-blend-mode: overlay;" opacity="0.296898251" points="22.8135393 11.7869953 22.8135393 16.7299288 11.7869953 16.7299288 11.7869953 11.7869953"></polygon>
                    </g>
                    <g id="Group-4-Copy" transform="translate(20.912411, 0.000000)">
                        <polygon id="Path-128" fill="#FF9F55" points="35.3609858 0 35.3609858 18.2508314 10.2660927 18.2508314 10.2660927 7.59894907e-14"></polygon>
                        <polygon id="Path-129" fill="#FF8155" points="10.2660927 0 10.2660927 18.2508314 0 18.2508314 0 0"></polygon>
                        <polygon id="Path-130" fill="#FFFFFF" style="mix-blend-mode: overlay;" opacity="0.0989583333" points="6.08361047 0 6.08361047 8.36496439 3.80225654 8.36496439 3.80225654 0"></polygon>
                        <polygon id="Path-131" fill="#FFFFFF" style="mix-blend-mode: overlay;" opacity="0.168061756" points="22.8135393 11.7869953 22.8135393 16.7299288 11.7869953 16.7299288 11.7869953 11.7869953"></polygon>
                    </g>
                    <g id="Group-4-Copy-2" transform="translate(24.334442, 18.250831)">
                        <polygon id="Path-128" fill="#FF9F55" points="35.3609858 0 35.3609858 18.2508314 10.2660927 18.2508314 10.2660927 7.59894907e-14"></polygon>
                        <polygon id="Path-129" fill="#FF8155" points="10.2660927 0 10.2660927 18.2508314 0 18.2508314 0 0"></polygon>
                        <polygon id="Path-130" fill="#FFFFFF" style="mix-blend-mode: overlay;" opacity="0.296898251" points="6.08361047 0 6.08361047 8.36496439 3.80225654 8.36496439 3.80225654 0"></polygon>
                        <polygon id="Path-131" fill="#FFFFFF" style="mix-blend-mode: overlay;" opacity="0.296898251" points="22.8135393 11.7869953 22.8135393 16.7299288 11.7869953 16.7299288 11.7869953 11.7869953"></polygon>
                    </g>
                </g>
                <g id="Group-68-Copy" transform="translate(492.960000, 203.840000)">
                    <polygon id="Path-278" fill="#3E3CDA" points="132.406945 102.118629 132.406945 11.8904703 5.68096673 11.8904703 5.68096673 102.118629"></polygon>
                    <path d="M6.07304916,0 L129.269189,0 C132.623242,5.6011195e-15 135.342238,2.71899672 135.342238,6.07304916 L135.342238,10.4109414 C135.342238,11.3692421 134.565382,12.1460983 133.607082,12.1460983 L1.7351569,12.1460983 C0.776856207,12.1460983 -2.10308806e-15,11.3692421 0,10.4109414 L0,6.07304916 C-4.10752958e-16,2.71899672 2.71899672,6.16129437e-16 6.07304916,0 Z" id="Rectangle" fill="#4C4AEE"></path>
                    <rect id="Rectangle" fill="#FFFFFF" x="31.2328243" y="29.4976673" width="12.1460983" height="10.4109414"></rect>
                    <rect id="Rectangle-Copy-42" fill="#FFFFFF" x="62.4656485" y="29.4976673" width="12.1460983" height="10.4109414"></rect>
                    <rect id="Rectangle-Copy-45" fill="#FFFFFF" x="95.4336297" y="29.4976673" width="12.1460983" height="10.4109414"></rect>
                    <polyline id="Path-281" fill="#FFFFFF" points="93.5682398 102.118629 93.5682398 49.7673478 43.3789226 49.7673478 43.3789226 102.118629"></polyline>
                    <polygon id="Path-289" fill="#1E1C8D" points="93.5682398 77.1029849 43.3789226 77.1029849 43.3789226 49.7673478 93.5682398 49.7673478"></polygon>
                </g>
                <polygon id="Path-285" fill="#B9ACFF" opacity="0.239257812" points="357.76 101.92 314.08 101.92 322.815585 105.678713 329.256703 112.32 335.92 108.971701 344.043035 108.971701 344.043035 105.678713 355.520559 105.678713"></polygon>
                <path d="M557.44,187.226932 C525.881503,148.430176 502.096262,124.651771 486.084278,115.891717 C462.066303,102.751636 422.400937,107.889205 400.084831,119.891945 C385.207427,127.893772 363.590409,144.224858 335.233776,168.885204 C308.354344,145.317854 279.037076,136.805303 247.281973,143.34755 C215.52687,149.889797 189.259546,167.973947 168.48,197.6" id="Path-282" stroke="#FF377B" stroke-width="1.25736008" opacity="0.356747582" stroke-linecap="round" stroke-linejoin="round" stroke-dasharray="10.05888104438782"></path>
                <path d="M167.529395,193.44 L167.437536,193.44 C155.396286,193.44 145.6,203.154961 145.6,215.096489 C145.6,221.643335 148.974615,226.749644 152.734593,231.834624 L167.408409,251.68 C167.408409,251.68 181.277892,233.008115 182.145407,231.835068 C185.905385,226.750088 189.28,221.643779 189.28,215.096934 C189.28,203.184731 179.53166,193.487544 167.529395,193.44 Z M168.22,227.157895 C160.908311,227.157895 154.96,221.313842 154.96,214.130308 C154.96,206.947211 160.908311,201.103158 168.22,201.103158 C175.531689,201.103158 181.48,206.947211 181.48,214.130308 C181.48,221.313842 175.531244,227.157895 168.22,227.157895 Z" id="Shape-Copy-2" fill="#FF377B" fill-rule="nonzero"></path>
                <path d="M334.914055,151.84 L334.879061,151.84 C330.291918,151.84 326.56,155.656592 326.56,160.347907 C326.56,162.919882 327.845568,164.925931 329.27794,166.923602 L334.867965,174.72 C334.867965,174.72 340.151578,167.384617 340.48206,166.923777 C341.914432,164.926106 343.2,162.920056 343.2,160.348081 C343.2,155.668287 339.486347,151.858678 334.914055,151.84 Z M335.177143,165.086316 C332.391738,165.086316 330.125714,162.790438 330.125714,159.968335 C330.125714,157.146404 332.391738,154.850526 335.177143,154.850526 C337.962548,154.850526 340.228571,157.146404 340.228571,159.968335 C340.228571,162.790438 337.962379,165.086316 335.177143,165.086316 Z" id="Shape-Copy-5" fill="#FF377B" fill-rule="nonzero"></path>
                <path d="M562.69534,162.24 L562.638474,162.24 C555.184368,162.24 549.12,168.138369 549.12,175.388583 C549.12,179.363453 551.209047,182.463712 553.536653,185.551022 L562.620444,197.6 C562.620444,197.6 571.206314,186.263499 571.743347,185.551291 C574.070953,182.463982 576.16,179.363723 576.16,175.388853 C576.16,168.156444 570.125314,162.268866 562.69534,162.24 Z M563.122857,182.711579 C558.596574,182.711579 554.914286,179.163404 554.914286,174.801973 C554.914286,170.440807 558.596574,166.892632 563.122857,166.892632 C567.649141,166.892632 571.331429,170.440807 571.331429,174.801973 C571.331429,179.163404 567.648865,182.711579 563.122857,182.711579 Z" id="Shape-Copy-4" fill="#FF377B" fill-rule="nonzero"></path>
                <g id="Group-32" transform="translate(266.240000, 345.280000)">
                    <path d="M29.2252302,50.5122052 C29.3741012,48.069734 29.8768784,46.0046038 30.7335621,44.3168145 C31.5902457,42.6290252 33.3863276,40.2280172 36.1218078,37.1137905" id="Path-92" stroke="#C6C1F6" stroke-width="1.25736008"></path>
                    <path d="M28.53671,50.5122052 C29.019588,46.401874 29.5629118,43.2894061 30.1666814,41.1748017 C30.7704509,39.0601973 32.0044936,35.9477294 33.8688092,31.8373982" id="Path-101" stroke="#C6C1F6" stroke-width="1.25736008"></path>
                    <path d="M27.1278086,25.8241744 C27.4877792,26.1226667 27.8373495,28.2414466 28.1765194,32.1805141 C28.5156893,36.1195816 28.8652596,42.1205128 29.2252302,50.1833077" id="Path-102" stroke="#C6C1F6" stroke-width="1.25736008"></path>
                    <path d="M20.8107508,27.608821 C23.8029975,32.6116654 25.6546607,36.2740706 26.3657404,38.5960367 C27.0768201,40.9180027 28.0299834,44.8900589 29.2252302,50.5122052" id="Path-103" stroke="#C6C1F6" stroke-width="1.25736008"></path>
                    <path d="M28.5994988,50.1833077 C27.2278615,45.7904677 25.7742078,42.4527129 24.2385376,40.1700432 C22.7028675,37.8873736 20.6617508,36.145914 18.1151874,34.9456645" id="Path-104" stroke="#C6C1F6" stroke-width="1.25736008"></path>
                    <path d="M21.3688953,37.1137905 C18.3387,33.2399927 15.4718408,31.341603 12.7683177,31.4186214 C8.71303308,31.5341489 5.37534994,36.8328405 5.37534994,37.5694171 C5.37534994,38.3059937 8.63339421,36.0527767 12.7683177,35.9349803 C15.5249334,35.8564494 18.3917926,36.2493862 21.3688953,37.1137905 Z" id="Path-105" fill="#C6C1F6"></path>
                    <path d="M23.5062507,31.8373982 C21.0663856,24.9297739 18.2319465,20.980269 15.0029336,19.9888834 C10.1594141,18.5018051 0.706613737,23.4339717 0.0522837912,24.6364594 C-0.602046155,25.8389471 4.97446625,23.8239013 11.7792672,25.9131408 C16.3158012,27.3059672 20.2247957,29.2807196 23.5062507,31.8373982 Z" id="Path-106" fill="#C6C1F6"></path>
                    <path d="M27.9737674,28.582051 C29.3870483,28.1170295 30.8678036,22.3347731 27.9737674,12.8394063 C25.0797312,3.34403963 20.6350909,-0.412505917 19.2732607,0.0355864331 C17.9114305,0.483678783 16.9252981,6.155409 19.7838056,15.5342057 C22.6423131,24.9130024 26.5604865,29.0470725 27.9737674,28.582051 Z" id="Path-107" fill="#C6C1F6"></path>
                    <path d="M33.0549952,32.8826555 C33.34138,34.697312 39.7168884,27.3144867 44.3095984,25.7747318 C48.9023085,24.2349769 55.3309004,26.3289999 55.3309004,24.6420038 C55.3309004,22.9550076 51.0629521,17.4479319 44.3095984,19.7120655 C37.5562448,21.9761991 32.7686104,31.0679989 33.0549952,32.8826555 Z" id="Path-108" fill="#C6C1F6"></path>
                    <path d="M35.0014202,38.003741 C35.4958272,38.6195285 37.028907,36.6878951 41.4671569,36.85433 C45.9054067,37.0207649 49.6770636,39.9356738 50.1420313,38.6195285 C50.6069991,37.3033832 46.8618673,32.8876776 42.9207083,32.7398837 C38.9795493,32.5920897 34.5070132,37.3879535 35.0014202,38.003741 Z" id="Path-109" fill="#C6C1F6"></path>
                </g>
                <g id="Group-29" transform="translate(216.320000, 170.560000)">
                    <g id="Group-32-Copy-2">
                        <path d="M14.6126151,25.2561026 C14.6870506,24.034867 14.9384392,23.0023019 15.366781,22.1584072 C15.7951228,21.3145126 16.6931638,20.1140086 18.0609039,18.5568953" id="Path-92" stroke="#C6C1F6" stroke-width="1.25736008"></path>
                        <path d="M14.268355,25.2561026 C14.509794,23.200937 14.7814559,21.6447031 15.0833407,20.5874008 C15.3852255,19.5300986 16.0022468,17.9738647 16.9344046,15.9186991" id="Path-101" stroke="#C6C1F6" stroke-width="1.25736008"></path>
                        <path d="M13.5639043,12.9120872 C13.7438896,13.0613334 13.9186747,14.1207233 14.0882597,16.0902571 C14.2578447,18.0597908 14.4326298,21.0602564 14.6126151,25.0916538" id="Path-102" stroke="#C6C1F6" stroke-width="1.25736008"></path>
                        <path d="M10.4053754,13.8044105 C11.9014988,16.3058327 12.8273304,18.1370353 13.1828702,19.2980183 C13.5384101,20.4590014 14.0149917,22.4450295 14.6126151,25.2561026" id="Path-103" stroke="#C6C1F6" stroke-width="1.25736008"></path>
                        <path d="M14.2997494,25.0916538 C13.6139307,22.8952338 12.8871039,21.2263564 12.1192688,20.0850216 C11.3514338,18.9436868 10.3308754,18.072957 9.0575937,17.4728323" id="Path-104" stroke="#C6C1F6" stroke-width="1.25736008"></path>
                        <path d="M10.6844476,18.5568953 C9.16934999,16.6199963 7.73592039,15.6708015 6.38415885,15.7093107 C4.35651654,15.7670745 2.68767497,18.4164203 2.68767497,18.7847086 C2.68767497,19.1529969 4.31669711,18.0263883 6.38415885,17.9674902 C7.76246668,17.9282247 9.19589628,18.1246931 10.6844476,18.5568953 Z" id="Path-105" fill="#C6C1F6"></path>
                        <path d="M11.7531253,15.9186991 C10.5331928,12.464887 9.11597327,10.4901345 7.50146679,9.99444172 C5.07970706,9.25090254 0.353306868,11.7169859 0.0261418956,12.3182297 C-0.301023077,12.9194735 2.48723312,11.9119506 5.88963362,12.9565704 C8.15790061,13.6529836 10.1123979,14.6403598 11.7531253,15.9186991 Z" id="Path-106" fill="#C6C1F6"></path>
                        <path d="M13.9868837,14.2910255 C14.6935241,14.0585148 15.4339018,11.1673865 13.9868837,6.41970317 C12.5398656,1.67201981 10.3175455,-0.206252958 9.63663035,0.0177932166 C8.95571524,0.241839392 8.46264906,3.0777045 9.89190282,7.76710285 C11.3211566,12.4565012 13.2802433,14.5235363 13.9868837,14.2910255 Z" id="Path-107" fill="#C6C1F6"></path>
                        <path d="M16.5274976,16.4413277 C16.67069,17.348656 19.8584442,13.6572434 22.1547992,12.8873659 C24.4511542,12.1174885 27.6654502,13.1645 27.6654502,12.3210019 C27.6654502,11.4775038 25.531476,8.72396593 22.1547992,9.85603275 C18.7781224,10.9880996 16.3843052,15.5339995 16.5274976,16.4413277 Z" id="Path-108" fill="#C6C1F6"></path>
                        <path d="M17.5007101,19.0018705 C17.7479136,19.3097643 18.5144535,18.3439475 20.7335784,18.427165 C22.9527034,18.5103824 24.8385318,19.9678369 25.0710157,19.3097643 C25.3034995,18.6516916 23.4309337,16.4438388 21.4603542,16.3699418 C19.4897747,16.2960449 17.2535066,18.6939768 17.5007101,19.0018705 Z" id="Path-109" fill="#C6C1F6"></path>
                    </g>
                    <line x1="22.6324814" y1="25.1472016" x2="5.02944032" y2="25.1472016" id="Line-5-Copy" stroke="#C6C1F6" stroke-width="1.04" stroke-linecap="round"></line>
                </g>
                <g id="Group-29-Copy-2" transform="translate(436.800000, 212.160000)">
                    <g id="Group-32-Copy-2">
                        <path d="M14.6126151,25.2561026 C14.6870506,24.034867 14.9384392,23.0023019 15.366781,22.1584072 C15.7951228,21.3145126 16.6931638,20.1140086 18.0609039,18.5568953" id="Path-92" stroke="#C6C1F6" stroke-width="1.25736008"></path>
                        <path d="M14.268355,25.2561026 C14.509794,23.200937 14.7814559,21.6447031 15.0833407,20.5874008 C15.3852255,19.5300986 16.0022468,17.9738647 16.9344046,15.9186991" id="Path-101" stroke="#C6C1F6" stroke-width="1.25736008"></path>
                        <path d="M13.5639043,12.9120872 C13.7438896,13.0613334 13.9186747,14.1207233 14.0882597,16.0902571 C14.2578447,18.0597908 14.4326298,21.0602564 14.6126151,25.0916538" id="Path-102" stroke="#C6C1F6" stroke-width="1.25736008"></path>
                        <path d="M10.4053754,13.8044105 C11.9014988,16.3058327 12.8273304,18.1370353 13.1828702,19.2980183 C13.5384101,20.4590014 14.0149917,22.4450295 14.6126151,25.2561026" id="Path-103" stroke="#C6C1F6" stroke-width="1.25736008"></path>
                        <path d="M14.2997494,25.0916538 C13.6139307,22.8952338 12.8871039,21.2263564 12.1192688,20.0850216 C11.3514338,18.9436868 10.3308754,18.072957 9.0575937,17.4728323" id="Path-104" stroke="#C6C1F6" stroke-width="1.25736008"></path>
                        <path d="M10.6844476,18.5568953 C9.16934999,16.6199963 7.73592039,15.6708015 6.38415885,15.7093107 C4.35651654,15.7670745 2.68767497,18.4164203 2.68767497,18.7847086 C2.68767497,19.1529969 4.31669711,18.0263883 6.38415885,17.9674902 C7.76246668,17.9282247 9.19589628,18.1246931 10.6844476,18.5568953 Z" id="Path-105" fill="#C6C1F6"></path>
                        <path d="M11.7531253,15.9186991 C10.5331928,12.464887 9.11597327,10.4901345 7.50146679,9.99444172 C5.07970706,9.25090254 0.353306868,11.7169859 0.0261418956,12.3182297 C-0.301023077,12.9194735 2.48723312,11.9119506 5.88963362,12.9565704 C8.15790061,13.6529836 10.1123979,14.6403598 11.7531253,15.9186991 Z" id="Path-106" fill="#C6C1F6"></path>
                        <path d="M13.9868837,14.2910255 C14.6935241,14.0585148 15.4339018,11.1673865 13.9868837,6.41970317 C12.5398656,1.67201981 10.3175455,-0.206252958 9.63663035,0.0177932166 C8.95571524,0.241839392 8.46264906,3.0777045 9.89190282,7.76710285 C11.3211566,12.4565012 13.2802433,14.5235363 13.9868837,14.2910255 Z" id="Path-107" fill="#C6C1F6"></path>
                        <path d="M16.5274976,16.4413277 C16.67069,17.348656 19.8584442,13.6572434 22.1547992,12.8873659 C24.4511542,12.1174885 27.6654502,13.1645 27.6654502,12.3210019 C27.6654502,11.4775038 25.531476,8.72396593 22.1547992,9.85603275 C18.7781224,10.9880996 16.3843052,15.5339995 16.5274976,16.4413277 Z" id="Path-108" fill="#C6C1F6"></path>
                        <path d="M17.5007101,19.0018705 C17.7479136,19.3097643 18.5144535,18.3439475 20.7335784,18.427165 C22.9527034,18.5103824 24.8385318,19.9678369 25.0710157,19.3097643 C25.3034995,18.6516916 23.4309337,16.4438388 21.4603542,16.3699418 C19.4897747,16.2960449 17.2535066,18.6939768 17.5007101,19.0018705 Z" id="Path-109" fill="#C6C1F6"></path>
                    </g>
                    <line x1="22.6324814" y1="25.1472016" x2="5.02944032" y2="25.1472016" id="Line-5-Copy" stroke="#C6C1F6" stroke-width="1.04" stroke-linecap="round"></line>
                </g>
                <g id="Group-13-Copy-2" transform="translate(538.720000, 272.480000)">
                    <g id="Group-4" transform="translate(0.000000, 9.787008)">
                        <polygon id="Path-128" fill="#FF9F55" points="27.581568 0 27.581568 14.235648 8.00755199 14.235648 8.00755199 5.92718006e-14"></polygon>
                        <polygon id="Path-129" fill="#FF8155" points="8.00755199 0 8.00755199 14.235648 0 14.235648 0 0"></polygon>
                        <polygon id="Path-130" fill="#FFFFFF" style="mix-blend-mode: overlay;" opacity="0.296898251" points="4.74521599 0 4.74521599 6.52467199 2.96575999 6.52467199 2.96575999 0"></polygon>
                        <polygon id="Path-131" fill="#FFFFFF" style="mix-blend-mode: overlay;" opacity="0.296898251" points="17.79456 9.19385598 17.79456 13.049344 9.19385598 13.049344 9.19385598 9.19385598"></polygon>
                    </g>
                    <g id="Group-4-Copy" transform="translate(16.311680, 0.000000)">
                        <polygon id="Path-128" fill="#FF9F55" points="27.581568 0 27.581568 14.235648 8.00755199 14.235648 8.00755199 5.92718006e-14"></polygon>
                        <polygon id="Path-129" fill="#FF8155" points="8.00755199 0 8.00755199 14.235648 0 14.235648 0 0"></polygon>
                        <polygon id="Path-130" fill="#FFFFFF" style="mix-blend-mode: overlay;" opacity="0.0989583333" points="4.74521599 0 4.74521599 6.52467199 2.96575999 6.52467199 2.96575999 0"></polygon>
                        <polygon id="Path-131" fill="#FFFFFF" style="mix-blend-mode: overlay;" opacity="0.168061756" points="17.79456 9.19385598 17.79456 13.049344 9.19385598 13.049344 9.19385598 9.19385598"></polygon>
                    </g>
                    <g id="Group-4-Copy-2" transform="translate(18.980864, 14.235648)">
                        <polygon id="Path-128" fill="#FF9F55" points="27.581568 0 27.581568 14.235648 8.00755199 14.235648 8.00755199 5.92718006e-14"></polygon>
                        <polygon id="Path-129" fill="#FF8155" points="8.00755199 0 8.00755199 14.235648 0 14.235648 0 0"></polygon>
                        <polygon id="Path-130" fill="#FFFFFF" style="mix-blend-mode: overlay;" opacity="0.296898251" points="4.74521599 0 4.74521599 6.52467199 2.96575999 6.52467199 2.96575999 0"></polygon>
                        <polygon id="Path-131" fill="#FFFFFF" style="mix-blend-mode: overlay;" opacity="0.296898251" points="17.79456 9.19385598 17.79456 13.049344 9.19385598 13.049344 9.19385598 9.19385598"></polygon>
                    </g>
                </g>
                <g id="Group-13-Copy-3" transform="translate(320.320000, 222.560000)">
                    <g id="Group-4" transform="translate(0.000000, 5.872204)">
                        <polygon id="Path-128" fill="#FF9F55" points="16.5489398 0 16.5489398 8.54138828 4.80453091 8.54138828 4.80453091 3.55630782e-14"></polygon>
                        <polygon id="Path-129" fill="#FF8155" points="4.80453091 0 4.80453091 8.54138828 0 8.54138828 0 0"></polygon>
                        <polygon id="Path-130" fill="#FFFFFF" style="mix-blend-mode: overlay;" opacity="0.296898251" points="2.84712943 0 2.84712943 3.91480296 1.77945589 3.91480296 1.77945589 0"></polygon>
                        <polygon id="Path-131" fill="#FFFFFF" style="mix-blend-mode: overlay;" opacity="0.296898251" points="10.6767353 5.51631326 10.6767353 7.82960592 5.51631326 7.82960592 5.51631326 5.51631326"></polygon>
                    </g>
                    <g id="Group-4-Copy" transform="translate(9.787007, 0.000000)">
                        <polygon id="Path-128" fill="#FF9F55" points="16.5489398 0 16.5489398 8.54138828 4.80453091 8.54138828 4.80453091 3.55630782e-14"></polygon>
                        <polygon id="Path-129" fill="#FF8155" points="4.80453091 0 4.80453091 8.54138828 0 8.54138828 0 0"></polygon>
                        <polygon id="Path-130" fill="#FFFFFF" style="mix-blend-mode: overlay;" opacity="0.0989583333" points="2.84712943 0 2.84712943 3.91480296 1.77945589 3.91480296 1.77945589 0"></polygon>
                        <polygon id="Path-131" fill="#FFFFFF" style="mix-blend-mode: overlay;" opacity="0.168061756" points="10.6767353 5.51631326 10.6767353 7.82960592 5.51631326 7.82960592 5.51631326 5.51631326"></polygon>
                    </g>
                    <g id="Group-4-Copy-2" transform="translate(11.388518, 8.541388)">
                        <polygon id="Path-128" fill="#FF9F55" points="16.5489398 0 16.5489398 8.54138828 4.80453091 8.54138828 4.80453091 3.55630782e-14"></polygon>
                        <polygon id="Path-129" fill="#FF8155" points="4.80453091 0 4.80453091 8.54138828 0 8.54138828 0 0"></polygon>
                        <polygon id="Path-130" fill="#FFFFFF" style="mix-blend-mode: overlay;" opacity="0.296898251" points="2.84712943 0 2.84712943 3.91480296 1.77945589 3.91480296 1.77945589 0"></polygon>
                        <polygon id="Path-131" fill="#FFFFFF" style="mix-blend-mode: overlay;" opacity="0.296898251" points="10.6767353 5.51631326 10.6767353 7.82960592 5.51631326 7.82960592 5.51631326 5.51631326"></polygon>
                    </g>
                </g>
                <g id="Group-13-Copy-4" transform="translate(118.560000, 120.640000)">
                    <g id="Group-4" transform="translate(0.000000, 5.284984)">
                        <polygon id="Path-128" fill="#FF9F55" points="14.8940454 0 14.8940454 7.68724924 4.3240777 7.68724924 4.3240777 3.20067695e-14"></polygon>
                        <polygon id="Path-129" fill="#FF8155" points="4.3240777 0 4.3240777 7.68724924 0 7.68724924 0 0"></polygon>
                        <polygon id="Path-130" fill="#FFFFFF" style="mix-blend-mode: overlay;" opacity="0.296898251" points="2.56241641 0 2.56241641 3.52332257 1.60151026 3.52332257 1.60151026 0"></polygon>
                        <polygon id="Path-131" fill="#FFFFFF" style="mix-blend-mode: overlay;" opacity="0.296898251" points="9.60906156 4.9646818 9.60906156 7.04664514 4.9646818 7.04664514 4.9646818 4.9646818"></polygon>
                    </g>
                    <g id="Group-4-Copy" transform="translate(8.808306, 0.000000)">
                        <polygon id="Path-128" fill="#FF9F55" points="14.8940454 0 14.8940454 7.68724924 4.3240777 7.68724924 4.3240777 3.20067695e-14"></polygon>
                        <polygon id="Path-129" fill="#FF8155" points="4.3240777 0 4.3240777 7.68724924 0 7.68724924 0 0"></polygon>
                        <polygon id="Path-130" fill="#FFFFFF" style="mix-blend-mode: overlay;" opacity="0.0989583333" points="2.56241641 0 2.56241641 3.52332257 1.60151026 3.52332257 1.60151026 0"></polygon>
                        <polygon id="Path-131" fill="#FFFFFF" style="mix-blend-mode: overlay;" opacity="0.168061756" points="9.60906156 4.9646818 9.60906156 7.04664514 4.9646818 7.04664514 4.9646818 4.9646818"></polygon>
                    </g>
                    <g id="Group-4-Copy-2" transform="translate(10.249666, 7.687249)">
                        <polygon id="Path-128" fill="#FF9F55" points="14.8940454 0 14.8940454 7.68724924 4.3240777 7.68724924 4.3240777 3.20067695e-14"></polygon>
                        <polygon id="Path-129" fill="#FF8155" points="4.3240777 0 4.3240777 7.68724924 0 7.68724924 0 0"></polygon>
                        <polygon id="Path-130" fill="#FFFFFF" style="mix-blend-mode: overlay;" opacity="0.296898251" points="2.56241641 0 2.56241641 3.52332257 1.60151026 3.52332257 1.60151026 0"></polygon>
                        <polygon id="Path-131" fill="#FFFFFF" style="mix-blend-mode: overlay;" opacity="0.296898251" points="9.60906156 4.9646818 9.60906156 7.04664514 4.9646818 7.04664514 4.9646818 4.9646818"></polygon>
                    </g>
                </g>
                <path d="M545.343825,39.1023512 C544.373461,33.0701887 537.875801,28.3901306 529.923855,28.3901306 C526.120532,28.3901306 522.68519,29.4935269 519.980773,31.2581713 C517.432622,28.7118723 513.515879,27.04 509.067326,27.04 C502.423482,27.04 496.888625,30.693643 495.507431,35.5691147 C488.283889,35.9638897 482.56,40.6281567 482.56,46.3839768 C482.56,52.3964006 488.787974,57.2738462 496.470234,57.2738462 C498.10095,57.2738462 499.651012,57.0132946 501.105298,56.6066763 C503.638327,59.3306241 507.708816,61.118955 512.336319,61.118955 C515.166758,61.118955 517.793043,60.4438897 519.990854,59.3069376 C522.496158,61.2176488 525.903775,62.4 529.674333,62.4 C535.226833,62.4 539.982878,59.8280406 542.213455,56.1447896 C542.89397,56.2494049 543.594649,56.3105951 544.315491,56.3105951 C550.412403,56.3105951 555.36,52.437852 555.36,47.6650218 C555.354959,43.1685341 550.946733,39.516865 545.343825,39.1023512 Z" id="Path" fill="#EFECFF" fill-rule="nonzero"></path>
                <path d="M193.823825,22.4623512 C192.853461,16.4301887 186.355801,11.7501306 178.403855,11.7501306 C174.600532,11.7501306 171.16519,12.8535269 168.460773,14.6181713 C165.912622,12.0718723 161.995879,10.4 157.547326,10.4 C150.903482,10.4 145.368625,14.053643 143.987431,18.9291147 C136.763889,19.3238897 131.04,23.9881567 131.04,29.7439768 C131.04,35.7564006 137.267974,40.6338462 144.950234,40.6338462 C146.58095,40.6338462 148.131012,40.3732946 149.585298,39.9666763 C152.118327,42.6906241 156.188816,44.478955 160.816319,44.478955 C163.646758,44.478955 166.273043,43.8038897 168.470854,42.6669376 C170.976158,44.5776488 174.383775,45.76 178.154333,45.76 C183.706833,45.76 188.462878,43.1880406 190.693455,39.5047896 C191.37397,39.6094049 192.074649,39.6705951 192.795491,39.6705951 C198.892403,39.6705951 203.84,35.797852 203.84,31.0250218 C203.834959,26.5285341 199.426733,22.876865 193.823825,22.4623512 Z" id="Path-Copy-2" fill="#EFECFF" fill-rule="nonzero"></path>
                <path d="M281.602648,79.8955007 C281.075879,76.3471698 277.548578,73.5941945 273.231807,73.5941945 C271.167146,73.5941945 269.302246,74.2432511 267.834134,75.2812772 C266.450852,73.7834543 264.32462,72.8 261.909691,72.8 C258.303033,72.8 255.298396,74.9492017 254.548605,77.8171263 C250.627254,78.0493469 247.52,80.7930334 247.52,84.1788099 C247.52,87.7155298 250.9009,90.5846154 255.07127,90.5846154 C255.956516,90.5846154 256.797978,90.4313498 257.587448,90.1921626 C258.96252,91.7944848 261.172214,92.8464441 263.684287,92.8464441 C265.220812,92.8464441 266.646509,92.4493469 267.839607,91.7805515 C269.199629,92.9044993 271.049478,93.6 273.096352,93.6 C276.110566,93.6 278.692419,92.0870827 279.903304,89.9204644 C280.272727,89.9820029 280.653095,90.0179971 281.044409,90.0179971 C284.354161,90.0179971 287.04,87.7399129 287.04,84.9323657 C287.037264,82.287373 284.644227,80.1393324 281.602648,79.8955007 Z" id="Path-Copy" fill="#EFECFF" fill-rule="nonzero"></path>
                <line x1="312.832" y1="394.16" x2="277.888" y2="394.16" id="Line-5" stroke="#C6C1F6" stroke-width="1.25736008" stroke-linecap="square"></line>
                <circle id="Oval-Copy-110" stroke="#7448FF" stroke-width="2.08" cx="555.36" cy="116.48" r="10.4"></circle>
                <circle id="Oval-Copy-111" stroke="#7448FF" stroke-width="2.08" cx="70.72" cy="106.08" r="10.4"></circle>
                <circle id="Oval-Copy-112" stroke="#7448FF" stroke-width="2.08" cx="347.36" cy="10.4" r="10.4"></circle>
            </g>
        </g>
    </g>
</svg>