<svg width="40px" height="40px" viewBox="0 0 40 40" version="1.1" xmlns="http://www.w3.org/2000/svg" xmlns:xlink="http://www.w3.org/1999/xlink"><title>Group 49 Copy 2</title> <desc>Created with Sketch.</desc> <g id="Page-1" stroke="none" stroke-width="1" fill="none" fill-rule="evenodd"><g id="Group-49-Copy-2"><rect id="Rectangle-2-Copy-35" fill="#FF782C" opacity="0.1" x="0" y="0" width="40" height="40" rx="12"></rect> <g id="Group-8" transform="translate(10.000000, 10.000000)"><path d="M11.0555622,12.2078182 C14.9158368,13.3244466 17.0591211,14.1222061 17.485415,14.6010968 C18.3985642,15.6269118 13.8534224,16.6328954 3.84998953,17.6190476" id="Path-5" stroke="#FFC5A4" stroke-width="0.5"></path> <ellipse id="Oval-Copy" fill="#FCA878" cx="17.2380952" cy="14.7619048" rx="2" ry="1.42857143"></ellipse> <ellipse id="Oval" fill="#FCA878" cx="2.38095238" cy="17.6190476" rx="2.38095238" ry="1.42857143"></ellipse> <ellipse id="Oval-Copy-5" fill="#FCA878" cx="9.49404762" cy="11.6011905" rx="1.875" ry="1.125"></ellipse> <g id="Group-7" transform="translate(4.761905, 0.000000)"><path d="M8.1942,8.1940251 L5.6484,10.7398251 C5.17986896,11.2078837 4.42073104,11.2078837 3.9522,10.7398251 L1.4058,8.1940251 C-0.468645534,6.31948297 -0.468593331,3.28033603 1.4059166,1.4058583 C3.28042653,-0.468619433 6.31957347,-0.468619433 8.1940834,1.4058583 C10.0685933,3.28033603 10.0686455,6.31948297 8.1942,8.1940251 L8.1942,8.1940251 Z" id="Path" fill="#FF782C"></path> <circle id="Oval" fill="#FCA878" cx="4.8" cy="4.7998251" r="1.8"></circle></g></g></g></g></svg>