<?xml version="1.0" encoding="UTF-8"?>
<svg width="400px" height="356px" viewBox="0 0 400 356" version="1.1" xmlns="http://www.w3.org/2000/svg" xmlns:xlink="http://www.w3.org/1999/xlink">
    <!-- Generator: Sketch 63.1 (92452) - https://sketch.com -->
    <title>Working remotely-rafiki</title>
    <desc>Created with Sketch.</desc>
    <g id="Page-1" stroke="none" stroke-width="1" fill="none" fill-rule="evenodd">
        <g id="Working-remotely-rafiki">
            <g id="freepik--background-simple--inject-242" transform="translate(43.238585, 20.110970)" fill-rule="nonzero">
                <path d="M49.0506549,5.33946243 C65.1394306,-1.28710206 83.3398581,-1.44798981 97.4074814,11.221921 C112.299654,24.6359378 113.114149,46.7077269 113.797922,65.3606513 C114.572194,86.6481126 117.136343,111.103052 134.683164,123.169633 C146.357581,131.214021 161.963694,131.274354 175.57882,127.382882 C189.193947,123.491409 201.481749,116.090572 214.181826,109.836061 C234.604516,99.7805758 257.420411,92.4400719 279.924586,95.7583818 C310.38265,100.233073 347.296334,137.468533 317.180157,165.674168 C309.578211,172.793451 300.085833,177.499418 291.659337,183.623208 C274.876733,195.830567 262.709596,213.548331 254.252933,232.512975 C246.550432,249.788298 241.512634,268.60211 230.11977,283.675282 C209.797635,310.473149 169.444975,319.633696 139.539963,304.248804 C115.195634,291.71967 99.7805758,266.088239 92.983068,239.571926 C86.1855603,213.055612 86.7989449,185.272308 86.9497772,157.921389 C87.0402765,145.774363 86.1755048,131.777128 76.4920729,124.44668 C61.6602329,113.214703 39.5482218,126.668942 22.0014008,120.424486 C5.6914044,114.672749 0.0201109696,94.2802256 0.50277424,78.6640577 C1.18654721,56.3811033 11.4531972,33.6255412 27.9743587,18.6730353 C34.1909139,13.0629392 41.3184681,8.55380903 49.0506549,5.33946243 Z" id="Path" fill="#3E3CDA"></path>
                <path d="M49.0506549,5.33946243 C65.1394306,-1.28710206 83.3398581,-1.44798981 97.4074814,11.221921 C112.299654,24.6359378 113.114149,46.7077269 113.797922,65.3606513 C114.572194,86.6481126 117.136343,111.103052 134.683164,123.169633 C146.357581,131.214021 161.963694,131.274354 175.57882,127.382882 C189.193947,123.491409 201.481749,116.090572 214.181826,109.836061 C234.604516,99.7805758 257.420411,92.4400719 279.924586,95.7583818 C310.38265,100.233073 347.296334,137.468533 317.180157,165.674168 C309.578211,172.793451 300.085833,177.499418 291.659337,183.623208 C274.876733,195.830567 262.709596,213.548331 254.252933,232.512975 C246.550432,249.788298 241.512634,268.60211 230.11977,283.675282 C209.797635,310.473149 169.444975,319.633696 139.539963,304.248804 C115.195634,291.71967 99.7805758,266.088239 92.983068,239.571926 C86.1855603,213.055612 86.7989449,185.272308 86.9497772,157.921389 C87.0402765,145.774363 86.1755048,131.777128 76.4920729,124.44668 C61.6602329,113.214703 39.5482218,126.668942 22.0014008,120.424486 C5.6914044,114.672749 0.0201109696,94.2802256 0.50277424,78.6640577 C1.18654721,56.3811033 11.4531972,33.6255412 27.9743587,18.6730353 C34.1909139,13.0629392 41.3184681,8.55380903 49.0506549,5.33946243 Z" id="Path" fill="#FFFFFF" opacity="0.9"></path>
            </g>
            <g id="freepik--Shadow--inject-242" transform="translate(9.049936, 331.830999)" fill="#F3F2FF" fill-rule="nonzero">
                <ellipse id="freepik--path--inject-242" cx="195.076405" cy="12.3079134" rx="194.965795" ry="11.3828088"></ellipse>
            </g>
            <g id="freepik--Plant--inject-242" transform="translate(328.814353, 201.109696)" fill-rule="nonzero">
                <path d="M35.6768601,106.779193 C35.6768601,106.779193 27.9542478,91.695966 36.7829634,76.7535156 C45.6116791,61.8110651 48.1657722,58.3218119 42.5347007,55.3051665 C36.9036293,52.288521 34.3294251,67.2309714 34.3294251,67.2309714 C34.3294251,67.2309714 29.5832363,56.934155 33.5048754,46.1144533 C37.4265145,35.2947517 39.8800528,17.7579862 34.5104239,15.8776105 C29.140795,13.9972349 33.5048754,37.7885119 28.8391304,45.9032882 C28.8391304,45.9032882 24.9476578,36.8533518 24.3041068,28.2056349 C23.6605558,19.557918 24.6661042,5.71151537 20.4428006,2.16192923 C16.219497,-1.3876569 13.5045161,1.07593687 17.6574313,20.1914135 C20.1513749,31.5843133 21.5321153,43.192636 21.7801801,54.8526696 C21.7801801,54.8526696 12.609578,29.7742905 6.45562125,29.0402401 C0.301664544,28.3061897 0.311720029,36.4310215 5.58079407,43.4698608 C10.8498681,50.5087002 21.0059078,63.1383891 22.6751182,69.6141213 C22.6751182,69.6141213 12.6196334,50.7399764 3.56969711,56.5419911 C-5.48023922,62.3440058 11.4531972,73.7268146 19.0048663,77.8395079 C26.5565354,81.9522012 31.7853875,107.784742 31.7853875,107.784742 L35.6768601,106.779193 Z" id="Path" fill="#3E3CDA"></path>
                <path d="M35.6768601,106.779193 C35.6768601,106.779193 27.9542478,91.695966 36.7829634,76.7535156 C45.6116791,61.8110651 48.1657722,58.3218119 42.5347007,55.3051665 C36.9036293,52.288521 34.3294251,67.2309714 34.3294251,67.2309714 C34.3294251,67.2309714 29.5832363,56.934155 33.5048754,46.1144533 C37.4265145,35.2947517 39.8800528,17.7579862 34.5104239,15.8776105 C29.140795,13.9972349 33.5048754,37.7885119 28.8391304,45.9032882 C28.8391304,45.9032882 24.9476578,36.8533518 24.3041068,28.2056349 C23.6605558,19.557918 24.6661042,5.71151537 20.4428006,2.16192923 C16.219497,-1.3876569 13.5045161,1.07593687 17.6574313,20.1914135 C20.1513749,31.5843133 21.5321153,43.192636 21.7801801,54.8526696 C21.7801801,54.8526696 12.609578,29.7742905 6.45562125,29.0402401 C0.301664544,28.3061897 0.311720029,36.4310215 5.58079407,43.4698608 C10.8498681,50.5087002 21.0059078,63.1383891 22.6751182,69.6141213 C22.6751182,69.6141213 12.6196334,50.7399764 3.56969711,56.5419911 C-5.48023922,62.3440058 11.4531972,73.7268146 19.0048663,77.8395079 C26.5565354,81.9522012 31.7853875,107.784742 31.7853875,107.784742 L35.6768601,106.779193 Z" id="Path" fill="#FFFFFF" opacity="0.6"></path>
                <path d="M29.5731808,112.983427 C29.5731808,112.983427 37.1047389,97.7594233 28.0749136,82.9678052 C19.0450882,68.176187 16.4407177,64.7070448 22.0416227,61.579789 C27.6425277,58.4525332 30.3977306,73.4050391 30.3977306,73.4050391 C30.3977306,73.4050391 35.0031426,63.0378343 30.9407268,52.288521 C26.8783109,41.5392077 24.1934965,24.0326087 29.5128479,22.0717892 C34.8321994,20.1109696 30.8301164,43.9726351 35.5461388,52.0170229 C35.5461388,52.0170229 39.3270011,42.9670866 39.8498863,34.2690922 C40.3727715,25.5710979 39.1862243,11.7749727 43.369306,8.17510915 C47.5523877,4.57524559 50.277424,6.98856194 46.3859514,26.1643715 C44.0482772,37.5862133 42.8224877,49.2076407 42.725755,60.8658496 C42.725755,60.8658496 51.5645261,35.6668046 57.7084273,34.8623658 C63.8523285,34.0579271 63.9528834,42.1626478 58.7743087,49.2819311 C53.595734,56.4012143 43.6106376,69.1415136 42.0319265,75.6574677 C42.0319265,75.6574677 51.8460797,56.6526014 60.9764599,62.3138394 C70.1068401,67.9750773 53.3242359,79.6092732 45.8328998,83.8225214 C38.3415636,88.0357695 33.4445425,113.928643 33.4445425,113.928643 L29.5731808,112.983427 Z" id="Path" fill="#3E3CDA"></path>
                <path d="M29.5731808,112.983427 C29.5731808,112.983427 37.1047389,97.7594233 28.0749136,82.9678052 C19.0450882,68.176187 16.4407177,64.7070448 22.0416227,61.579789 C27.6425277,58.4525332 30.3977306,73.4050391 30.3977306,73.4050391 C30.3977306,73.4050391 35.0031426,63.0378343 30.9407268,52.288521 C26.8783109,41.5392077 24.1934965,24.0326087 29.5128479,22.0717892 C34.8321994,20.1109696 30.8301164,43.9726351 35.5461388,52.0170229 C35.5461388,52.0170229 39.3270011,42.9670866 39.8498863,34.2690922 C40.3727715,25.5710979 39.1862243,11.7749727 43.369306,8.17510915 C47.5523877,4.57524559 50.277424,6.98856194 46.3859514,26.1643715 C44.0482772,37.5862133 42.8224877,49.2076407 42.725755,60.8658496 C42.725755,60.8658496 51.5645261,35.6668046 57.7084273,34.8623658 C63.8523285,34.0579271 63.9528834,42.1626478 58.7743087,49.2819311 C53.595734,56.4012143 43.6106376,69.1415136 42.0319265,75.6574677 C42.0319265,75.6574677 51.8460797,56.6526014 60.9764599,62.3138394 C70.1068401,67.9750773 53.3242359,79.6092732 45.8328998,83.8225214 C38.3415636,88.0357695 33.4445425,113.928643 33.4445425,113.928643 L29.5731808,112.983427 Z" id="Path" fill="#FFFFFF" opacity="0.7"></path>
                <polygon id="Path" fill="#3E3CDA" points="64.2847144 102.133559 2.12170729 102.133559 7.1494497 142.033723 59.256972 142.033723"></polygon>
            </g>
            <g id="freepik--Sofa--inject-242" transform="translate(0.000000, 158.876660)" fill-rule="nonzero">
                <rect id="Rectangle" fill="#3E3CDA" x="22.5745634" y="162.386024" width="188.54034" height="21.8706795"></rect>
                <rect id="Rectangle" fill="#FFFFFF" opacity="0.4" x="22.5745634" y="162.386024" width="188.54034" height="21.8706795"></rect>
                <rect id="Rectangle" fill="#FFFFFF" opacity="0.4" x="101.369342" y="162.386024" width="109.735506" height="21.8706795"></rect>
                <rect id="Rectangle" fill="#3E3CDA" x="110.107559" y="162.386024" width="188.54034" height="21.8706795"></rect>
                <rect id="Rectangle" fill="#FFFFFF" opacity="0.4" x="110.107559" y="162.386024" width="188.54034" height="21.8706795"></rect>
                <rect id="Rectangle" fill="#FFFFFF" opacity="0.4" x="188.912393" y="162.386024" width="109.735506" height="21.8706795"></rect>
                <rect id="Rectangle" fill="#3E3CDA" x="15.0832272" y="116.643624" width="210.159633" height="51.2829725" rx="8.68793888"></rect>
                <rect id="Rectangle" fill="#FFFFFF" opacity="0.6" x="95.5271057" y="116.643624" width="129.715754" height="51.2829725" rx="8.68793888"></rect>
                <rect id="Rectangle" fill="#FFFFFF" opacity="0.6" x="15.0832272" y="116.643624" width="210.159633" height="51.2829725" rx="8.68793888"></rect>
                <rect id="Rectangle" fill="#3E3CDA" x="99.5492996" y="116.643624" width="210.159633" height="51.2829725" rx="8.68793888"></rect>
                <rect id="Rectangle" fill="#FFFFFF" opacity="0.6" x="179.993178" y="116.643624" width="129.715754" height="51.2829725" rx="8.68793888"></rect>
                <rect id="Rectangle" fill="#FFFFFF" opacity="0.6" x="99.5492996" y="116.643624" width="210.159633" height="51.2829725" rx="8.68793888"></rect>
                <path d="M143.441491,117.830171 L19.7590277,117.830171 L0.925104603,20.513189 C-0.0498135694,15.461845 1.28141034,10.2390097 4.55532334,6.27063033 C7.82923635,2.30225093 12.703922,0.00277158749 17.8484855,-2.85794067e-14 L106.397085,-2.85794067e-14 C114.654614,0.00351828246 121.750813,5.86009606 123.320466,13.9670684 L143.441491,117.830171 Z" id="Path" fill="#3E3CDA"></path>
                <path d="M54.8928916,117.830171 L19.7690831,117.830171 L0.925104603,20.513189 C-0.0498135694,15.461845 1.28141034,10.2390097 4.55532334,6.27063033 C7.82923635,2.30225093 12.703922,0.00277158749 17.8484855,-2.85794067e-14 L17.8484855,-2.85794067e-14 C26.1083732,0.00267362574 33.2079227,5.85853722 34.781922,13.9670684 L54.8928916,117.830171 Z" id="Path" fill="#3E3CDA"></path>
                <g id="Group" opacity="0.6" fill="#FFFFFF">
                    <path d="M143.441491,117.830171 L19.7590277,117.830171 L0.925104603,20.513189 C-0.0498135694,15.461845 1.28141034,10.2390097 4.55532334,6.27063033 C7.82923635,2.30225093 12.703922,0.00277158749 17.8484855,-2.85794067e-14 L106.397085,-2.85794067e-14 C114.654614,0.00351828246 121.750813,5.86009606 123.320466,13.9670684 L143.441491,117.830171 Z" id="Path"></path>
                    <path d="M54.8928916,117.830171 L19.7690831,117.830171 L0.925104603,20.513189 C-0.0498135694,15.461845 1.28141034,10.2390097 4.55532334,6.27063033 C7.82923635,2.30225093 12.703922,0.00277158749 17.8484855,-2.85794067e-14 L17.8484855,-2.85794067e-14 C26.1083732,0.00267362574 33.2079227,5.85853722 34.781922,13.9670684 L54.8928916,117.830171 Z" id="Path"></path>
                </g>
                <path d="M143.441491,117.649172 L54.8928916,117.649172 L34.781922,13.8665136 C33.198408,5.7784675 26.089978,-0.0425092875 17.8484855,-0.000231310475 L106.397085,-0.000231310475 C114.637919,-0.0367397425 121.741884,5.78825837 123.320466,13.876569 L143.441491,117.649172 Z" id="Path" fill="#FFFFFF" opacity="0.6"></path>
            </g>
            <g id="freepik--Character-1--inject-242" transform="translate(61.338457, 129.715754)">
                <path d="M46.1144533,45.6217346 C54.299618,47.4317218 53.4147353,74.2597553 59.7496907,81.449427 C64.3249363,86.6481126 81.9522012,87.9854921 85.6425641,91.3339685 C89.3329271,94.682445 85.6425641,101.21851 85.6425641,101.21851 C85.6425641,101.21851 55.2347781,100.534737 47.7233309,97.1058168 C40.2118838,93.6768965 46.1144533,45.6217346 46.1144533,45.6217346 Z" id="Path" fill="#3E3CDA" fill-rule="nonzero"></path>
                <path d="M46.1144533,45.6217346 C54.299618,47.4317218 53.4147353,74.2597553 59.7496907,81.449427 C64.3249363,86.6481126 81.9522012,87.9854921 85.6425641,91.3339685 C89.3329271,94.682445 85.6425641,101.21851 85.6425641,101.21851 C85.6425641,101.21851 55.2347781,100.534737 47.7233309,97.1058168 C40.2118838,93.6768965 46.1144533,45.6217346 46.1144533,45.6217346 Z" id="Path" fill="#000000" fill-rule="nonzero" opacity="0.1"></path>
                <path d="M102.998331,122.123863 C102.897776,122.294806 102.787166,122.365195 102.6665,122.345084 C99.1671912,121.711588 89.7753684,126.849941 78.3523376,132.782677 L75.144638,134.431776 L74.0485901,134.984828 C68.2867973,137.931085 62.1630071,140.907509 56.1096052,143.340936 C48.9802665,146.22686 41.9514826,148.368678 35.7673595,148.831231 C34.9226987,148.901619 34.1082045,148.931786 33.3037657,148.931786 C5.52046116,148.931786 14.5703975,103.08883 14.5703975,103.08883 L47.7534974,100.544793 L51.665081,107.292023 L53.7867882,110.942164 L58.573199,109.655062 C60.9764599,109.011511 64.5562125,108.176906 68.6286838,107.302078 L69.6342323,107.090913 C71.0118337,106.799304 72.4497681,106.507695 73.9178688,106.216086 C84.747626,104.02399 97.1762052,101.902283 101.781617,101.872117 C105.059705,101.852006 104.486543,119.941823 102.998331,122.123863 Z" id="Path" fill="#E4897B" fill-rule="nonzero"></path>
                <path d="M69.3124568,105.582591 L75.7479671,137.478588 C75.7479671,137.478588 53.6259005,155.487962 34.5204794,148.459178 C15.4150582,141.430394 21.4483491,108.981344 21.4483491,108.981344 L46.5870611,101.278843 L53.4650127,109.484119 L69.3124568,105.582591 Z" id="Path" fill="#3E3CDA" fill-rule="nonzero"></path>
                <path d="M75.7479671,137.428311 C75.3744317,137.630276 75.0179602,137.862319 74.6820857,138.122139 C70.4132923,141.06634 65.89839,143.636672 61.1876251,145.80453 L61.1876251,145.80453 C53.7767328,148.821175 44.5055758,151.425546 35.777415,148.710565 C35.3550846,148.579844 34.9428097,148.4994 34.5305348,148.348567 C15.4251137,141.309728 21.4584046,108.9009 21.4584046,108.9009 L46.5971166,101.21851 L51.624859,107.251801 L53.4247908,109.403675 L68.3772967,105.763589 L69.3124568,105.532313 L69.6241768,107.090913 L72.4397126,121.047926 L75.144638,134.431776 L75.7479671,137.428311 Z" id="Path" fill="#FFFFFF" fill-rule="nonzero" opacity="0.6"></path>
                <polygon id="Path" fill="#3E3CDA" fill-rule="nonzero" points="68.2063535 104.908873 74.9133618 139.439408 78.9355558 136.261875 73.5759824 104.245211"></polygon>
                <polygon id="Path" fill="#FFFFFF" fill-rule="nonzero" opacity="0.4" points="78.9355558 136.261875 74.9133618 139.439408 74.6820857 138.242805 74.0485901 134.984828 71.3235538 120.947371 68.6689058 107.302078 68.3772967 105.763589 68.2063535 104.908873 73.5759824 104.245211 73.9078134 106.216086 76.4216846 121.23898 78.3523376 132.782677"></polygon>
                <path d="M102.998331,122.123863 C102.897776,122.294806 102.787166,122.365195 102.6665,122.345084 C99.1671912,121.711588 89.7753684,126.849941 78.3523376,132.782677 L78.9355558,136.261875 L74.9133618,139.439408 L74.6820857,138.122139 C70.4132923,141.06634 65.89839,143.636672 61.1876251,145.80453 L61.1876251,145.80453 L56.1598827,143.22027 L48.8193788,139.379075 L51.8360242,111.947712 L56.1900491,117.981003 C56.1900491,117.981003 66.3460888,120.444597 71.3738312,120.92726 L72.48999,121.037871 C73.8675914,121.148481 75.2150264,121.228925 76.5121839,121.23898 C77.3970666,121.23898 78.2316718,121.23898 79.0260551,121.168592 C87.5832727,120.565263 96.9348736,120.243487 102.998331,122.123863 Z" id="Path" fill="#000000" fill-rule="nonzero" opacity="0.2"></path>
                <path d="M172.813562,140.636011 L172.501842,147.282686 L171.72757,147.282686 C170.722021,147.343019 168.891923,147.433518 166.367996,147.554184 C152.119374,148.207791 116.794456,149.454671 101.73134,146.438025 L32.5093824,147.815627 L47.7233309,121.168592 L142.878384,135.980321 L172.170011,140.535456 L172.813562,140.636011 Z" id="Path" fill="#E4897B" fill-rule="nonzero"></path>
                <path d="M184.246648,132.732399 C184.125982,135.326715 184.025428,137.669643 183.924873,139.831572 C183.784096,142.787884 183.673486,145.422421 183.55282,147.936293 C183.35171,152.310428 179.761902,149.404393 171.999068,148.871453 C171.808013,148.871453 171.737625,148.237957 171.72757,147.332963 C171.72757,145.392255 172.009123,142.114167 172.170011,140.545511 C172.170011,139.99246 172.26051,139.650573 172.26051,139.650573 C173.209258,138.768761 174.1089,137.835549 174.95538,136.855148 C177.114474,134.539371 178.768418,131.799919 179.812179,128.81076 C181.360724,123.350632 184.518146,126.578443 184.246648,132.732399 Z" id="Path" fill="#263238" fill-rule="nonzero"></path>
                <path d="M66.6175869,123.179689 L58.8245861,150.399886 L43.5000273,148.931786 C43.5000273,148.931786 3.83113971,164.075346 14.3391213,104.285433 L45.7524559,98.5437511 L54.4303393,119.408882 L66.6175869,123.179689 Z" id="Path" fill="#3E3CDA" fill-rule="nonzero"></path>
                <path d="M66.6175869,123.179689 L58.8245861,150.399886 L43.5000273,148.931786 C43.5000273,148.931786 3.83113971,164.075346 14.3391213,104.285433 L45.7524559,98.5437511 L54.4303393,119.408882 L66.6175869,123.179689 Z" id="Path" fill="#FFFFFF" fill-rule="nonzero" opacity="0.6"></path>
                <polygon id="Path" fill="#3E3CDA" fill-rule="nonzero" points="64.9383209 121.691477 56.1397717 150.832272 61.3384573 150.832272 69.0510142 123.179689"></polygon>
                <polygon id="Path" fill="#FFFFFF" fill-rule="nonzero" opacity="0.4" points="64.9383209 121.691477 56.1397717 150.832272 61.3384573 150.832272 69.0510142 123.179689"></polygon>
                <path d="M183.924873,139.821516 C183.784096,142.777829 183.673486,145.412366 183.55282,147.926237 C183.35171,152.300373 179.761902,149.394338 171.999068,148.861397 C171.808013,148.861397 171.737625,148.227902 171.72757,147.322908 C170.722021,147.383241 168.891923,147.47374 166.367996,147.594406 C159.027492,143.461602 148.750787,138.65508 142.878384,135.980321 L172.170011,140.535456 C172.170011,139.982404 172.26051,139.640518 172.26051,139.640518 C173.209258,138.758705 174.1089,137.825494 174.95538,136.845093 L183.924873,139.821516 Z" id="Path" fill="#000000" fill-rule="nonzero" opacity="0.2"></path>
                <path d="M101.771562,101.872043 C100.564904,101.872043 101.389453,122.113808 102.6665,122.345084 C108.066295,123.350632 181.742832,145.060424 181.742832,145.060424 L183.894706,138.614858 C183.894706,138.614858 113.848199,101.811784 101.771562,101.872043 Z" id="Path" fill="#E4897B" fill-rule="nonzero"></path>
                <path d="M180.868005,146.307304 C180.164121,146.055917 183.633264,137.498699 183.633264,137.498699 C183.633264,137.498699 190.893324,133.939058 193.859692,129.12248 C196.82606,124.305903 198.987989,128.27782 197.04728,134.150223 C195.106572,140.022626 193.61836,144.447039 192.240759,148.599955 C190.863157,152.75287 188.188398,148.931786 180.868005,146.307304 Z" id="Path" fill="#263238" fill-rule="nonzero"></path>
                <path d="M50.7801983,105.25076 L53.4650127,109.433841 C53.4650127,109.433841 24.6359378,143.793433 17.7680417,145.80453 C17.7680417,145.80453 13.8866245,142.546553 13.9871794,134.793774 C14.0877342,127.040995 50.7801983,105.25076 50.7801983,105.25076 Z" id="Path" fill="#3E3CDA" fill-rule="nonzero"></path>
                <path d="M50.7801983,105.25076 L53.4650127,109.433841 C53.4650127,109.433841 24.6359378,143.793433 17.7680417,145.80453 C17.7680417,145.80453 13.8866245,142.546553 13.9871794,134.793774 C14.0877342,127.040995 50.7801983,105.25076 50.7801983,105.25076 Z" id="Path" fill="#000000" fill-rule="nonzero" opacity="0.1"></path>
                <path d="M41.1369884,7.79300073 C44.3192297,10.0452149 46.14968,13.7514985 46.003843,17.6473758 C45.7524559,24.2638848 44.38491,34.5104239 46.003843,38.2410087 C47.6227761,41.9715936 41.8207613,43.0073085 41.8207613,43.0073085 C42.1531962,41.9913939 42.1531962,40.8959674 41.8207613,39.8800528 C41.8207613,39.8800528 41.8207613,41.6095961 39.5079998,42.2330362 C37.1952383,42.8564763 18.7233127,43.3190286 14.5703975,39.8800528 C10.4174823,36.441077 19.0953657,8.70804985 23.8717209,7.03883937 C28.6480762,5.36962889 41.1369884,7.79300073 41.1369884,7.79300073 Z" id="Path" fill="#263238" fill-rule="nonzero"></path>
                <path d="M45.5111242,21.2271284 C45.5111242,25.2493224 45.3804029,33.8769283 47.2607786,37.2354603 C49.1411543,40.5939922 46.3859514,42.0017601 46.3859514,42.0017601" id="Path" stroke="#263238" stroke-width="0.837957067" stroke-linecap="round" stroke-linejoin="round"></path>
                <path d="M47.7132754,95.3762734 L52.9622385,107.261856 L14.8318401,142.456053 C6.20423413,138.685246 12.941409,77.9501182 5.64112698,55.9788839 C5.28918501,54.9733355 4.92718756,53.8169547 4.53502365,52.6806849 C4.28483289,51.9328134 4.35045453,51.1152548 4.71673003,50.4168642 C5.08300553,49.7184736 5.71825348,49.1996591 6.47573222,48.9802665 C10.0479346,47.9663556 13.6734361,47.1506177 17.3356558,46.5367837 C22.2598853,45.6633234 27.2397119,45.1391312 32.2378843,44.9681281 C38.703561,44.9681281 46.1144533,45.6418456 46.1144533,45.6418456 C46.1144533,45.6418456 47.1200018,45.8932327 47.8339412,52.7410178 C48.4473258,59.1463617 49.0405994,71.9972712 47.7132754,95.3762734 Z" id="Path" fill="#3E3CDA" fill-rule="nonzero"></path>
                <path d="M18.8640895,47.7333864 C18.8640895,47.7333864 21.3276833,51.2326951 29.5027924,52.2784655 C29.5027924,52.2784655 33.5249864,49.6137621 31.8356649,46.3758959 C31.8356649,46.3758959 30.0658996,45.8228443 29.6837912,43.0073085 C29.5041766,41.0215685 29.7615931,39.0205842 30.4379525,37.1449609 C30.5284519,36.8432963 30.6390622,36.5215208 30.7496725,36.1997453 L20.4126342,29.7340686 C20.4126342,29.7340686 24.0527197,42.8363653 18.8640895,47.7333864 Z" id="Path" fill="#E4897B" fill-rule="nonzero"></path>
                <path d="M22.7354512,33.4847644 C22.7354512,33.4847644 23.2885028,40.8755458 29.6837912,43.0073085 C29.5041766,41.0215685 29.7615931,39.0205842 30.4379525,37.1449609 C26.6671457,35.1941968 22.7354512,33.4847644 22.7354512,33.4847644 Z" id="Path" fill="#000000" fill-rule="nonzero" opacity="0.2"></path>
                <path d="M14.8318401,48.658491 C14.8318401,48.658491 15.7670002,42.725755 18.1400946,42.4039794 C18.1400946,42.4039794 23.5801119,46.7982263 31.463612,43.0073085 C31.463612,43.0073085 32.9116018,42.7961434 32.9417682,45.5312352 C32.9719347,48.2663271 36.3204111,47.7434419 33.9473167,52.5700746 C31.5742223,57.3967073 20.8047981,58.8446971 14.8318401,48.658491 Z" id="Path" fill="#3E3CDA" fill-rule="nonzero"></path>
                <path d="M14.8318401,48.658491 C14.8318401,48.658491 15.7670002,42.725755 18.1400946,42.4039794 C18.1400946,42.4039794 23.5801119,46.7982263 31.463612,43.0073085 C31.463612,43.0073085 32.9116018,42.7961434 32.9417682,45.5312352 C32.9719347,48.2663271 36.3204111,47.7434419 33.9473167,52.5700746 C31.5742223,57.3967073 20.8047981,58.8446971 14.8318401,48.658491 Z" id="Path" fill="#000000" fill-rule="nonzero" opacity="0.1"></path>
                <path d="M33.3037657,9.27115699 C41.7503729,10.7090913 43.701137,15.6966118 42.8363653,24.515272 C41.7503729,35.5763053 38.0197881,42.8464208 27.8536929,38.7136165 C14.0776787,33.1127115 19.2763644,6.87795161 33.3037657,9.27115699 Z" id="Path" fill="#E4897B" fill-rule="nonzero"></path>
                <path d="M37.4566809,23.1276151 C37.9178482,24.5044614 38.5423913,25.8210657 39.3169456,27.0492541 C38.6894846,27.6733913 37.7658649,27.8945944 36.9237402,27.6224168 L37.4566809,23.1276151 Z" id="Path" fill="#DE5753" fill-rule="nonzero"></path>
                <path d="M32.3987721,21.528793 C32.2982172,22.2326769 31.8356649,22.7354512 31.3932236,22.6751182 C30.9507822,22.6147853 30.6390622,21.9812898 30.7396171,21.2874613 C30.8401719,20.5936329 31.3027242,20.0808032 31.7451655,20.1511916 C32.1876069,20.22158 32.4993269,20.8349645 32.3987721,21.528793 Z" id="Path" fill="#263238" fill-rule="nonzero"></path>
                <path d="M31.5440558,20.1109696 L33.1529334,19.7389167 C33.1529334,19.7389167 32.1775514,20.9455749 31.5440558,20.1109696 Z" id="Path" fill="#263238" fill-rule="nonzero"></path>
                <path d="M41.0867109,22.6550073 C40.9861561,23.3588912 40.5236038,23.8616655 40.0811625,23.8013325 C39.6387211,23.7409996 39.3169456,23.1075041 39.4175005,22.4136756 C39.5180553,21.7198472 39.9806076,21.2070175 40.4230489,21.2774059 C40.8654903,21.3477943 41.2274877,21.9611788 41.0867109,22.6550073 Z" id="Path" fill="#263238" fill-rule="nonzero"></path>
                <path d="M40.2219392,21.2774059 L41.8207613,20.9053529 C41.8207613,20.9053529 40.8956567,22.1220666 40.2219392,21.2774059 Z" id="Path" fill="#263238" fill-rule="nonzero"></path>
                <path d="M33.3138212,15.6865563 C31.9887079,15.2900067 30.5545681,15.5315069 29.432404,16.3401628" id="Path" stroke="#263238" stroke-width="0.837957067" stroke-linecap="round" stroke-linejoin="round"></path>
                <path d="M39.5180553,16.3803848 C40.7369812,16.2871926 41.9321332,16.7534128 42.7659769,17.6473758" id="Path" stroke="#263238" stroke-width="0.837957067" stroke-linecap="round" stroke-linejoin="round"></path>
                <path d="M21.6394033,21.9310124 C21.6394033,21.9310124 26.777756,15.6664453 27.0894761,10.2063171 C27.0894761,10.2063171 45.00835,6.18412316 42.9268647,23.3588912 C42.9268647,23.3588912 47.1401128,8.54716209 32.6702701,5.73162634 C18.2004275,2.91609059 14.6407859,24.1331635 21.1165181,31.7853875 C21.1165181,31.7853875 18.4518146,25.8627069 21.6394033,21.9310124 Z" id="Path" fill="#263238" fill-rule="nonzero"></path>
                <path d="M22.7153402,23.9521648 C22.8664585,21.9060505 21.3497304,20.1164008 19.3065308,19.9299709 C16.6418274,19.7690831 14.4698426,24.9577133 20.7645761,27.3408632 C21.6695698,27.6324723 22.3533427,26.8079225 22.7153402,23.9521648 Z" id="Path" fill="#E4897B" fill-rule="nonzero"></path>
                <path d="M41.1369884,12.7000773 C41.1369884,12.7000773 45.1591823,8.04438785 41.8308168,4.15291523 C38.5024513,0.261442605 24.4448836,-0.50277424 19.7087502,3.65014099 C14.9726169,7.80305621 15.4753911,10.0554848 15.4753911,10.0554848 C13.3247338,14.7335062 12.4140029,19.8862344 12.8307986,25.0180462 C13.7156813,32.9317128 10.6588139,37.8387893 12.6900218,40.3526605 C14.7212298,42.8665317 16.7122158,43.0073085 16.7122158,43.0073085 C16.1877369,41.1532551 16.1877369,39.1900686 16.7122158,37.3360151 C17.6373204,34.8221439 16.7122158,36.5818537 16.7122158,36.5818537 C16.7122158,36.5818537 17.7881526,43.1179189 18.9043114,43.8720802 C20.1276448,44.4265296 21.4371497,44.7666608 22.7756731,44.8776287 C21.4490847,41.7750409 20.8936086,38.3973319 21.15674,35.0333091 C21.7902356,30.1262325 24.4247726,25.0984901 23.8013325,19.3165863 C23.507431,15.6749256 24.5080465,12.0463588 26.6269238,9.0700473 C26.6269238,9.0700473 36.6522421,7.92372203 41.1369884,12.7000773 Z" id="Path" fill="#263238" fill-rule="nonzero"></path>
                <path d="M41.1369884,11.1917546 C43.2858799,10.4302542 44.6272576,8.2890488 44.3748545,6.0232354 C43.992746,2.00104148 36.5114653,-0.432385847 32.3082727,0.25138712" id="Path" stroke="#263238" stroke-width="0.837957067" stroke-linecap="round" stroke-linejoin="round"></path>
                <path d="M16.6719938,9.55271057 C16.6719938,9.55271057 11.4833637,16.9535474 11.9660269,25.4102101 C12.4486902,33.8668728 9.55271057,36.4712434 10.4375932,39.0957249" id="Path" stroke="#263238" stroke-width="0.837957067" stroke-linecap="round" stroke-linejoin="round"></path>
                <path d="M30.4379525,28.6581317 C30.4379525,28.6581317 30.7496725,31.0010597 35.4656949,31.1820584" id="Path" stroke="#263238" stroke-width="0.837957067" stroke-linecap="round" stroke-linejoin="round"></path>
                <path d="M59.7496907,93.6970075 C59.7496907,93.6970075 65.5315945,94.8533882 66.6175869,95.1952747 C69.8929394,96.9067341 72.9974102,98.9269971 75.8887439,101.228566 C77.2562898,102.576001 68.3772967,104.758041 66.6175869,104.245211 C64.857877,103.732381 61.6803438,99.97163 61.6803438,99.97163 L55.3051665,98.9660815 L59.7496907,93.6970075 Z" id="Path" fill="#E4897B" fill-rule="nonzero"></path>
                <path d="M6.47573222,48.9601555 C6.47573222,48.9601555 1.67926596,50.609255 0.673717482,64.6869338 C-0.331830999,78.7646125 1.87032017,101.892228 11.7347508,108.267405 C21.5991814,114.642582 57.3464299,101.228566 57.3464299,101.228566 C57.3464299,101.228566 58.90503,93.9282836 57.3464299,92.339517 C50.8908086,85.7531745 28.497244,91.7562989 20.6740768,88.1061579 C12.8509096,84.4560169 16.6518828,56.0291614 6.47573222,48.9601555 Z" id="Path" fill="#3E3CDA" fill-rule="nonzero"></path>
                <path d="M6.47573222,48.9601555 C6.47573222,48.9601555 1.67926596,50.609255 0.673717482,64.6869338 C-0.331830999,78.7646125 1.87032017,101.892228 11.7347508,108.267405 C21.5991814,114.642582 57.3464299,101.228566 57.3464299,101.228566 C57.3464299,101.228566 58.90503,93.9282836 57.3464299,92.339517 C50.8908086,85.7531745 28.497244,91.7562989 20.6740768,88.1061579 C12.8509096,84.4560169 16.6518828,56.0291614 6.47573222,48.9601555 Z" id="Path" fill="#000000" fill-rule="nonzero" opacity="0.1"></path>
                <polygon id="Path" fill="#3E3CDA" fill-rule="nonzero" points="57.3162634 92.339517 56.1397717 101.650896 61.1675141 101.872117 63.3495543 93.6970075"></polygon>
                <polygon id="Path" fill="#000000" fill-rule="nonzero" opacity="0.2" points="57.3162634 92.339517 56.1397717 101.650896 61.1675141 101.872117 63.3495543 93.6970075"></polygon>
                <path d="M117.649172,102.565945 L117.649172,105.522258 C117.649172,106.276419 116.754234,106.588139 116.010128,106.588139 L56.9743769,106.588139 C56.2202156,106.588139 55.3051665,106.276419 55.3051665,105.522258 L55.3051665,102.565945 L117.649172,102.565945 Z" id="Path" fill="#263238" fill-rule="nonzero"></path>
                <path d="M117.649172,102.565945 L117.649172,105.522258 C117.649172,106.276419 116.754234,106.588139 116.010128,106.588139 L56.9743769,106.588139 C56.2202156,106.588139 55.3051665,106.276419 55.3051665,105.522258 L55.3051665,102.565945 L117.649172,102.565945 Z" id="Path" fill="#FFFFFF" fill-rule="nonzero" opacity="0.4"></path>
                <path d="M117.649172,102.565945 L117.649172,105.522258 C117.649172,106.276419 116.754234,106.588139 116.010128,106.588139 L77.0752911,106.588139 C76.3110742,106.588139 75.4161361,106.276419 75.4161361,105.522258 L75.4161361,102.565945 L117.649172,102.565945 Z" id="Path" fill="#000000" fill-rule="nonzero" opacity="0.2"></path>
                <path d="M127.523658,71.8967164 L120.484819,103.772603 C120.224184,104.82487 119.286199,105.568647 118.202224,105.582591 L79.8304939,105.582591 C79.3430304,105.573218 78.8884456,105.33482 78.6035657,104.939154 C78.3186859,104.543487 78.2367811,104.03676 78.3825041,103.571494 L85.4213435,71.9369383 C85.7230315,70.9569872 86.6611249,70.3149144 87.6838275,70.3883937 L126.075669,70.3883937 C127.111383,70.3883937 127.754935,70.850946 127.523658,71.8967164 Z" id="Path" fill="#263238" fill-rule="nonzero"></path>
                <path d="M127.523658,71.8967164 L120.484819,103.772603 C120.224184,104.82487 119.286199,105.568647 118.202224,105.582591 L81.1377069,105.582591 C80.6500803,105.572165 80.1954505,105.334072 79.909164,104.939194 C79.6228776,104.544316 79.5379488,104.03819 79.6796616,103.571494 L86.718501,71.9369383 C87.0210177,70.9530848 87.9647151,70.3100344 88.9910406,70.3883937 L126.075669,70.3883937 C127.111383,70.3883937 127.754935,70.850946 127.523658,71.8967164 Z" id="Path" fill="#FFFFFF" fill-rule="nonzero" opacity="0.4"></path>
                <path d="M108.599236,88.0961024 L108.599236,88.0961024 C108.599236,90.8211388 105.67309,93.0434009 103.571494,93.0434009 C101.469897,93.0434009 100.152629,90.8211388 100.766013,88.0961024 C101.379398,85.371066 103.511161,83.2393033 105.612757,83.1588594 C104.999372,85.8838958 106.306585,88.0961024 108.438348,88.0961024 L108.599236,88.0961024 Z" id="Path" fill="#000000" fill-rule="nonzero" opacity="0.2"></path>
            </g>
            <g id="freepik--Bubble-1--inject-242" transform="translate(65.360651, 79.438330)" fill-rule="nonzero">
                <path d="M46.5870611,6.50521303e-19 L5.80201474,6.50521303e-19 C2.69619394,-0.0735312874 0.109296035,2.36541578 0,5.47018374 L0,27.5922503 C0.0981048095,30.7207975 2.6719809,33.200997 5.80201474,33.1830999 L23.2985583,33.1830999 L26.4057031,41.0666 L29.5128479,33.1830999 L46.6071721,33.1830999 C49.7177143,33.194505 52.2591041,30.7024191 52.308632,27.5922503 L52.308632,5.47018374 C52.2796628,3.98462245 51.6594829,2.57194396 50.5855041,1.5451523 C49.5115253,0.518360631 48.0724249,-0.0377631725 46.5870611,2.85800029e-14 L46.5870611,6.50521303e-19 Z" id="Path" fill="#3E3CDA"></path>
                <path d="M46.5870611,6.50521303e-19 L5.80201474,6.50521303e-19 C2.69619394,-0.0735312874 0.109296035,2.36541578 0,5.47018374 L0,27.5922503 C0.0981048095,30.7207975 2.6719809,33.200997 5.80201474,33.1830999 L23.2985583,33.1830999 L26.4057031,41.0666 L29.5128479,33.1830999 L46.6071721,33.1830999 C49.7177143,33.194505 52.2591041,30.7024191 52.308632,27.5922503 L52.308632,5.47018374 C52.2796628,3.98462245 51.6594829,2.57194396 50.5855041,1.5451523 C49.5115253,0.518360631 48.0724249,-0.0377631725 46.5870611,2.85800029e-14 L46.5870611,6.50521303e-19 Z" id="Path" fill="#FFFFFF" opacity="0.6"></path>
                <polygon id="Path" fill="#000000" opacity="0.2" points="7.03883937 22.6248408 18.7333682 14.0776787 22.3734537 15.0832272 27.2805303 12.0665818 35.1036975 14.580453 44.2441332 6.53606513 44.2441332 24.1331635 7.03883937 24.1331635"></polygon>
                <polygon id="Path" fill="#FFFFFF" points="7.03883937 9.04993633 7.03883937 24.1331635 44.2441332 24.1331635 44.2441332 10.0554848 32.3384391 19.1054211 27.2805303 14.872062 15.9178325 20.1109696 8.04438785 23.1276151 8.04438785 9.04993633"></polygon>
            </g>
            <g id="freepik--Line--inject-242" transform="translate(189.043114, 163.904402)">
                <line x1="89.4938148" y1="7.03883937" x2="89.4938148" y2="9.55271057" id="Path" stroke="#3E3CDA" stroke-width="2.01109696" stroke-linejoin="round"></line>
                <line x1="89.4938148" y1="12.4989676" x2="89.4938148" y2="50.3075905" id="Path" stroke="#3E3CDA" stroke-width="2.01109696" stroke-linejoin="round" stroke-dasharray="4.910817871923031,2.946490826814071"></line>
                <polyline id="Path" stroke="#3E3CDA" stroke-width="2.01109696" stroke-linejoin="round" points="89.4938148 51.7857468 89.4938148 54.299618 86.9799436 54.299618"></polyline>
                <line x1="84.0739085" y1="54.299618" x2="7.99411042" y2="54.299618" id="Path" stroke="#3E3CDA" stroke-width="2.01109696" stroke-linejoin="round" stroke-dasharray="4.846016738725745,2.907610198725825"></line>
                <line x1="6.53606513" y1="54.299618" x2="4.02219392" y2="54.299618" id="Path" stroke="#3E3CDA" stroke-width="2.01109696" stroke-linejoin="round"></line>
                <circle id="Oval" fill="#3E3CDA" fill-rule="nonzero" cx="89.4938148" cy="4.05236038" r="3.6400855"></circle>
                <circle id="Oval" fill="#3E3CDA" fill-rule="nonzero" cx="4.02219392" cy="54.299618" r="3.6400855"></circle>
            </g>
            <g id="freepik--Character-2--inject-242" transform="translate(162.898854, 0.000000)">
                <rect id="Rectangle" fill="#DAD8FB" fill-rule="nonzero" x="0" y="0" width="230.270602" height="159.882208" rx="6.33495543"></rect>
                <rect id="Rectangle" fill="#3E3CDA" fill-rule="nonzero" x="0" y="26.1442605" width="230.270602" height="104.577042"></rect>
                <rect id="Rectangle" fill="#000000" fill-rule="nonzero" opacity="0.4" x="0" y="26.1442605" width="230.270602" height="104.577042"></rect>
                <polygon id="Path" fill="#3E3CDA" fill-rule="nonzero" points="224.237311 101.560397 224.237311 79.43833 220.215117 79.43833 220.215117 52.288521 215.187375 52.288521 215.187375 79.43833 206.137439 79.43833 206.137439 119.660269 188.037566 119.660269 188.037566 79.43833 155.860015 79.43833 155.860015 119.660269 139.771239 119.660269 139.771239 121.671366 124.688012 121.671366 124.688012 81.449427 118.654721 81.449427 118.654721 104.577042 103.571494 104.577042 103.571494 97.5382027 76.4216846 97.5382027 76.4216846 75.4161361 72.3994906 75.4161361 72.3994906 48.2663271 67.3717482 48.2663271 67.3717482 75.4161361 58.3218119 75.4161361 58.3218119 115.638075 40.2219392 115.638075 40.2219392 75.4161361 8.04438785 75.4161361 8.04438785 115.638075 0 115.638075 0 130.721303 139.771239 130.721303 163.904402 130.721303 230.270602 130.721303 230.270602 101.560397"></polygon>
                <polygon id="Path" fill="#000000" fill-rule="nonzero" opacity="0.3" points="224.237311 101.560397 224.237311 79.43833 220.215117 79.43833 220.215117 52.288521 215.187375 52.288521 215.187375 79.43833 206.137439 79.43833 206.137439 119.660269 188.037566 119.660269 188.037566 79.43833 155.860015 79.43833 155.860015 119.660269 139.771239 119.660269 139.771239 121.671366 124.688012 121.671366 124.688012 81.449427 118.654721 81.449427 118.654721 104.577042 103.571494 104.577042 103.571494 97.5382027 76.4216846 97.5382027 76.4216846 75.4161361 72.3994906 75.4161361 72.3994906 48.2663271 67.3717482 48.2663271 67.3717482 75.4161361 58.3218119 75.4161361 58.3218119 115.638075 40.2219392 115.638075 40.2219392 75.4161361 8.04438785 75.4161361 8.04438785 115.638075 0 115.638075 0 130.721303 139.771239 130.721303 163.904402 130.721303 230.270602 130.721303 230.270602 101.560397"></polygon>
                <rect id="Rectangle" fill="#3E3CDA" fill-rule="nonzero" x="15.0832272" y="46.2552301" width="40.2219392" height="84.4660724"></rect>
                <g id="Group" opacity="0.4" transform="translate(15.083227, 54.299618)" fill="#000000" fill-rule="nonzero">
                    <rect id="Rectangle" x="0" y="0" width="40.2219392" height="1.00554848"></rect>
                </g>
                <rect id="Rectangle" fill="#000000" fill-rule="nonzero" opacity="0.4" x="15.0832272" y="62.3440058" width="40.2219392" height="1.00554848"></rect>
                <rect id="Rectangle" fill="#000000" fill-rule="nonzero" opacity="0.4" x="15.0832272" y="85.4716209" width="40.2219392" height="1.00554848"></rect>
                <rect id="Rectangle" fill="#000000" fill-rule="nonzero" opacity="0.4" x="15.0832272" y="93.5160087" width="40.2219392" height="1.00554848"></rect>
                <rect id="Rectangle" fill="#000000" fill-rule="nonzero" opacity="0.4" x="15.0832272" y="101.560397" width="40.2219392" height="1.00554848"></rect>
                <rect id="Rectangle" fill="#000000" fill-rule="nonzero" opacity="0.4" x="15.0832272" y="109.604784" width="40.2219392" height="1.00554848"></rect>
                <rect id="Rectangle" fill="#3E3CDA" fill-rule="nonzero" x="73.4050391" y="83.4605239" width="39.2163908" height="47.2607786"></rect>
                <rect id="Rectangle" fill="#000000" fill-rule="nonzero" opacity="0.4" x="73.4050391" y="91.5049118" width="39.2163908" height="1.00554848"></rect>
                <rect id="Rectangle" fill="#000000" fill-rule="nonzero" opacity="0.4" x="73.4050391" y="99.5492996" width="39.2163908" height="1.00554848"></rect>
                <rect id="Rectangle" fill="#000000" fill-rule="nonzero" opacity="0.4" x="73.4050391" y="107.593687" width="39.2163908" height="1.00554848"></rect>
                <rect id="Rectangle" fill="#3E3CDA" fill-rule="nonzero" x="129.715754" y="67.3717482" width="40.2219392" height="63.3495543"></rect>
                <rect id="Rectangle" fill="#000000" fill-rule="nonzero" opacity="0.4" x="129.715754" y="75.4161361" width="40.2219392" height="1.00554848"></rect>
                <rect id="Rectangle" fill="#000000" fill-rule="nonzero" opacity="0.4" x="129.715754" y="92.5104603" width="40.2219392" height="1.00554848"></rect>
                <rect id="Rectangle" fill="#000000" fill-rule="nonzero" opacity="0.4" x="129.715754" y="115.638075" width="40.2219392" height="1.00554848"></rect>
                <rect id="Rectangle" fill="#000000" fill-rule="nonzero" opacity="0.4" x="129.715754" y="123.682463" width="40.2219392" height="1.00554848"></rect>
                <g id="Group" opacity="0.2" transform="translate(15.083227, 46.255230)" fill="#000000" fill-rule="nonzero">
                    <rect id="Rectangle" x="0" y="0" width="40.2219392" height="84.4660724"></rect>
                </g>
                <g id="Group" opacity="0.2" transform="translate(73.405039, 83.460524)" fill="#000000" fill-rule="nonzero">
                    <rect id="Rectangle" x="0" y="0" width="39.2163908" height="47.2607786"></rect>
                </g>
                <g id="Group" opacity="0.2" transform="translate(129.715754, 67.371748)" fill="#000000" fill-rule="nonzero">
                    <rect id="Rectangle" x="0" y="0" width="40.2219392" height="63.3495543"></rect>
                </g>
                <path d="M208.480367,159.882208 L133.737948,159.882208 L148.368678,82.1834774 C149.219145,77.6772729 153.154634,74.413182 157.74039,74.4105864 L213.045557,74.4105864 C215.884521,74.4091476 218.576398,75.6731542 220.388499,77.8585631 C222.2006,80.0439721 222.944334,82.9233427 222.417269,85.7129525 L208.480367,159.882208 Z" id="Path" fill="#3E3CDA" fill-rule="nonzero"></path>
                <path d="M208.480367,159.882208 L133.737948,159.882208 L148.368678,82.1834774 C149.219145,77.6772729 153.154634,74.413182 157.74039,74.4105864 L213.045557,74.4105864 C215.884521,74.4091476 218.576398,75.6731542 220.388499,77.8585631 C222.2006,80.0439721 222.944334,82.9233427 222.417269,85.7129525 L208.480367,159.882208 Z" id="Path" fill="#FFFFFF" fill-rule="nonzero" opacity="0.4"></path>
                <path d="M208.480367,159.882208 L189.043114,159.882208 L203.6839,82.1834774 C204.530694,77.67511 208.468409,74.4091726 213.055612,74.4105864 L213.055612,74.4105864 C215.894577,74.4091476 218.586454,75.6731542 220.398555,77.8585631 C222.210655,80.0439721 222.95439,82.9233427 222.427324,85.7129525 L208.480367,159.882208 Z" id="Path" fill="#000000" fill-rule="nonzero" opacity="0.2"></path>
                <g id="freepik--group--inject-242" transform="translate(61.338457, 42.233036)">
                    <path d="M86.9799436,67.3717482 C86.9799436,67.3717482 85.8637848,70.3883937 84.083964,74.2496998 C81.2483173,80.433823 76.7334046,88.7798754 72.3994906,90.4390304 C68.8499045,91.8065763 59.9306895,92.0579634 51.9667455,91.9775196 C44.0028015,91.8970757 37.2052938,91.5049118 37.2052938,91.5049118 L37.2052938,85.4716209 L63.3495543,78.5031699 C63.3495543,78.5031699 77.1456795,53.6057895 85.3006776,49.9154266 L86.9799436,67.3717482 Z" id="Path" fill="#3E3CDA" fill-rule="nonzero"></path>
                    <path d="M84.083964,74.2496998 C81.2483173,80.433823 76.7334046,88.7798754 72.3994906,90.4390304 C68.8499045,91.8065763 59.9306895,92.0579634 51.9667455,91.9775196 C51.9667455,91.9775196 64.7070448,85.079457 68.3772967,81.449427 C72.4497681,77.427233 82.9376387,61.4189012 82.9376387,61.4189012 L84.083964,74.2496998 Z" id="Path" fill="#000000" fill-rule="nonzero" opacity="0.2"></path>
                    <path d="M99.599577,44.6262416 C102.04306,43.5100828 116.643624,43.5100828 116.643624,43.5100828 L116.643624,54.299618 L96.0298799,58.1508687 C96.0298799,58.1508687 94.7025559,46.8384482 99.599577,44.6262416 Z" id="Path" fill="#3E3CDA" fill-rule="nonzero"></path>
                    <path d="M127.704657,117.649172 C127.292382,108.307627 123.360688,77.8596189 128.710206,48.4171594 C124.566592,47.6954457 120.375614,47.2787005 116.171016,47.1702792 C110.017809,46.9473231 103.856848,47.081622 97.7192014,47.5724986 C93.5161974,48.0892916 89.3604675,48.9365763 85.2906222,50.1064808 C85.2906222,50.1064808 79.5187739,71.5548299 85.9442287,117.649172 L127.704657,117.649172 Z" id="Path" fill="#FFFFFF" fill-rule="nonzero"></path>
                    <path d="M114.190086,89.0513735 C117.870393,88.2368792 122.324973,84.6671821 125.965058,81.1477624 C125.965058,74.8831954 126.266723,68.216409 126.970607,61.4189012 C121.792032,69.0510142 107.835019,90.4993633 114.190086,89.0513735 Z" id="Path" fill="#000000" fill-rule="nonzero" opacity="0.1"></path>
                    <path d="M113.938698,26.486147 C112.93315,32.4490495 111.977879,43.349195 116.211238,47.2205567 C112.737495,50.9422199 107.916447,53.115495 102.827388,53.2538476 C95.2254411,53.5856786 97.7996453,47.5825541 97.7996453,47.5825541 C104.396043,45.8530107 104.11449,40.9459341 102.827388,36.3606331 L113.938698,26.486147 Z" id="Path" fill="#B97964" fill-rule="nonzero"></path>
                    <path d="M109.41373,30.5284519 L102.827388,36.400855 C103.137265,37.4658166 103.352616,38.5560324 103.470939,39.6588321 C105.994865,39.2365017 109.403675,36.3907995 109.61484,33.7361515 C109.744629,32.6636196 109.676463,31.5763743 109.41373,30.5284519 Z" id="Path" fill="#000000" fill-rule="nonzero" opacity="0.2"></path>
                    <path d="M99.5492996,11.0610333 C102.837443,13.2933509 101.339176,17.0943242 93.8880617,23.0069492 C90.8714162,19.0853102 90.3585865,11.4632527 92.7719029,9.55271057 C95.1852192,7.64216846 96.6231535,9.13038021 99.5492996,11.0610333 Z" id="Path" fill="#263238" fill-rule="nonzero"></path>
                    <path d="M113.626978,17.194879 C113.264981,25.2392669 113.456035,29.9754002 109.474063,34.1685374 C103.440772,40.4833818 93.4858423,36.9740176 91.3741905,28.9698517 C89.5440922,21.7902356 90.4289749,9.8644306 98.2420866,6.49584319 C101.743474,4.96098694 105.790891,5.35588388 108.929564,7.53859529 C112.068238,9.7213067 113.847179,13.3782036 113.626978,17.194879 L113.626978,17.194879 Z" id="Path" fill="#B97964" fill-rule="nonzero"></path>
                    <path d="M101.691118,19.6081954 C101.691118,20.2618019 101.359287,20.7947426 100.936957,20.8047981 C100.514626,20.8148536 100.162684,20.2919683 100.152629,19.6383618 C100.142573,18.9847553 100.464349,18.4518146 100.896735,18.4317037 C101.32912,18.4115927 101.64084,18.9646444 101.691118,19.6081954 Z" id="Path" fill="#263238" fill-rule="nonzero"></path>
                    <path d="M94.2500591,19.7489722 C94.2500591,20.4025787 93.9182281,20.9355194 93.4958978,20.9455749 C93.0735674,20.9556303 92.7115699,20.4327451 92.7015145,19.7690831 C92.691459,19.1054211 93.02329,18.5724804 93.4556758,18.5724804 C93.8880617,18.5724804 94.2400036,19.1054211 94.2500591,19.7489722 Z" id="Path" fill="#263238" fill-rule="nonzero"></path>
                    <path d="M96.6834864,20.0104148 C95.9402587,22.0228533 94.9253066,23.9241967 93.666841,25.6615972 C94.582224,26.2947435 95.7310427,26.4898954 96.8041523,26.1945379 L96.6834864,20.0104148 Z" id="Path" fill="#A24E3F" fill-rule="nonzero"></path>
                    <path d="M103.682104,17.2250455 C103.76405,17.2499423 103.851545,17.2499423 103.933491,17.2250455 C104.095542,17.0904143 104.126246,16.8535495 104.003879,16.6820493 C103.262318,15.6885673 102.085861,15.1153258 100.846457,15.1435601 C100.747731,15.1487521 100.65513,15.1930239 100.589099,15.2666019 C100.523067,15.3401798 100.489035,15.4370131 100.494515,15.535724 L100.494515,15.535724 C100.520604,15.7403962 100.700825,15.8898475 100.90679,15.8776105 L100.90679,15.8776105 C101.886418,15.8620928 102.812565,16.3232917 103.390495,17.1144351 C103.466017,17.1934348 103.573187,17.2340858 103.682104,17.2250455 Z" id="Path" fill="#263238" fill-rule="nonzero"></path>
                    <path d="M90.8211388,17.2954339 C90.9691347,17.2885303 91.1026908,17.2045808 91.1730808,17.0742132 C91.5521072,16.1696873 92.3471874,15.5058703 93.3048436,15.2943924 C93.5142466,15.2584294 93.6569244,15.0622475 93.6266191,14.8519511 C93.5955189,14.6484306 93.408764,14.5061411 93.2042887,14.5301756 C91.9873129,14.7809888 90.9697621,15.6107995 90.4792523,16.7524377 C90.3928884,16.941367 90.473282,17.1646825 90.660251,17.2552119 L90.660251,17.2552119 C90.7110904,17.2779973 90.765558,17.2916142 90.8211388,17.2954339 L90.8211388,17.2954339 Z" id="Path" fill="#263238" fill-rule="nonzero"></path>
                    <path d="M110.338835,10.1258732 C106.598194,11.4833637 107.131135,15.5256685 112.902983,23.0873931 C116.804512,20.0204703 119.157495,12.7503547 117.287175,10.3169274 C115.416855,7.88350009 113.626978,8.94938148 110.338835,10.1258732 Z" id="Path" fill="#263238" fill-rule="nonzero"></path>
                    <path d="M117.649172,23.5700564 C117.119277,25.5265953 115.835694,27.1934453 114.079475,28.2056349 C111.746603,29.5329589 109.936615,27.5922503 110.057281,25.0582681 C110.157836,22.7656176 111.495216,19.3165863 114.079475,19.0249773 C116.663735,18.7333682 118.242446,21.1667955 117.649172,23.5700564 Z" id="Path" fill="#B97964" fill-rule="nonzero"></path>
                    <path d="M117.739672,11.262143 C117.739672,11.262143 119.428993,6.53606513 113.86831,2.64459251 C109.071844,-0.723994906 96.2812671,-0.25138712 92.7015145,3.7708068 C90.5269696,6.34214094 89.3053141,9.58449994 89.2424277,12.9514644 L91.1931917,9.93481899 L90.660251,13.7056258 L95.8689922,9.68343187 L94.2500591,13.7056258 C94.2500591,13.7056258 99.619688,12.9514644 102.294447,9.93481899 L100.926901,12.6699109 C100.926901,12.6699109 104.215045,13.0721303 108.609291,9.80409769 C108.609291,9.80409769 105.36137,13.5749045 109.685228,15.8373886 C114.009087,18.0998727 117.739672,11.262143 117.739672,11.262143 Z" id="Path" fill="#263238" fill-rule="nonzero"></path>
                    <path d="M102.827388,27.5319174 C101.672986,29.2928467 99.6326008,30.2626114 97.5382027,30.0457886" id="Path" stroke="#263238" stroke-width="0.837957067" stroke-linecap="round" stroke-linejoin="round"></path>
                    <path d="M130.479971,117.649172 C129.83642,98.4331408 128.659928,61.4490677 128.750428,48.4171594 C128.750428,48.4171594 120.766373,46.9892805 117.277119,47.2105012 C113.787866,47.4317218 107.955685,49.6037066 107.955685,49.6037066 C107.955685,49.6037066 107.824964,91.012193 111.615881,117.649172 L130.479971,117.649172 Z" id="Path" fill="#3E3CDA" fill-rule="nonzero"></path>
                    <path d="M130.479971,117.649172 C129.83642,98.4331408 128.659928,61.4490677 128.750428,48.4171594 C128.750428,48.4171594 120.766373,46.9892805 117.277119,47.2105012 C113.787866,47.4317218 107.955685,49.6037066 107.955685,49.6037066 C107.955685,49.6037066 107.824964,91.012193 111.615881,117.649172 L130.479971,117.649172 Z" id="Path" fill="#FFFFFF" fill-rule="nonzero" opacity="0.2"></path>
                    <polygon id="Path" fill="#3E3CDA" fill-rule="nonzero" points="116.211238 43.5100828 107.96574 49.6037066 110.942164 56.3107149 119.750769 47.0697244"></polygon>
                    <path d="M87.7944379,117.649172 C92.5808486,54.96328 98.5236402,49.9053711 98.5236402,49.9053711 L97.3572039,46.3960069 L85.2906222,50.1064808 C79.6796616,58.3519784 78.5333364,99.9112971 78.3020602,117.649172 L87.7944379,117.649172 Z" id="Path" fill="#3E3CDA" fill-rule="nonzero"></path>
                    <path d="M87.7944379,117.649172 C92.5808486,54.96328 98.5236402,49.9053711 98.5236402,49.9053711 L97.3572039,46.3960069 L85.2906222,50.1064808 C79.6796616,58.3519784 78.5333364,99.9112971 78.3020602,117.649172 L87.7944379,117.649172 Z" id="Path" fill="#FFFFFF" fill-rule="nonzero" opacity="0.2"></path>
                    <path d="M76.4216846,84.8783473 C76.4216846,84.8783473 61.2580135,84.415795 59.7094688,84.2549072 C58.1609241,84.0940195 51.5745816,80.3936011 50.1869247,80.2327133 C48.7992678,80.0718255 45.0385165,85.9442287 44.5759642,87.3318856 C44.1134119,88.7195425 55.0537793,92.4300164 56.1397717,92.2791841 C57.3725626,91.9517308 58.5712571,91.5072711 59.7195243,90.9518601 L76.4216846,92.9026242 L76.4216846,84.8783473 Z" id="Path" fill="#B97964" fill-rule="nonzero"></path>
                    <path d="M128.710206,48.4171594 C142.878384,53.5253456 118.01117,91.8870202 110.288557,95.8388257 C102.565945,99.7906313 63.3495543,91.5049118 63.3495543,91.5049118 L64.8880435,83.5711343 C64.8880435,83.5711343 99.599577,84.4560169 102.797221,83.6515781 C105.994865,82.8471393 113.596812,66.4868656 117.970948,58.7642532 C120.399471,54.2913853 124.150131,50.6776877 128.710206,48.4171594 L128.710206,48.4171594 Z" id="Path" fill="#3E3CDA" fill-rule="nonzero"></path>
                    <polygon id="Path" fill="#3E3CDA" fill-rule="nonzero" points="67.7035792 82.4549754 65.6924823 93.1942332 61.9820084 91.8266873 63.3696653 82.4549754"></polygon>
                    <polygon id="Path" fill="#FFFFFF" fill-rule="nonzero" opacity="0.2" points="67.7035792 82.4549754 65.6924823 93.1942332 61.9820084 91.8266873 63.3696653 82.4549754"></polygon>
                    <path d="M99.1671912,44.7469074 C99.1671912,44.7469074 93.2847326,48.7691013 93.6567855,52.620352 L98.5236402,49.9053711 C98.5236402,49.9053711 97.7795343,46.5870611 99.1671912,44.7469074 Z" id="Path" fill="#3E3CDA" fill-rule="nonzero"></path>
                    <rect id="Rectangle" fill="#3E3CDA" fill-rule="nonzero" transform="translate(49.779678, 93.521036) rotate(180.000000) translate(-49.779678, -93.521036) " x="2.5138712" y="91.0825814" width="94.5316127" height="4.87691013" rx="1.08599236"></rect>
                    <path d="M3.01664544,92.0378525 L3.01664544,94.7528334 C3.01664544,95.3561625 3.01664544,95.5271057 3.58980808,95.5271057 L95.9594915,95.5271057 C96.5628206,95.5271057 97.5382027,95.3561625 97.5382027,94.7528334 L97.5382027,92.0378525 C97.5382027,91.4445789 96.5326542,91.5049118 95.9594915,91.5049118 L3.58980808,91.5049118 C3.01664544,91.5049118 3.01664544,91.4445789 3.01664544,92.0378525 Z" id="Path" fill="#FFFFFF" fill-rule="nonzero" opacity="0.5"></path>
                    <path d="M58.3218119,92.0378525 L58.3218119,94.7528334 C58.3218119,95.3561625 58.6335319,95.5271057 59.2268055,95.5271057 L95.9594915,95.5271057 C96.5628206,95.5271057 97.5382027,95.3561625 97.5382027,94.7528334 L97.5382027,92.0378525 C97.5382027,91.4445789 96.5326542,91.5049118 95.9594915,91.5049118 L59.2268055,91.5049118 C58.6335319,91.5049118 58.3218119,91.4445789 58.3218119,92.0378525 Z" id="Path" fill="#000000" fill-rule="nonzero" opacity="0.2"></path>
                    <path d="M10.0554848,87.4827178 L10.0554848,90.4390304 C10.0554848,91.1931917 10.8197017,91.5049118 11.5638075,91.5049118 L70.5995589,91.5049118 C71.3537202,91.5049118 72.3994906,91.1931917 72.3994906,90.4390304 L72.3994906,87.4827178 L10.0554848,87.4827178 Z" id="Path" fill="#263238" fill-rule="nonzero"></path>
                    <path d="M10.0554848,87.4827178 L10.0554848,90.4390304 C10.0554848,91.1931917 10.8197017,91.5049118 11.5638075,91.5049118 L70.5995589,91.5049118 C71.3537202,91.5049118 72.3994906,91.1931917 72.3994906,90.4390304 L72.3994906,87.4827178 L10.0554848,87.4827178 Z" id="Path" fill="#FFFFFF" fill-rule="nonzero" opacity="0.6"></path>
                    <path d="M10.0554848,87.4827178 L10.0554848,90.4390304 C10.0554848,91.1931917 10.8197017,91.5049118 11.5638075,91.5049118 L50.4986447,91.5049118 C51.2528061,91.5049118 52.288521,91.1931917 52.288521,90.4390304 L52.288521,87.4827178 L10.0554848,87.4827178 Z" id="Path" fill="#000000" fill-rule="nonzero" opacity="0.2"></path>
                    <path d="M0.050277424,56.8134892 L7.08911679,88.689376 C7.3559447,89.7376455 8.29021754,90.4784786 9.37171184,90.4993633 L47.7635528,90.4993633 C48.2508837,90.4910963 48.7054716,90.2523964 48.9889551,89.8559159 C49.2724387,89.4594354 49.3512818,88.952078 49.2014872,88.4882663 L42.1626478,56.8537111 C41.8664263,55.8595204 40.9138627,55.2090915 39.8800528,55.295111 L1.49826724,55.295111 C0.462552301,55.3051665 -0.180998727,55.7677188 0.050277424,56.8134892 Z" id="Path" fill="#263238" fill-rule="nonzero"></path>
                    <path d="M0.050277424,56.8134892 L7.08911679,88.689376 C7.3559447,89.7376455 8.29021754,90.4784786 9.37171184,90.4993633 L47.7635528,90.4993633 C48.2508837,90.4910963 48.7054716,90.2523964 48.9889551,89.8559159 C49.2724387,89.4594354 49.3512818,88.952078 49.2014872,88.4882663 L42.1626478,56.8537111 C41.8664263,55.8595204 40.9138627,55.2090915 39.8800528,55.295111 L1.49826724,55.295111 C0.462552301,55.3051665 -0.180998727,55.7677188 0.050277424,56.8134892 Z" id="Path" fill="#FFFFFF" fill-rule="nonzero" opacity="0.6"></path>
                    <path d="M0.050277424,56.8134892 L7.08911679,88.689376 C7.3559447,89.7376455 8.29021754,90.4784786 9.37171184,90.4993633 L46.4563398,90.4993633 C46.9438033,90.4899906 47.3983881,90.2515933 47.683268,89.8559268 C47.9681479,89.4602602 48.0500526,88.9535333 47.9043296,88.4882663 L40.8654903,56.8537111 C40.5659821,55.8619246 39.6156623,55.2130279 38.5828952,55.295111 L1.49826724,55.295111 C0.462552301,55.3051665 -0.180998727,55.7677188 0.050277424,56.8134892 Z" id="Path" fill="#FFFFFF" fill-rule="nonzero" opacity="0.4"></path>
                    <polygon id="Path" fill="#000000" fill-rule="nonzero" opacity="0.2" points="27.1799754 74.1390895 26.5263689 71.182777 16.531217 71.182777 17.1848235 74.1390895"></polygon>
                </g>
                <path d="M41.5090413,83.9230762 C41.5064993,84.5236532 41.449282,85.1227515 41.3380981,85.7129525 L27.3710297,159.882208 L6.33495543,159.882208 C2.83625616,159.882208 0,157.045952 0,153.547253 L0,74.4105822 L31.9663862,74.4105822 C37.2271765,74.4050265 41.4979455,78.6622947 41.5090413,83.9230762 L41.5090413,83.9230762 Z" id="Path" fill="#3E3CDA" fill-rule="nonzero"></path>
                <path d="M41.5090413,83.9230762 C41.5064993,84.5236532 41.449282,85.1227515 41.3380981,85.7129525 L27.3710297,159.882208 L6.33495543,159.882208 C2.83625616,159.882208 0,157.045952 0,153.547253 L0,74.4105822 L31.9663862,74.4105822 C37.2271765,74.4050265 41.4979455,78.6622947 41.5090413,83.9230762 L41.5090413,83.9230762 Z" id="Path" fill="#FFFFFF" fill-rule="nonzero" opacity="0.4"></path>
                <path d="M27.3710297,159.882208 L7.96394397,159.882208 L22.6047299,82.1834774 C23.4471443,77.6766688 27.3815214,74.4105864 31.9663862,74.4105864 L31.9663862,74.4105864 C34.8053506,74.4091476 37.4972279,75.6731542 39.3093286,77.8585631 C41.1214293,80.0439721 41.8651636,82.9233427 41.3380981,85.7129525 L27.3710297,159.882208 Z" id="Path" fill="#000000" fill-rule="nonzero" opacity="0.2"></path>
            </g>
            <g id="freepik--Bubble-2--inject-242" transform="translate(269.486993, 21.116518)">
                <path d="M34.8321994,2.16840434e-19 L6.11373476,2.16840434e-19 C3.01664544,2.16840434e-19 0,2.3831499 0,5.47018374 L0,27.5922503 C0,30.6792842 3.01664544,33.1830999 6.11373476,33.1830999 L22.9667273,33.1830999 L36.7729079,41.0666 L31.1720029,33.1830999 L34.8824768,33.1830999 C36.3447987,33.1756888 37.742076,32.5776861 38.7569985,31.5248934 C39.771921,30.4721006 40.3183575,29.0538629 40.2722167,27.5922503 L40.2722167,5.47018374 C40.3139623,4.01227059 39.7552469,2.60116811 38.7267796,1.56699767 C37.6983123,0.532827238 36.2903211,-0.0336828547 34.8321994,2.16840434e-19 Z" id="Path" fill="#FFFFFF" fill-rule="nonzero"></path>
                <circle id="Oval" fill="#3E3CDA" fill-rule="nonzero" transform="translate(20.072333, 16.318080) rotate(-76.720000) translate(-20.072333, -16.318080) " cx="20.0723332" cy="16.3180804" r="11.2923094"></circle>
                <circle id="Oval" fill="#FFFFFF" fill-rule="nonzero" opacity="0.4" transform="translate(20.072333, 16.318080) rotate(-76.720000) translate(-20.072333, -16.318080) " cx="20.0723332" cy="16.3180804" r="11.2923094"></circle>
                <polyline id="Path" stroke="#FFFFFF" stroke-width="2.01109696" stroke-linecap="round" stroke-linejoin="round" points="14.7513962 15.3848918 19.1054211 20.5333 26.1442605 11.0610333"></polyline>
            </g>
        </g>
    </g>
</svg>