<?xml version="1.0" encoding="UTF-8"?>
<svg width="577px" height="456px" viewBox="0 0 577 456" version="1.1" xmlns="http://www.w3.org/2000/svg" xmlns:xlink="http://www.w3.org/1999/xlink">
    <!-- Generator: Sketch 63.1 (92452) - https://sketch.com -->
    <title>Group 15</title>
    <desc>Created with Sketch.</desc>
    <g id="Page-1" stroke="none" stroke-width="1" fill="none" fill-rule="evenodd">
        <g id="Group-15">
            <circle id="Oval" fill="#FFFFFF" opacity="0.151548874" cx="6.2916" cy="333.828102" r="6.2916"></circle>
            <g id="chevrons-left-copy" transform="translate(98.568400, 437.639502)" opacity="0.200733" stroke="#FFFFFF" stroke-linecap="round" stroke-linejoin="round" stroke-width="1.0486">
                <polyline id="Path" points="3.49533333 6.99066667 0 3.49533333 3.49533333 0"></polyline>
                <polyline id="Path" points="8.3888 6.99066667 4.89346667 3.49533333 8.3888 0"></polyline>
            </g>
            <path d="M229.6434,450.570801 L229.6434,444.978268 C229.642888,444.479275 229.376474,444.018379 228.944333,443.768883 L224.050867,440.972616 C223.618283,440.722863 223.085317,440.722863 222.652733,440.972616 L217.759267,443.768883 C217.327126,444.018379 217.060712,444.479275 217.0602,444.978268 L217.0602,450.570801 C217.060712,451.069794 217.327126,451.53069 217.759267,451.780187 L222.652733,454.576453 C223.085317,454.826206 223.618283,454.826206 224.050867,454.576453 L228.944333,451.780187 C229.376474,451.53069 229.642888,451.069794 229.6434,450.570801 Z" id="Path" stroke="#FFFFFF" stroke-width="1.0486" opacity="0.147710756" stroke-linecap="round" stroke-linejoin="round"></path>
            <g id="freepik--Floor--inject-125" transform="translate(39.007920, 140.629843)" fill="#F8F3FF" fill-rule="nonzero">
                <ellipse id="freepik--floor--inject-125" cx="269.079149" cy="157.438985" rx="268.525488" ry="157.239667"></ellipse>
            </g>
            <g id="freepik--Shadows--inject-125" transform="translate(63.368995, 170.573665)" fill="#F0E9FB" fill-rule="nonzero">
                <path d="M133.985914,1.25127341 L2.87903616,76.9588512 C0.11073216,78.5644675 0.11073216,81.1556001 2.87903616,82.7501432 L307.071353,258.58174 C310.338515,260.262205 314.085754,260.76288 317.679494,259.999112 C375.415242,244.186559 420.527524,217.245425 449.450764,184.391193 C450.454716,183.331084 450.899621,181.859425 450.65111,180.420678 C450.402599,178.981931 449.48981,177.744783 448.188418,177.08287 L144.051467,1.25127341 C140.890156,-0.361773228 137.147225,-0.361773228 133.985914,1.25127341 Z" id="freepik--Shadow--inject-125"></path>
                <ellipse id="freepik--shadow--inject-125" cx="93.8455056" cy="164.381892" rx="38.9002078" ry="22.456482"></ellipse>
            </g>
            <g id="freepik--Back--inject-125" transform="translate(93.266678, 122.912698)" fill-rule="nonzero">
                <path d="M58.8873627,129.191211 C58.9727394,132.662444 58.3197735,136.112218 56.9716963,139.31213 L56.9716963,139.31213 C55.9600982,141.689474 54.2392074,143.696535 52.0441152,145.05913 L51.878017,145.158789 L51.878017,145.158789 L39.5424543,152.267793 L39.5424543,152.267793 L34.5373607,142.301899 L34.194091,141.637506 C31.3791741,139.441183 28.8660537,136.883385 26.7196702,134.030206 C26.1660094,133.332594 25.6123486,132.612835 25.1472735,131.870929 C22.0725015,127.406269 19.6767782,122.510336 18.0382689,117.34287 C16.7641962,113.435325 16.0411676,109.369221 15.890065,105.261991 L15.8014792,105.095893 L14.5391326,102.593346 L11.8483411,97.4443008 L10.7410195,95.2296576 L21.736723,88.8625584 L21.736723,88.8625584 L22.4786285,88.430703 L22.7886785,88.2535315 C24.4762689,87.2970222 26.3855206,86.8006167 28.3252865,86.8137493 C31.5054508,86.9210698 34.6019238,87.8603205 37.3056647,89.5380246 C49.2425916,96.480931 58.8873627,114.20915 58.8873627,129.191211 Z" id="Path" fill="#263238"></path>
                <path d="M3.3219648,111.551578 C3.3219648,124.474021 10.4974088,139.433936 20.097887,147.705628 C20.097887,147.705628 20.097887,147.705628 20.097887,147.705628 C21.5635608,148.97346 23.1425906,150.103987 24.8150771,151.082959 C36.7187843,157.970499 46.3746286,151.381936 46.3635649,136.388801 C46.3635649,125.071975 40.8269474,112.171678 33.0756962,103.589936 C33.0756962,103.589936 33.0756962,103.589936 33.0092569,103.523496 C30.6510998,100.883794 27.9026154,98.6207754 24.8593699,96.8131275 C12.9113699,89.9920264 3.3219648,96.5695167 3.3219648,111.551578 Z" id="Path" fill="#37474F"></path>
                <path d="M24.8040038,105.904238 C17.2409973,101.530318 11.0953624,106.081409 11.0953624,116.080523 C11.0953624,126.079637 17.2409973,137.717587 24.8040038,142.091508 C32.3670104,146.465428 38.5237185,141.903263 38.5237185,131.915222 C38.5237185,121.927181 32.3780836,110.278158 24.8040038,105.904238 Z" id="Path" fill="#455A64"></path>
                <path d="M3.3219648,111.551578 C3.3219648,124.474021 10.4974088,139.433936 20.097887,147.705628 C13.4303875,140.154279 8.73597248,131.069787 6.4335385,121.262788 C4.60645786,112.62568 5.3262169,100.223678 12.712052,97.0899579 C20.097887,93.9562378 29.9198296,100.555874 33.0092569,103.567789 C30.6510998,100.928087 27.9026154,98.6650683 24.8593699,96.8574204 C12.9113699,89.9920264 3.3219648,96.5695167 3.3219648,111.551578 Z" id="Path" fill="#455A64"></path>
                <path d="M24.8040038,114.607786 C20.8730122,112.337776 17.6949992,114.696371 17.6949992,119.88971 C17.6949992,125.083048 20.8730122,131.117951 24.8040038,133.38796 C28.7349955,135.657969 31.9240817,133.288301 31.9240817,128.106036 C31.9240817,122.923771 28.7903616,116.877795 24.8040038,114.607786 Z" id="Path" fill="#E0E0E0"></path>
                <path d="M22.5339946,114.508127 C22.0467399,114.223491 21.5208445,114.010895 20.9726711,113.876953 C19.0016387,114.408468 17.6507063,116.567745 17.6507063,119.88971 C17.777395,123.82768 19.1978429,127.614244 21.6924301,130.663949 C21.9605887,130.873357 22.2416662,131.065673 22.5339946,131.239756 C26.0331308,133.255081 28.8568009,131.162244 28.8568009,126.544712 C28.8568009,121.927181 26.0331308,116.534525 22.5339946,114.508127 Z" id="Path" fill="#F3F2FF"></path>
                <polygon id="Path" fill="#455A64" points="9.77764973 81.1223804 9.77764973 86.3489384 163.595693 175.156131 163.595693 169.929573"></polygon>
                <path d="M57.2485267,113.766221 L48.8439558,108.905079 L48.8439558,137.462903 C48.8439558,139.00208 49.9512774,139.622181 51.2468436,138.847055 L57.8907732,135.026796 L57.2595999,134.650307 L57.2485267,113.766221 Z" id="Path" fill="#3E3CDA"></path>
                <path d="M57.2485267,113.766221 L48.8439558,108.905079 L48.8439558,137.462903 C48.8439558,139.00208 49.9512774,139.622181 51.2468436,138.847055 L57.8907732,135.026796 L57.2595999,134.650307 L57.2485267,113.766221 Z" id="Path" fill="#FFFFFF" opacity="0.7"></path>
                <polygon id="Path" fill="#37474F" points="57.2485267 113.766221 57.2485267 129.434822 95.7279523 151.647693 95.7279523 135.979092"></polygon>
                <polygon id="Path" fill="#263238" points="95.7279523 151.647693 57.2485267 129.434822 55.0117371 130.763608 95.7279523 154.238826"></polygon>
                <polygon id="Path" fill="#455A64" points="55.0228103 133.376887 55.0228103 130.774681 95.7279523 154.238826 95.7279523 156.874251"></polygon>
                <polygon id="Path" fill="#37474F" points="95.7279523 130.752535 95.7279523 162.100809 127.39735 180.382689 127.39735 149.034414"></polygon>
                <polygon id="Path" fill="#37474F" points="127.39735 149.034414 127.39735 180.382689 159.066748 198.664568 159.066748 167.327367"></polygon>
                <polygon id="Path" fill="#263238" points="159.066748 198.664568 168.113565 193.43801 168.113565 167.316294 163.595693 169.929573 159.066748 167.327367"></polygon>
                <polygon id="Path" fill="#263238" points="126.256809 179.718296 126.256809 148.381094 128.515745 149.687734 128.515745 181.024935"></polygon>
                <polygon id="Path" fill="#E0E0E0" points="142.091508 167.969614 142.091508 162.743056 144.350444 164.049695 144.361517 169.276253"></polygon>
                <polygon id="Path" fill="#E0E0E0" points="110.42211 149.698807 110.42211 144.472249 112.681046 145.767815 112.692119 151.005447"></polygon>
                <polygon id="Path" fill="#000000" opacity="0.2" points="93.4136502 129.412675 93.4136502 150.318907 91.2100802 151.63662 91.2100802 154.260972 95.7279523 156.874251 95.7279523 130.752535"></polygon>
                <polygon id="Path" fill="#3E3CDA" points="0.730832256 75.9068957 163.595693 169.929573 163.606766 159.52075 0.730832256 65.4980726"></polygon>
                <g id="Group" opacity="0.6" transform="translate(0.000000, 65.331974)" fill="#FFFFFF">
                    <polygon id="Path" points="0.730832256 10.5749213 163.595693 104.597598 163.606766 94.1887753 0.730832256 0.16609824"></polygon>
                </g>
                <polygon id="Path" fill="#3E3CDA" points="163.595693 169.929573 168.113565 167.316294 168.113565 156.874251 163.595693 159.48753"></polygon>
                <g id="Group" opacity="0.5" transform="translate(162.776275, 156.132346)" fill="#FFFFFF">
                    <polygon id="Path" points="0.819417984 13.7972271 5.33729011 11.1839482 5.33729011 0.741905472 0.819417984 3.35518445"></polygon>
                </g>
                <g id="Group" opacity="0.1" transform="translate(162.776275, 156.132346)" fill="#000000">
                    <polygon id="Path" points="0.819417984 13.7972271 5.33729011 11.1839482 5.33729011 0.741905472 0.819417984 3.35518445"></polygon>
                </g>
                <polygon id="Path" fill="#3E3CDA" points="113.83266 0.155025024 0.730832256 65.4980726 163.595693 159.48753 276.697521 94.1887753"></polygon>
                <g id="Group" opacity="0.8" fill="#FFFFFF">
                    <polygon id="Path" points="113.83266 0.155025024 0.730832256 65.4980726 163.595693 159.48753 276.697521 94.1887753"></polygon>
                </g>
            </g>
            <g id="freepik--Box--inject-125" transform="translate(107.534538, 0.000000)" fill-rule="nonzero">
                <g id="freepik--box--inject-125">
                    <polygon id="Path" fill="#8382E7" points="0.027662656 60.3822468 144.798889 143.962881 248.853899 83.8906844 104.082673 0.310050048"></polygon>
                    <polygon id="Path" fill="#B1B1F0" points="144.798889 274.560391 144.798889 143.962881 0.027662656 60.3822468 0.027662656 190.979756"></polygon>
                    <polygon id="Path" fill="#605EDF" points="144.798889 274.560391 248.853899 214.488194 248.853899 83.8906844 144.798889 143.962881"></polygon>
                </g>
                <path d="M46.7123413,181.8665 L46.7123413,205.817866 C46.7123413,206.736943 46.0590216,207.113432 45.26175,206.648357 L7.8785728,185.055586 C7.0200775,184.503844 6.48006271,183.572215 6.4279815,182.553039 L6.4279815,158.5906 C6.4279815,157.660449 7.08130125,157.295033 7.8785728,157.749035 L45.2728232,179.386099 C46.1170141,179.939583 46.6505666,180.858935 46.7123413,181.8665 L46.7123413,181.8665 Z" id="Path" fill="#F3F2FF"></path>
                <polygon id="Path" fill="#455A64" points="8.74228365 161.181732 9.94926419 161.879345 9.94926419 183.649287 8.74228365 182.951675"></polygon>
                <polygon id="Path" fill="#455A64" points="13.6587916 164.016475 15.7405562 165.245602 15.7405562 187.015545 13.6587916 185.797491"></polygon>
                <polygon id="Path" fill="#455A64" points="18.5752995 166.851219 19.78228 167.548831 19.78228 189.329847 18.5752995 188.632235"></polygon>
                <polygon id="Path" fill="#455A64" points="22.2848268 168.95513 24.6987879 170.394648 24.6987879 192.16459 22.2848268 190.736146"></polygon>
                <polygon id="Path" fill="#455A64" points="28.4083153 172.531778 29.6152958 173.229391 29.6152958 194.999334 28.4083153 194.301721"></polygon>
                <polygon id="Path" fill="#455A64" points="31.9406712 174.524957 34.5318037 176.064134 34.5318037 197.834077 31.9406712 196.305973"></polygon>
                <polygon id="Path" fill="#455A64" points="38.2413311 178.201265 39.4483116 178.898878 39.4372384 200.679894 38.2413311 199.971208"></polygon>
                <polygon id="Path" fill="#455A64" points="41.0428547 179.795808 41.6408084 180.150151 41.6408084 201.920094 41.0428547 201.576824"></polygon>
                <polygon id="Path" fill="#455A64" points="35.9934682 177.016431 36.6024951 177.359701 36.6024951 199.140717 35.9934682 198.786374"></polygon>
                <polygon id="Path" fill="#455A64" points="26.0940131 171.214066 26.70304 171.568409 26.70304 193.338351 26.0940131 192.995082"></polygon>
                <polygon id="Path" fill="#455A64" points="20.6681373 168.102492 21.2771642 168.456835 21.2771642 190.226778 20.6681373 189.883508"></polygon>
                <polygon id="Path" fill="#455A64" points="16.7814385 165.954288 17.3793921 166.308631 17.3793921 188.078574 16.7703652 187.724231"></polygon>
                <polygon id="Path" fill="#455A64" points="11.4995144 162.743056 12.0974681 163.097398 12.0974681 184.867341 11.4995144 184.524071"></polygon>
                <polygon id="Path" fill="#455A64" points="43.157839 181.036008 44.3537463 181.733621 44.3537463 203.514637 43.1467658 202.817024"></polygon>
            </g>
            <g id="freepik--Cab--inject-125" transform="translate(260.472240, 99.658944)" fill-rule="nonzero">
                <g id="freepik--percentage-box--inject-125" transform="translate(205.961818, 88.585728)">
                    <path d="M3.54342912,5.94631699 L11.8704876,1.1073216 C12.4374481,0.694575329 13.1838964,0.622475207 13.8193736,0.919076928 C14.3065951,1.20698054 15.2921113,1.80493421 15.7793328,2.02639853 C16.357259,2.4266703 16.6713063,3.10993533 16.5987508,3.8091863 L16.5987508,23.8074144 C16.4942958,25.7355566 15.4734793,27.4972883 13.8525932,28.5467508 L5.536608,33.4411123 C4.97343604,33.8509916 4.23361096,33.9270879 3.5987952,33.6404302 C3.10050048,33.3525266 2.11498426,32.7434997 1.61668954,32.4666693 C1.0448371,32.0621755 0.735783042,31.3805631 0.808344768,30.6838815 L0.808344768,10.6856534 C0.910301326,8.75957314 1.92676334,6.99825435 3.54342912,5.94631699 L3.54342912,5.94631699 Z" id="Path" fill="#EDE1FF"></path>
                    <path d="M0.797271552,10.6856534 L0.797271552,30.6838815 C0.722296187,31.3809529 1.03188023,32.0637342 1.60561632,32.4666693 C2.09283782,32.7324265 2.8347433,33.2085748 3.5323559,33.5739909 C3.00687453,33.1573175 2.72772377,32.5031881 2.79045043,31.835496 L2.79045043,11.8594143 C2.82070454,10.9088971 3.09528256,9.98219629 3.58772198,9.16862285 L1.60561632,7.99486195 C1.10928801,8.80736869 0.830875538,9.73413898 0.797271552,10.6856534 L0.797271552,10.6856534 Z" id="Path" fill="#EDE1FF"></path>
                    <path d="M13.8525932,28.6021169 L5.536608,33.4411123 C4.01957741,34.3158964 2.80152365,33.6072106 2.80152365,31.8687156 L2.80152365,11.8594143 C2.90525085,9.9338593 3.92128291,8.17328554 5.536608,7.12007789 L13.8636664,2.2810825 C15.380697,1.40629453 16.609824,2.11498426 16.609824,3.86455238 L16.609824,23.8627805 C16.5028751,25.7929894 15.477701,27.555136 13.8525932,28.6021169 L13.8525932,28.6021169 Z" id="Path" fill="#E1CEFF"></path>
                </g>
                <path d="M209.018025,133.808742 C208.770494,133.803191 208.543806,133.668858 208.420072,133.454399 C208.32823,133.295995 208.30347,133.107467 208.351295,132.93072 C208.399121,132.753974 208.515569,132.603654 208.674756,132.513176 L214.477121,129.191211 C214.69059,129.067968 214.821607,128.839746 214.82039,128.593257 L214.82039,106.657217 C214.786403,106.38906 214.910383,106.125403 215.138587,105.980537 C215.366791,105.835671 215.658142,105.835671 215.886346,105.980537 C216.11455,106.125403 216.23853,106.38906 216.204542,106.657217 L216.204542,128.560038 C216.20301,129.303912 215.806736,129.991068 215.16366,130.364972 L209.361295,133.686937 C209.260732,133.759259 209.141682,133.801503 209.018025,133.808742 Z" id="Path" fill="#263238"></path>
                <path d="M36.3644413,247.198474 L59.8950253,236.324576 C59.8950253,236.324576 58.0568715,214.178144 42.5211494,219.482214 C26.9854274,224.786285 36.3644413,247.198474 36.3644413,247.198474 Z" id="Path" fill="#3E3CDA"></path>
                <g id="Group" opacity="0.5" transform="translate(33.219648, 218.142355)" fill="#000000">
                    <path d="M3.14479334,29.0561188 L26.6753773,18.1822207 C26.6753773,18.1822207 24.8372235,-3.96421133 9.30150144,1.33985914 C-6.23422061,6.6439296 3.14479334,29.0561188 3.14479334,29.0561188 Z" id="Path"></path>
                </g>
                <path d="M49.3090308,244.43017 L44.292864,234.37569 L56.340523,227.399564 L56.340523,227.399564 C60.182929,225.184921 65.2766083,225.450678 70.8796556,228.684057 C82.7833628,235.560524 92.428134,253.27767 92.428134,268.270804 C92.428134,276.110641 89.7816353,281.658322 85.5516668,284.171942 L85.5516668,284.171942 L85.3744954,284.271601 L85.3744954,284.271601 L73.0278595,291.402752 L67.6794962,280.794611 C57.5032107,273.065507 49.6965934,257.806615 49.3090308,244.43017 Z" id="Path" fill="#263238"></path>
                <path d="M36.7409307,250.620098 C36.7409307,263.542541 43.9163747,278.502456 53.5279261,286.774148 L53.5279261,286.774148 C54.9991115,288.046514 56.5815502,289.184239 58.2561894,290.173625 C70.1598966,297.039019 79.8157409,290.461529 79.8046772,275.468394 C79.8046772,264.151568 74.2680597,251.251271 66.5168085,242.669529 L66.4503692,242.603089 C64.0952627,239.960213 61.3462572,237.696765 58.3004822,235.89272 C46.3857018,229.060546 36.7409307,235.638036 36.7409307,250.620098 Z" id="Path" fill="#37474F"></path>
                <path d="M58.289409,244.972758 C50.7153293,240.543471 44.5807676,245.149929 44.5807676,255.149043 C44.5807676,265.148157 50.7153293,276.786107 58.289409,281.160027 C65.8634888,285.533948 71.9980504,280.971783 71.9980504,270.983742 C71.9980504,260.995701 65.8634888,249.346678 58.289409,244.972758 Z" id="Path" fill="#455A64"></path>
                <path d="M58.289409,253.676305 C54.3584173,251.461662 51.1804044,253.764891 51.1804044,258.958229 C51.1804044,264.151568 54.3584173,270.18647 58.289409,272.45648 C62.2204007,274.726489 65.4094869,272.356821 65.4094869,267.174556 C65.4094869,261.992291 62.2204007,255.946315 58.289409,253.676305 Z" id="Path" fill="#E0E0E0"></path>
                <path d="M56.0193997,253.576646 C55.5312099,253.29392 55.0055954,253.081438 54.4580763,252.945473 C52.4870438,253.476987 51.1361115,255.636265 51.1361115,258.958229 C51.2615409,262.87344 52.6611718,266.64078 55.1224692,269.688176 C55.3961978,269.895196 55.680818,270.087407 55.9751069,270.263983 C59.4742431,272.279308 62.2979132,270.18647 62.2979132,265.568939 C62.2979132,260.951408 59.518536,255.591972 56.0193997,253.576646 Z" id="Path" fill="#F3F2FF"></path>
                <path d="M36.7409307,250.620098 C36.7409307,263.542541 43.9163747,278.502456 53.5279261,286.774148 C46.8604266,279.222799 42.1660116,270.138307 39.8635776,260.331308 C38.036497,251.6942 38.756256,239.292198 46.1420911,236.158478 C53.5279261,233.024758 63.3498687,239.624394 66.439296,242.636309 C64.0841895,239.993432 61.335184,237.729985 58.289409,235.92594 C46.3857018,229.060546 36.7409307,235.638036 36.7409307,250.620098 Z" id="Path" fill="#455A64"></path>
                <path d="M119.945076,295.42233 L98.6291349,283.108913 L95.8276113,281.492224 L90.4571015,278.369577 L90.4571015,278.369577 L87.9102618,276.885766 C88.0009416,276.64567 88.0387129,276.388825 88.020994,276.132787 C88.1089671,275.74437 88.1425079,275.345608 88.1206529,274.947953 C88.1206529,258.459935 76.5491422,238.40634 62.1982543,230.167868 C60.8515211,229.386101 59.4487731,228.705083 58.0015054,228.130396 L58.0015054,228.130396 C57.3703321,227.886785 56.7723784,227.676394 56.1744248,227.499223 L56.1744248,227.499223 C44.8354516,224.066526 36.3865878,230.954066 36.3865878,245.061343 L36.3865878,247.198474 L0.952296576,226.724098 L0.952296576,65.1990958 L0.952296576,65.1990958 L44.9904766,90.6674926 L83.4366826,118.981706 L100.865925,203.747174 L114.386321,223.612524 L115.10608,224.664479 L123.366699,236.778578 L123.366699,236.778578 L126.046418,269.743542 L126.710811,276.952205 L126.998714,279.919827 L126.998714,279.919827 L127.663107,287.050978 L127.973157,290.372943 C128.141931,292.362142 127.186484,294.279232 125.496605,295.342108 C123.806726,296.404984 121.664961,296.435933 119.945076,295.42233 L119.945076,295.42233 Z" id="Path" fill="#3E3CDA"></path>
                <g id="Group" opacity="0.15" transform="translate(0.000000, 64.224653)" fill="#000000">
                    <path d="M119.945076,231.197677 L98.6291349,218.884261 L95.8276113,217.267571 L90.4571015,214.144924 L90.4571015,214.144924 L87.9102618,212.661113 C88.0009416,212.421017 88.0387129,212.164172 88.020994,211.908135 C88.1089671,211.519718 88.1425079,211.120955 88.1206529,210.7233 C88.1206529,194.235282 76.5491422,174.181688 62.1982543,165.943215 C60.8515211,165.161448 59.4487731,164.480431 58.0015054,163.905743 L58.0015054,163.905743 C57.3703321,163.662132 56.7723784,163.451741 56.1744248,163.27457 L56.1744248,163.27457 C44.8354516,159.841873 36.3865878,166.729413 36.3865878,180.83669 L36.3865878,182.973821 L0.952296576,162.499445 L0.952296576,0.974443008 L0.952296576,0.974443008 L44.9904766,26.4428398 L83.4366826,54.7570531 L100.865925,139.522522 L114.386321,159.387871 L115.10608,160.439827 L123.366699,172.553925 L123.366699,172.553925 L126.046418,205.518889 L126.710811,212.727553 L126.998714,215.695174 L126.998714,215.695174 L127.663107,222.826326 L127.973157,226.14829 C128.141931,228.137489 127.186484,230.05458 125.496605,231.117455 C123.806726,232.180331 121.664961,232.21128 119.945076,231.197677 L119.945076,231.197677 Z" id="Path"></path>
                </g>
                <path d="M62.2314739,121.594985 L62.2314739,173.849491 C62.2314739,175.776231 60.8916148,176.551356 59.2306324,175.587986 L15.890065,150.595738 C14.1105277,149.438259 12.9912469,147.500092 12.8781502,145.380253 L12.8781502,90.379589 C12.8781502,88.4639226 14.2180093,87.6887975 15.890065,88.6410941 L41.9453422,103.689595 C43.6063246,104.652964 46.2085304,106.347166 47.7477074,107.487708 L59.4299503,116.06945 C61.0977198,117.436623 62.1142923,119.441642 62.2314739,121.594985 L62.2314739,121.594985 Z" id="Path" fill="#FFFFFF" opacity="0.273028706"></path>
                <path d="M76.1615796,185.321343 C73.2001399,183.393653 71.3365339,180.168339 71.1454128,176.639942 L71.1454128,130.431411 C71.1454128,127.231252 72.3302469,125.525977 73.7919114,126.622225 L76.43841,128.604331 C78.4083,130.250675 79.8042243,132.480277 80.4247678,134.97143 L91.099348,190.448242 C91.5312035,192.662885 90.3131497,193.493376 88.3974833,192.374982 L76.1615796,185.321343 Z" id="Path" fill="#FFFFFF" opacity="0.329464935"></path>
                <g id="Group" opacity="0.15" transform="translate(6.643930, 78.619834)" fill="#000000">
                    <path d="M57.7911143,34.9581429 L40.2843598,22.2017981 C38.9777203,21.2495015 36.7741503,19.8099834 35.3789251,19.0127119 L4.31855424,1.1073216 C3.62932804,0.617837681 2.72591739,0.549655745 1.97103245,0.930150144 C1.2665439,1.3987153 0.872149783,2.21294831 0.94122336,3.05620762 L0.94122336,143.951808 C1.03399405,145.926944 2.07817347,147.734654 3.74274701,148.801877 L24.1285377,160.561632 C24.5536428,160.828831 25.0438687,160.974367 25.5459093,160.982673 C25.8516151,160.987299 26.1544633,160.922944 26.4317666,160.79417 C26.8065508,160.619429 27.1249259,160.343248 27.3508435,159.996898 C27.5984701,159.622263 27.7644753,159.199704 27.838065,158.756698 C28.5688973,155.036097 30.8278333,148.370021 37.8039594,145.568498 C41.4617366,144.225114 45.4573323,144.108511 49.1872255,145.236301 L49.1872255,145.236301 C51.1511362,145.756534 53.0578963,146.472497 54.8788585,147.373432 C55.67613,147.760994 56.4069623,148.148557 57.0935017,148.480753 C57.7777863,148.975251 58.6763332,149.06002 59.4410235,148.702218 C59.6710558,148.560998 59.8645382,148.367516 60.0057575,148.137484 C60.2803414,147.684581 60.4151597,147.160715 60.3933201,146.631526 L60.3933201,40.0296758 C60.2932725,38.0442349 59.3456119,36.1973049 57.7911143,34.9581429 L57.7911143,34.9581429 Z M58.6216055,147.772068 C58.3483683,147.805488 58.0717774,147.747053 57.8354072,147.605969 L57.8354072,147.605969 L57.6471625,147.517384 C54.6952234,145.786021 51.4889939,144.530435 48.1463432,143.796783 C44.5696503,142.956471 40.8241175,143.195384 37.3831772,144.483322 C30.6728083,147.185187 28.0484561,153.142577 27.0297203,157.195374 L27.0297203,157.195374 C26.8968417,157.671523 26.7971827,158.092305 26.7196702,158.513087 C26.6729827,159.01456 26.3889038,159.463322 25.9556183,159.720068 C25.5363797,159.864689 25.07286,159.793928 24.7154181,159.531823 L4.31855424,147.783141 C3.01834685,146.920768 2.19835082,145.498075 2.10391104,143.940735 L2.10391104,3.03406118 C2.05890207,2.61435651 2.22479548,2.19962299 2.54683968,1.92673958 C2.66248238,1.86493401 2.79226012,1.83439808 2.92332902,1.83784485 C3.2148971,1.85415911 3.4972853,1.94574447 3.74274701,2.10391104 L34.8031179,20.042521 C36.1761967,20.8287193 38.3244006,22.2571642 39.5978204,23.1540947 L57.1156481,35.9215127 C58.3603026,36.9462085 59.1225154,38.4425527 59.2195592,40.0518223 L59.2195592,146.675819 C59.288968,147.08481 59.1473892,147.501218 58.8430698,147.783141 C58.7843015,147.813119 58.7204657,147.831894 58.6548252,147.838507 L58.6216055,147.772068 Z" id="Shape"></path>
                </g>
                <path d="M239.391857,222.42769 C239.391857,222.42769 223.32462,244.640561 188.277892,265.613232 C159.188553,282.998181 127.485936,287.062052 127.485936,287.062052 L123.344553,236.767505 L235.250474,172.144216 L239.391857,222.42769 Z" id="Path" fill="#3E3CDA"></path>
                <g id="Group" opacity="0.3" transform="translate(122.912698, 171.634848)" fill="#000000">
                    <path d="M116.479159,50.7928418 C116.479159,50.7928418 100.411923,73.0057131 65.365194,93.9783842 C36.2758556,111.363333 4.57323821,115.427204 4.57323821,115.427204 L0.431855424,65.1326565 L112.337776,0.509367936 L116.479159,50.7928418 Z" id="Path"></path>
                </g>
                <path d="M235.250474,172.12207 C235.250474,172.12207 219.183238,194.346014 184.136509,215.307612 C155.04717,232.692561 123.344553,236.756431 123.344553,236.756431 L100.910217,203.747174 L212.838285,139.134959 L235.250474,172.12207 Z" id="Path" fill="#3E3CDA"></path>
                <path d="M241.396109,215.019708 C241.196791,214.809317 241.019619,214.842537 240.809228,215.19688 C240.809228,215.19688 224.741992,237.409751 189.68419,258.382422 C160.561632,275.723078 128.881161,279.820168 128.881161,279.820168 C115.283252,281.060369 98.6291349,266.698407 98.6291349,266.698407 L100.921291,265.026352 C100.921291,265.026352 116.711697,276.985425 124.739778,276.985425 C131.660538,276.985425 156.398103,273.840632 189.96102,254.838993 C223.523938,235.837354 238.683171,212.860431 238.683171,212.860431 C239.903746,213.054238 240.933376,213.87374 241.396109,215.019708 L241.396109,215.019708 Z" id="Path" fill="#4D4ACE"></path>
                <path d="M240.798155,215.19688 C240.798155,215.19688 224.719846,237.409751 189.673117,258.382422 C160.594852,275.767371 128.881161,279.831242 128.881161,279.831242 C115.283252,281.071442 98.6291349,266.731627 98.6291349,266.731627 L98.6291349,285.910437 C98.6291349,285.910437 115.238959,300.305618 128.881161,299.021125 C128.881161,299.021125 160.594852,294.946181 189.673117,277.572305 C224.719846,256.621781 240.798155,234.386763 240.798155,234.386763 C243.610752,229.636353 242.414845,212.351063 240.798155,215.19688 Z" id="Path" fill="#B1B1F0"></path>
                <path d="M138.160516,246.810911 C143.16561,245.626077 147.694555,249.025555 148.270362,254.373918 C148.802635,259.79899 145.330748,264.812377 140.065109,266.222259 C137.690956,266.817746 135.174862,266.311574 133.215676,264.844332 C131.25649,263.377091 130.062866,261.105043 129.966336,258.659253 C129.490188,253.299816 133.155422,248.040038 138.160516,246.810911 Z" id="Path" fill="#FFFFFF" opacity="0.254928234"></path>
                <path d="M227.211319,195.840898 C224.166185,198.874959 222.217299,205.374937 222.848472,210.368958 C223.479645,215.362978 226.336535,216.935375 229.215571,213.879167 C232.094607,210.822959 234.043493,204.322982 233.578418,199.351108 C233.113343,194.379234 230.24538,192.806837 227.211319,195.840898 Z" id="Path" fill="#FFFFFF" opacity="0.254928234"></path>
                <path d="M156.829958,240.288787 C166.507049,237.241494 175.797083,233.079558 184.512998,227.886785 C185.89715,227.078441 187.004472,227.709614 187.004472,229.304157 L187.004472,231.330555 C186.923081,233.103602 185.996571,234.730141 184.512998,235.704476 C175.797083,240.897249 166.507049,245.059184 156.829958,248.106478 C156.166724,248.354901 155.422529,248.247124 154.857022,247.820749 C154.291515,247.394375 153.983147,246.708553 154.039508,246.002567 L154.039508,243.976168 C154.111536,242.286059 155.223005,240.817332 156.829958,240.288787 Z" id="Path" fill="#FFFFFF" opacity="0.230673147"></path>
                <path d="M217.035034,207.357043 L217.035034,209.383441 C216.939966,211.200379 216.146496,212.910307 214.82039,214.155997 C208.197781,219.701504 201.273852,224.876891 194.080257,229.6585 C192.751471,230.533284 191.655223,229.93533 191.655223,228.340787 L191.655223,226.336535 C191.77438,224.575767 192.661066,222.956249 194.080257,221.907249 C201.271928,217.122913 208.19571,211.947636 214.82039,206.404746 C216.082737,205.308498 217.035034,205.7625 217.035034,207.357043 Z" id="Path" fill="#FFFFFF" opacity="0.230673147"></path>
                <path d="M156.829958,254.440357 C166.506699,251.396952 175.796757,247.238722 184.512998,242.049429 C185.89715,241.241084 187.004472,241.861184 187.004472,243.4668 L187.004472,245.493199 C186.912501,247.263164 185.988525,248.885255 184.512998,249.867119 C175.79441,255.051892 166.504891,259.209881 156.829958,262.258048 C156.166581,262.512984 155.41864,262.407913 154.851181,261.980067 C154.283722,261.552221 153.976924,260.862053 154.039508,260.154137 L154.039508,258.127738 C154.120856,256.440995 155.228777,254.976956 156.829958,254.440357 L156.829958,254.440357 Z" id="Path" fill="#FFFFFF" opacity="0.230673147"></path>
                <path d="M217.035034,221.563979 L217.035034,223.590377 C216.937162,225.403419 216.143919,227.108891 214.82039,228.35186 C208.197781,233.897367 201.273852,239.072754 194.080257,243.854363 C192.751471,244.74022 191.655223,244.142266 191.655223,242.53665 L191.655223,240.510252 C191.77438,238.749483 192.661066,237.129965 194.080257,236.080965 C201.26683,231.289407 208.190227,226.114418 214.82039,220.578463 C216.082737,219.504361 217.035034,219.958363 217.035034,221.563979 Z" id="Path" fill="#FFFFFF" opacity="0.230673147"></path>
                <g id="Group" opacity="0.15" transform="translate(112.946803, 182.708064)" fill="#000000">
                    <path d="M48.0466842,0.620100096 C33.1622268,8.66641909 17.7499619,15.6955365 1.91566637,21.6592105 C1.24059163,21.8780209 0.711262006,22.4070882 0.49211713,23.0820544 C0.272972255,23.7570207 0.390557691,24.4961254 0.808344768,25.069761 L0.88585728,25.1804932 C1.90237477,26.5740715 3.60948129,27.2867885 5.31514368,27.0297203 C12.1140983,25.5459093 30.4956369,20.76228 53.3396815,8.48208346 C54.0014912,8.13935666 54.4818435,7.52611469 54.656095,6.80148358 C54.8303465,6.07685248 54.6813199,5.31226426 54.2476852,4.7061168 L52.1769938,1.62776275 C51.2456156,0.306726209 49.4817895,-0.123590607 48.0466842,0.620100096 L48.0466842,0.620100096 Z" id="Path"></path>
                </g>
                <g id="Group" opacity="0.15" transform="translate(169.361483, 149.488416)" fill="#000000">
                    <path d="M39.4240045,0.708685824 C27.5365106,10.9461637 14.8008149,20.1552793 1.35428787,28.2367008 C0.701361749,28.6149347 0.237251745,29.2499426 0.0751238376,29.9868877 C-0.08700407,30.7238327 0.0677494761,31.4949905 0.50165024,32.1123264 L2.59448806,35.2128269 C3.52138226,36.5411746 5.31009071,36.9402681 6.71372442,36.1319038 C27.4206383,23.6523894 38.4938543,12.6677591 43.5653873,6.68822246 C44.5981728,5.33341218 44.6820176,3.47999982 43.7757784,2.03747174 L43.2110444,1.19590733 C42.8188064,0.568987386 42.1662408,0.150862711 41.4327733,0.0564984677 C40.6993058,-0.0378657754 39.9621553,0.201465018 39.4240045,0.708685824 Z" id="Path"></path>
                </g>
                <path d="M212.838285,139.079593 C212.838285,139.079593 194.346014,157.671523 163.872524,175.410815 C133.399033,193.150107 100.921291,203.680735 100.921291,203.680735 L83.4256093,118.89312 L153.364042,78.5312479 L185.531734,59.9725379 L195.342603,54.2809048 L212.838285,139.079593 Z" id="Path" fill="#706FB9" opacity="0.151548874"></path>
                <path d="M195.342603,54.2587584 L185.531734,59.9393182 L153.364042,78.5312479 L83.4256093,118.89312 L100.921291,203.680735 L100.921291,203.680735 L102.117198,203.282099 L102.360809,203.204587 L103.578862,202.783805 L104.08823,202.639853 L104.198963,202.639853 L104.309695,202.639853 L105.140186,202.340876 L106.435752,201.886874 L107.720245,201.421799 L108.56181,201.111749 L109.669131,200.70204 L113.411878,199.284668 L114.253443,198.963545 C117.254284,197.800857 120.653762,196.449925 124.341142,194.910748 L127.973157,193.371571 L128.560038,193.116887 L129.224431,192.840057 C129.988483,192.485714 130.785754,192.153517 131.583026,191.799174 L132.269565,191.500198 L133.864108,190.780438 L135.691189,189.96102 C137.019975,189.363067 138.370907,188.731894 139.732913,188.089647 C141.094918,187.4474 142.467997,186.794081 143.852149,186.129688 C144.893031,185.62032 145.933914,185.110952 146.974796,184.579438 L149.499489,183.317091 L149.765246,183.184212 L152.345306,181.844353 L152.555697,181.733621 L154.825706,180.537714 L156.641714,179.563271 C158.118142,178.773381 159.553969,177.97611 160.949195,177.171456 L163.817158,175.53262 L166.430436,173.849491 C167.172342,173.417636 167.903174,172.963634 168.64508,172.520705 C168.92191,172.354607 169.209814,172.188509 169.475571,172.011337 C170.306062,171.513043 171.147626,170.992601 171.955971,170.483234 L172.254948,170.294989 L173.439782,169.54201 C173.960223,169.209814 174.458518,168.877617 174.978959,168.556494 L176.451697,167.582051 L177.913361,166.629754 C178.522388,166.231119 179.131415,165.832483 179.718296,165.422774 C180.925276,164.603356 182.099037,163.806084 183.250652,162.99774 L183.483189,162.831641 L184.811975,161.912564 C186.561543,160.672364 188.244672,159.45431 189.839215,158.28055 L191.035122,157.383619 L192.142444,156.519908 L193.249766,155.656197 C194.002744,155.091463 194.722503,154.548876 195.464409,153.984142 L195.552995,153.917702 L196.449925,153.22009 L198.49847,151.581254 L199.794036,150.551445 C200.059793,150.32998 200.314477,150.108516 200.569161,149.909198 C200.823845,149.70988 201.078529,149.477343 201.32214,149.289098 L202.064046,148.680071 C202.062034,148.661671 202.062034,148.643106 202.064046,148.624705 L203.747174,147.273773 C205.817866,145.524205 207.556361,143.951808 208.929439,142.733754 C209.102759,142.555582 209.287719,142.389118 209.4831,142.23546 L209.593832,142.124727 L210.16964,141.593213 L210.16964,141.593213 C211.797402,140.098329 212.68326,139.212472 212.805065,139.090666 L212.805065,139.090666 L195.342603,54.2587584 Z M157.638303,172.74217 C157.643484,172.764013 157.643484,172.786765 157.638303,172.808609 C157.615795,172.98032 157.582509,173.150445 157.538644,173.317977 L157.538644,173.461929 C157.483278,173.594807 157.438985,173.738759 157.383619,173.871638 C157.362475,173.932639 157.336557,173.991879 157.306106,174.048809 C157.248253,174.214475 157.174067,174.373976 157.084642,174.524957 C156.789783,175.06012 156.390672,175.530769 155.910881,175.909109 C155.753862,176.03518 155.582967,176.142919 155.401513,176.230233 C151.282277,178.444876 147.163041,180.59308 143.143463,182.553039 L141.028479,183.593921 C139.337968,184.398575 137.665912,185.181082 136.012312,185.941443 L133.709083,187.048765 L129.767018,188.798333 C129.113699,189.09731 128.471452,189.37414 127.840279,189.639897 L125.968905,190.448242 C123.488505,191.555564 121.118837,192.485714 118.882047,193.393717 L118.882047,193.393717 C117.697213,193.880939 116.534525,194.334941 115.427204,194.777869 L113.799441,195.409043 C111.130796,196.438852 108.783274,197.324709 106.801168,198.044468 C105.477796,198.58246 103.960074,198.068697 103.235593,196.837488 C103.066361,196.524653 102.94328,196.18898 102.870177,195.840898 L92.1070107,142.224386 C91.7897319,140.22434 92.6847088,138.225848 94.3880932,137.130707 L139.788279,110.920405 C140.482651,110.44661 141.371605,110.362369 142.142616,110.697298 C142.913626,111.032227 143.458769,111.739443 143.586392,112.570314 L154.338485,157.461132 L157.59401,171.059041 L157.649376,171.280505 L157.649376,171.446603 C157.660819,171.50883 157.660819,171.572621 157.649376,171.634848 C157.655451,171.697449 157.655451,171.760491 157.649376,171.823093 C157.660733,171.955729 157.660733,172.089092 157.649376,172.221728 C157.659679,172.395224 157.655976,172.569269 157.638303,172.74217 L157.638303,172.74217 Z M197.634759,147.84958 L197.634759,147.84958 L197.634759,147.84958 L196.837488,148.525046 C194.190989,150.662177 191.179074,152.954333 187.868183,155.467953 C186.760861,156.309517 185.576027,157.151081 184.369046,158.014792 L183.07348,158.956016 C181.312839,160.218362 179.485758,161.480709 177.536872,162.776275 L175.654425,164.038622 C175.023252,164.470477 174.369932,164.891259 173.716613,165.312042 C173.063293,165.732824 172.3989,166.186826 171.734507,166.607608 C169.353766,168.146785 166.884438,169.685962 164.337599,171.202993 C163.656859,171.686654 162.773154,171.780261 162.006194,171.449947 C161.239233,171.119634 160.700076,170.413231 160.583778,169.586303 L160.506266,169.254107 L160.506266,169.254107 L157.239667,155.70049 L146.587233,110.920405 C146.205375,108.925293 147.08409,106.899855 148.801877,105.815652 L157.405765,100.865925 L192.430348,80.6019393 L193.991671,79.716082 L194.12455,79.6496427 C194.803639,79.2308276 195.65003,79.1894065 196.366768,79.5399118 C197.083507,79.8904172 197.570507,80.583904 197.656906,81.3770644 L208.364705,134.528501 C208.609077,136.163337 208.242451,137.830895 207.334896,139.212472 C207.213091,139.400716 207.080212,139.588961 206.947334,139.755059 L206.947334,139.755059 C206.815573,139.907056 206.675075,140.051251 206.526552,140.186915 L205.961818,140.696282 C205.707134,140.939893 205.441376,141.172431 205.175619,141.404968 L202.783805,143.486733 C201.931167,144.228638 200.989944,145.02591 199.993354,145.856401 L197.900516,147.583823 L197.645832,147.783141 L197.634759,147.84958 Z" id="Shape" fill="#3E3CDA"></path>
                <g id="Group" opacity="0.3" transform="translate(83.049120, 54.258758)" fill="#000000">
                    <path d="M112.293483,0 L102.482614,5.68055981 L70.3149216,24.2724895 L0.376489344,64.6343618 L17.8721706,149.421977 L17.8721706,149.421977 L19.068078,149.023341 L19.3116887,148.945828 L20.5297425,148.525046 L21.0391104,148.381094 L21.1498426,148.381094 L21.2605747,148.381094 L22.0910659,148.082118 L23.3866322,147.628116 L24.6711252,147.163041 L25.5126897,146.852991 L26.6200113,146.443282 L30.3627583,145.02591 L31.2043227,144.704787 C34.2051642,143.542099 37.6046415,142.191167 41.2920225,140.65199 L44.9240373,139.112813 L45.5109178,138.858129 L46.1753107,138.581298 C46.9393626,138.226955 47.7366342,137.894759 48.5339057,137.540416 L49.2204451,137.241439 L50.8149882,136.52168 L52.6420689,135.702262 C53.9708548,135.104308 55.3217871,134.473135 56.6837927,133.830889 C58.0457983,133.188642 59.4188771,132.535322 60.8030291,131.870929 C61.8439114,131.361561 62.8847937,130.852193 63.925676,130.320679 L66.4503692,129.058332 L66.7161264,128.925454 L69.2961857,127.585595 L69.5065768,127.474863 L71.7765861,126.278955 L73.5925935,125.304512 C75.0690223,124.514623 76.5048493,123.717351 77.9000746,122.912698 L80.7680375,121.273862 L83.3813165,119.590733 C84.123222,119.158877 84.8540542,118.704876 85.5959597,118.261947 C85.8727901,118.095849 86.1606937,117.92975 86.4264509,117.752579 C87.2569421,117.254284 88.0985065,116.733843 88.9068513,116.224475 L89.2058281,116.03623 L90.3906622,115.283252 C90.9111034,114.951055 91.4093981,114.618859 91.9298392,114.297736 L93.402577,113.323293 L94.8642415,112.370996 C95.4732684,111.97236 96.0822952,111.573724 96.6691757,111.164015 C97.8761562,110.344597 99.0499171,109.547326 100.201532,108.738981 L100.434069,108.572883 L101.762855,107.653806 C103.512423,106.413606 105.195552,105.195552 106.790095,104.021791 L107.986002,103.124861 L109.093324,102.26115 L110.200646,101.397439 C110.953624,100.832705 111.673383,100.290117 112.415289,99.7253833 L112.503875,99.658944 L113.400805,98.9613314 L115.44935,97.3224954 L116.744916,96.2926863 C117.010673,96.071222 117.265357,95.8497577 117.520041,95.6504398 C117.774725,95.4511219 118.029409,95.2185844 118.27302,95.0303397 L119.014926,94.4213128 C119.012914,94.4029123 119.012914,94.3843473 119.014926,94.3659468 L120.698054,93.0150144 C122.768746,91.2654463 124.507241,89.6930496 125.880319,88.4749958 C126.053639,88.2968241 126.238599,88.1303595 126.43398,87.9767011 L126.544712,87.865969 L127.12052,87.3344546 L127.12052,87.3344546 C128.748282,85.8395704 129.63414,84.9537132 129.755945,84.8319078 L129.755945,84.8319078 L112.293483,0 Z M74.589183,118.483411 C74.5943636,118.505255 74.5943636,118.528007 74.589183,118.54985 C74.5666748,118.721561 74.5333895,118.891686 74.489524,119.059218 L74.489524,119.20317 C74.434158,119.336049 74.3898651,119.480001 74.334499,119.612879 C74.3133547,119.67388 74.287437,119.733121 74.2569865,119.790051 C74.1991332,119.955716 74.1249466,120.115218 74.0355222,120.266199 C73.7406633,120.801361 73.3415524,121.272011 72.8617613,121.650351 C72.7047418,121.776422 72.5338466,121.88416 72.3523933,121.971474 C68.233157,124.186117 64.1139206,126.334321 60.0943432,128.294281 L57.979359,129.335163 C56.288848,130.139817 54.6167924,130.922324 52.9631921,131.682685 L50.6599632,132.790006 L46.7178983,134.539574 C46.0645786,134.838551 45.422332,135.115382 44.7911587,135.381139 L42.9197852,136.189484 C40.4393848,137.296805 38.0697166,138.226955 35.832927,139.134959 L35.832927,139.134959 C34.6480929,139.622181 33.4854052,140.076182 32.3780836,140.519111 L30.7503208,141.150284 C28.0816758,142.180093 25.734154,143.065951 23.7520483,143.78571 C22.4286762,144.323702 20.9109536,143.809939 20.1864728,142.578729 C20.0172406,142.265895 19.8941603,141.930221 19.8210566,141.58214 L9.05789069,87.9656279 C8.74061186,85.9655814 9.63558877,83.9670893 11.3389732,82.8719485 L56.7391588,56.6616463 C57.4335313,56.1878517 58.3224851,56.1036107 59.0934956,56.4385395 C59.8645062,56.7734683 60.4096492,57.4806842 60.5372719,58.3115555 L71.2893646,103.202373 L74.5448901,116.800282 L74.6002562,117.021747 L74.6002562,117.187845 C74.6116986,117.250072 74.6116986,117.313863 74.6002562,117.37609 C74.6063313,117.438691 74.6063313,117.501733 74.6002562,117.564334 C74.6116125,117.69697 74.6116125,117.830334 74.6002562,117.96297 C74.6105586,118.136466 74.6068555,118.31051 74.589183,118.483411 L74.589183,118.483411 Z M114.585639,93.5908216 L114.585639,93.5908216 L114.585639,93.5908216 L113.788368,94.2662878 C111.141869,96.4034185 108.129954,98.6955742 104.819063,101.209194 C103.711741,102.050759 102.526907,102.892323 101.319926,103.756034 L100.02436,104.697257 C98.2637188,105.959604 96.4366381,107.221951 94.4877521,108.517517 L92.6053054,109.779863 C91.9741321,110.211719 91.3208124,110.632501 90.6674926,111.053283 C90.0141729,111.474065 89.3497799,111.928067 88.6853869,112.34885 C86.3046455,113.888027 83.8353183,115.427204 81.2884787,116.944234 C80.607739,117.427896 79.7240339,117.521502 78.9570737,117.191189 C78.1901135,116.860876 77.6509555,116.154473 77.5346584,115.327545 L77.4571459,114.995348 L77.4571459,114.995348 L74.1905472,101.441732 L63.5381134,56.6616463 C63.1562553,54.6665343 64.03497,52.6410969 65.7527566,51.5568937 L74.3566454,46.6071661 L109.381228,26.3431809 L110.942551,25.4573236 L111.07543,25.3908843 C111.754519,24.9720692 112.60091,24.9306481 113.317648,25.2811534 C114.034387,25.6316588 114.521387,26.3251456 114.607786,27.118306 L125.315585,80.2697428 C125.559957,81.9045791 125.193331,83.5721371 124.285776,84.9537132 C124.163971,85.1419578 124.031092,85.3302025 123.898214,85.4963007 L123.898214,85.4963007 C123.766453,85.6482971 123.625955,85.7924929 123.477432,85.9281562 L122.912698,86.4375241 C122.658014,86.6811348 122.392256,86.9136724 122.126499,87.1462099 L119.734685,89.2279745 C118.882047,89.96988 117.940824,90.7671516 116.944234,91.5976428 L114.851396,93.3250644 L114.596712,93.5243823 L114.585639,93.5908216 Z" id="Shape"></path>
                </g>
                <path d="M92.6938911,132.612835 L193.670548,74.2902061 C195.000537,73.4404306 195.703938,71.8859993 195.464409,70.3259948 L193.626255,61.212738 C193.560864,60.5726419 193.159666,60.015757 192.57321,59.7510531 C191.986754,59.4863491 191.303729,59.5538571 190.780438,59.928245 L89.814855,118.250874 C88.4785127,119.100413 87.7738185,120.662051 88.020994,122.226158 L89.8480746,131.328342 C89.9134656,131.968438 90.3146634,132.525323 90.9011196,132.790027 C91.4875758,133.054731 92.1706008,132.987223 92.6938911,132.612835 L92.6938911,132.612835 Z" id="Path" fill="#FFFFFF" opacity="0.329464935"></path>
                <path d="M157.571864,171.236212 C157.970792,173.202463 157.082345,175.205912 155.35722,176.230233 C139.693963,184.63819 123.448592,191.913452 106.745802,198.000175 C105.931729,198.327719 105.012934,198.26767 104.248417,197.836957 C103.483901,197.406243 102.956473,196.651518 102.814811,195.785532 L102.106125,192.253176 C111.916994,185.122025 135.746555,168.102492 154.039508,157.538644 C154.110835,157.490321 154.184768,157.445961 154.260972,157.405765 L157.571864,171.236212 Z" id="Path" fill="#FFFFFF" opacity="0.382040334"></path>
                <path d="M207.379189,139.245691 C207.147365,139.619422 206.864061,139.95864 206.537625,140.253354 C193.471449,151.880349 179.347024,162.260504 164.348672,171.258359 C163.667932,171.74202 162.784227,171.835627 162.017267,171.505314 C161.250307,171.175 160.711149,170.468597 160.594852,169.641669 L157.272887,155.722637 C171.524981,147.862706 186.358551,141.106713 201.643263,135.514017 L207.379189,139.245691 Z" id="Path" fill="#FFFFFF" opacity="0.382040334"></path>
                <path d="M200.336624,127.74062 L188.10072,120.698054 C185.136231,118.768099 183.272214,115.537959 183.084553,112.00558 L183.084553,86.0388883 L192.463567,80.6130125 L194.013818,79.716082 C194.05817,79.6840043 194.106575,79.6579403 194.157769,79.6385695 L203.016342,125.802807 C203.470344,127.984231 202.25229,128.847941 200.336624,127.74062 Z" id="Path" fill="#FFFFFF" opacity="0.1"></path>
                <path d="M174.170614,91.1879338 L174.170614,109.170837 C174.170614,111.097576 172.830755,111.872701 171.1587,110.909331 L155.600831,101.928953 L157.450058,100.821632 L174.170614,91.1879338 Z" id="Path" fill="#FFFFFF" opacity="0.1"></path>
                <polygon id="Path" fill="#3E3CDA" points="195.342603 54.2698316 83.4256093 118.882047 44.957257 90.6121265 0.919076928 65.1880226 112.836071 0.586880448 156.874251 26.0109844"></polygon>
                <g id="freepik--percentage-box--inject-125" transform="translate(68.653939, 167.205562)">
                    <path d="M3.3219648,5.59197408 L11.6600964,0.752978688 C12.2227382,0.339879275 12.9662783,0.267649666 13.5979092,0.564734016 L15.5689417,1.73849491 C16.1427684,2.13625711 16.4529539,2.81611558 16.3772865,3.51020947 L16.3772865,23.5084376 C16.2753299,25.4345179 15.2588679,27.1958367 13.6422021,28.247774 L5.30407046,33.0867694 C4.74264652,33.501189 4.00028624,33.5775461 3.36625766,33.2860873 C2.87903616,32.9981837 1.88244672,32.3891568 1.39522522,32.1123264 C0.821489122,31.7093913 0.511905083,31.02661 0.586880448,30.3295386 L0.586880448,10.3313105 C0.690607655,8.40575549 1.70663971,6.64518174 3.3219648,5.59197408 L3.3219648,5.59197408 Z" id="Path" fill="#EDE1FF"></path>
                    <path d="M0.5536608,10.3313105 L0.5536608,30.3406118 C0.480446972,31.0343083 0.790087077,31.7129716 1.36200557,32.1123264 C1.83815386,32.3780836 2.59113254,32.8542319 3.27767194,33.219648 C2.75219056,32.8029746 2.4730398,32.1488452 2.53576646,31.4811531 L2.53576646,11.5050714 C2.57252435,10.5710612 2.84282821,9.66116509 3.3219648,8.8585728 L1.32878592,7.6848119 C0.854828564,8.4890002 0.588449232,9.39849535 0.5536608,10.3313105 Z" id="Path" fill="#EDE1FF"></path>
                    <path d="M13.6089825,28.247774 L5.27085082,33.0867694 C3.76489344,33.9615535 2.53576646,33.2528676 2.53576646,31.5143727 L2.53576646,11.5161446 C2.64132064,9.58817438 3.65648443,7.82499518 5.27085082,6.76573498 L13.6089825,1.92673958 C15.1149398,1.06302874 16.3440668,1.76064134 16.3440668,3.51020947 L16.3440668,23.5084376 C16.2421103,25.4345179 15.2256482,27.1958367 13.6089825,28.247774 L13.6089825,28.247774 Z" id="Path" fill="#E1CEFF"></path>
                </g>
                <path d="M89.6930496,198.7753 C91.3501741,199.859926 92.3908009,201.669712 92.4945732,203.647515 C92.4945732,205.441376 91.2432998,206.172209 89.6930496,205.275278 C88.0332367,204.193192 86.9917508,202.381912 86.891526,200.403063 C86.891526,198.609202 88.1427994,197.87837 89.6930496,198.7753 Z" id="Path" fill="#37474F"></path>
                <path d="M79.8378874,208.176461 C79.4718582,208.172186 79.1132049,208.072984 78.7970051,207.888557 C78.1531695,207.522259 77.7588565,206.835391 77.767196,206.094696 L77.767196,185.808564 C77.7332087,185.540408 77.8571884,185.276751 78.0853924,185.131885 C78.3135963,184.987019 78.6049476,184.987019 78.8331516,185.131885 C79.0613556,185.276751 79.1853352,185.540408 79.151348,185.808564 L79.151348,206.116843 C79.14272,206.365228 79.2757724,206.596997 79.4946177,206.714796 C79.7057336,206.842194 79.9700411,206.842194 80.1811571,206.714796 L89.3497799,201.421799 C89.5081838,201.329957 89.6967121,201.305197 89.8734588,201.353023 C90.0502056,201.400848 90.2005247,201.517297 90.2910033,201.676483 C90.4769407,202.010639 90.364238,202.43205 90.0363193,202.62878 L80.8344768,207.910704 C80.5293018,208.080174 80.1869249,208.171475 79.8378874,208.176461 L79.8378874,208.176461 Z" id="Path" fill="#263238"></path>
            </g>
            <g id="freepik--Character--inject-125" transform="translate(128.700970, 172.742170)" fill-rule="nonzero">
                <g id="freepik--character--inject-125">
                    <g id="freepik--Bottom--inject-125" transform="translate(8.858573, 63.117331)">
                        <path d="M1.74956813,92.1402303 C1.28857596,93.1438986 1.10503594,94.2527862 1.21805376,95.351463 C1.61305835,96.7746331 1.79222545,98.249029 1.74956813,99.7253833 C1.57239667,101.940026 1.09624838,102.615493 0.930150144,104.15467 C0.688441219,105.69661 1.02353958,107.273544 1.8713735,108.583956 C2.82367008,110.012401 4.94972755,111.152942 8.8585728,110.865039 C12.0255126,110.632501 13.3653717,108.860786 13.3653717,106.989413 L1.74956813,92.1402303 Z" id="Path" fill="#263238"></path>
                        <path d="M3.3219648,90.2688568 C5.31514368,91.3761784 8.57066918,90.0806122 10.9957035,88.7850459 L13.5425432,73.7254721 L2.52469325,71.2782914 L3.3219648,90.2688568 Z" id="Path" fill="#FFA8A7"></path>
                        <path d="M2.50254682,87.5891386 C2.41932767,87.9976841 2.37116857,88.4125933 2.35859501,88.8293388 C2.27000928,89.560171 2.07069139,90.2688568 1.92673958,91.043982 C1.92673958,91.2322266 1.84922707,91.4315445 1.81600742,91.6197892 C1.7218539,93.0974183 1.77005985,94.5806782 1.95995923,96.0490756 C1.90767161,97.8046964 1.66635903,99.5495719 1.24020019,101.253487 C0.642246528,104.365061 0.653319744,106.302874 3.45484339,108.329272 C4.86545057,109.261809 6.55720443,109.673 8.2384727,109.49196 C9.60047827,109.49196 11.482925,109.126544 12.1694644,108.384638 C12.7401823,107.899889 13.1303877,107.23654 13.276786,106.502191 C13.276786,103.180227 11.9369268,99.4706993 11.5825839,96.2151738 C11.4559672,95.3389274 11.4004201,94.4538765 11.4164857,93.5686752 C11.4939982,92.4613536 11.8261947,91.354032 11.9037072,90.2467104 C11.9777985,89.8382547 11.91145,89.4167464 11.7154625,89.0508031 C11.3276184,88.6507028 10.7885425,88.4334633 10.2316516,88.4528494 C8.7921335,88.3199708 7.35261542,88.2313851 5.90202413,88.176019 C5.55760835,88.1215952 5.20586618,88.2095307 4.92758112,88.4196298 C4.66182394,88.6743137 4.67289715,89.1061692 4.60645786,89.4715853 C4.54001856,89.8370014 4.28533459,90.2688568 3.91991846,90.2134908 C3.67534153,90.1508793 3.49475157,89.9438615 3.46591661,89.6930496 C3.46591661,89.4494388 3.24445229,87.5559189 3.24445229,87.3123082 C3.17801299,87.3344546 2.66864506,87.2680153 2.50254682,87.5891386 Z" id="Path" fill="#37474F"></path>
                        <path d="M13.53147,105.937457 C13.5294071,105.245312 13.3461594,104.565769 12.9999556,103.966425 C11.3943393,101.087389 3.33303802,101.286707 0.919076928,104.309695 C0.781346049,105.951439 1.5662124,107.533969 2.95654867,108.417858 C4.35177389,109.45874 6.55534387,109.602692 8.36027808,109.525179 C9.76684857,109.524542 11.140587,109.100072 12.302343,108.307126 C13.0992099,107.787393 13.5656021,106.888222 13.53147,105.937457 L13.53147,105.937457 Z" id="Path" fill="#455A64"></path>
                        <path d="M24.0510252,90.7117855 C25.734154,94.3548735 28.3806526,92.9264287 31.8022764,90.5567604 L33.474332,68.7535981 L22.9104839,71.6104879 L24.0510252,90.7117855 Z" id="Path" fill="#FFA8A7"></path>
                        <path d="M45.7323821,99.0277707 C45.9300592,99.6164299 45.8943891,100.258492 45.6327231,100.821632 C45.3780392,101.342073 42.6318816,102.892323 38.9334275,102.648712 C36.1834655,102.4502 33.5354343,101.52549 31.2596888,99.968994 C29.8320388,99.1300757 28.1978334,98.7080978 26.5424988,98.7509403 C24.7043449,98.6512813 22.301457,97.7322044 21.891748,96.8684936 C21.6859099,96.0998234 21.7090013,95.2877761 21.9581873,94.532045 L45.7323821,99.0277707 Z" id="Path" fill="#263238"></path>
                        <path d="M32.7656461,87.4784064 C32.8997975,87.7481163 33.0181125,88.0254171 33.1199891,88.3088976 C33.5327619,89.3339485 34.1996308,90.2370795 35.0578019,90.9332498 C36.3010796,91.8737232 37.645597,92.6722625 39.066306,93.3139912 C39.9521633,93.7569199 40.9044599,93.9119449 41.8124636,94.2662878 C42.8441948,94.6447449 43.8347991,95.1270616 44.7690123,95.7058059 C45.5016223,96.2048956 45.9400074,97.033991 45.9400074,97.9204491 C45.9400074,98.8069072 45.5016223,99.6360026 44.7690123,100.135092 C41.8999608,101.44156 38.6550719,101.665752 35.6336091,100.766266 C33.4854052,100.157239 31.1046637,97.865083 28.2809937,97.6436187 C26.4871327,97.4996669 23.0987286,97.0013722 21.9471141,95.6393666 C21.581698,93.6572609 22.0910659,93.1146733 22.556141,91.4647642 C22.8068429,90.5309385 22.9590076,89.5734142 23.0101428,88.6078744 C23.0101428,88.0985065 22.7554589,86.6257688 23.8295608,86.4928902 L23.8295608,87.6002118 C23.8295608,87.6002118 24.0178055,87.9767011 25.1251271,88.2203119 C25.47947,88.2978244 25.7452272,88.7739727 25.9223987,89.2169013 C26.0995701,89.65983 26.1992291,89.9809532 26.553572,89.9920264 C26.8073387,89.9747626 27.0298923,89.8164071 27.1293792,89.5823174 C27.2234256,89.3518382 27.3011301,89.1150242 27.3619167,88.8736316 C27.6858884,88.1132753 28.3244169,87.5313253 29.1114849,87.2790885 C29.7569862,87.0915043 30.4222019,86.9800157 31.0935905,86.946892 C31.6140317,86.891526 32.0348139,86.6922081 32.4777425,87.1351367 C32.5887726,87.2360326 32.6856213,87.351506 32.7656461,87.4784064 Z" id="Path" fill="#37474F"></path>
                        <path d="M22.7997517,90.2910033 C22.7222392,90.7007123 22.6447267,91.099348 22.5339946,91.4979838 C22.0689195,93.147893 21.5595516,93.712627 21.9249677,95.6725862 C22.810825,96.7134685 25.0143949,97.2560561 26.7971827,97.5107401 C27.4062096,94.122336 25.2912253,91.5865695 22.7997517,90.2910033 Z" id="Path" fill="#455A64"></path>
                        <path d="M4.10816314,3.73167379 C3.64308806,17.8500242 3.84240595,23.5084376 3.89777203,49.4751291 C2.69710807,53.4567463 2.05610192,57.5860184 1.99317888,61.7442524 C1.81600742,68.2442302 2.50254682,81.6760412 2.50254682,81.6760412 C2.50254682,81.6760412 7.88412979,84.998006 12.4684412,82.3625806 C12.4684412,82.3625806 16.1226025,62.59689 17.5289009,53.572219 C18.7580279,45.6105767 20.0203745,33.9615535 20.0203745,33.9615535 L21.7810159,50.5160114 C21.2791229,54.6898461 21.1790049,58.9022188 21.482039,63.0951848 C21.7810159,67.3472997 22.9437036,82.3404342 22.9437036,82.3404342 C22.9437036,82.3404342 27.8159186,85.7399115 32.909598,83.0159004 C32.909598,83.0159004 35.3014126,53.1846564 35.3789251,49.3201041 C35.4564376,44.8908177 33.7400892,0.143951808 33.7400892,0.143951808 L4.10816314,3.73167379 Z" id="Path" fill="#455A64"></path>
                        <path d="M19.9871549,33.9283338 L22.6557999,18.5144172 C22.6557999,18.5144172 28.4470919,18.0050492 31.6583245,14.7716701 C31.6583245,14.7716701 31.0825173,17.9496831 23.7963412,19.8432031 L21.1276961,35.3457055 L21.7477962,50.4384989 L19.9871549,33.9283338 Z" id="Path" fill="#263238"></path>
                        <path d="M44.8354516,95.6172202 C44.0015071,95.1659468 43.1264595,94.795164 42.2221726,94.5098986 C38.8418853,94.7631184 36.2601517,97.6327957 36.3644413,101.02095 C39.1691563,101.795194 42.1583758,101.539873 44.7911587,100.301191 C45.5435822,99.7619834 45.9935263,98.8960883 46.0022794,97.9704486 C46.0110325,97.0448089 45.5775437,96.1705598 44.8354516,95.6172202 L44.8354516,95.6172202 Z" id="Path" fill="#455A64"></path>
                    </g>
                    <g id="freepik--Top--inject-125">
                        <g id="freepik--Arm--inject-125" transform="translate(32.112326, 25.468397)">
                            <path d="M1.24020019,5.20441152 C3.73167379,5.13797222 8.38242451,5.08260614 11.6158036,9.26828179 C13.8968861,12.2137572 20.1311067,19.3116887 23.6413162,23.9735126 C26.1327898,21.5041855 32.1566193,15.5246488 33.1642819,13.7529343 C34.1129866,12.093274 34.8920467,10.3422437 35.4896573,8.52637632 C35.8786395,7.46758299 36.1641845,6.37361203 36.3422949,5.2597776 C36.5714588,3.88824355 36.6383585,2.49449931 36.5416128,1.1073216 C36.5416128,-0.132878592 38.3797667,0.542587584 39.0441596,2.53576646 C39.3721919,3.63824225 39.5253852,4.78532337 39.4981615,5.93524378 L42.5211494,4.55109178 C43.628471,4.07494349 47.0943876,2.94547546 47.3822913,4.89436147 C47.3498821,5.3355799 47.3797029,5.77916386 47.470877,6.21207418 C47.5763538,6.39300248 47.6987039,6.56355097 47.8362931,6.72144211 C48.3026422,7.3662532 48.3871865,8.21169641 48.0577574,8.93608531 C47.8839331,9.24572424 47.8104257,9.6016547 47.8473663,9.95482118 C47.9179114,10.3205577 47.9179114,10.6964063 47.8473663,11.0621428 C47.7220488,11.3418944 47.5700093,11.6088907 47.3933645,11.8594143 C47.2187632,12.2062684 47.1063288,12.5810497 47.061168,12.9667359 C47.0187924,13.3477386 46.9218316,13.7206647 46.7732644,14.0740575 C46.3746286,14.9266952 45.3337463,15.1038666 44.5586212,15.3696238 C43.3263219,15.7510373 42.1141018,16.1945325 40.9266063,16.6984097 C38.9777203,17.9275367 33.5850641,27.1625988 28.2034812,33.0424765 C26.3542541,35.0578019 24.7154181,36.3090753 23.0101428,36.0433181 L23.0101428,36.0433181 C21.6259908,35.987952 19.9539352,34.6923857 18.3483189,33.2307212 C13.2214199,28.6021169 4.93865434,19.942862 4.93865434,19.942862 C1.48381094,15.7461132 0.77512512,8.05022803 1.24020019,5.20441152 Z" id="Path" fill="#FFA8A7"></path>
                            <path d="M1.24020019,5.20441152 C3.63830396,4.87612233 6.07998798,5.26124599 8.26061914,6.31173312 C10.4752623,7.41905472 10.918191,8.11666733 13.0110288,10.5749213 C15.1038666,13.0331752 18.0161224,16.7316294 18.0161224,16.7316294 C18.0161224,16.7316294 16.3662132,23.7299019 9.55618541,25.4683968 L0.586880448,15.0485005 L1.24020019,5.20441152 Z" id="Path" fill="#455A64"></path>
                            <path d="M40.8490938,6.18992774 C39.7417722,6.53319744 39.4870883,7.29724934 39.5313811,8.80320672 C39.5313811,9.72228365 39.2988436,11.4275589 38.3022541,12.1251715 C38.7823779,12.0685803 39.2340821,11.8678229 39.5978204,11.5493643 C40.0739687,11.0621428 40.1957741,11.0067767 40.4615313,11.2836071 C40.6628809,11.4623233 40.9010303,11.5946285 41.1591439,11.6711697 C40.8130389,12.0726189 40.7724778,12.6539947 41.0594849,13.0996145 C41.5467064,13.8858129 43.6949103,13.8858129 45.4887713,12.9556627 C45.4887713,12.9556627 42.6318816,13.8747396 41.9564154,12.9556627 C41.2809492,12.0365858 42.7979798,10.8960445 43.9274479,10.5749213 C43.9274479,10.5749213 41.1591439,11.2614607 40.7272884,10.3645302 C40.295433,9.46759968 41.4359743,8.75891386 43.063737,8.32705843 C43.063737,8.32705843 40.7826545,8.75891386 40.3840188,7.99486195 C40.0608321,7.36211772 40.2603747,6.5877024 40.8490938,6.18992774 L40.8490938,6.18992774 Z" id="Path" fill="#F28F8F"></path>
                        </g>
                        <path d="M42.0782208,41.4581207 C41.4581207,36.9291754 40.860167,30.8389066 33.8397481,30.5620762 L24.7154181,30.1302207 C22.5007749,30.706028 12.5348805,33.5961373 12.5348805,33.5961373 L12.5348805,47.9913181 C12.5348805,47.9913181 12.867077,54.0040744 13.276786,61.5892274 C13.276786,61.5892274 12.457368,70.4478002 12.5348805,73.8915704 C19.0237851,77.9997335 36.242636,76.8259726 43.0858835,72.695663 C43.4070067,66.439296 42.7315405,45.9427732 42.0782208,41.4581207 Z" id="Path" fill="#3E3CDA"></path>
                        <path d="M30.8831994,15.7461132 L16.609824,15.0042077 C13.8968861,17.1524116 8.8585728,21.6481373 8.8585728,22.8772643 L8.8585728,22.8772643 L8.8585728,23.7299019 L8.8585728,23.7299019 C8.84903732,23.7624373 8.84903732,23.7970255 8.8585728,23.8295608 C9.37901395,24.7818574 11.2171678,25.3355182 14.0519111,25.324445 C17.3738759,25.324445 22.6336535,24.8925896 24.0178055,23.685609 C26.044204,21.8585284 30.8942726,16.5544579 30.8942726,16.5544579 L30.1745136,16.5544579 L30.8831994,15.7461132 Z" id="Path" fill="#3E3CDA"></path>
                        <path d="M30.8831994,15.7461132 L16.609824,15.0042077 C13.8968861,17.1524116 8.8585728,21.6481373 8.8585728,22.8772643 L8.8585728,22.8772643 L8.8585728,23.7299019 L8.8585728,23.7299019 C8.84903732,23.7624373 8.84903732,23.7970255 8.8585728,23.8295608 C9.37901395,24.7818574 11.2171678,25.3355182 14.0519111,25.324445 C17.3738759,25.324445 22.6336535,24.8925896 24.0178055,23.685609 C26.044204,21.8585284 30.8942726,16.5544579 30.8942726,16.5544579 L30.1745136,16.5544579 L30.8831994,15.7461132 Z" id="Path" fill="#000000" opacity="0.2"></path>
                        <path d="M16.609824,15.8014792 C13.7640075,18.0161224 8.38242451,22.8772643 8.91393888,23.8295608 C9.44545325,24.7818574 11.2725339,25.3355182 14.1072772,25.324445 C17.429242,25.324445 22.6890196,24.8925896 24.0731716,23.685609 C26.0995701,21.8585284 30.9496387,16.5544579 30.9496387,16.5544579 L16.609824,15.8014792 Z" id="Path" fill="#3E3CDA"></path>
                        <path d="M16.609824,15.8014792 C13.7640075,18.0161224 8.38242451,22.8772643 8.91393888,23.8295608 C9.44545325,24.7818574 11.2725339,25.3355182 14.1072772,25.324445 C17.429242,25.324445 22.6890196,24.8925896 24.0731716,23.685609 C26.0995701,21.8585284 30.9496387,16.5544579 30.9496387,16.5544579 L16.609824,15.8014792 Z" id="Path" fill="#000000" opacity="0.4"></path>
                        <path d="M16.609824,15.8014792 C16.609824,16.2222614 18.0493421,17.0527526 18.0493421,17.0527526 L17.584267,14.5502058 L16.609824,15.8014792 Z" id="Path" fill="#3E3CDA"></path>
                        <path d="M16.609824,15.8014792 C16.609824,16.2222614 18.0493421,17.0527526 18.0493421,17.0527526 L17.584267,14.5502058 L16.609824,15.8014792 Z" id="Path" fill="#000000" opacity="0.3"></path>
                        <path d="M39.1438186,6.4335385 C38.4490371,5.14927965 37.4630047,4.04568182 36.2647824,3.21123264 C34.1497981,1.74956813 31.4147138,1.51703059 28.8457277,1.61668954 C27.206774,1.64606509 25.5792044,1.89560093 24.0067323,2.35859501 C20.9818366,3.28153678 18.5920304,5.61355833 17.5953402,8.61496205 C16.3791679,12.3222309 16.8699119,16.3779659 18.9351994,19.688178 C19.8321299,21.0944765 20.4079371,22.6225803 21.1498426,24.1174644 C21.7810159,25.3465914 22.2571642,26.3321076 22.2571642,26.3321076 L22.0467731,22.4454088 L25.7452272,22.1242856 C26.8092931,21.9446361 27.8901856,21.8852056 28.9675331,21.9471141 C29.980592,21.9957926 30.9778196,21.6817052 31.7801299,21.0612568 C33.5297145,19.9474259 35.1985314,18.7115393 36.7741503,17.3628027 C37.8008018,16.5416035 38.7066347,15.579855 39.4649418,14.505913 C39.6409827,14.2568614 39.7965184,13.9939321 39.9300169,13.7197146 C40.1745115,13.2559447 40.3392185,12.754337 40.4172384,12.2359037 C40.5460692,11.5051029 40.5795683,10.7606788 40.5168973,10.0212605 C40.3825611,9.26095312 40.1634195,8.51810048 39.8635776,7.80661728 C39.649027,7.3360678 39.408744,6.87768182 39.1438186,6.4335385 L39.1438186,6.4335385 Z" id="Path" fill="#263238"></path>
                        <path d="M29.5433403,9.64477114 C28.7028788,9.53313736 27.8706133,9.36668426 27.0518667,9.14647642 L26.8193292,9.14647642 C26.2041198,11.025818 24.6420814,12.4404943 22.711166,12.867077 C23.0076688,14.4151772 23.0450883,16.0017635 22.8218982,17.5621206 C22.7605003,17.8978644 22.6405608,18.2202017 22.4675553,18.5144172 C22.2798635,18.8007036 21.9765426,18.9907847 21.6370641,19.0348583 C21.1830622,19.0348583 20.9948175,18.7912476 20.8508657,18.4369046 C20.6551271,17.9811957 20.425643,17.5407342 20.1643263,17.1191919 C20.0558257,16.9316611 19.9216494,16.7602137 19.7656906,16.609824 C19.2396629,16.052874 18.4631512,15.8073391 17.7125483,15.9606153 C16.9619453,16.1138916 16.3438657,16.644208 16.0783096,17.3628027 C15.3456587,19.6144171 16.4042868,22.0592308 18.5476368,23.0655089 C21.3934533,23.8517073 22.0024802,21.9581873 22.0024802,21.9581873 L22.556141,32.09018 C24.095318,33.6957963 29.9419761,35.9104395 31.6251049,37.8150326 C32.3780836,36.5194664 34.5373607,33.3303802 31.6915442,31.525446 L31.580812,28.4360187 C32.8408825,28.5931994 34.1141282,28.6154719 35.3789251,28.502458 C37.4385433,28.1148954 38.4572792,26.3764005 39.01094,24.0731716 C39.8967972,20.4411567 39.7860651,13.53147 39.5092347,10.7853124 C39.4321897,9.80581113 39.2878977,8.8327652 39.0773793,7.87305658 C39.165965,8.14988698 37.1284932,8.98037818 36.8627361,8.98037818 C35.9443467,9.28946297 34.9929773,9.49014244 34.0279928,9.57833184 C32.9243579,9.68909404 31.814811,9.72977743 30.706028,9.70013722 C30.3177306,9.70366484 29.9295454,9.68517983 29.5433403,9.64477114 Z" id="Path" fill="#FFA8A7"></path>
                        <path d="M31.580812,28.347433 C29.4409811,28.0095787 27.3359423,27.4796129 25.2912253,26.7639631 C24.3279869,26.2965572 23.5260581,25.5524599 22.9879964,24.6268324 C23.265029,25.5602922 23.724171,26.4296512 24.3389288,27.1847453 C25.5680557,28.657483 31.6140317,29.321876 31.6140317,29.321876 L31.580812,28.347433 Z" id="Path" fill="#F28F8F"></path>
                        <path d="M29.5987064,16.3329936 C29.5985505,16.8070903 29.2162694,17.1924419 28.7421891,17.1963905 C28.2681088,17.2003391 27.8794621,16.8214085 27.8714093,16.3473802 C27.8633565,15.8733518 28.2389082,15.4814391 28.7128491,15.4692828 C28.9457321,15.4633094 29.1711531,15.5516634 29.3379522,15.7142925 C29.5047514,15.8769217 29.598783,16.100034 29.5987064,16.3329936 Z" id="Path" fill="#263238"></path>
                        <path d="M28.4360187,12.0919519 L26.2213755,12.7452716 C26.0481389,12.1347927 26.3914751,11.4971683 26.9965006,11.3057535 C27.2916016,11.2033156 27.6162423,11.2302855 27.8903943,11.3800147 C28.1645463,11.5297438 28.3627039,11.7883023 28.4360187,12.0919519 Z" id="Path" fill="#263238"></path>
                        <path d="M29.8976832,22.3568231 L33.0867694,23.4641447 C32.9593478,23.8931824 32.6641759,24.252642 32.2681222,24.4610913 C31.8720685,24.6695406 31.4086531,24.7093375 30.9828584,24.5714663 C30.0738752,24.2570392 29.5891615,23.2678276 29.8976832,22.3568231 L29.8976832,22.3568231 Z" id="Path" fill="#B16668"></path>
                        <path d="M30.2741725,23.0212106 C30.1348884,23.0208068 29.9964806,23.0432513 29.8644636,23.0876554 C29.9271947,23.7426095 30.3565435,24.3050563 30.9717852,24.5382467 C31.1988749,24.618392 31.4414258,24.644921 31.680471,24.6157592 C31.6854521,24.5753101 31.6854521,24.5344028 31.680471,24.4939538 C31.6870253,23.7035488 31.0640385,23.0511295 30.2741725,23.0212106 L30.2741725,23.0212106 Z" id="Path" fill="#F28F8F"></path>
                        <path d="M38.756256,12.5681002 L36.6855646,11.7819018 C36.906762,11.232007 37.5217441,10.9538008 38.0807898,11.1507285 C38.3587987,11.2484612 38.5863839,11.452978 38.7131605,11.7190011 C38.8399372,11.9850242 38.8554469,12.2906082 38.756256,12.5681002 L38.756256,12.5681002 Z" id="Path" fill="#263238"></path>
                        <path d="M25.3133718,13.3875181 L18.0604153,15.8789917 C18.8814318,15.8816006 19.6530653,16.2715218 20.1421799,16.9309473 L25.2801521,14.9820612 L25.3133718,13.3875181 Z" id="Path" fill="#37474F"></path>
                        <path d="M37.5160558,16.1890418 C37.509665,16.6601624 37.1268769,17.0392352 36.6557164,17.0410374 C36.1845559,17.0428268 35.7988893,16.6666829 35.7889074,16.1956247 C35.7789255,15.7245665 36.1483117,15.3324228 36.6191253,15.3142577 C36.8540747,15.3113025 37.0805732,15.4018111 37.2487843,15.5658688 C37.4169954,15.7299266 37.5131373,15.954092 37.5160558,16.1890418 L37.5160558,16.1890418 Z" id="Path" fill="#263238"></path>
                        <path d="M41.4138278,13.0331752 L40.9487528,12.9778092 C39.3628869,12.7901917 37.7566973,12.8725604 36.1983431,13.2214199 C34.6813125,13.7197146 34.1387249,14.251229 33.2971605,14.2733754 C32.4555961,14.2955219 31.8465692,13.7750807 30.2409529,13.3321521 C28.5652597,13.0581543 26.8561864,13.0581543 25.1804932,13.3321521 C25.0033217,13.3321521 24.8261503,13.3321521 24.6711252,13.3985914 C24.2989357,13.5156433 24.0560051,13.8731638 24.0842448,14.2623022 C24.1364206,14.6323885 24.3028876,14.9769364 24.5603931,15.2478184 C24.6319353,15.3720902 24.6842054,15.5064988 24.7154181,15.6464542 C24.8269591,16.5723189 25.0158643,17.4872126 25.2801521,18.3815386 C25.4333497,18.7433461 25.6467631,19.0765707 25.9113254,19.3670548 C26.014609,19.4679199 26.1256854,19.5604836 26.2435219,19.6438852 L26.4317666,19.7767638 C26.6101853,19.8848814 26.7994688,19.973956 26.9965006,20.042521 L27.0850863,20.042521 L27.2401114,20.042521 L27.3951364,20.042521 C27.5593604,20.076975 27.7259169,20.0991826 27.8934311,20.1089603 L28.3806526,20.1089603 C29.8739386,20.2025723 31.2685322,19.3596376 31.8797889,17.993976 C32.4223764,16.9420205 32.3116443,15.480356 33.2750141,15.4582095 L33.4521855,15.4582095 C34.1497981,15.6132346 34.039066,16.9641669 34.4709214,17.9275367 C34.6349694,18.3113234 34.8592583,18.6664475 35.1353144,18.9794922 C35.1813259,19.0365363 35.2332953,19.0885057 35.2903394,19.1345172 L35.3789251,19.2120298 C35.4030255,19.2434822 35.4331375,19.2698303 35.4675108,19.2895423 L35.5450234,19.3449084 L35.6336091,19.4113476 L35.7000484,19.4113476 L35.7554145,19.4113476 C36.0127005,19.5551099 36.2883755,19.6631447 36.5748324,19.7324709 L36.652345,19.7324709 C36.9832323,19.8038507 37.3217415,19.8336098 37.6600076,19.8210566 C38.9706282,19.8746568 40.1692914,19.0859452 40.6387027,17.8610974 C40.9265649,16.9570151 41.1413378,16.0312699 41.2809492,15.0927934 C41.3137829,14.9577653 41.3783125,14.832502 41.4691939,14.7273773 C41.7170928,14.4396281 41.8749669,14.0853739 41.9231958,13.7086414 C41.9564154,13.4539574 41.679585,13.0553217 41.4138278,13.0331752 Z M31.3593477,17.1081187 C31.2407605,17.6506434 30.9853631,18.1538143 30.6174422,18.5697832 L30.6174422,18.5697832 C30.0163484,19.1729097 29.1866002,19.4911141 28.3363597,19.4445673 C27.4691092,19.5253164 26.62473,19.136902 26.1217165,18.4258314 L26.0552772,18.3150993 C26.0183732,18.2486666 25.9814823,18.1822629 25.9445633,18.1158087 C25.9409282,18.0900991 25.9409282,18.0640058 25.9445633,18.0382962 L25.9445633,17.9607837 C25.9418345,17.9424292 25.9418345,17.9237721 25.9445633,17.9054176 C25.9401535,17.8686386 25.9401535,17.8314644 25.9445633,17.7946854 L25.9445633,17.7946854 C25.9445633,17.6950265 25.8670508,17.5953675 25.8338312,17.4957086 L25.8338312,17.4957086 C25.8338312,17.4957086 25.8338312,17.3739032 25.8338312,17.3185371 C25.8035048,17.2208737 25.781283,17.120876 25.7673919,17.0195603 L25.7673919,16.9088282 C25.6123668,16.1890691 25.4573418,14.7606243 25.7673919,14.4284278 C26.6251505,13.903591 27.6438746,13.7069261 28.6353548,13.874767 L28.801453,13.874767 C29.0339906,13.874767 29.2665281,13.9412063 29.4990656,13.9854991 L29.775896,14.0519384 C30.0090539,14.1071395 30.2383825,14.1774176 30.4624354,14.2623295 L30.6728265,14.3509153 L30.8942909,14.4616474 L30.8942909,14.4616474 L30.9828766,14.4616474 C31.1578789,14.5554997 31.3122622,14.6835249 31.4368784,14.8381368 C31.6785455,15.5804045 31.6510965,16.3840697 31.3593477,17.1081187 L31.3593477,17.1081187 Z M40.4061652,16.6319704 C40.2759626,17.6015622 39.7249997,18.4644674 38.9002078,18.9905654 C38.5526815,19.15416 38.1765128,19.2482022 37.7928862,19.2673958 C36.8804862,19.3638771 35.9922649,18.9347847 35.5007305,18.1600742 L35.5007305,18.1600742 L35.5007305,18.0936349 L35.5007305,18.0161224 L35.5007305,18.0161224 C35.4868901,17.9735772 35.4683185,17.9327197 35.4453644,17.8943171 L35.4453644,17.7614385 L35.4453644,17.6949992 L35.4453644,17.6949992 C35.4453644,17.6949992 35.4453644,17.6949992 35.4453644,17.6396331 C35.4453644,17.584267 35.4453644,17.6396331 35.4453644,17.6396331 C35.3842116,17.467108 35.3397157,17.2891246 35.3124858,17.1081187 C35.1020618,16.3797103 35.1331402,15.6027497 35.4010716,14.8934755 C36.10936,14.2608873 37.0022096,13.8726918 37.9479112,13.7861539 L38.6676703,13.7197146 L39.2877704,13.7197146 L39.4870883,13.7197146 L39.8414312,13.7750807 L39.9189437,13.7750807 L39.9189437,13.7750807 L39.985383,13.7750807 L40.0628955,13.7750807 L40.1625544,13.7750807 L40.3397259,13.84152 L40.3397259,13.84152 C40.4798412,13.8975239 40.6077156,13.9802662 40.7162152,14.0851308 C40.7826545,14.4616201 40.5722634,15.9011382 40.4061652,16.609824 L40.4061652,16.6319704 Z" id="Shape" fill="#263238"></path>
                        <path d="M33.0092569,15.5910881 L33.1753551,21.6259908 L36.4973199,20.6515478 L33.3968195,15.502478 C33.2625011,15.5014929 33.1297986,15.5318249 33.0092569,15.5910881 L33.0092569,15.5910881 Z" id="Path" fill="#F28F8F"></path>
                        <path d="M15.9122114,12.3466358 C15.9649112,13.5515841 16.1962819,14.7420237 16.5987508,15.8789917 C16.8267563,15.4992442 17.1104338,15.1558451 17.4403152,14.8602559 C19.3194066,13.2278802 21.4708204,11.9385312 23.7963412,11.0510696 L23.7963412,11.0510696 C29.0866896,8.80900601 34.9885993,8.46091458 40.5058241,10.0655533 C40.398908,9.03326029 40.1530758,8.02013357 39.7749919,7.05363859 C37.8371791,2.31430214 34.0722856,-0.11073216 28.1591883,0.620100096 C21.2273551,1.49488416 15.5800149,5.4701687 15.9122114,12.3466358 Z" id="Path" fill="#3E3CDA"></path>
                        <path d="M28.5356776,7.83983693 C30.7806632,7.18698131 33.1303905,6.97268618 35.4564376,7.20866362 C36.0107513,6.72621407 36.4886482,6.16244512 36.8738093,5.536608 C37.4163969,4.6396775 37.2060058,3.51020947 36.6634182,3.3219648 C36.1208306,3.13372013 36.1097574,3.79811309 34.0833588,4.85006861 C34.3416379,4.19039098 34.3880807,3.46665627 34.2162374,2.77937722 C33.8618945,1.95995923 33.1864284,3.46591661 31.6915442,4.46250605 C30.19666,5.45909549 28.6907027,5.99060986 28.5356776,7.83983693 Z" id="Path" fill="#263238"></path>
                        <path d="M31.6251049,37.7264469 C30.5177833,37.0288343 28.0595293,35.8218538 26.7971827,37.1617129 C25.5348361,38.501572 24.8704431,38.8891346 24.0399519,38.6455238 C23.2094607,38.4019131 20.5851085,35.7000484 19.6106655,34.2162374 C18.5033439,32.5220354 18.7691011,31.835496 18.7691011,31.835496 L20.8397925,29.1114849 C21.4155997,28.347433 21.6038444,28.2588472 22.3346767,28.2034812 L22.4343356,30.2188065 C22.6043053,31.220304 23.1661436,32.1128699 23.9956591,32.6992068 C26.0552772,34.1055053 30.1080743,34.4819946 31.6251049,37.7264469 Z" id="Path" fill="#455A64"></path>
                        <path d="M31.6251049,37.7264469 C32.3005711,37.0952736 33.8397481,35.5118037 34.9470697,35.8550734 C36.0543913,36.1983431 36.5637592,36.8405896 36.5859057,36.242636 C36.2306662,34.801327 35.6111606,33.4384147 34.758825,32.2230586 C34.0163503,31.0522194 32.9403446,30.1304798 31.6693978,29.5765599 L31.7358371,31.4368602 C31.7358371,31.4368602 33.064623,33.1199891 32.909598,34.1276517 C32.7545729,35.1353144 31.7579835,36.7409307 31.6251049,37.7264469 Z" id="Path" fill="#455A64"></path>
                        <g id="freepik--arm--inject-125" transform="translate(0.000000, 33.219648)">
                            <polygon id="Path" fill="#263238" points="60.5040522 21.7810159 36.4641003 25.9002522 26.963281 54.4359299 49.8626916 49.9180577"></polygon>
                            <path d="M40.0407491,42.9530049 C39.5127595,44.8724546 37.9949376,46.3606811 36.0654645,46.8507769 C33.9231744,47.2548751 31.7114327,47.0712011 29.6651457,46.3192625 L30.4624172,43.9385211 L40.0407491,42.9530049 Z" id="Path" fill="#000000" opacity="0.15"></path>
                            <path d="M53.2510957,25.3908843 L53.5279261,24.5161002 C53.671878,24.0288787 52.2987992,23.8849269 50.4495721,24.194977 L46.906143,24.7929306 C45.0569159,25.1029807 43.4402264,25.7452272 43.2852013,26.2324487 L43.0194442,27.1072328 L53.2510957,25.3908843 Z" id="Path" fill="#000000" opacity="0.15"></path>
                            <path d="M55.1778353,22.146432 C55.2664211,21.8474552 54.7238335,21.7145766 53.9487084,21.8585284 L52.5424099,22.1132124 C52.5424099,22.1132124 53.1182172,20.2086192 50.0177167,20.6183282 C48.3418408,20.7163692 46.8407115,21.6876882 46.0645786,23.1762411 L44.5586212,23.4641447 C43.9063696,23.5212222 43.2967648,23.8122593 42.8422727,24.2835627 L42.6208084,24.8261503 L55.0006639,22.711166 C55.0006639,22.711166 55.0781764,22.456482 55.1778353,22.146432 Z" id="Path" fill="#3E3CDA"></path>
                            <path d="M55.1778353,22.146432 C55.2664211,21.8474552 54.7238335,21.7145766 53.9487084,21.8585284 L52.5424099,22.1132124 C52.5424099,22.1132124 53.1182172,20.2086192 50.0177167,20.6183282 C48.3418408,20.7163692 46.8407115,21.6876882 46.0645786,23.1762411 L44.5586212,23.4641447 C43.9063696,23.5212222 43.2967648,23.8122593 42.8422727,24.2835627 L42.6208084,24.8261503 L55.0006639,22.711166 C55.0006639,22.711166 55.0781764,22.456482 55.1778353,22.146432 Z" id="Path" fill="#000000" opacity="0.3"></path>
                            <path d="M43.4291532,26.3210344 C43.5509585,25.9223987 44.702573,25.4130307 46.1420911,25.069761 L46.1420911,24.9368824 C46.2638964,24.505027 46.1420911,24.2392698 45.2230141,24.3832216 L45.2230141,24.0399519 L53.7936833,22.6336535 L53.417194,22.9769232 C52.3098724,23.1540947 51.8115777,23.2537536 51.5790401,24.0067323 L51.523674,24.1728305 C52.8635332,24.0510252 53.7383172,24.1728305 53.6497315,24.6157592 L53.3729011,25.4905432 L43.1855424,27.2068917 L43.4291532,26.3210344 Z" id="Path" fill="#3E3CDA"></path>
                            <path d="M43.4291532,26.3210344 C43.5509585,25.9223987 44.702573,25.4130307 46.1420911,25.069761 L46.1420911,24.9368824 C46.2638964,24.505027 46.1420911,24.2392698 45.2230141,24.3832216 L45.2230141,24.0399519 L53.7936833,22.6336535 L53.417194,22.9769232 C52.3098724,23.1540947 51.8115777,23.2537536 51.5790401,24.0067323 L51.523674,24.1728305 C52.8635332,24.0510252 53.7383172,24.1728305 53.6497315,24.6157592 L53.3729011,25.4905432 L43.1855424,27.2068917 L43.4291532,26.3210344 Z" id="Path" fill="#000000" opacity="0.4"></path>
                            <path d="M32.2119853,38.6787435 C35.1131679,39.730699 38.3797667,39.4649418 41.4249011,39.5646008 C41.7128047,39.5646008 42.0671476,39.5646008 42.188953,39.885724 C42.2533301,40.1476722 42.1471646,40.421933 41.9231958,40.5722634 C41.7018191,40.7186418 41.5007602,40.8936375 41.3252421,41.0927046 C41.0927046,41.4359743 41.1812903,41.8899761 41.114851,42.2996851 C40.9549519,42.8917719 40.6236462,43.4234019 40.1625544,43.8277889 C39.7215717,44.3563009 39.2069468,44.8187175 38.6344506,45.2008677 C36.5012845,46.2186405 34.0915372,46.5028272 31.7801299,46.0092125 C30.3489804,45.6970082 28.951053,45.2483365 27.6055275,44.6693533 C26.3210344,44.1599854 18.5365636,41.6574386 17.6396331,41.3473885 C10.7742392,38.7673292 1.3177127,35.578243 0.8304912,32.2894979 C0.343269696,29.0007527 3.18908621,18.1711475 4.62860429,9.85516224 C6.00168307,1.95995923 8.93608531,0.99658944 13.3875181,0.188244672 C16.5398652,4.71026479 16.9278259,10.6064156 14.3951808,15.5025024 L11.5050714,28.3363597 C16.0131081,31.2458776 20.6742734,33.9109848 25.4683968,36.3201485 C26.3887502,36.4753451 27.3334015,36.3953544 28.2145544,36.0876109 C29.8470282,35.6000179 31.5650264,35.4678642 33.2528676,35.7000484" id="Path" fill="#FFA8A7"></path>
                            <path d="M13.5536164,0.088585728 C8.8585728,0.620100096 6.6439296,1.77171456 5.536608,5.536608 C4.4292864,9.30150144 2.62435219,18.24866 2.62435219,18.24866 C5.68055981,21.07233 9.83301581,21.5706248 13.3100056,21.6370641 L14.8713291,15.3585506 C16.0229436,12.8449306 18.1268546,5.59197408 13.5536164,0.088585728 Z" id="Path" fill="#455A64"></path>
                        </g>
                    </g>
                </g>
            </g>
            <g id="freepik--Boxes--inject-127" transform="translate(25.166400, 239.181466)" fill-rule="nonzero">
                <rect id="Rectangle" fill="#3E3CDA" x="18.7093058" y="39.3652829" width="35.0334408" height="38.8005489"></rect>
                <rect id="Rectangle" fill="#000000" opacity="0.1" x="18.7093058" y="39.3652829" width="35.0334408" height="38.8005489"></rect>
                <rect id="Rectangle" fill="#3E3CDA" transform="translate(9.663596, 58.765557) rotate(180.000000) translate(-9.663596, -58.765557) " x="0.617885453" y="39.3652829" width="18.0914203" height="38.8005489"></rect>
                <rect id="Rectangle" fill="#000000" opacity="0.32" transform="translate(9.663596, 58.765557) rotate(180.000000) translate(-9.663596, -58.765557) " x="0.617885453" y="39.3652829" width="18.0914203" height="38.8005489"></rect>
                <polygon id="Path" fill="#FFFFFF" points="33.2528676 47.749922 33.9969878 47.749922 34.5550778 47.749922 34.8739865 47.1054609 35.3191298 47.749922 35.9237273 46.4211361 36.4951053 47.749922 38.1361559 47.749922 38.880276 47.749922 39.1526771 46.8662794 39.4117904 47.749922 39.8967972 47.749922 39.8967972 39.3652829 33.2528676 39.3652829"></polygon>
                <path d="M1.86694422,75.494972 C3.19573014,72.7310973 4.52451606,69.9627933 5.85330198,67.19006 L9.77986437,58.8452845 L13.6466314,50.493865 C14.9355537,47.6989852 16.2067589,44.8908177 17.460247,42.0693622 C16.1314611,44.8332369 14.8026751,47.6015409 13.4738892,50.3742742 L9.54732684,58.7190498 L5.68055981,67.103689 C4.40049604,69.8808515 3.12929084,72.6779459 1.86694422,75.494972 Z" id="Path" fill="#3E3CDA"></path>
                <path d="M1.86694422,42.0361426 C3.12486156,44.8531687 4.39606675,47.6613363 5.68055981,50.4606453 L9.55397076,58.8452845 L13.4805332,67.19006 C14.8093191,69.9672226 16.138105,72.7355266 17.4668909,75.494972 C16.2089736,72.6779459 14.9377684,69.8697783 13.6532753,67.0704693 L9.77986437,58.6858302 L5.85330198,50.3410546 C4.53337463,47.563892 3.20458871,44.795588 1.86694422,42.0361426 Z" id="Path" fill="#3E3CDA"></path>
                <rect id="Rectangle" fill="#3E3CDA" x="34.9271379" y="0.564734016" width="35.0334408" height="38.8005489"></rect>
                <rect id="Rectangle" fill="#000000" opacity="0.1" x="34.9271379" y="0.564734016" width="35.0334408" height="38.8005489"></rect>
                <rect id="Rectangle" fill="#3E3CDA" transform="translate(25.888072, 19.971652) rotate(180.000000) translate(-25.888072, -19.971652) " x="16.8423615" y="0.571377946" width="18.0914203" height="38.8005489"></rect>
                <rect id="Rectangle" fill="#000000" opacity="0.32" transform="translate(25.888072, 19.971652) rotate(180.000000) translate(-25.888072, -19.971652) " x="16.8423615" y="0.571377946" width="18.0914203" height="38.8005489"></rect>
                <polygon id="Path" fill="#FFFFFF" points="49.4773437 8.94937317 50.2148199 8.94937317 50.77291 8.94937317 51.0918186 8.304912 51.5369619 8.94937317 52.1415595 7.62058725 52.7129374 8.94937317 54.3539881 8.94937317 55.1047521 8.94937317 55.3771532 8.06573053 55.6296225 8.94937317 56.1146294 8.94937317 56.1146294 0.564734016 49.4773437 0.564734016"></polygon>
                <path d="M18.0847764,36.6944232 C19.4135623,33.9349778 20.7423482,31.1666738 22.0711341,28.3895112 L25.9976965,20.0447356 L29.8976832,11.6667404 C31.1866055,8.86300209 32.4600254,6.05483451 33.7179427,3.24223764 C32.3891568,5.99725379 31.0603709,8.76334314 29.731585,11.5405057 L25.8050226,19.8852813 L21.9249677,28.2699204 C20.6227575,31.0692295 19.3426937,33.877397 18.0847764,36.6944232 Z" id="Path" fill="#3E3CDA"></path>
                <path d="M18.0847764,3.24223764 C19.347123,6.0592638 20.6183282,8.86743137 21.898392,11.6667404 L25.7718029,20.0447356 L29.6983653,28.3895112 C31.0271512,31.1666738 32.3559372,33.9349778 33.6847231,36.6944232 C32.4223764,33.877397 31.1489566,31.0692295 29.8644636,28.2699204 L25.9910526,19.8852813 L22.0644902,11.5405057 C20.7578507,8.76334314 19.4312794,5.99725379 18.0847764,3.24223764 Z" id="Path" fill="#3E3CDA"></path>
                <rect id="Rectangle" fill="#3E3CDA" x="63.7219288" y="39.3652829" width="35.0334408" height="38.8005489"></rect>
                <rect id="Rectangle" fill="#000000" opacity="0.1" x="63.7219288" y="39.3652829" width="35.0334408" height="38.8005489"></rect>
                <rect id="Rectangle" fill="#3E3CDA" transform="translate(54.676219, 58.765557) rotate(180.000000) translate(-54.676219, -58.765557) " x="45.6305085" y="39.3652829" width="18.0914203" height="38.8005489"></rect>
                <rect id="Rectangle" fill="#000000" opacity="0.32" transform="translate(54.676219, 58.765557) rotate(180.000000) translate(-54.676219, -58.765557) " x="45.6305085" y="39.3652829" width="18.0914203" height="38.8005489"></rect>
                <polygon id="Path" fill="#FFFFFF" points="78.2654907 47.749922 79.0096108 47.749922 79.5677009 47.749922 79.8866095 47.1054609 80.3317528 47.749922 80.9363504 46.4211361 81.5077283 47.749922 83.1487789 47.749922 83.899543 47.749922 84.1653002 46.8662794 84.4244134 47.749922 84.9094203 47.749922 84.9094203 39.3652829 78.2654907 39.3652829"></polygon>
                <path d="M46.8795673,75.494972 C48.2083532,72.7310973 49.5371391,69.9627933 50.865925,67.19006 L54.7924874,58.8452845 L58.6592544,50.493865 C59.9481768,47.6989852 61.219382,44.8908177 62.47287,42.0693622 C61.1440841,44.8332369 59.8152982,47.6015409 58.4865123,50.3742742 L54.5599499,58.7190498 L50.6931828,67.103689 C49.4131191,69.8808515 48.1419139,72.6779459 46.8795673,75.494972 Z" id="Path" fill="#3E3CDA"></path>
                <path d="M46.8795673,42.0361426 C48.1374846,44.8531687 49.4086898,47.6613363 50.6931828,50.4606453 L54.5665938,58.8452845 L58.4665805,67.19006 C59.7953664,69.9672226 61.1241523,72.7355266 62.4529382,75.494972 C61.1950209,72.6779459 59.9238157,69.8697783 58.6393226,67.0704693 L54.7659117,58.6858302 L50.8393493,50.3410546 C49.5371391,47.563892 48.2172118,44.795588 46.8795673,42.0361426 Z" id="Path" fill="#3E3CDA"></path>
            </g>
        </g>
    </g>
</svg>