<?xml version="1.0" encoding="UTF-8"?>
<svg width="605px" height="479px" viewBox="0 0 605 479" version="1.1" xmlns="http://www.w3.org/2000/svg" xmlns:xlink="http://www.w3.org/1999/xlink">
    <!-- Generator: Sketch 63.1 (92452) - https://sketch.com -->
    <title>Coronavirus Delivery Preventions-rafiki</title>
    <desc>Created with Sketch.</desc>
    <g id="Page-1" stroke="none" stroke-width="1" fill="none" fill-rule="evenodd">
        <g id="Coronavirus-Delivery-Preventions-rafiki" fill-rule="nonzero">
            <g id="freepik--background-complete--inject-27">
                <rect id="Rectangle" fill="#E6E4FA" x="0" y="423.984" width="605" height="1"></rect>
                <path d="M286.77,370.018 L53.1311,370.018 C49.3200356,370.011326 46.2341,366.91997 46.2341,363.1089 L46.2341,34.6786 C46.2672606,30.8911691 49.3435295,27.8364881 53.1311,27.83 L286.77,27.83 C290.585791,27.83 293.6791,30.9233094 293.6791,34.7391 L293.6791,363.1089 C293.6791,366.924691 290.585791,370.018 286.77,370.018 Z M53.1311,28.072 C49.4871018,28.078674 46.5366,31.0345957 46.5366,34.6786 L46.5366,363.1089 C46.5366,366.752904 49.4871018,369.708826 53.1311,369.7155 L286.77,369.7155 C290.415962,369.708841 293.369941,366.754862 293.3766,363.1089 L293.3766,34.6786 C293.369941,31.0326375 290.415962,28.0786593 286.77,28.072 L53.1311,28.072 Z" id="Shape" fill="#E6E4FA"></path>
                <path d="M548.5051,370.018 L314.8541,370.018 C311.041072,370.01134 307.95166,366.921928 307.945,363.1089 L307.945,34.6786 C307.984746,30.8892192 311.064516,27.8364167 314.8541,27.83 L548.5051,27.83 C552.287951,27.8431052 555.356898,30.895871 555.39,34.6786 L555.39,363.1089 C555.39,366.91526 552.311436,370.004668 548.5051,370.018 Z M314.8541,28.072 C311.208138,28.0786593 308.254159,31.0326375 308.2475,34.6786 L308.2475,363.1089 C308.254159,366.754862 311.208138,369.708841 314.8541,369.7155 L548.5051,369.7155 C552.151062,369.708841 555.105041,366.754862 555.1117,363.1089 L555.1117,34.6786 C555.105041,31.0326375 552.151062,28.0786593 548.5051,28.072 L314.8541,28.072 Z" id="Shape" fill="#E6E4FA"></path>
                <rect id="Rectangle" fill="#E6E4FA" x="211.0724" y="435.5032" width="31.46" height="1"></rect>
                <rect id="Rectangle" fill="#E6E4FA" x="63.4766" y="432.2241" width="65.461" height="1"></rect>
                <rect id="Rectangle" fill="#E6E4FA" x="178.0152" y="446.7441" width="31.8472" height="1"></rect>
                <rect id="Rectangle" fill="#E6E4FA" x="312.4583" y="444.7113" width="46.9843" height="1"></rect>
                <rect id="Rectangle" fill="#E6E4FA" x="370.2116" y="444.7113" width="12.9349" height="1"></rect>
                <rect id="Rectangle" fill="#E6E4FA" x="478.3735" y="439.6051" width="66.0176" height="1"></rect>
                <path d="M139.9244,153.2707 L229.4644,153.2707 C233.25346,153.2707 236.3251,156.34234 236.3251,160.1314 L236.3251,423.984 L133.1,423.984 L133.1,160.1193 C133.106597,156.349092 136.154239,153.290642 139.9244,153.2707 Z" id="Path" fill="#F3F2FF"></path>
                <rect id="Rectangle" fill="#E6E4FA" x="141.6426" y="169.2669" width="13.31" height="29.6329"></rect>
                <rect id="Rectangle" fill="#E6E4FA" x="214.4362" y="169.2669" width="13.31" height="29.6329"></rect>
                <rect id="Rectangle" fill="#E6E4FA" x="165.9031" y="169.2669" width="13.31" height="29.6329"></rect>
                <rect id="Rectangle" fill="#E6E4FA" x="190.1757" y="169.2669" width="13.31" height="29.6329"></rect>
                <rect id="Rectangle" fill="#E6E4FA" x="141.6426" y="216.0455" width="13.31" height="29.6329"></rect>
                <rect id="Rectangle" fill="#E6E4FA" x="214.4362" y="216.0455" width="13.31" height="29.6329"></rect>
                <rect id="Rectangle" fill="#E6E4FA" x="165.9031" y="216.0455" width="13.31" height="29.6329"></rect>
                <rect id="Rectangle" fill="#E6E4FA" x="190.1757" y="216.0455" width="13.31" height="29.6329"></rect>
                <rect id="Rectangle" fill="#E6E4FA" x="141.6426" y="262.8241" width="13.31" height="29.6329"></rect>
                <rect id="Rectangle" fill="#E6E4FA" x="214.4362" y="262.8241" width="13.31" height="29.6329"></rect>
                <rect id="Rectangle" fill="#E6E4FA" x="165.9031" y="262.8241" width="13.31" height="29.6329"></rect>
                <rect id="Rectangle" fill="#E6E4FA" x="190.1757" y="262.8241" width="13.31" height="29.6329"></rect>
                <rect id="Rectangle" fill="#E6E4FA" x="141.6426" y="309.6027" width="13.31" height="29.6329"></rect>
                <rect id="Rectangle" fill="#E6E4FA" x="214.4362" y="309.6027" width="13.31" height="29.6329"></rect>
                <rect id="Rectangle" fill="#E6E4FA" x="165.9031" y="309.6027" width="13.31" height="29.6329"></rect>
                <rect id="Rectangle" fill="#E6E4FA" x="190.1757" y="309.6027" width="13.31" height="29.6329"></rect>
                <rect id="Rectangle" fill="#E6E4FA" x="141.6426" y="356.3813" width="13.31" height="29.6329"></rect>
                <rect id="Rectangle" fill="#E6E4FA" x="214.4362" y="356.3813" width="13.31" height="29.6329"></rect>
                <rect id="Rectangle" fill="#E6E4FA" x="165.9031" y="356.3813" width="13.31" height="29.6329"></rect>
                <rect id="Rectangle" fill="#E6E4FA" x="190.1757" y="356.3813" width="13.31" height="29.6329"></rect>
                <path d="M457.38,177.87 L521.51,177.87 C522.989404,177.87 524.408216,178.457691 525.454312,179.503788 C526.500409,180.549884 527.0881,181.968696 527.0881,183.4481 L527.0881,423.984 L451.862386,423.984 L451.862386,183.4602 C451.855578,180.39826 454.318232,177.903202 457.38,177.87 Z" id="Path" fill="#F3F2FF"></path>
                <rect id="Rectangle" fill="#E6E4FA" x="461.3972" y="192.4142" width="12.1" height="26.9346"></rect>
                <rect id="Rectangle" fill="#E6E4FA" x="483.4555" y="192.4142" width="12.1" height="26.9346"></rect>
                <rect id="Rectangle" fill="#E6E4FA" x="505.5138" y="192.4142" width="12.1" height="26.9346"></rect>
                <rect id="Rectangle" fill="#E6E4FA" x="461.3972" y="234.9457" width="12.1" height="26.9346"></rect>
                <rect id="Rectangle" fill="#E6E4FA" x="483.4555" y="234.9457" width="12.1" height="26.9346"></rect>
                <rect id="Rectangle" fill="#E6E4FA" x="505.5138" y="234.9457" width="12.1" height="26.9346"></rect>
                <rect id="Rectangle" fill="#E6E4FA" x="461.3972" y="277.4772" width="12.1" height="26.9346"></rect>
                <rect id="Rectangle" fill="#E6E4FA" x="483.4555" y="277.4772" width="12.1" height="26.9346"></rect>
                <rect id="Rectangle" fill="#E6E4FA" x="505.5138" y="277.4772" width="12.1" height="26.9346"></rect>
                <rect id="Rectangle" fill="#E6E4FA" x="461.3972" y="319.9966" width="12.1" height="26.9346"></rect>
                <rect id="Rectangle" fill="#E6E4FA" x="483.4555" y="319.9966" width="12.1" height="26.9346"></rect>
                <rect id="Rectangle" fill="#E6E4FA" x="505.5138" y="319.9966" width="12.1" height="26.9346"></rect>
                <rect id="Rectangle" fill="#E6E4FA" x="461.3972" y="362.5281" width="12.1" height="26.9346"></rect>
                <rect id="Rectangle" fill="#E6E4FA" x="483.4555" y="362.5281" width="12.1" height="26.9346"></rect>
                <rect id="Rectangle" fill="#E6E4FA" x="505.5138" y="362.5281" width="12.1" height="26.9346"></rect>
                <path d="M310.4739,109.0331 L414.6428,109.0331 C419.046663,109.0331 422.6167,112.603137 422.6167,117.007 L422.6167,423.984 L302.5,423.984 L302.5,117.007 C302.5,112.603137 306.070037,109.0331 310.4739,109.0331 Z" id="Path" fill="#F3F2FF"></path>
                <rect id="Rectangle" fill="#E6E4FA" x="312.4704" y="127.6429" width="15.488" height="34.4729"></rect>
                <rect id="Rectangle" fill="#E6E4FA" x="397.1583" y="127.6429" width="15.488" height="34.4729"></rect>
                <rect id="Rectangle" fill="#E6E4FA" x="340.6997" y="127.6429" width="15.488" height="34.4729"></rect>
                <rect id="Rectangle" fill="#E6E4FA" x="368.929" y="127.6429" width="15.488" height="34.4729"></rect>
                <rect id="Rectangle" fill="#E6E4FA" x="312.4704" y="182.0687" width="15.488" height="34.4729"></rect>
                <rect id="Rectangle" fill="#E6E4FA" x="397.1583" y="182.0687" width="15.488" height="34.4729"></rect>
                <rect id="Rectangle" fill="#E6E4FA" x="340.6997" y="182.0687" width="15.488" height="34.4729"></rect>
                <rect id="Rectangle" fill="#E6E4FA" x="368.929" y="182.0687" width="15.488" height="34.4729"></rect>
                <rect id="Rectangle" fill="#E6E4FA" x="312.4704" y="236.4945" width="15.488" height="34.4729"></rect>
                <rect id="Rectangle" fill="#E6E4FA" x="397.1583" y="236.4945" width="15.488" height="34.4729"></rect>
                <rect id="Rectangle" fill="#E6E4FA" x="340.6997" y="236.4945" width="15.488" height="34.4729"></rect>
                <rect id="Rectangle" fill="#E6E4FA" x="368.929" y="236.4945" width="15.488" height="34.4729"></rect>
                <rect id="Rectangle" fill="#E6E4FA" x="312.4704" y="290.9203" width="15.488" height="34.4729"></rect>
                <rect id="Rectangle" fill="#E6E4FA" x="397.1583" y="290.9203" width="15.488" height="34.4729"></rect>
                <rect id="Rectangle" fill="#E6E4FA" x="340.6997" y="290.9203" width="15.488" height="34.4729"></rect>
                <rect id="Rectangle" fill="#E6E4FA" x="368.929" y="290.9203" width="15.488" height="34.4729"></rect>
                <rect id="Rectangle" fill="#E6E4FA" x="312.4704" y="345.334" width="15.488" height="34.4729"></rect>
                <rect id="Rectangle" fill="#E6E4FA" x="397.1583" y="345.334" width="15.488" height="34.4729"></rect>
                <rect id="Rectangle" fill="#E6E4FA" x="340.6997" y="345.334" width="15.488" height="34.4729"></rect>
                <rect id="Rectangle" fill="#E6E4FA" x="368.929" y="345.334" width="15.488" height="34.4729"></rect>
                <rect id="Rectangle" fill="#E6E6E6" x="236.3251" y="221.8293" width="66.1749" height="202.1547"></rect>
                <rect id="Rectangle" fill="#E6E4FA" x="422.6288" y="243.4762" width="29.2336" height="180.5078"></rect>
                <polygon id="Path" fill="#F3F2FF" points="133.0637 423.984 75.1531 423.984 75.1531 339.5865 133.0637 319.9966"></polygon>
                <path d="M509.41,75.4798 C518.8843,67.5785 538.1596,52.1631 521.5826,49.9609 C505.659,47.8434 482.1971,57.1604 474.7072,65.34 C474.7072,57.5113 471.0167,50.0577 456.9565,44.0319 C435.3217,34.7391 431.97,68.5102 433.1074,74.7054 C424.4075,70.5309 396.9405,71.3053 415.877,83.0786 L511.9994,83.0786 C511.9994,83.0786 531.8434,70.6761 509.41,75.4798 Z" id="Path" fill="#F3F2FF"></path>
                <path d="M75.746,116.16 C75.6734,111.6588 75.1894,102.85 83.1512,101.64 C90.7984,100.43 95.9893,105.7419 95.1181,110.4004 C98.9417,105.9355 104.0963,101.7005 112.8809,98.3004 C126.4208,93.0006 111.3563,112.2396 107.8473,115.7728 C113.498,113.3528 124.5332,113.8247 110.9207,120.5281 L70.9907,120.5281 C70.9907,120.5281 68.8006,113.4133 75.746,116.16 Z" id="Path" fill="#F3F2FF"></path>
                <path d="M243.2947,62.7506 L114.6717,62.7506 C114.6717,62.7506 122.1253,53.6998 133.7655,56.5554 C128.2842,49.5737 125.3681,23.4014 143.7117,20.1344 C153.0408,18.4767 164.0518,35.4409 164.2817,44.3344 C168.8797,23.0505 181.5847,-3.993 201.0899,1.3068 C220.5951,6.6066 205.4822,45.2298 205.4822,45.2298 C205.4822,45.2298 224.2251,17.9322 239.7857,30.0443 C249.0543,37.3043 231.6545,53.8571 231.6545,53.8571 C231.6545,53.8571 252.9626,53.6998 243.2947,62.7506 Z" id="Path" fill="#F3F2FF"></path>
            </g>
            <g id="freepik--Shadow--inject-27" transform="translate(67.760000, 451.220000)" fill="#F3F2FF">
                <ellipse id="freepik--path--inject-27" cx="234.74" cy="13.7104" rx="234.6069" ry="13.6972"></ellipse>
            </g>
            <g id="freepik--Truck--inject-27" transform="translate(108.900000, 239.580000)">
                <path d="M130.9099,132.6523 C116.837074,132.956635 105.587584,144.452033 105.587584,158.52815 C105.587584,172.604267 116.837074,184.099665 130.9099,184.404 L136.0887,184.404 L136.0887,132.6523 L130.9099,132.6523 Z" id="Path" fill="#263238"></path>
                <path d="M319.44,132.6523 C310.06206,132.449495 301.308379,137.336568 296.559886,145.425987 C291.811393,153.515406 291.811393,163.540894 296.559886,171.630313 C301.308379,179.719732 310.06206,184.606805 319.44,184.404 L324.6067,184.404 L324.6067,132.6523 L319.44,132.6523 Z" id="Path" fill="#263238"></path>
                <circle id="Oval" fill="#263238" cx="234.014" cy="158.5221" r="25.8698"></circle>
                <circle id="Oval" fill="#263238" cx="45.4718" cy="158.5221" r="25.8698"></circle>
                <rect id="Rectangle" fill="#3E3CDA" x="163.9429" y="21.3686" width="98.1673" height="124.7268"></rect>
                <rect id="Rectangle" fill="#000000" opacity="0.2" x="163.9429" y="21.3686" width="98.1673" height="124.7268"></rect>
                <rect id="Rectangle" fill="#3E3CDA" transform="translate(362.694629, 55.070203) rotate(-40.430000) translate(-362.694629, -55.070203) " x="362.089629" y="52.0573034" width="1.21" height="6.0258"></rect>
                <rect id="Rectangle" fill="#3E3CDA" transform="translate(350.902651, 41.201638) rotate(-40.440000) translate(-350.902651, -41.201638) " x="350.297651" y="31.8180876" width="1.21" height="18.7671"></rect>
                <path d="M262.1102,146.0833 L384.029802,146.0833 L384.029802,91.96 C384.031709,87.9410244 382.598537,84.0534359 379.9884,80.9974 L342.0549,36.421 C333.916088,26.8672961 321.995839,21.364962 309.4454,21.3685982 L262.1102,21.3685982 L262.1102,146.0833 Z" id="Path" fill="#3E3CDA"></path>
                <path d="M282.0873,86.8175 L282.0873,40.9585 C282.0873,38.9635385 282.88062,37.0504618 284.292405,35.6409464 C285.70419,34.2314309 287.618541,33.4411875 289.6135,33.4443902 L301.29,33.4443902 C313.658027,33.4443902 325.40433,38.8664965 333.4276,48.279 L362.1167,81.9412 C363.269066,83.2909087 363.903826,85.0064754 363.9075,86.7812 L363.9075,86.7812 C363.9075,90.9330847 360.545279,94.3007249 356.3934,94.3074 L289.6135,94.3074 C285.471029,94.3074 282.10728,90.9599224 282.0873,86.8175 Z" id="Path" fill="#FFFFFF"></path>
                <path d="M384.0298,131.3455 L368.9774,131.3455 C367.321441,131.344972 365.789565,130.467645 364.951157,129.039614 C364.112749,127.611584 364.093171,125.846375 364.8997,124.4001 L367.4407,119.8505 C368.258947,118.362543 369.820309,117.435919 371.5184,117.4305 L384.0298,117.4305 L384.0298,131.3455 Z" id="Path" fill="#FFFFFF"></path>
                <rect id="Rectangle" fill="#3E3CDA" x="3.1702" y="0.4114" width="237.2689" height="145.6719"></rect>
                <rect id="Rectangle" fill="#FFFFFF" opacity="0.6" x="3.1702" y="0.4114" width="237.2689" height="145.6719"></rect>
                <rect id="Rectangle" fill="#3E3CDA" opacity="0.5" x="67.4212" y="123.8798" width="40.3777" height="8.7725"></rect>
                <rect id="Rectangle" fill="#3E3CDA" opacity="0.5" x="3.1702" y="123.8798" width="11.0836" height="8.7725"></rect>
                <rect id="Rectangle" fill="#3E3CDA" opacity="0.4" x="3.1702" y="0.4114" width="81.9654" height="145.6719"></rect>
                <rect id="Rectangle" fill="#3E3CDA" opacity="0.4" x="38.6837" y="0.4114" width="1.3189" height="145.6719"></rect>
                <rect id="Rectangle" fill="#263238" x="0" y="146.0833" width="387.2" height="10.1035" rx="1.9844"></rect>
                <circle id="Oval" fill="#263238" cx="324.6309" cy="158.5221" r="25.8698"></circle>
                <circle id="Oval" fill="#FFFFFF" cx="324.6309" cy="158.5221" r="16.6496"></circle>
                <circle id="Oval" fill="#263238" cx="136.0887" cy="158.5221" r="25.8698"></circle>
                <circle id="Oval" fill="#FFFFFF" cx="136.0887" cy="158.5221" r="16.6496"></circle>
            </g>
            <g id="freepik--Character--inject-27" transform="translate(187.550000, 72.600000)">
                <polygon id="Path" fill="#3E3CDA" points="91.1614 381.7913 80.8764 381.634 78.0813 357.7849 88.3542 357.9543"></polygon>
                <path d="M80.6102,380.4482 L91.8148,380.6176 C92.2247889,380.615288 92.5699222,380.923816 92.6134,381.3315 L93.5935,390.5033 C93.6311313,390.972972 93.4685815,391.436682 93.1459411,391.780064 C92.8233007,392.123445 92.3706032,392.314534 91.8995,392.3062 C87.8702,392.1731 82.0501,391.8464 76.9681,391.7738 C71.027,391.677 71.6078,391.919 64.6382,391.7738 C60.4274,391.7133 59.7982,387.4178 61.5648,387.0669 C69.7928,385.4334 70.6156,385.3487 78.045,381.1742 C78.8211525,380.710383 79.7060977,380.459927 80.6102,380.4482 L80.6102,380.4482 Z" id="Path" fill="#263238"></path>
                <path d="M70.5672,74.4271 C67.2034,81.6145 63.5976,88.4026 59.5925,95.1786 C57.5839,98.5424 55.5148,101.8941 53.2763,105.1853 C52.1873,106.8309 51.0136,108.4644 49.852,110.0979 C48.6904,111.7314 47.432,113.3407 46.0889,114.9379 L45.0967,116.1479 C44.5937315,116.770114 44.0521999,117.360141 43.4753,117.9145 C43.0953059,118.287616 42.6910936,118.635239 42.2653,118.9551 C41.7993587,119.312373 41.3057351,119.632014 40.7891,119.911 C39.6583391,120.538826 38.4319449,120.97624 37.1591,121.2057 C34.8444302,121.587911 32.4687688,121.302496 30.3105,120.3829 C28.8255436,119.738465 27.4369874,118.891486 26.1844,117.8661 C24.2956162,116.306447 22.6123726,114.513427 21.175,112.53 C19.9039591,110.810694 18.7245841,109.025475 17.6418,107.1818 C15.6257423,103.686254 13.8274862,100.069536 12.2573,96.3523 C10.7023391,92.7039401 9.34120889,88.9759782 8.1796,85.184 C7.58960478,83.1650264 8.57084546,81.0189976 10.4838464,80.1444829 C12.3968474,79.2699681 14.6617863,79.9320291 15.8026,81.6992 L15.8752,81.8081 C19.6790812,88.0801199 23.8234827,94.1391864 28.2898,99.9581 C29.3349434,101.282804 30.4497138,102.551057 31.6294,103.7575 C32.5746848,104.752005 33.6255196,105.640549 34.7633,106.4074 C35.1989,106.6615 35.5498,106.7825 35.574,106.7341 C35.5982,106.6857 35.1384,106.4558 34.364,106.5405 C33.8480324,106.628472 33.354562,106.817635 32.912,107.0971 C32.8515,107.0971 32.791,107.1818 33.1419,106.6978 L33.8921,105.6209 C37.9301762,99.5791042 41.6577756,93.3354762 45.0604,86.9143 C48.5936,80.4287 52.0663,73.7011 55.3696,67.1792 L55.3696,67.0582 C57.4178308,62.8514747 62.4884747,61.1016692 66.6952,63.1499 C70.9019253,65.1981308 72.6517308,70.2687747 70.6035,74.4755 L70.5672,74.4271 Z" id="Path" fill="#3E3CDA"></path>
                <path d="M16.2019,84.7 L13.4431,73.2534 L2.6862,77.8877 C2.6862,77.8877 3.6421,86.9748 11.1562,88.1001 L16.2019,84.7 Z" id="Path" fill="#263238"></path>
                <path d="M15.6332,81.8807 C15.6332,81.8807 19.1301,86.3819 19.9892,87.6161 C18.7792,88.8261 10.8537,92.8312 10.2245,92.4561 C9.2202,89.5884 7.8045,85.8011 7.8045,85.8011 L15.6332,81.8807 Z" id="Path" fill="#263238"></path>
                <path d="M5.3966,65.9692 L1.4399,69.7686 C0.801696696,70.3986159 0.564218239,71.3299039 0.8228,72.1886 L2.6862,77.8393 L13.4431,73.205 L9.0266,66.3685 C8.62752038,65.7929915 7.99869157,65.4185924 7.30255163,65.342017 C6.60641168,65.2654416 5.91123555,65.4942001 5.3966,65.9692 Z" id="Path" fill="#263238"></path>
                <path d="M11.495,79.3397 C11.1199,77.0165 13.4431,69.7323 15.3912,68.6917 C17.3393,67.6511 16.2261,72.6726 16.4802,74.3666 C17.182,79.013 17.424,83.4416 15.0403,83.1996 C12.6566,82.9576 12.1,83.3811 11.495,79.3397 Z" id="Path" fill="#263238"></path>
                <polygon id="Path" fill="#000000" opacity="0.2" points="78.0813 357.797 79.5212 370.0906 89.8062 370.2479 88.3663 357.9543"></polygon>
                <path d="M62.2545,60.6936 C81.8081,58.2736 100.7325,60.8872 111.0417,62.8837 C113.13967,63.2942071 114.984948,64.5299284 116.1634,66.3135321 C117.341853,68.0971359 117.754777,70.2792338 117.3095,72.3701 C109.6381,109.0331 110.836,145.9139 110.1947,153.7547 L55.2123,152.8714 C51.4492,107.9199 53.8208,79.2913 55.2728,67.6148 C55.7401108,63.9809562 58.6167267,61.1292676 62.2545,60.6936 L62.2545,60.6936 Z" id="Path" fill="#3E3CDA"></path>
                <path d="M96.9815,34.7754 C95.2391,42.1685 93.2547,55.7931 98.3367,61.1897 C94.1017,64.9407 88.5841,69.2241 79.6422,68.8732 C70.7003,68.5223 72.4911,62.5207 74.9716,59.4594 C83.4416,58.08 83.4416,51.8606 82.2316,45.9316 L96.9815,34.7754 Z" id="Path" fill="#FFB573"></path>
                <path d="M90.9557,39.325 L82.1953,45.98 C82.5065594,47.3562848 82.6968511,48.7571557 82.764,50.1666 C85.9826,49.9488 90.508,46.7665 90.9799,43.4511 C91.2237322,42.085784 91.2155303,40.687362 90.9557,39.325 L90.9557,39.325 Z" id="Path" fill="#000000" opacity="0.2"></path>
                <path d="M99.4741,23.5587 C98.1794,33.6622 97.9495,39.6517 92.4682,44.4796 C84.2402,51.7396 72.0071,46.1615 70.2405,35.8523 C68.6554,26.5595 71.027,11.6523 81.2394,8.2885 C85.8355996,6.80468635 90.8717673,7.78597957 94.5746427,10.8868613 C98.2775181,13.987743 100.12784,18.7733706 99.4741,23.5587 L99.4741,23.5587 Z" id="Path" fill="#FFB573"></path>
                <path d="M100.067,32.3312 C96.074,34.7512 91.5123,33.5412 91.1372,31.0002 C90.7621,28.4592 93.7266,24.0669 94.8398,21.9252 C94.5252,18.2952 91.96,17.2304 92.4198,14.6652 C89.4311,14.9435 73.1324,15.6816 73.5196,12.0032 C73.9068,8.3248 80.3682,4.5375 88.0396,5.4934 C95.711,6.4493 100.7325,9.7889 100.0065,14.4595 C104.2899,13.7698 106.2622,21.0177 100.067,32.3312 Z" id="Path" fill="#263238"></path>
                <path d="M103.6365,33.88 C102.269309,36.0504807 100.090904,37.584078 97.5865,38.1392 C94.2711,38.8531 92.7465,35.8402 93.8476,32.8152 C94.8035,30.0806 97.6833,26.4264 100.9503,27.0677 C102.394629,27.3686646 103.590411,28.3765087 104.131612,29.7490132 C104.672813,31.1215177 104.486712,32.6742608 103.6365,33.88 L103.6365,33.88 Z" id="Path" fill="#FFB573"></path>
                <path d="M87.12,254.8986 C86.7086,203.2074 98.1431,153.5611 98.1431,153.5611 L55.2849,152.8714 C55.2849,152.8714 60.2096,227.5284 61.9278,258.8069 C63.7065,291.3196 75.4556,367.7069 75.4556,367.7069 L92.8554,367.961 C92.8554,367.961 89.54,295.6998 87.12,254.8986 Z" id="Path" fill="#3E3CDA"></path>
                <path d="M87.12,254.8986 C86.7086,203.2074 98.1431,153.5611 98.1431,153.5611 L55.2849,152.8714 C55.2849,152.8714 60.2096,227.5284 61.9278,258.8069 C63.7065,291.3196 75.4556,367.7069 75.4556,367.7069 L92.8554,367.961 C92.8554,367.961 89.54,295.6998 87.12,254.8986 Z" id="Path" fill="#000000" opacity="0.4"></path>
                <path d="M88.7898,182.0082 C76.5688,198.7304 82.0622,230.1904 87.0716,252.4302 C87.2706661,227.908956 89.353967,203.439271 93.3031,179.2373 L88.7898,182.0082 Z" id="Path" fill="#000000" opacity="0.2"></path>
                <polygon id="Path" fill="#263238" points="73.1324 360.9309 74.2577 368.0215 93.4967 368.3482 94.5857 361.6448"></polygon>
                <path d="M85.91,25.2527 C85.91,26.0755 85.3776,26.7168 84.8331,26.6684 C84.2886,26.62 83.9014,25.9303 83.9619,25.1075 C84.0224,24.2847 84.4943,23.6434 85.0388,23.6797 C85.5833,23.716 86.0068,24.4178 85.91,25.2527 Z" id="Path" fill="#263238"></path>
                <path d="M75.2499,24.0548 C75.2499,24.8897 74.7175,25.5189 74.173,25.4826 C73.6285,25.4463 73.2413,24.7324 73.3018,23.9096 C73.3623,23.0868 73.8342,22.4455 74.3787,22.4818 C74.9232,22.5181 75.3104,23.232 75.2499,24.0548 Z" id="Path" fill="#263238"></path>
                <path d="M77.44,24.7203 C76.2911237,27.1739265 74.8045417,29.4547099 73.0235,31.4963 C74.111958,32.3969466 75.5395976,32.7770612 76.9318,32.5369 L77.44,24.7203 Z" id="Path" fill="#ED893E"></path>
                <path d="M80.2956,35.4651 C82.1769239,35.3728984 83.9330443,34.4948382 85.1356,33.0451 C85.187475,32.9759334 85.1985095,32.8843458 85.1645469,32.8048374 C85.1305844,32.7253291 85.0567845,32.6699791 84.9709469,32.6596374 C84.8851094,32.6492957 84.800275,32.6855333 84.7484,32.7547 C83.3673477,34.3176074 81.3178734,35.1193797 79.2429,34.9085 C79.1412291,34.8859081 79.0360661,34.9276472 78.9775608,35.0138128 C78.9190556,35.0999784 78.9190556,35.2131216 78.9775608,35.2992872 C79.0360661,35.3854528 79.1412291,35.4271919 79.2429,35.4046 C79.592084,35.4479356 79.9437504,35.4681463 80.2956,35.4651 L80.2956,35.4651 Z" id="Path" fill="#263238"></path>
                <path d="M87.6524,22.4818 C87.7344486,22.4803848 87.8143189,22.4551626 87.8823,22.4092 C87.9907419,22.3377592 88.0659267,22.225738 88.0909565,22.0983138 C88.1159863,21.9708895 88.0887611,21.8387521 88.0154,21.7316 C87.1911343,20.3884986 85.7645993,19.5307719 84.1918,19.4326 C83.9244942,19.4326 83.7078,19.6492942 83.7078,19.9166 C83.7078,20.1905885 83.9299115,20.4127 84.2039,20.4127 L84.2039,20.4127 C85.4421433,20.5160008 86.5568584,21.2037082 87.2047,22.264 C87.3022903,22.4136731 87.4744045,22.4974043 87.6524,22.4818 L87.6524,22.4818 Z" id="Path" fill="#263238"></path>
                <path d="M70.664,20.2191 C70.8227245,20.2420353 70.9822332,20.1827892 71.0875,20.0618 C71.8694025,19.0998454 73.0691367,18.5766531 74.3061,18.6582 C74.5721051,18.6869587 74.8129957,18.4995994 74.8506,18.2347 C74.8676891,18.1061553 74.8324808,17.9761293 74.7528677,17.8737696 C74.6732545,17.7714099 74.555896,17.7052785 74.4271,17.6902 C72.8682009,17.5746371 71.3494634,18.2190866 70.3494,19.4205 C70.1806624,19.6248411 70.2076305,19.9268845 70.4099,20.0981 C70.4783297,20.1662208 70.5679829,20.2089128 70.664,20.2191 L70.664,20.2191 Z" id="Path" fill="#263238"></path>
                <polygon id="Path" fill="#3E3CDA" points="145.6356 381.7913 135.3385 381.634 131.1035 357.7849 141.4006 357.9543"></polygon>
                <path d="M134.7819,380.4482 L145.9865,380.6176 C146.399618,380.619226 146.749431,380.92274 146.8093,381.3315 L148.104,390.5033 C148.164156,390.965496 148.019417,391.430911 147.707744,391.777472 C147.396072,392.124033 146.948566,392.31716 146.4826,392.3062 C142.4412,392.1731 141.1707,391.8464 136.0887,391.7738 C130.1355,391.677 132.8943,391.919 125.9126,391.7738 C121.7018,391.7133 120.879,387.442 122.6698,387.0669 C128.3326,385.8569 129.7483,383.5942 132.2409,381.1742 C132.960928,380.610316 133.872655,380.349822 134.7819,380.4482 L134.7819,380.4482 Z" id="Path" fill="#263238"></path>
                <path d="M136.9236,381.5251 C135.1449,381.5856 134.189,381.5251 133.7292,380.7144 C133.2694,379.9037 131.6601,377.5442 131.7811,376.6609 C131.9021,375.7776 139.1258,375.0516 139.8397,376.4794 C140.5536,377.9072 140.5536,381.4283 136.9236,381.5251 Z" id="Path" fill="#263238"></path>
                <path d="M80.223,381.5251 C79.1098,381.5856 78.5169,381.5251 78.2507,380.7144 C77.6979199,379.418087 77.3155979,378.055557 77.1133,376.6609 C77.198,375.7655 81.7355,375.0516 82.159,376.4794 C82.5825,377.9072 82.4857,381.4283 80.223,381.5251 Z" id="Path" fill="#263238"></path>
                <polygon id="Path" fill="#000000" opacity="0.2" points="131.1035 357.797 133.2936 370.0906 143.5907 370.2479 141.4006 357.9543"></polygon>
                <path d="M128.0301,248.7881 C123.1901,202.2273 117.5031,164.0881 110.2189,153.7547 L73.81,153.1739 C73.81,153.1739 95.0455,226.2095 103.2251,256.9919 C111.6951,288.9964 128.4052,364.6093 128.4052,364.6093 L144.9822,364.8392 C144.9822,364.8392 138.1215,285.1607 128.0301,248.7881 Z" id="Path" fill="#3E3CDA"></path>
                <path d="M128.0301,248.7881 C123.1901,202.2273 117.5031,164.0881 110.2189,153.7547 L73.81,153.1739 C73.81,153.1739 95.0455,226.2095 103.2251,256.9919 C111.6951,288.9964 128.4052,364.6093 128.4052,364.6093 L144.9822,364.8392 C144.9822,364.8392 138.1215,285.1607 128.0301,248.7881 Z" id="Path" fill="#000000" opacity="0.4"></path>
                <polygon id="Path" fill="#263238" points="126.324 360.9309 127.6671 368.0215 146.2769 368.3482 147.0997 361.6448"></polygon>
                <path d="M86.1157,76.351 C86.0068,73.7616 83.0302,70.301 81.0942,68.8853 C95.4327,64.9286 98.1189,59.7256 98.1189,59.7256 C99.1493948,59.993555 100.138588,60.4006303 101.0592,60.9356 C101.9062,68.97 91.96,74.4997 86.1157,76.351 Z" id="Path" fill="#FFFFFF"></path>
                <path d="M77.6578,68.6796 C74.4415115,70.1760374 71.8027352,72.6830874 70.1437,75.8186 C64.1784,65.1706 72.5637,59.0238 72.5637,59.0238 C73.4918023,58.7617104 74.4643155,58.6957773 75.4193,58.8302 C73.81,62.3876 75.6613,67.0703 77.6578,68.6796 Z" id="Path" fill="#FFFFFF"></path>
                <rect id="Rectangle" fill="#3E3CDA" transform="translate(122.341453, 121.032746) rotate(-8.790000) translate(-122.341453, -121.032746) " x="76.2586032" y="87.6367462" width="92.1657" height="66.792"></rect>
                <rect id="Rectangle" fill="#FFFFFF" opacity="0.9" transform="translate(122.341453, 121.032746) rotate(-8.790000) translate(-122.341453, -121.032746) " x="76.2586032" y="87.6367462" width="92.1657" height="66.792"></rect>
                <rect id="Rectangle" fill="#3E3CDA" opacity="0.2" transform="translate(144.148082, 117.655723) rotate(-8.790000) translate(-144.148082, -117.655723) " x="120.123532" y="84.2597229" width="48.0491" height="66.792"></rect>
                <rect id="Rectangle" fill="#3E3CDA" opacity="0.3" transform="translate(91.542920, 146.697616) rotate(-8.790000) translate(-91.542920, -146.697616) " x="85.7591199" y="141.059016" width="11.5676" height="11.2772"></rect>
                <rect id="Rectangle" fill="#3E3CDA" opacity="0.3" transform="translate(89.406077, 132.871184) rotate(-8.790000) translate(-89.406077, -132.871184) " x="83.6222773" y="127.232584" width="11.5676" height="11.2772"></rect>
                <rect id="Rectangle" fill="#3E3CDA" opacity="0.5" transform="translate(93.425905, 94.562055) rotate(-8.790000) translate(-93.425905, -94.562055) " x="85.2705053" y="91.7488048" width="16.3108" height="5.6265"></rect>
                <rect id="Rectangle" fill="#3E3CDA" opacity="0.5" transform="translate(146.241648, 86.382282) rotate(-8.790000) translate(-146.241648, -86.382282) " x="140.512298" y="83.5690315" width="11.4587" height="5.6265"></rect>
                <path d="M114.0183,64.13 C121.000271,67.4653673 127.733161,71.2988685 134.1648,75.6008 C137.542014,77.8132816 140.775198,80.2381692 143.8448,82.8608 C145.527036,84.3157884 147.111538,85.8800793 148.588,87.5435 C149.433526,88.5236989 150.213645,89.5584671 150.9233,90.6411 C151.838789,92.0153593 152.559536,93.5097899 153.065,95.0818 C153.411308,96.1472889 153.614749,97.2540079 153.67,98.373 C153.687243,98.5662161 153.687243,98.7605839 153.67,98.9538 L153.67,99.3652 L153.67,100.2001 L153.6095,101.8699 L153.4643,103.4308 C153.3675,104.4714 153.2586,105.512 153.0892,106.4921 C152.9198,107.4722 152.8109,108.4886 152.6173,109.4445 C151.976,113.3528 151.0322,117.0675 150.0884,120.7701 C148.120914,128.105968 145.696173,135.311489 142.8284,142.3444 C142.03449,144.30823 139.908526,145.38004 137.857558,144.850462 C135.80659,144.320884 134.465296,142.353797 134.7214,140.2511 L134.7214,140.1543 C135.5805,132.8943 136.6332,125.5617 137.3955,118.374299 C137.819,114.7443 138.1457,111.199 138.3635,107.7263 C138.4361,106.8551 138.4361,106.0202 138.4845,105.1611 C138.5329,104.302 138.4845,103.4792 138.4845,102.6685 L138.4845,101.4585 L138.4845,100.3453 L138.4845,99.7887 L138.4845,99.5104 C138.4845,99.5104 138.4845,99.2321 138.4845,99.3894 C138.474586,99.5828731 138.474586,99.7767269 138.4845,99.9702 C138.4845,100.1033 138.3514,99.8371 138.061,99.5104 C137.685921,99.0797688 137.281631,98.6754791 136.851,98.3004 C135.787428,97.2628728 134.659921,96.2929743 133.4751,95.3964 C130.9099,93.4483 128.0301,91.5365 125.0656,89.7094 C119.1245,86.0794 112.7357,82.5946 106.5042,79.2913 L106.4195,79.2913 C102.396879,77.1093427 100.834839,72.1267079 102.891876,68.038797 C104.948912,63.9508861 109.881077,62.2361353 114.0304,64.1663 L114.0183,64.13 Z" id="Path" fill="#3E3CDA"></path>
                <path d="M135.6047,138.3151 L129.4337,146.6883 L141.1465,150.9717 C141.1465,150.9717 145.8171,142.7074 141.8241,139.5251 L135.6047,138.3151 Z" id="Path" fill="#263238"></path>
                <path d="M130.9825,157.3847 L135.3385,158.1954 C137.070596,158.502539 138.773639,157.523544 139.3799,155.8722 L141.1465,151.0322 L129.47,146.6883 L128.139,153.1134 C127.745705,155.077904 129.018359,156.989593 130.9825,157.3847 Z" id="Path" fill="#263238"></path>
                <path d="M134.5883,140.6383 C134.5883,140.6383 134.8061,134.9392 134.9513,133.4509 C136.6574,133.342 145.2968,135.3385 145.5146,136.0403 C144.4498,138.8959 143.0946,142.6953 143.0946,142.6953 L134.5883,140.6383 Z" id="Path" fill="#263238"></path>
                <path d="M105.0401,21.78 C99.1958,21.1266 75.1894,15.2823 72.963,12.9712 C72.8057,8.5063 75.383,3.993 76.9681,2.9766 C81.3846,0.0726 91.1009,-0.0363 94.1864,0.8349 C97.2719,1.7061 105.7177,6.0016 107.1213,10.1398 C108.2103,13.4189 105.0401,21.78 105.0401,21.78 Z" id="Path" fill="#3E3CDA"></path>
                <path d="M80.8038,11.5797 C73.4349,10.4302 66.429,10.9384 63.9485,14.6652 C61.1776,18.8276 70.301,12.6445 75.746,15.3065 C84.8573,19.7835 82.6914,20.4853 96.4975,20.1465 C89.3948,16.5407 89.3464,12.9107 80.8038,11.5797 Z" id="Path" fill="#3E3CDA"></path>
                <path d="M80.8038,11.5797 C73.4349,10.4302 66.429,10.9384 63.9485,14.6652 C61.1776,18.8276 70.301,12.6445 75.746,15.3065 C84.8573,19.7835 82.6914,20.4853 96.4975,20.1465 C89.3948,16.5407 89.3464,12.9107 80.8038,11.5797 Z" id="Path" fill="#FFFFFF" opacity="0.6"></path>
            </g>
        </g>
    </g>
</svg>