<?xml version="1.0" encoding="UTF-8"?>
<svg width="90px" height="90px" viewBox="0 0 90 90" version="1.1" xmlns="http://www.w3.org/2000/svg" xmlns:xlink="http://www.w3.org/1999/xlink">
    <title>Paperless Contracts</title>
    <g id="Paperless-Contracts" stroke="none" stroke-width="1" fill="none" fill-rule="evenodd">
        <g id="Group-10-Copy">
            <circle id="Oval-Copy-108" fill="#FFDEFF" cx="45" cy="45" r="45"></circle>
            <g id="Group" transform="translate(21.000000, 21.000000)">
                <polygon id="Path" points="0 0 48 0 48 48 0 48"></polygon>
                <path d="M28,6 L28,14 C28,15.1045695 28.8954305,16 30,16 L38,16" id="Path" stroke="#F83AF8" stroke-width="3" stroke-linecap="round" stroke-linejoin="round"></path>
                <path d="M34,42 L14,42 C11.790861,42 10,40.209139 10,38 L10,10 C10,7.790861 11.790861,6 14,6 L28,6 L38,16 L38,38 C38,40.209139 36.209139,42 34,42 Z" id="Path" stroke="#F83AF8" stroke-width="3" stroke-linecap="round" stroke-linejoin="round"></path>
                <line x1="18" y1="14" x2="20" y2="14" id="Path" stroke="#F83AF8" stroke-width="3" stroke-linecap="round" stroke-linejoin="round"></line>
                <line x1="18" y1="26" x2="30" y2="26" id="Path" stroke="#F83AF8" stroke-width="3" stroke-linecap="round" stroke-linejoin="round"></line>
                <line x1="26" y1="34" x2="30" y2="34" id="Path" stroke="#F83AF8" stroke-width="3" stroke-linecap="round" stroke-linejoin="round"></line>
            </g>
        </g>
    </g>
</svg>