<?xml version="1.0" encoding="UTF-8"?>
<svg width="40px" height="40px" viewBox="0 0 40 40" version="1.1" xmlns="http://www.w3.org/2000/svg" xmlns:xlink="http://www.w3.org/1999/xlink">
    <!-- Generator: Sketch 63.1 (92452) - https://sketch.com -->
    <title>phone</title>
    <desc>Created with Sketch.</desc>
    <defs>
        <linearGradient x1="49.9999604%" y1="99.9999841%" x2="49.9999604%" y2="-0.000559700359%" id="linearGradient-1">
            <stop stop-color="#ADDCFF" offset="0%"></stop>
            <stop stop-color="#EAF6FF" offset="50.28%"></stop>
            <stop stop-color="#EAF6FF" offset="100%"></stop>
        </linearGradient>
        <linearGradient x1="49.999901%" y1="100.000264%" x2="49.999901%" y2="0.000113326558%" id="linearGradient-2">
            <stop stop-color="#5558FF" offset="0%"></stop>
            <stop stop-color="#00C0FF" offset="100%"></stop>
        </linearGradient>
    </defs>
    <g id="phone" stroke="none" stroke-width="1" fill="none" fill-rule="evenodd">
        <g transform="translate(0.000000, 1.000000)" fill-rule="nonzero" id="Path">
            <path d="M34.1404687,30.71125 C33.4927344,30.71125 32.9685937,31.2353906 32.9685937,31.883125 L32.9685937,33.9842969 C32.9685937,34.6308594 32.4432812,35.1561719 31.7967188,35.1561719 L20.6467188,35.1561719 L18.626875,31.1164062 C18.2285938,30.3221875 16.9285938,30.3221875 16.5303125,31.1164062 L15.2348438,33.7073437 L13.939375,31.1164062 C13.5410938,30.3221875 12.2410938,30.3221875 11.8428125,31.1164062 L10.5473438,33.7073437 L9.251875,31.1164062 C8.85359375,30.3221875 7.55359375,30.3221875 7.1553125,31.1164062 L5.85984375,33.7073437 L4.564375,31.1164062 C4.16609375,30.3221875 2.86609375,30.3221875 2.4678125,31.1164062 L0.1240625,35.8039062 C-0.16546875,36.3829687 0.069140625,37.0867969 0.648203125,37.3763281 C1.23257813,37.6664844 1.93226563,37.4272656 2.220625,36.8521875 L3.51609375,34.26125 L4.8115625,36.8521875 C5.20984375,37.6464062 6.50984375,37.6464062 6.908125,36.8521875 L8.20359375,34.26125 L9.4990625,36.8521875 C9.89734375,37.6464062 11.1973438,37.6464062 11.595625,36.8521875 L12.8910938,34.26125 L14.1865625,36.8521875 C14.5848438,37.6464062 15.8848438,37.6464062 16.283125,36.8521875 L17.5785938,34.26125 L18.8740625,36.8521875 C19.0732031,37.2492969 19.4782813,37.499923 19.9223438,37.499923 L31.7967188,37.499923 C33.7353125,37.499923 35.3123438,35.9228906 35.3123438,33.9842969 L35.3123438,31.883125 C35.3123438,31.2353906 34.7882031,30.71125 34.1404687,30.71125 Z" fill="url(#linearGradient-1)"></path>
            <path d="M39.9826562,26.3716406 C39.8785156,25.31875 39.3142969,24.3792188 38.4342969,23.7921094 L32.4673437,19.8129687 C31.0803125,18.8905469 29.21375,19.0725 28.0327344,20.2535938 L26.4625781,21.8225781 C25.5413281,21.6898437 23.3509375,21.1416406 21.1044531,18.8951562 C18.8579687,16.6486719 18.3098437,14.4582812 18.1770312,13.5370312 L19.7460156,11.966875 C20.9270312,10.7869531 21.1113281,8.92046875 20.1842969,7.53117187 L16.2075,1.56539062 C15.6203906,0.6853125 14.6808594,0.121171875 13.6279687,0.01703125 C12.5774219,-0.0859375 11.5439844,0.2825 10.7967187,1.02984375 L8.30992187,3.51546875 C7.12554687,4.7 6.50070312,6.31820312 6.59679687,7.95578125 C6.78445312,11.1441406 8.16578125,17.5585156 15.3034375,24.6961719 C22.4410937,31.8338281 28.8555469,33.2151562 32.0438281,33.4028125 C33.6473437,33.5030469 35.2846094,32.8904687 36.4829687,31.6896094 L38.9697656,29.2028125 C39.7171875,28.455625 40.0867969,27.4233594 39.9826562,26.3716406 L39.9826562,26.3716406 Z" fill="url(#linearGradient-2)"></path>
        </g>
    </g>
</svg>