<?xml version="1.0" encoding="UTF-8"?>
<svg width="300px" height="255px" viewBox="0 0 300 255" version="1.1" xmlns="http://www.w3.org/2000/svg" xmlns:xlink="http://www.w3.org/1999/xlink">
    <!-- Generator: Sketch 63.1 (92452) - https://sketch.com -->
    <title>Artboard Copy</title>
    <desc>Created with Sketch.</desc>
    <g id="Artboard-Copy" stroke="none" stroke-width="1" fill="none" fill-rule="evenodd">
        <g id="Working-rafiki-Copy" transform="translate(-10.000000, 8.000000)" fill-rule="nonzero">
            <g id="freepik--background-complete--inject-94">
                <rect id="Rectangle" fill="#E7E5FE" x="0" y="209.536" width="320" height="1"></rect>
                <rect id="Rectangle" fill="#E7E5FE" x="84.1408" y="219.4048" width="21.1968" height="1"></rect>
                <rect id="Rectangle" fill="#E7E5FE" x="160.096" y="217.6704" width="5.5616" height="1"></rect>
                <rect id="Rectangle" fill="#E7E5FE" x="33.5744" y="214.9696" width="12.2816" height="1"></rect>
                <rect id="Rectangle" fill="#E7E5FE" x="249.408" y="213.8944" width="16.6912" height="1"></rect>
                <rect id="Rectangle" fill="#E7E5FE" x="228.704" y="213.8944" width="15.0016" height="1"></rect>
                <rect id="Rectangle" fill="#E7E5FE" x="227.9872" y="221.5744" width="59.9552" height="1"></rect>
                <path d="M290.1184,180.992 L166.5344,180.992 C164.517592,180.988477 162.883523,179.354408 162.88,177.3376 L162.88,3.6224 C162.901022,1.61809943 164.529992,0.00339396933 166.5344,0 L290.1184,0 C292.119247,0.0069316556 293.742491,1.6216177 293.76,3.6224 L293.76,177.3376 C293.76,179.350881 292.131669,180.984948 290.1184,180.992 Z M166.5344,0.128 C164.605957,0.131522279 163.043522,1.69395703 163.04,3.6224 L163.04,177.3376 C163.043522,179.266043 164.605957,180.828478 166.5344,180.832 L290.1184,180.832 C292.046843,180.828478 293.609278,179.266043 293.6128,177.3376 L293.6128,3.6224 C293.609278,1.69395703 292.046843,0.131522279 290.1184,0.128 L166.5344,0.128 Z" id="Shape" fill="#E7E5FE"></path>
                <rect id="Rectangle" fill="#F0F2FD" transform="translate(211.440000, 174.656000) rotate(180.000000) translate(-211.440000, -174.656000) " x="203.904" y="141.6832" width="15.072" height="65.9456"></rect>
                <rect id="Rectangle" fill="#F0F2FD" transform="translate(182.908800, 208.582400) rotate(180.000000) translate(-182.908800, -208.582400) " x="149.728" y="207.6288" width="66.3616" height="1.9072"></rect>
                <rect id="Rectangle" fill="#D6D6FF" x="146.8288" y="141.6832" width="57.0752" height="65.9456"></rect>
                <rect id="Rectangle" fill="#F0F2FD" x="152.7552" y="145.3824" width="45.2224" height="27.8016"></rect>
                <rect id="Rectangle" fill="#F0F2FD" x="152.7552" y="176.128" width="45.2224" height="27.8016"></rect>
                <path d="M187.0912,150.227204 L163.648,150.227204 C162.167417,150.228919 160.747261,149.640206 159.702133,148.591474 C158.657006,147.542743 158.073184,146.120568 158.079941,144.64 L192.640059,144.64 C192.646804,146.117243 192.065613,147.5365 191.024641,148.584676 C189.98367,149.632851 188.568455,150.223816 187.0912,150.227204 Z" id="Path" fill="#F3F2FF"></path>
                <path d="M187.0912,180.9728 L163.648,180.9728 C160.576413,180.9728 158.0864,178.482787 158.0864,175.4112 L192.6464,175.4112 C192.6464,178.480289 190.160287,180.969268 187.0912,180.9728 Z" id="Path" fill="#F3F2FF"></path>
                <rect id="Rectangle" fill="#F0F2FD" transform="translate(272.995200, 174.656000) rotate(180.000000) translate(-272.995200, -174.656000) " x="265.4592" y="141.6832" width="15.072" height="65.9456"></rect>
                <rect id="Rectangle" fill="#F0F2FD" transform="translate(244.457600, 208.582400) rotate(180.000000) translate(-244.457600, -208.582400) " x="211.2768" y="207.6288" width="66.3616" height="1.9072"></rect>
                <rect id="Rectangle" fill="#D6D6FF" x="208.384" y="141.6832" width="57.0752" height="65.9456"></rect>
                <rect id="Rectangle" fill="#F0F2FD" x="214.3104" y="145.3824" width="45.2224" height="27.8016"></rect>
                <rect id="Rectangle" fill="#F0F2FD" x="214.3104" y="176.128" width="45.2224" height="27.8016"></rect>
                <path d="M248.64,150.2272 L225.1968,150.2272 C222.125213,150.2272 219.6352,147.737187 219.6352,144.6656 L254.1952,144.6656 C254.1952,147.734689 251.709087,150.223668 248.64,150.2272 Z" id="Path" fill="#F3F2FF"></path>
                <path d="M248.64,180.9728 L225.1968,180.9728 C222.125213,180.9728 219.6352,178.482787 219.6352,175.4112 L254.1952,175.4112 C254.1952,178.480289 251.709087,180.969268 248.64,180.9728 Z" id="Path" fill="#F3F2FF"></path>
                <rect id="Rectangle" fill="#DDE2FE" transform="translate(231.993600, 64.000000) rotate(180.000000) translate(-231.993600, -64.000000) " x="183.4496" y="18.592" width="97.088" height="90.816"></rect>
                <rect id="Rectangle" fill="#F0F2FD" transform="translate(229.785600, 64.000000) rotate(180.000000) translate(-229.785600, -64.000000) " x="180.4416" y="18.592" width="98.688" height="90.816"></rect>
                <rect id="Rectangle" fill="#D7DDFB" transform="translate(231.993600, 111.027200) rotate(180.000000) translate(-231.993600, -111.027200) " x="183.4496" y="109.408" width="97.088" height="3.2384"></rect>
                <rect id="Rectangle" fill="#F0F2FD" transform="translate(224.768000, 111.027200) rotate(180.000000) translate(-224.768000, -111.027200) " x="175.424" y="109.408" width="98.688" height="3.2384"></rect>
                <rect id="Rectangle" fill="#FAFAFA" transform="translate(229.779200, 64.000000) rotate(90.000000) translate(-229.779200, -64.000000) " x="189.248" y="18.8672" width="81.0624" height="90.2656"></rect>
                <polygon id="Path" fill="#FFFFFF" points="249.3184 104.5376 234.2848 23.4688 209.5168 23.4688 224.5504 104.5376"></polygon>
                <path d="M272.9664,77.0304 C273.144259,77.0167497 273.278216,76.8628413 273.2672,76.6848 L273.2672,26.6432 C273.2672,26.4770727 273.132527,26.3424 272.9664,26.3424 C272.800273,26.3424 272.6656,26.4770727 272.6656,26.6432 L272.6656,76.6848 C272.654584,76.8628413 272.788541,77.0167497 272.9664,77.0304 Z" id="Path" fill="#F0F2FD"></path>
                <polygon id="Path" fill="#FFFFFF" points="219.2256 104.5376 204.1984 23.4688 194.5408 23.4688 209.568 104.5376"></polygon>
                <rect id="Rectangle" fill="#DFE4FF" transform="translate(184.915200, 64.000000) rotate(90.000000) translate(-184.915200, -64.000000) " x="144.384" y="63.7312" width="81.0624" height="1"></rect>
                <polygon id="Path" fill="#F0F2FD" points="179.4432 29.7088 276.5248 29.7088 276.9152 25.3696 179.8272 25.3696"></polygon>
                <polygon id="Path" fill="#F0F2FD" opacity="0.4" points="179.4432 34.7072 276.5248 34.7072 276.9152 30.3616 179.8272 30.3616"></polygon>
                <polygon id="Path" fill="#F0F2FD" opacity="0.4" points="179.4432 39.6992 276.5248 39.6992 276.9152 35.36 179.8272 35.36"></polygon>
                <polygon id="Path" fill="#F0F2FD" opacity="0.4" points="179.4432 44.6976 276.5248 44.6976 276.9152 40.352 179.8272 40.352"></polygon>
                <polygon id="Path" fill="#F0F2FD" opacity="0.4" points="179.4432 49.6896 276.5248 49.6896 276.9152 45.3504 179.8272 45.3504"></polygon>
                <polygon id="Path" fill="#F0F2FD" opacity="0.4" points="179.4432 54.688 276.5248 54.688 276.9152 50.3424 179.8272 50.3424"></polygon>
                <polygon id="Path" fill="#F0F2FD" opacity="0.4" points="179.4432 59.68 276.5248 59.68 276.9152 55.3408 179.8272 55.3408"></polygon>
                <polygon id="Path" fill="#F0F2FD" opacity="0.4" points="179.4432 64.6784 276.5248 64.6784 276.9152 60.3328 179.8272 60.3328"></polygon>
                <polygon id="Path" fill="#F0F2FD" opacity="0.4" points="179.4432 69.6704 276.5248 69.6704 276.9152 65.3312 179.8272 65.3312"></polygon>
                <rect id="Rectangle" fill="#D9DFFF" transform="translate(65.212800, 185.568000) rotate(180.000000) translate(-65.212800, -185.568000) " x="57.6128" y="161.6064" width="15.2" height="47.9232"></rect>
                <polygon id="Path" fill="#F0F2FD" points="60.4992 209.536 57.6128 209.536 57.6128 201.3248 63.5264 201.3248"></polygon>
                <rect id="Rectangle" fill="#D6D6FF" transform="translate(122.012800, 185.568000) rotate(180.000000) translate(-122.012800, -185.568000) " x="114.4128" y="161.6064" width="15.2" height="47.9232"></rect>
                <rect id="Rectangle" fill="#F0F2FD" transform="translate(87.276800, 183.049600) rotate(180.000000) translate(-87.276800, -183.049600) " x="57.6192" y="161.6064" width="59.3152" height="42.8864"></rect>
                <rect id="Rectangle" fill="#D6D6FF" transform="translate(73.078400, 179.267200) rotate(-90.000000) translate(-73.078400, -179.267200) " x="58.112" y="166.0416" width="29.9328" height="26.4512"></rect>
                <rect id="Rectangle" fill="#D6D6FF" transform="translate(101.468800, 179.267200) rotate(-90.000000) translate(-101.468800, -179.267200) " x="86.5024" y="166.0416" width="29.9328" height="26.4512"></rect>
                <path d="M98.8544,166.5984 L104.0832,166.5984 C106.352692,166.605247 108.525397,165.679707 110.0928,164.0384 L92.8128,164.0384 C94.3869701,165.68909 96.5735028,166.615587 98.8544,166.5984 Z" id="Path" fill="#F0F2FD"></path>
                <path d="M70.1952,166.5984 L75.4304,166.5984 C77.6997395,166.604493 79.872159,165.679075 81.44,164.0384 L64.16,164.0384 C65.733527,165.686184 67.9168266,166.612292 70.1952,166.5984 L70.1952,166.5984 Z" id="Path" fill="#F0F2FD"></path>
                <polygon id="Path" fill="#D9DFFF" points="114.048 209.536 116.9344 209.536 116.9344 201.3248 111.0208 201.3248"></polygon>
                <path d="M98.3999937,155.1872 C98.3974103,156.520887 99.1988109,157.724691 100.430234,158.236866 C101.661658,158.749042 103.080375,158.468632 104.024352,157.526488 C104.968329,156.584344 105.251495,155.166175 104.741714,153.933758 C104.231934,152.701341 103.029689,151.8976 101.696,151.8976 C99.8796197,151.901106 98.4070369,153.37083 98.3999937,155.1872 Z" id="Path" fill="#E0E0E0"></path>
                <circle id="Oval" fill="#E0E0E0" cx="103.1872" cy="153.0496" r="3.2896"></circle>
                <path d="M81.92,155.7184 C81.92,157.048919 82.7214853,158.248427 83.9507246,158.757594 C85.1799639,159.266762 86.5948795,158.985317 87.5356985,158.044498 C88.4765175,157.103679 88.7579617,155.688764 88.2487941,154.459525 C87.7396265,153.230285 86.540119,152.4288 85.2096,152.4288 C83.3928041,152.4288 81.92,153.901604 81.92,155.7184 L81.92,155.7184 Z" id="Path" fill="#E0E0E0"></path>
                <circle id="Oval" fill="#E0E0E0" cx="107.5904" cy="153.5872" r="4.0384"></circle>
                <path d="M95.5519949,149.8688 C95.5494105,151.50276 96.5316916,152.97727 98.0405315,153.604355 C99.5493713,154.23144 101.287408,153.887513 102.44371,152.733044 C103.600011,151.578574 103.946694,149.841086 103.322003,148.331253 C102.697313,146.821421 101.224362,145.8368 99.5904,145.8368 C97.364006,145.840312 95.5590428,147.642414 95.5519949,149.8688 Z" id="Path" fill="#E0E0E0"></path>
                <path d="M89.1519949,150.8992 C89.1494105,152.53316 90.1316916,154.00767 91.6405315,154.634755 C93.1493713,155.26184 94.8874078,154.917913 96.0437095,153.763444 C97.2000112,152.608974 97.5466942,150.871486 96.9220035,149.361653 C96.2973128,147.851821 94.8243623,146.8672 93.1904,146.8672 C90.9625502,146.8672 89.1555307,148.671353 89.1519949,150.8992 L89.1519949,150.8992 Z" id="Path" fill="#E0E0E0"></path>
                <path d="M91.8592,154.1568 C91.8592,156.277573 93.5784266,157.9968 95.6992,157.9968 C97.8199734,157.9968 99.5392,156.277573 99.5392,154.1568 C99.5392,152.036027 97.8199734,150.3168 95.6992,150.3168 C93.5784266,150.3168 91.8592,152.036027 91.8592,154.1568 Z" id="Path" fill="#E0E0E0"></path>
                <path d="M85.1776,153.9072 C85.1776,156.197635 87.0343647,158.0544 89.3248,158.0544 C91.6152353,158.0544 93.472,156.197635 93.472,153.9072 C93.472,151.616765 91.6152353,149.76 89.3248,149.76 C87.0343647,149.76 85.1776,151.616765 85.1776,153.9072 Z" id="Path" fill="#E0E0E0"></path>
                <path d="M114.0288,155.1872 C114.0288,155.1872 113.5808,161.5872 96.256,161.5872 C78.9312,161.5872 78.4768,155.1872 78.4768,155.1872 L114.0288,155.1872 Z" id="Path" fill="#F0F2FD"></path>
            </g>
            <g id="freepik--Shadow--inject-94" transform="translate(35.840000, 223.360000)" fill="#F0F2FD">
                <ellipse id="freepik--path--inject-94" cx="124.16" cy="7.8336" rx="124.0896" ry="7.2448"></ellipse>
            </g>
            <g id="freepik--Gear--inject-94" transform="translate(140.800000, 19.200000)">
                <path d="M56.1728,22.336 C55.652379,20.6162475 54.9620415,18.952577 54.112,17.3696 L55.392,13.1776 L47.1168,4.896 L42.9248,6.176 C41.341823,5.32595854 39.6781525,4.63562103 37.9584,4.1152 L35.8976,0.2752 L24.1856,0.2752 L22.1312,4.1152 C20.4110157,4.63441338 18.747227,5.32479994 17.1648,6.176 L12.9728,4.896 L4.6912,13.1776 L5.9712,17.3696 C5.12600019,18.954072 4.43791971,20.6174691 3.9168,22.336 L0.0448,24.3968 L0.0448,36.1088 L3.9168,38.1632 C4.43663485,39.88219 5.12476652,41.5457108 5.9712,43.1296 L4.6912,47.3216 L12.9728,55.6032 L17.1648,54.3232 C18.7486892,55.1696335 20.41221,55.8577651 22.1312,56.3776 L24.1856,60.2176 L35.8976,60.2176 L37.9584,56.3776 C39.6769309,55.8564803 41.340328,55.1683998 42.9248,54.3232 L47.1168,55.6032 L55.3984,47.3216 L54.1184,43.1296 C54.9696001,41.547173 55.6599866,39.8833843 56.1792,38.1632 L60.0512,36.1088 L60.0512,24.3968 L56.1728,22.336 Z M30.0416,46.8864 C20.8515818,46.8864 13.4016,39.4364182 13.4016,30.2464 C13.4016,21.0563818 20.8515818,13.6064 30.0416,13.6064 C39.2316182,13.6064 46.6816,21.0563818 46.6816,30.2464 C46.6816,39.4364182 39.2316182,46.8864 30.0416,46.8864 L30.0416,46.8864 Z" id="Shape" fill="#3E3CDA"></path>
                <path d="M56.1728,22.336 C55.652379,20.6162475 54.9620415,18.952577 54.112,17.3696 L55.392,13.1776 L47.1168,4.896 L42.9248,6.176 C41.341823,5.32595854 39.6781525,4.63562103 37.9584,4.1152 L35.8976,0.2752 L24.1856,0.2752 L22.1312,4.1152 C20.4110157,4.63441338 18.747227,5.32479994 17.1648,6.176 L12.9728,4.896 L4.6912,13.1776 L5.9712,17.3696 C5.12600019,18.954072 4.43791971,20.6174691 3.9168,22.336 L0.0448,24.3968 L0.0448,36.1088 L3.9168,38.1632 C4.43663485,39.88219 5.12476652,41.5457108 5.9712,43.1296 L4.6912,47.3216 L12.9728,55.6032 L17.1648,54.3232 C18.7486892,55.1696335 20.41221,55.8577651 22.1312,56.3776 L24.1856,60.2176 L35.8976,60.2176 L37.9584,56.3776 C39.6769309,55.8564803 41.340328,55.1683998 42.9248,54.3232 L47.1168,55.6032 L55.3984,47.3216 L54.1184,43.1296 C54.9696001,41.547173 55.6599866,39.8833843 56.1792,38.1632 L60.0512,36.1088 L60.0512,24.3968 L56.1728,22.336 Z M30.0416,46.8864 C20.8515818,46.8864 13.4016,39.4364182 13.4016,30.2464 C13.4016,21.0563818 20.8515818,13.6064 30.0416,13.6064 C39.2316182,13.6064 46.6816,21.0563818 46.6816,30.2464 C46.6816,39.4364182 39.2316182,46.8864 30.0416,46.8864 L30.0416,46.8864 Z" id="Shape" fill="#FFFFFF" opacity="0.2"></path>
                <path d="M30.0416,24.736 C26.9947555,24.736 24.5248,27.2059555 24.5248,30.2528 C24.5248,33.2996445 26.9947555,35.7696 30.0416,35.7696 C33.0884445,35.7696 35.5584,33.2996445 35.5584,30.2528 C35.5584,27.2059555 33.0884445,24.736 30.0416,24.736 Z" id="Path" fill="#3E3CDA"></path>
                <path d="M139.52,40.9152 C138.776268,38.4565478 137.792324,36.0770753 136.5824,33.8112 L136.5824,33.8112 L138.4128,27.8208 L126.592,16 L120.5952,17.8368 L120.5952,17.8368 C118.337328,16.6130362 115.95877,15.6264384 113.4976,14.8928 L113.4976,14.8928 L110.56,9.3632 L93.824,9.3632 L90.88,14.8928 C88.4196542,15.6287552 86.0413293,16.615256 83.7824,17.8368 L83.7824,17.8368 L77.792,16 L65.9584,27.8336 L67.7888,33.824 L67.7888,33.824 C66.5735006,36.0873326 65.5893305,38.4673517 64.8512,40.928 L59.3152,43.8656 L59.3152,60.6016 L64.8448,63.5456 L64.8448,63.5456 C65.581811,66.0045954 66.5660357,68.3826024 67.7824,70.6432 L67.7824,70.6432 L65.952,76.6272 L77.7856,88.4608 L83.776,86.6304 C86.0374025,87.8481025 88.4178924,88.8303226 90.88,89.5616 L93.824,95.0976 L110.56,95.0976 L113.4976,89.568 L113.4976,89.568 C115.956795,88.8288154 118.334798,87.8424483 120.5952,86.624 L126.592,88.4544 L138.4256,76.6208 L136.5952,70.6304 L136.5952,70.6304 C137.801805,68.3667732 138.781509,65.9893288 139.52,63.5328 L139.52,63.5328 L145.0496,60.5888 L145.0496,43.8528 L139.52,40.9152 Z M102.1888,82.56 C85.4311552,82.56 71.8464,68.9752448 71.8464,52.2176 C71.8464,35.4599552 85.4311552,21.8752 102.1888,21.8752 C118.946445,21.8752 132.5312,35.4599552 132.5312,52.2176 C132.5312,60.2649048 129.334421,67.982613 123.644117,73.6729168 C117.953813,79.3632206 110.236105,82.56 102.1888,82.56 Z" id="Shape" fill="#3E3CDA"></path>
                <path d="M102.1888,26.1312 C87.7789781,26.1347344 76.1000442,37.8184435 76.1024,52.2282656 C76.1047565,66.6380877 87.7875106,78.317977 102.197333,78.3167991 C116.607155,78.3156213 128.288,66.6338223 128.288,52.224 C128.270361,37.8181587 116.594645,26.1453057 102.1888,26.1312 L102.1888,26.1312 Z M102.1888,74.8416009 C93.0402528,74.8441887 84.7910911,69.335229 81.2882997,60.8838163 C77.7855084,52.4324037 79.7189942,42.7031212 86.1870788,36.2332058 C92.6551634,29.7632904 102.383898,27.8270513 110.836302,31.3274507 C119.288706,34.8278501 124.8,43.0754524 124.8,52.224 C124.785899,64.7070123 114.671808,74.8239666 102.1888,74.8416009 L102.1888,74.8416009 Z" id="Shape" fill="#3E3CDA"></path>
                <path d="M102.1888,26.1312 C87.7789781,26.1347344 76.1000442,37.8184435 76.1024,52.2282656 C76.1047565,66.6380877 87.7875106,78.317977 102.197333,78.3167991 C116.607155,78.3156213 128.288,66.6338223 128.288,52.224 C128.270361,37.8181587 116.594645,26.1453057 102.1888,26.1312 L102.1888,26.1312 Z M102.1888,74.8416009 C93.0402528,74.8441887 84.7910911,69.335229 81.2882997,60.8838163 C77.7855084,52.4324037 79.7189942,42.7031212 86.1870788,36.2332058 C92.6551634,29.7632904 102.383898,27.8270513 110.836302,31.3274507 C119.288706,34.8278501 124.8,43.0754524 124.8,52.224 C124.785899,64.7070123 114.671808,74.8239666 102.1888,74.8416009 L102.1888,74.8416009 Z" id="Shape" fill="#000000" opacity="0.2"></path>
                <path d="M42.24,96.7424 C41.8865378,96.7424 41.6,96.4558622 41.6,96.1024 L41.6,94.8224 C41.6,94.4689378 41.8865378,94.1824 42.24,94.1824 C42.5934622,94.1824 42.88,94.4689378 42.88,94.8224 L42.88,96.1024 C42.88,96.4558622 42.5934622,96.7424 42.24,96.7424 Z" id="Path" fill="#3E3CDA"></path>
                <path d="M32.2752,80.2048 C31.6876303,79.8270855 31.2280421,79.2804879 30.9568,78.6368 C30.8171824,78.3116147 30.4403853,78.1611824 30.1152,78.3008 C29.7900147,78.4404176 29.6395824,78.8172147 29.7792,79.1424 C30.1551342,80.0164547 30.7807499,80.7600691 31.5776,81.28 C31.6806103,81.346539 31.8005686,81.3820822 31.9232,81.382418 C32.2078242,81.3845224 32.4596478,81.1984184 32.5411642,80.9257089 C32.6226807,80.6529993 32.5142989,80.3592252 32.2752,80.2048 L32.2752,80.2048 Z" id="Path" fill="#3E3CDA"></path>
                <path d="M30.0416,72.2112 C30.3950622,72.2112 30.6816,71.9246622 30.6816,71.5712 L30.6816,69.12 C30.6816,68.7665378 30.3950622,68.48 30.0416,68.48 C29.6881378,68.48 29.4016,68.7665378 29.4016,69.12 L29.4016,71.5712 C29.4016,71.9246622 29.6881378,72.2112 30.0416,72.2112 Z" id="Path" fill="#3E3CDA"></path>
                <path d="M36.704,80.768 L34.2464,80.768 C33.8929378,80.768 33.6064,81.0545378 33.6064,81.408 C33.6064,81.7614622 33.8929378,82.048 34.2464,82.048 L36.704,82.048 C37.0574622,82.048 37.344,81.7614622 37.344,81.408 C37.344,81.0545378 37.0574622,80.768 36.704,80.768 Z" id="Path" fill="#3E3CDA"></path>
                <path d="M30.6816,76.48 L30.6816,74.0288 C30.6816,73.6753378 30.3950622,73.3888 30.0416,73.3888 C29.6881378,73.3888 29.4016,73.6753378 29.4016,74.0288 L29.4016,76.48 C29.4016,76.8334622 29.6881378,77.12 30.0416,77.12 C30.3950622,77.12 30.6816,76.8334622 30.6816,76.48 Z" id="Path" fill="#3E3CDA"></path>
                <path d="M42.8416,84.928 C42.7951539,84.5783588 42.474579,84.332203 42.1248,84.3776 C41.9563978,84.405738 41.8062199,84.4999982 41.7076645,84.639418 C41.6091091,84.7788378 41.5703475,84.9518579 41.6,85.12 C41.6204418,85.268474 41.6311314,85.418128 41.632,85.568 L41.632,87.488 C41.632,87.8414622 41.9185378,88.128 42.272,88.128 C42.6254622,88.128 42.912,87.8414622 42.912,87.488 L42.912,85.568 C42.9024552,85.3533643 42.8789388,85.1395783 42.8416,84.928 L42.8416,84.928 Z" id="Path" fill="#3E3CDA"></path>
                <path d="M42.24,89.2736 C41.8865378,89.2736 41.6,89.5601378 41.6,89.9136 L41.6,92.3712 C41.6,92.7246622 41.8865378,93.0112 42.24,93.0112 C42.5934622,93.0112 42.88,92.7246622 42.88,92.3712 L42.88,89.9136 C42.88,89.5601378 42.5934622,89.2736 42.24,89.2736 Z" id="Path" fill="#3E3CDA"></path>
                <path d="M41.6832,82.3872 C41.0566132,81.6716136 40.2293301,81.1609726 39.3088,80.9216 C39.0870095,80.8644375 38.8515708,80.929941 38.6911714,81.0934359 C38.530772,81.2569309 38.4697804,81.4935785 38.5311714,81.7142359 C38.5925625,81.9348934 38.7670095,82.1060375 38.9888,82.1632 C39.6613506,82.3367313 40.2658523,82.7092472 40.7232,83.232 C40.8445247,83.3701019 41.0193746,83.4493672 41.2032,83.4496 C41.454405,83.4492823 41.6821955,83.3020345 41.7856251,83.0731101 C41.8890548,82.8441858 41.8489956,82.5759217 41.6832,82.3872 L41.6832,82.3872 Z" id="Path" fill="#3E3CDA"></path>
                <path d="M30.0416,67.2768 C29.6881378,67.2768 29.4016,66.9902622 29.4016,66.6368 L29.4016,65.3568 C29.4016,65.0033378 29.6881378,64.7168 30.0416,64.7168 C30.3950622,64.7168 30.6816,65.0033378 30.6816,65.3568 L30.6816,66.6368 C30.6816,66.9902622 30.3950622,67.2768 30.0416,67.2768 Z" id="Path" fill="#3E3CDA"></path>
            </g>
            <g id="freepik--Desk--inject-94" transform="translate(64.640000, 119.040000)">
                <rect id="Rectangle" fill="#3E3CDA" x="0.5312" y="29.1264" width="148.1856" height="2.3744"></rect>
                <rect id="Rectangle" fill="#3E3CDA" transform="translate(164.793600, 30.313600) rotate(180.000000) translate(-164.793600, -30.313600) " x="148.7168" y="29.1264" width="32.1536" height="2.3744"></rect>
                <rect id="Rectangle" fill="#000000" opacity="0.2" transform="translate(164.793600, 30.313600) rotate(180.000000) translate(-164.793600, -30.313600) " x="148.7168" y="29.1264" width="32.1536" height="2.3744"></rect>
                <polygon id="Path" fill="#3E3CDA" points="170.1312 34.0416 11.2704 34.0416 5.9584 31.5008 175.4432 31.5008"></polygon>
                <polygon id="Path" fill="#FFFFFF" opacity="0.6" points="170.1312 34.0416 11.2704 34.0416 5.9584 31.5008 175.4432 31.5008"></polygon>
                <polygon id="Path" fill="#3E3CDA" points="16.0704 34.0416 16.0704 109.7792 18.1056 109.7792 20.6656 34.0416"></polygon>
                <polygon id="Path" fill="#3E3CDA" points="40.096 34.0416 40.096 109.7792 42.1312 109.7792 44.6912 34.0416"></polygon>
                <polygon id="Path" fill="#3E3CDA" points="170.1312 34.0416 170.1312 109.7792 168.1024 109.7792 165.536 34.0416"></polygon>
                <polygon id="Path" fill="#3E3CDA" points="146.112 34.0416 146.112 109.7792 144.0768 109.7792 141.5168 34.0416"></polygon>
                <polygon id="Path" fill="#3E3CDA" points="97.7536 0.3776 91.0656 27.6224 91.0656 27.6224 90.88 29.1264 137.0112 29.1264 137.2032 27.6224 143.8848 0.3776"></polygon>
                <polygon id="Path" fill="#000000" opacity="0.3" points="97.7536 0.3776 91.0656 27.6224 91.0656 27.6224 90.88 29.1264 137.0112 29.1264 137.2032 27.6224 143.8848 0.3776"></polygon>
                <polygon id="Path" fill="#3E3CDA" points="142.4704 0.3776 96.3328 0.3776 89.6512 27.6224 135.7824 27.6224"></polygon>
                <polygon id="Path" fill="#FFFFFF" points="134.8032 26.3744 140.8832 1.6256 97.312 1.6256 91.2384 26.3744"></polygon>
                <polygon id="Path" fill="#3E3CDA" points="123.7632 27.6224 123.5712 29.1264 72.7744 29.1264 72.96 27.6224"></polygon>
                <polygon id="Path" fill="#FFFFFF" opacity="0.6" points="123.7632 27.6224 123.5712 29.1264 72.7744 29.1264 72.96 27.6224"></polygon>
                <path d="M27.8016,24.1728 C27.7351058,22.1578862 26.2015344,20.4962901 24.1984,20.2688 L24.1984,19.5328 C24.1967488,19.4467816 24.1605301,19.3650515 24.0979153,19.3060491 C24.0353005,19.2470466 23.9515648,19.2157428 23.8656,19.2192 L16.9536,19.2192 C16.8670156,19.2157378 16.782608,19.2468477 16.7189807,19.305673 C16.6553533,19.3644983 16.617729,19.4462103 16.6144,19.5328 L16.6144,29.1328 L24.1984,29.1328 L24.1984,28.0832 C26.2051982,27.8579641 27.7409413,26.1912872 27.8016,24.1728 Z M24.1984,26.8416 L24.1984,21.5104 C25.5204394,21.7052624 26.4999031,22.8396768 26.4999031,24.176 C26.4999031,25.5123232 25.5204394,26.6467376 24.1984,26.8416 L24.1984,26.8416 Z" id="Shape" fill="#3E3CDA"></path>
                <polygon id="Path" fill="#252482" points="157.1584 29.1264 163.584 29.1264 161.6832 15.0528 157.1584 15.0528"></polygon>
                <polygon id="Path" fill="#3E3CDA" points="147.7376 29.1264 159.9104 29.1264 162.1696 12.6528 150.0032 12.6528"></polygon>
                <polygon id="Path" fill="#000000" opacity="0.3" points="147.7376 29.1264 159.9104 29.1264 162.1696 12.6528 150.0032 12.6528"></polygon>
                <polygon id="Path" fill="#3E3CDA" points="146.112 29.1264 158.7776 29.1264 161.0432 12.6528 148.3776 12.6528"></polygon>
                <polygon id="Path" fill="#FFFFFF" opacity="0.4" points="157.6576 27.8272 159.5648 13.952 149.4976 13.952 147.5904 27.8272"></polygon>
            </g>
            <g id="freepik--Character--inject-94" transform="translate(111.360000, 82.560000)">
                <path d="M15.0656,41.2864 L14.5408,41.8496 L13.9776,42.4896 C13.6,42.9248 13.2224,43.3664 12.864,43.8208 C12.1472,44.7296 11.456,45.6576 10.8096,46.6112 C9.52347412,48.4555009 8.44998984,50.4392999 7.6096,52.5248 C7.21814783,53.516119 6.9140582,54.5397447 6.7008,55.584 C6.5984,56.1728 6.5344,56.4288 6.5024,56.6784 C6.4669572,56.8773673 6.4669572,57.0810327 6.5024,57.28 C6.71915023,57.9119633 7.18020718,58.4306523 7.7824,58.72 C8.21445587,58.9862813 8.66835499,59.2153719 9.1392,59.4048 C9.38666667,59.5072 9.64266667,59.6032 9.9072,59.6928 C10.1504,59.7824 10.4576,59.872 10.6496,59.9488 L10.6496,63.4752 C10.2016,63.5392 9.8752,63.5904 9.4976,63.616 C9.12,63.6416 8.7552,63.648 8.3776,63.616 C7.60129514,63.6003615 6.8288947,63.5016659 6.0736,63.3216 C5.22260143,63.1216774 4.4069009,62.7936708 3.6544,62.3488 C2.76962077,61.831086 2.00931712,61.1254019 1.4272,60.2816 C0.827906068,59.3833566 0.430509261,58.365846 0.2624,57.2992 C0.219569737,57.0493597 0.191786364,56.7971722 0.1792,56.544 C0.166520091,56.3009653 0.166520091,56.0574347 0.1792,55.8144 L0.1792,55.456 C0.171989846,55.3601354 0.171989846,55.2638646 0.1792,55.168 L0.2304,54.6048 C0.394108863,53.1420741 0.702826916,51.6992459 1.152,50.2976 C2.01872553,47.605307 3.23898188,45.0399709 4.7808,42.6688 C5.52157815,41.5045458 6.32711135,40.3827821 7.1936,39.3088 C7.6224,38.7712 8.064,38.2464 8.5248,37.728 C8.7488,37.4656 8.9856,37.2096 9.2288,36.9536 C9.472,36.6976 9.696,36.4736 10.0288,36.1536 L15.0656,41.2864 Z" id="Path" fill="#B55B52"></path>
                <path d="M9.376,59.872 L12.3584,57.6832 L14.0544,63.8144 C14.0544,63.8144 11.4112,64.7936 9.3952,63.4752 L9.376,59.872 Z" id="Path" fill="#B55B52"></path>
                <polygon id="Path" fill="#B55B52" points="16.4992 56.2112 17.664 61.344 14.0544 63.8144 12.3584 57.6832"></polygon>
                <path d="M35.36,17.76 C35.2256,18.1376 35.3216,18.5152 35.5712,18.5984 C35.8208,18.6816 36.128,18.4512 36.256,18.0736 C36.384,17.696 36.2944,17.312 36.0512,17.2288 C35.808,17.1456 35.4944,17.376 35.36,17.76 Z" id="Path" fill="#252482"></path>
                <path d="M35.2896,18.5024 C35.339487,19.8204272 35.5699005,21.1253859 35.9744,22.3808 C35.3221174,22.5677681 34.6206956,22.4602168 34.0544,22.0864 L35.2896,18.5024 Z" id="Path" fill="#A02724"></path>
                <path d="M34.7456,15.1872 C34.7933467,15.2032957 34.8450533,15.2032957 34.8928,15.1872 C35.4624112,14.9971571 36.088646,15.0924019 36.576,15.4432 C36.6758436,15.5156092 36.8145481,15.4992561 36.8948142,15.4056122 C36.9750804,15.3119683 36.9700275,15.1723947 36.8832,15.0848 C36.2736344,14.630519 35.4818957,14.4993574 34.7584,14.7328 C34.6626878,14.7656156 34.5984,14.8556185 34.5984,14.9568 C34.5984,15.0579815 34.6626878,15.1479844 34.7584,15.1808 L34.7456,15.1872 Z" id="Path" fill="#252482"></path>
                <path d="M21.3248,19.1552 C22.0416,22.7968 22.752,29.472 20.2048,31.904 C20.2048,31.904 21.2032,35.5968 27.9744,35.5968 C35.4176,35.5968 31.5328,31.904 31.5328,31.904 C27.4688,30.9312 27.5712,27.9168 28.2816,25.088 L21.3248,19.1552 Z" id="Path" fill="#B55B52"></path>
                <path d="M19.232,33.1712 C18.6944,32 18.112,30.6624 19.3216,30.2464 C20.6592,29.7856 27.9808,29.312 30.5024,30.176 C31.1758702,30.3592483 31.7473036,30.8057302 32.0879971,31.4148854 C32.4286906,32.0240406 32.5099957,32.7446457 32.3136,33.4144 L19.232,33.1712 Z" id="Path" fill="#252482"></path>
                <path d="M44.8,39.4176 C46.368,42.24 48.0512,45.1456 49.7536,47.936 C51.456,50.7264 53.2416,53.504 55.1488,56.0384 C55.6224,56.6784 56.1152,57.2864 56.6016,57.8944 C56.8448,58.208 57.1008,58.464 57.3504,58.752 L57.7216,59.1744 L57.8176,59.2832 L57.8624,59.3344 L57.8624,59.3344 L57.9072,59.392 C58.2054025,59.6803668 58.5638885,59.8989559 58.9568,60.032 C59.5616992,60.2424763 60.1853368,60.3946353 60.8192,60.4864 C63.9302368,60.8004723 67.0667136,60.7639767 70.1696,60.3776 L71.1424,63.7696 C70.2784,64.1536 69.472,64.4096 68.6144,64.7296 C67.7568,65.0496 66.912,65.2608 66.0544,65.4784 C64.2365542,65.9343883 62.372991,66.1834359 60.4992,66.2208 C59.4473776,66.2377704 58.3971427,66.1325321 57.3696,65.9072 C56.1081986,65.6566817 54.9186963,65.127528 53.888,64.3584 L53.4592,64.0064 L53.3568,63.9168 L53.2928,63.8528 L53.1712,63.7312 L52.672,63.2384 C52.3456,62.912 51.9872,62.5984 51.6928,62.2528 C51.0528,61.5808 50.4512,60.9088 49.8944,60.2176 C47.6584205,57.5154814 45.5956338,54.6746073 43.7184,51.712 C42.784,50.2528 41.8837333,48.7786667 41.0176,47.2896 C40.1472,45.7856 39.3088,44.3136 38.496,42.7264 L44.8,39.4176 Z" id="Path" fill="#B55B52"></path>
                <path d="M11.2896,33.0304 C6.6176,34.0992 1.2672,46.8288 1.2672,46.8288 L10.6432,53.2288 C12.9751445,49.8847003 15.0442794,46.3648173 16.832,42.7008 C19.6032,36.9024 16.064,31.936 11.2896,33.0304 Z" id="Path" fill="#3E3CDA"></path>
                <path d="M14.6304,41.1456 L10.2016,52.9472 L10.6368,53.2544 C10.6368,53.2544 12.5568,50.56 14.6304,46.9248 L14.6304,41.1456 Z" id="Path" fill="#000000" opacity="0.2"></path>
                <path d="M39.1936,33.28 C39.1936,33.28 44.4928,39.2704 39.488,76.3264 L12.8448,76.3264 C12.6656,72.2368 15.232,52.2944 11.2896,33.024 C14.2339952,32.4570604 17.2119222,32.0808112 20.2048,31.8976 C23.9775676,31.6766434 27.7600324,31.6766434 31.5328,31.8976 C34.1185377,32.1579534 36.6799496,32.6201631 39.1936,33.28 L39.1936,33.28 Z" id="Path" fill="#3E3CDA"></path>
                <path d="M36.2304,44 C36.9254869,48.2058252 38.7430199,52.1460245 41.4912,55.4048 C41.6,53.0176 41.6448,50.8736 41.6384,48.96 L36.2304,44 Z" id="Path" fill="#000000" opacity="0.2"></path>
                <path d="M33.92,37.3248 C33.28,42.0416 42.56,54.0864 42.56,54.0864 L51.8976,47.6864 C51.8976,47.6864 49.3056,41.0496 44.9472,36.6976 C39.9808,31.7056 34.6496,32.192 33.92,37.3248 Z" id="Path" fill="#3E3CDA"></path>
                <path d="M69.12,60.4096 L72.9216,58.848 L76.832,61.8048 C76.832,61.8048 73.1008,65.1072 69.7088,63.8208 L69.12,60.4096 Z" id="Path" fill="#B55B52"></path>
                <polygon id="Path" fill="#B55B52" points="75.4304 58.6944 78.2976 60.7424 76.8128 61.8048 72.9024 58.848"></polygon>
                <path d="M22.9824,12.5504 C21.6512,17.312 20.6272,20.032 22.1504,23.2384 C24.4352,28.0704 30.9312,27.936 33.6704,23.6736 C36.128,19.8336 37.8944,12.6912 33.9776,9.2544 C32.2291427,7.70128138 29.8009941,7.16459594 27.5608309,7.83612333 C25.3206677,8.50765072 23.5881586,10.2915647 22.9824,12.5504 L22.9824,12.5504 Z" id="Path" fill="#B55B52"></path>
                <path d="M33.12,12.6016 C31.2,18.0672 28.9408,24.0704 23.424,22.9312 C19.8656,22.1952 19.584,16.4672 18.304,13.8624 C17.1712,11.5776 17.2416,6.9824 19.584,6.9248 C18.5344,5.4016 23.84,-0.1728 27.4624,2.7712 C28.3904,1.4912 35.0784,-2.2784 40.032,3.7056 C44.6976,9.3632 42.4128,14.08 33.12,12.6016 Z" id="Path" fill="#252482"></path>
                <path d="M28.8,16.096 C28.6717931,17.3168417 28.9459698,18.5461421 29.5808,19.5968 C30.432,20.9664 31.68,20.4416 32.1408,19.04 C32.5504,17.76 32.5952,15.552 31.4112,14.6624 C30.2272,13.7728 28.9792,14.624 28.8,16.096 Z" id="Path" fill="#B55B52"></path>
                <path d="M69.6832,142.6432 C70.3232,142.6432 70.9632,142.5536 71.1488,142.2656 C71.2570372,142.109749 71.2570372,141.903051 71.1488,141.7472 C71.0636561,141.612441 70.9312875,141.514305 70.7776,141.472 C69.9456,141.248 68.2176,142.24 68.1344,142.2848 C68.0894334,142.307179 68.06563,142.35743 68.0768,142.4064 C68.0853357,142.453162 68.1203368,142.490663 68.1664,142.5024 C68.6669135,142.593572 69.1744567,142.640685 69.6832,142.6432 L69.6832,142.6432 Z M70.4768,141.6768 C70.5510972,141.666295 70.6265028,141.666295 70.7008,141.6768 C70.7986132,141.695036 70.8831361,141.75608 70.9312,141.8432 C71.0144,141.9904 70.9888,142.0608 70.9312,142.0992 C70.7008,142.4256 69.44,142.432 68.512,142.2976 C69.1204594,141.965166 69.7877956,141.754314 70.4768,141.6768 L70.4768,141.6768 Z" id="Shape" fill="#3E3CDA"></path>
                <path d="M68.1792,142.5024 L68.2304,142.5024 C68.832,142.2336 70.0224,141.1584 69.9264,140.5824 C69.9264,140.448 69.8112,140.288 69.4912,140.2496 C69.2590532,140.229445 69.0285186,140.303216 68.8512,140.4544 C68.2112,140.9728 68.0832,142.3168 68.0768,142.3744 C68.0720251,142.415958 68.0889466,142.457053 68.1216,142.4832 C68.1392571,142.493533 68.1588744,142.500072 68.1792,142.5024 Z M69.3952,140.4864 L69.4656,140.4864 C69.6768,140.4864 69.6896,140.5952 69.696,140.6208 C69.7536,140.96 68.9408,141.8048 68.3264,142.1696 C68.377409,141.606063 68.6008885,141.071946 68.9664,140.64 C69.0856616,140.537949 69.2382671,140.483285 69.3952,140.4864 L69.3952,140.4864 Z" id="Shape" fill="#3E3CDA"></path>
                <polygon id="Path" fill="#B55B52" points="62.3872 142.3872 67.3664 142.3872 68.4992 130.848 63.52 130.848"></polygon>
                <path d="M67.648,141.8112 L62.2144,141.8112 C62.0083398,141.812245 61.8303936,141.955665 61.7856,142.1568 L60.8,146.56 C60.7485662,146.77738 60.8004738,147.006328 60.9406287,147.18027 C61.0807837,147.354213 61.2934547,147.453625 61.5168,147.4496 C63.4752,147.4176 66.3104,147.3024 68.7744,147.3024 C71.6608,147.3024 74.1504,147.456 77.5296,147.456 C79.5776,147.456 80.1472,145.3888 79.2896,145.2032 C75.392,144.352 72.2112,144.2624 68.8448,142.1824 C68.4876773,141.950783 68.0735106,141.822325 67.648,141.8112 L67.648,141.8112 Z" id="Path" fill="#252482"></path>
                <polygon id="Path" fill="#000000" opacity="0.2" points="68.4928 130.8544 67.9168 136.8 62.9312 136.8 63.5136 130.8544"></polygon>
                <path d="M49.7216,142.6368 C50.1481448,142.692637 50.5792631,142.575059 50.9184,142.3104 C51.0390235,142.144399 51.0390235,141.919601 50.9184,141.7536 C50.8417108,141.611262 50.7056814,141.510413 50.5472,141.4784 C49.8176,141.3056 48.4416,142.2464 48.384,142.2848 C48.3468431,142.313591 48.3274278,142.359702 48.3328,142.4064 C48.3420833,142.451485 48.3773146,142.486717 48.4224,142.496 C48.849214,142.589083 49.284754,142.636285 49.7216,142.6368 L49.7216,142.6368 Z M50.3616,141.6896 C50.4082976,141.682948 50.4557024,141.682948 50.5024,141.6896 C50.5952714,141.703185 50.6760989,141.76024 50.72,141.8432 C50.8288,142.0416 50.7648,142.1184 50.72,142.1504 C50.5088,142.4256 49.4912,142.432 48.7424,142.3104 C49.2239587,141.984513 49.7732378,141.772241 50.3488,141.6896 L50.3616,141.6896 Z" id="Shape" fill="#3E3CDA"></path>
                <path d="M48.4544,142.5024 L48.5056,142.5024 C49.024,142.2208 50.0224,141.1328 49.9136,140.5824 C49.8796892,140.400567 49.7209681,140.268748 49.536,140.2688 C49.3553286,140.246683 49.1737866,140.302542 49.0368,140.4224 C48.4608,140.896 48.3392,142.3424 48.332786,142.3936 C48.3321544,142.437325 48.3538755,142.478353 48.3904,142.5024 C48.4112509,142.508816 48.4335491,142.508816 48.4544,142.5024 Z M49.4592,140.4864 L49.5104,140.4864 C49.664,140.4864 49.6768,140.576 49.6832,140.608 C49.7472,140.9344 49.1072,141.76 48.5952,142.1504 C48.6295621,141.582414 48.8348035,141.038078 49.184,140.5888 C49.2605358,140.522855 49.3581727,140.486525 49.4592,140.4864 L49.4592,140.4864 Z" id="Shape" fill="#3E3CDA"></path>
                <polygon id="Path" fill="#B55B52" points="42.7456 142.3872 47.7248 142.3872 50.2272 130.848 45.248 130.848"></polygon>
                <path d="M48.0768,141.8112 L42.4832,141.8112 C42.2786842,141.812835 42.102901,141.956658 42.0608,142.1568 L41.0752,146.56 C41.0284553,146.778955 41.0839162,147.007283 41.2258948,147.180397 C41.3678734,147.353511 41.5809305,147.452587 41.8048,147.4496 C43.7568,147.4176 44.7104,147.3024 47.168,147.3024 C48.6848,147.3024 50.624,147.456 52.7168,147.456 C54.8096,147.456 55.0784,145.3888 54.2208,145.2032 C50.3808,144.3648 50.1184,143.2064 48.8896,142.0992 C48.6629452,141.907133 48.3738181,141.804686 48.0768,141.8112 L48.0768,141.8112 Z" id="Path" fill="#252482"></path>
                <g id="Group" opacity="0.2" transform="translate(43.520000, 130.560000)" fill="#000000">
                    <polygon id="Path" points="1.728 0.2944 6.7072 0.2944 5.4144 6.24 0.4352 6.24"></polygon>
                </g>
                <path d="M39.488,76.3328 C39.488,76.3328 76.8,80.2816 76.3904,99.3152 C76.1260021,111.268856 73.8275357,123.090158 69.5936,134.272 L62.1952,134.272 C62.1952,134.272 62.5728,122.1952 62.3232,102.7072 C62.2464,96.864 50.4512,94.9376 38.9248,94.2592 C28.9681178,93.6331885 20.2277137,87.4151995 16.3712,78.2144 L15.584,76.3328 L39.488,76.3328 Z" id="Path" fill="#252482"></path>
                <path d="M71.4048,132.288 C71.4432,132.288 70.9248,135.7888 70.9248,135.7888 L60.6848,135.7888 L60.4032,132.6656 L71.4048,132.288 Z" id="Path" fill="#3E3CDA"></path>
                <path d="M31.5008,76.3328 C31.5008,76.3328 58.5472,85.2928 59.232,96.4032 C60.512,116.8448 50.4576,134.272 50.4576,134.272 L42.9888,134.272 C42.9888,134.272 45.824,125.632 46.8288,107.1104 C48.1088,83.8464 4.6976,107.072 12.832,76.3328 L31.5008,76.3328 Z" id="Path" fill="#252482"></path>
                <path d="M52.7168,132.288 C52.7552,132.288 51.776,135.7888 51.776,135.7888 L41.536,135.7888 L41.7216,132.6656 L52.7168,132.288 Z" id="Path" fill="#3E3CDA"></path>
                <path d="M51.008,95.9296 L9.408,95.9296 C9.408,93.3069102 11.5341102,91.1808 14.1568,91.1808 L46.2592,91.1808 C48.8818898,91.1808 51.008,93.3069102 51.008,95.9296 L51.008,95.9296 Z" id="Path" fill="#3E3CDA"></path>
                <polygon id="Path" fill="#3E3CDA" points="11.3344 95.9232 5.0624 148.5056 6.4064 148.5056 14.3616 95.9232"></polygon>
                <polygon id="Path" fill="#000000" opacity="0.4" points="11.3344 95.9232 5.0624 148.5056 6.4064 148.5056 14.3616 95.9232"></polygon>
                <polygon id="Path" fill="#3E3CDA" points="19.7248 95.9232 19.6032 148.5056 20.9408 148.5056 22.752 95.9232"></polygon>
                <polygon id="Path" fill="#000000" opacity="0.4" points="19.7248 95.9232 19.6032 148.5056 20.9408 148.5056 22.752 95.9232"></polygon>
                <polygon id="Path" fill="#3E3CDA" points="49.0816 95.9232 55.3536 148.5056 54.0096 148.5056 46.0608 95.9232"></polygon>
                <polygon id="Path" fill="#000000" opacity="0.4" points="49.0816 95.9232 55.3536 148.5056 54.0096 148.5056 46.0608 95.9232"></polygon>
                <polygon id="Path" fill="#3E3CDA" points="40.6912 95.9232 40.8128 148.5056 39.4752 148.5056 37.664 95.9232"></polygon>
                <polygon id="Path" fill="#000000" opacity="0.4" points="40.6912 95.9232 40.8128 148.5056 39.4752 148.5056 37.664 95.9232"></polygon>
            </g>
        </g>
        <g id="Group-7" transform="translate(33.000000, 24.000000)">
            <path d="M76.1402809,30.712 C75.4242809,22.66 72.6162809,14.604 67.1522809,8.648 C61.6882809,2.692 53.3482809,-0.892 45.3762809,0.452 C37.4042809,1.796 30.3642809,8.612 29.8042809,16.68 C29.5202809,20.964 30.9482809,25.216 30.7122809,29.5 C30.3122809,36.908 24.9962809,43.176 19.0522809,47.608 C13.9282809,51.432 8.4042809,52.808 4.7322809,58.008 C-1.8557191,67.384 -0.759719105,78.188 3.1322809,84.648 C4.4682809,86.868 6.6602809,88.956 9.2882809,90.736 C16.8362809,95.856 26.2802809,97.176 35.1202809,94.924 C48.8362809,91.424 61.2202809,82.772 68.3562809,71.544 C76.6482809,58.52 77.3162809,43.944 76.1402809,30.712 Z" id="Path" fill="#F2F2FF" fill-rule="nonzero"></path>
            <circle id="Oval" fill="#3E3CDA" fill-rule="nonzero" cx="18.4242809" cy="87.58" r="1"></circle>
            <path d="M63.1642809,54.768 C63.1642809,55.3335396 62.7058205,55.792 62.1402809,55.792 C61.5747413,55.792 61.1162809,55.3335396 61.1162809,54.768 C61.1162809,54.2024604 61.5747413,53.744 62.1402809,53.744 C62.7058205,53.744 63.1642809,54.2024604 63.1642809,54.768 Z" id="Path" fill="#3E3CDA"></path>
            <circle id="Oval" fill="#3E3CDA" fill-rule="nonzero" cx="46.7322809" cy="16.288" r="1"></circle>
            <rect id="Rectangle" fill="#3E3CDA" fill-rule="nonzero" x="68.1442809" y="40.528" width="12.824" height="1.756"></rect>
            <rect id="Rectangle" fill="#3E3CDA" fill-rule="nonzero" x="68.1442809" y="43.704" width="5.548" height="1.756"></rect>
            <g id="freepik--robot-2--inject-3" transform="translate(20.364281, 21.200000)" fill-rule="nonzero">
                <path d="M19.704,25.16 C19.704,25.16 1.304,24.564 1.304,34.36 C1.304,45.452 4.96,66.236 19.704,66.02 C34.448,65.804 37.152,36.66 37.304,35.364 C37.316,35.352 38.084,26 19.704,25.16 Z" id="Path" fill="#3E3CDA"></path>
                <path d="M36.876,32.824 C36.8536223,32.8474832 36.8280355,32.8676833 36.8,32.884 L36.564,33.04 C36.36,33.18 36.048,33.368 35.644,33.6 C34.4835971,34.240834 33.268062,34.776312 32.012,35.2 C30.1489036,35.8331217 28.2274414,36.279319 26.276,36.532 C23.8884166,36.8347458 21.4824255,36.968412 19.076,36.932 C16.6711772,36.9412257 14.2676309,36.8197131 11.876,36.568 C9.91343973,36.3557091 7.99359351,35.8514798 6.18,35.072 C4.96288603,34.5364825 3.83510758,33.8174563 2.836,32.94 C2.492,32.62 2.236,32.356 2.076,32.172 L1.896,31.956 L1.836,31.88 C1.836,31.88 1.864,31.9 1.912,31.944 L2.108,32.144 C2.276,32.32 2.54,32.572 2.908,32.876 C3.91466397,33.7273349 5.0431883,34.4230559 6.256,34.94 C8.05499207,35.6983642 9.955001,36.1902105 11.896,36.4 C14.2818213,36.6385211 16.6782946,36.7546733 19.076,36.748 C21.4742721,36.7761288 23.8717113,36.6424922 26.252,36.348 C28.1941325,36.1044769 30.1083007,35.6744923 31.968,35.064 C33.2208631,34.6498092 34.4370644,34.1320205 35.604,33.516 C36.004,33.296 36.332,33.116 36.544,32.992 L36.788,32.856 C36.8162002,32.8424429 36.8456785,32.8317235 36.876,32.824 Z" id="Path" fill="#252482"></path>
                <path d="M25.756,36.52 C25.7747817,36.6094439 25.784166,36.7006056 25.7840022,36.792 C25.7840022,36.972 25.7840022,37.24 25.7840022,37.592 C25.7844885,38.5626775 25.6825915,39.5306993 25.48,40.48 C25.3358373,41.1369234 25.1254275,41.7775339 24.852,42.392 C24.5475169,43.1029017 24.1434709,43.766884 23.652,44.364 C23.0984588,45.0214964 22.4336827,45.5766048 21.688,46.004 C21.2891365,46.2230511 20.8698076,46.4025721 20.436,46.54 C19.9857129,46.6735091 19.5210863,46.7527374 19.052,46.776 C18.1253326,46.797606 17.209733,46.5711228 16.4,46.12 C15.6474369,45.7007648 14.9842844,45.1381723 14.448,44.464 C13.553948,43.3155719 12.9674756,41.9581498 12.744,40.52 C12.5882001,39.5616515 12.5265729,38.5903546 12.56,37.62 C12.56,37.28 12.592,37.012 12.608,36.82 C12.6100262,36.7269721 12.6220962,36.6344352 12.644,36.544 C12.6509705,36.635868 12.6509705,36.728132 12.644,36.82 C12.644,37.02 12.644,37.284 12.644,37.62 C12.6377509,38.5816141 12.7207737,39.5417325 12.892,40.488 C13.1271436,41.8936211 13.7132429,43.21716 14.596,44.336 C15.1200137,44.9870781 15.7652432,45.5304293 16.496,45.936 C17.2803265,46.3669939 18.1654062,46.5810147 19.06,46.556 C19.5113168,46.534465 19.9584643,46.459269 20.392,46.332 C20.8083509,46.1991468 21.2103555,46.0249448 21.592,45.812 C22.3206799,45.3967737 22.9694974,44.8549636 23.508,44.212 C23.9986494,43.6347966 24.4028682,42.9893939 24.708,42.296 C24.9851776,41.6939026 25.2009356,41.06539 25.352,40.42 C25.5661694,39.4820395 25.6894062,38.5256146 25.72,37.564 C25.72,37.24 25.72,36.98 25.74,36.764 C25.7375833,36.6823433 25.7429408,36.6006419 25.756,36.52 Z" id="Path" fill="#252482"></path>
                <path d="M30.132,59.112 C30.108,59.112 29.988,58.712 29.676,58.036 C29.2271833,57.0743782 28.6557682,56.1749037 27.976,55.36 C26.9606216,54.1588949 25.7164848,53.1717437 24.316,52.456 C20.8078767,50.7174871 16.6576758,50.8756043 13.292,52.876 C11.9490843,53.69395 10.7835136,54.7724769 9.864,56.048 C9.2459286,56.9118031 8.74428402,57.8532273 8.372,58.848 C8.108,59.552 8.02,59.96 7.996,59.9560291 C8.00779896,59.8545332 8.02786567,59.7541997 8.056,59.656 C8.1208875,59.3732149 8.20100424,59.0941416 8.296,58.82 C8.64124872,57.8055911 9.12878095,56.8453412 9.744,55.968 C10.6610287,54.6600828 11.8357422,53.5534292 13.196,52.716 C16.6088304,50.6607917 20.8375519,50.5007044 24.396,52.292 C25.8140877,53.0241439 27.0677046,54.0381988 28.08,55.272 C28.7603717,56.1013514 29.3205404,57.022398 29.744,58.008 C29.884,58.36 29.988,58.632 30.044,58.808 C30.0836955,58.9060423 30.1131845,59.0079135 30.132,59.112 Z" id="Path" fill="#252482"></path>
                <path d="M27.272,49.384 L28.12,45.6 L35.552,45.6 C35.288,46.728 34.92,48.044 34.496,49.444 L27.272,49.384 Z" id="Path" fill="#FAFAFA"></path>
                <path d="M10.648,49.384 L9.804,45.6 L2.368,45.6 C2.632,46.728 2.856,48.044 3.276,49.444 L10.648,49.384 Z" id="Path" fill="#FAFAFA"></path>
                <path d="M36.348,31.896 C34.568,28.992 29.86,25.632 19.704,25.16 C19.704,25.16 8.324,24.792 3.464,29.396 C3.00347164,29.8680333 2.58831377,30.3822934 2.224,30.932 C1.928,31.48 6.02,36.396 19.172,35.976 C32.74,35.54 36.348,31.896 36.348,31.896 Z" id="Path" fill="#000000" opacity="0.4"></path>
                <path d="M0.988,14.544 C0.336,13.084 0.02,11.412 0.464,9.876 C0.908,8.34 2.228,7 3.824,6.86" id="Path" fill="#252482"></path>
                <path d="M3.292,6.952 C3.292,6.98 3.024,7.196 2.644,7.632 C2.14477418,8.19317563 1.72731728,8.82205425 1.404,9.5 C1.10107248,10.1910362 0.841894499,10.9004357 0.628,11.624 C0.561088867,11.9324038 0.472877389,12.2357978 0.364,12.532 C0.354197339,12.212985 0.394693357,11.8944163 0.484,11.588 C0.658446007,10.841599 0.90216945,10.1131069 1.212,9.412 C1.54341103,8.7147173 1.99114428,8.07896314 2.536,7.532 C2.74670252,7.29008205 3.0037681,7.09286242 3.292,6.952 Z" id="Path" fill="#3E3CDA"></path>
                <path d="M37.768,14.544 C38.42,13.084 38.736,11.412 38.292,9.876 C37.848,8.34 36.528,7 34.936,6.86" id="Path" fill="#252482"></path>
                <path d="M35.464,6.952 C35.7532332,7.09124032 36.0106049,7.28869485 36.22,7.532 C36.7659449,8.07804765 37.2138179,8.71400027 37.544,9.412 C37.8538305,10.1131069 38.097554,10.841599 38.272,11.588 C38.3613066,11.8944163 38.4018027,12.212985 38.392,12.532 C38.2854136,12.2350496 38.1972462,11.9318071 38.128,11.624 C37.915723,10.9004259 37.6578745,10.1910086 37.356,9.5 C37.0299781,8.82265034 36.6112975,8.19395629 36.112,7.632 C35.732,7.2 35.444,6.98 35.464,6.952 Z" id="Path" fill="#3E3CDA"></path>
                <path d="M2.464,21.792 C0.666699754,19.9566086 -0.103473162,17.3494084 0.408,14.832 C1.472,9.472 5.372,-0.176 19.704,0.032 C34.74,0.244 37.564,10.652 38.048,15.664 C38.2521936,17.7355776 37.6215924,19.8030284 36.296,21.408 C34.06,24.108 29.312,27.596 19.704,27.5920151 C10.188,27.6 5.072,24.424 2.464,21.792 Z" id="Path" fill="#3E3CDA"></path>
                <path d="M13.004,0.66 C13.0403195,0.715754553 13.0685977,0.776350781 13.088,0.84 L13.296,1.368 C13.476,1.824 13.728,2.488 14.12,3.268 C14.5639462,4.18577827 15.172716,5.01419337 15.916,5.712 C16.8153068,6.57797101 18.0155381,7.06121827 19.264,7.06 C20.5084609,6.98544667 21.6930141,6.50008934 22.632,5.68 C23.3966747,5.00517381 24.0382244,4.20256002 24.528,3.308 C24.8646819,2.70505518 25.1652123,2.08262333 25.428,1.444 C25.5171904,1.20496646 25.6200262,0.971248832 25.736,0.744 C25.7311971,0.810290001 25.7149575,0.875248646 25.688,0.936 C25.648,1.06 25.588,1.244 25.504,1.472 C25.2674997,2.12753097 24.9841001,2.76518005 24.656,3.38 C24.1757115,4.30288622 23.5319508,5.13096576 22.756,5.824 C21.7897367,6.68537384 20.5603627,7.19432338 19.268,7.268 C18.5979929,7.28446211 17.933079,7.14764856 17.324,6.868 C16.7609533,6.61195811 16.2424206,6.26762001 15.788,5.848 C15.0328251,5.1288985 14.4218878,4.27222859 13.988,3.324 C13.691573,2.69544587 13.4350643,2.04883027 13.22,1.388 C13.14,1.15333333 13.084,0.973333333 13.052,0.848 C13.0301313,0.786979854 13.0140603,0.724035053 13.004,0.66 L13.004,0.66 Z" id="Path" fill="#252482"></path>
                <path d="M29.2,21.2 C22.224,22.904 15.416,22.968 8.8,21.272 C6.30835637,20.6238036 4.57193024,18.3705643 4.57997199,15.796 L4.57997199,15.7 C4.57997199,14.1978138 5.17674114,12.7571532 6.23894719,11.6949472 C7.30115324,10.6327411 8.7418138,10.036 10.244,10.036 L27.844,10.036 C29.3461862,10.036 30.7868468,10.6327411 31.8490528,11.6949472 C32.9112589,12.7571532 33.5080013,14.1978138 33.5080013,15.7 L33.5080013,15.7 C33.5097716,18.3065994 31.7311436,20.577364 29.2,21.2 L29.2,21.2 Z" id="Path" fill="#252482"></path>
                <path d="M13.832,16.776 C13.719618,17.4756537 13.0616796,17.9519924 12.3619116,17.8403245 C11.6621435,17.7286567 11.1851336,17.0712048 11.2960872,16.3713231 C11.4070408,15.6714415 12.0640055,15.1937608 12.764,15.304 C13.1010649,15.3570829 13.4031385,15.5421476 13.6035214,15.8183309 C13.8039044,16.0945142 13.8861147,16.4390992 13.832,16.776 L13.832,16.776 Z" id="Path" fill="#FFFFFF"></path>
                <path d="M28.544,16.032 C28.4312069,16.7320253 27.7723411,17.2081117 27.0722979,17.0954295 C26.3722547,16.9827474 25.8960639,16.3239571 26.0086351,15.623896 C26.1212063,14.923835 26.7799211,14.4475398 27.48,14.56 C27.8163319,14.6140281 28.1174104,14.7994906 28.3169637,15.0755643 C28.516517,15.351638 28.5981881,15.6956938 28.544,16.032 Z" id="Path" fill="#FFFFFF"></path>
                <path d="M22.896,16.196 C22.9534231,16.5776712 22.886083,16.9676824 22.704,17.308 C22.5330995,17.6910138 22.2740514,18.0281875 21.948,18.292 C21.5515537,18.6104951 21.067281,18.8002965 20.56,18.836 C20.0572796,18.8760521 19.5544365,18.7601189 19.12,18.504 C18.7679433,18.2894518 18.4729122,17.9930485 18.26,17.64 C18.0385292,17.3261694 17.9273946,16.9477489 17.944,16.564 C18.0660828,16.9012976 18.2215195,17.2255708 18.408,17.532 C18.6244441,17.8423525 18.9072912,18.1006041 19.236,18.288 C19.6345461,18.5093372 20.0895511,18.6081303 20.544,18.572 C21.00219,18.5405702 21.441353,18.3765789 21.808,18.1 C22.1123987,17.8648193 22.3632847,17.567574 22.544,17.228 C22.6914523,16.8950203 22.8092422,16.5496817 22.896,16.196 L22.896,16.196 Z" id="Path" fill="#FFFFFF"></path>
            </g>
        </g>
    </g>
</svg>