<?xml version="1.0" encoding="UTF-8"?>
<svg width="299px" height="250px" viewBox="0 0 299 250" version="1.1" xmlns="http://www.w3.org/2000/svg" xmlns:xlink="http://www.w3.org/1999/xlink">
    <!-- Generator: Sketch 63.1 (92452) - https://sketch.com -->
    <title>Content-rafiki Copy</title>
    <desc>Created with Sketch.</desc>
    <g id="Page-1" stroke="none" stroke-width="1" fill="none" fill-rule="evenodd">
        <g id="Content-rafiki-Copy">
            <g id="freepik--background-simple--inject-224" fill="#3E3CDA" fill-rule="nonzero" opacity="0.0464662064">
                <path d="M226.796117,156.234175 C225.449515,126.204951 197.029126,96.1473786 170.472718,82.5254369 C141.067184,67.4293204 131.846505,51.8016505 110.23,28.8031068 C54.4452427,-30.66 -8.4623301,11.2901942 0.999320388,78.6699029 C5.13834951,108.153398 15.7268932,144.228155 32.5452427,170.486893 C56.4438835,207.801942 73.2976699,196.773981 109.868544,194.328835 C135.850874,192.58534 156.227087,210.629806 181.344757,210.57324 C213.372621,210.438447 228.064757,185.342039 226.796117,156.234175 Z" id="Path"></path>
            </g>
            <g id="freepik--Shadow--inject-224" transform="translate(4.252427, 232.466019)" fill="#F0F2FD" fill-rule="nonzero">
                <ellipse id="freepik--path--inject-224" cx="137.495146" cy="8.67495146" rx="137.417184" ry="8.02291262"></ellipse>
            </g>
            <g id="freepik--Content--inject-224" transform="translate(80.796117, 25.514563)">
                <path d="M99.223301,107.111553 L194.902913,107.111553 C205.883089,107.018897 214.880805,98.3695206 215.406699,87.4015534 L217.476214,35.9471845 C217.566355,34.2775703 216.961802,32.645046 215.805955,31.4368432 C214.650108,30.2286405 213.045948,29.5524068 211.373981,29.5682614 L108.677864,29.5682614 C105.127075,29.5953642 102.219953,32.3996617 102.06534,35.9471845 L99.9887379,87.4015534 C99.4664873,98.3683927 90.4709135,107.018701 79.4920388,107.111553 L99.223301,107.111553 Z" id="Path" fill="#3E3CDA" fill-rule="nonzero"></path>
                <path d="M99.223301,107.111553 L194.902913,107.111553 C205.883089,107.018897 214.880805,98.3695206 215.406699,87.4015534 L217.476214,35.9471845 C217.566355,34.2775703 216.961802,32.645046 215.805955,31.4368432 C214.650108,30.2286405 213.045948,29.5524068 211.373981,29.5682614 L108.677864,29.5682614 C105.127075,29.5953642 102.219953,32.3996617 102.06534,35.9471845 L99.9887379,87.4015534 C99.4664873,98.3683927 90.4709135,107.018701 79.4920388,107.111553 L99.223301,107.111553 Z" id="Path" fill="#FFFFFF" fill-rule="nonzero" opacity="0.7"></path>
                <path d="M201.352427,52.2836805 L116.722039,52.2836805 C116.167207,52.2888129 115.635352,52.0623348 115.254612,51.6587234 C114.873871,51.255112 114.678769,50.7109631 114.716311,50.1573786 L114.943107,44.6504854 C114.995926,43.4892762 115.949452,42.5731436 117.111845,42.5667261 L201.742233,42.5667261 C202.288654,42.5622085 202.812786,42.783139 203.191046,43.1774948 C203.569306,43.5718507 203.768215,44.1047297 203.740874,44.6504854 L203.521165,50.1573786 C203.483341,51.3321179 202.527685,52.2690352 201.352427,52.2836805 L201.352427,52.2836805 Z" id="Path" fill="#FFFFFF" fill-rule="nonzero" opacity="0.6"></path>
                <path d="M201.501262,62.6807767 L115.743981,62.6807767 C115.342872,62.6938157 114.955034,62.5362156 114.676713,62.2470862 C114.398393,61.9579567 114.255676,61.5643991 114.283981,61.1640777 L114.369029,59.0803883 C114.410348,58.2357203 115.103861,57.5701964 115.949515,57.563685 L201.706796,57.563685 C202.100574,57.5627233 202.477008,57.7256061 202.745883,58.0133018 C203.014757,58.3009974 203.151838,58.6875749 203.124272,59.0803883 L203.046311,61.1640777 C203.002671,61.9938747 202.331725,62.6525095 201.501262,62.6807767 L201.501262,62.6807767 Z" id="Path" fill="#FFFFFF" fill-rule="nonzero" opacity="0.6"></path>
                <path d="M201.189417,70.4627184 L115.432136,70.4627184 C115.030915,70.4738951 114.643765,70.3144487 114.366785,70.0239574 C114.089805,69.7334661 113.948964,69.3391664 113.979223,68.938932 L114.064272,66.8552427 C114.101941,66.0117026 114.793316,65.3452422 115.63767,65.3385394 L201.394951,65.3385394 C201.78873,65.3375777 202.165164,65.5004605 202.434038,65.7881561 C202.702912,66.0758518 202.839993,66.4624293 202.812427,66.8552427 L202.727379,68.938932 C202.694273,69.771859 202.022615,70.4373266 201.189417,70.4627184 L201.189417,70.4627184 Z" id="Path" fill="#FFFFFF" fill-rule="nonzero" opacity="0.6"></path>
                <path d="M178.708252,11.0563107 C178.145327,9.77559207 177.454336,8.55507938 176.645825,7.41339806 L177.22699,7.0023301 C178.06363,8.18261706 178.776147,9.44614725 179.353204,10.7728155 L178.708252,11.0563107 Z" id="Path" fill="#3E3CDA" fill-rule="nonzero"></path>
                <polygon id="Rectangle" fill="#3E3CDA" fill-rule="nonzero" transform="translate(180.517251, 26.501604) rotate(-87.650000) translate(-180.517251, -26.501604) " points="174.276814 26.1472349 186.757688 26.1472349 186.757688 26.8559728 174.276814 26.8559728"></polygon>
                <path d="M175.93,87.4015534 L178.637379,20.2699029 C178.891029,15.1069762 177.006383,10.0676106 173.42711,6.3381395 C169.847837,2.60866838 164.890154,0.518577847 159.721165,0.559240166 L44.3599029,0.559240166 C49.5295331,0.516506674 54.4884536,2.60595211 58.0681827,6.33589835 C61.6479117,10.0658446 63.531863,15.1064203 63.2761165,20.2699029 L63.2761165,20.2699029 L60.5758252,87.4015534 C60.1364078,98.287767 73.8008738,107.112216 84.6729126,107.112216 L194.846214,107.112216 C189.676583,107.15495 184.717663,105.065504 181.137934,101.335558 C177.558205,97.6056117 175.674254,92.565036 175.93,87.4015534 L175.93,87.4015534 Z" id="Path" fill="#3E3CDA" fill-rule="nonzero"></path>
                <path d="M154.986796,151.599222 L6.78262136,151.599222 C5.10719979,151.612323 3.49984427,150.936944 2.33673877,149.730959 C1.17363327,148.524974 0.556863146,146.894232 0.630776699,145.220388 L4.8123301,41.4682524 C4.99595271,37.9144205 7.91601168,35.1186193 11.474466,35.0894191 L159.678641,35.0894191 C161.354062,35.0763183 162.961418,35.7516965 164.124523,36.9576815 C165.287629,38.1636664 165.904399,39.7944093 165.830485,41.4682524 L161.656019,145.220388 C161.465332,148.773766 158.54514,151.566724 154.986796,151.599222 Z" id="Path" fill="#FFFFFF" fill-rule="nonzero"></path>
                <path d="M154.986796,151.953539 L6.78262136,151.953539 C5.00619014,151.9651 3.3030756,151.245952 2.07264635,149.96459 C0.842217112,148.683228 0.192701975,146.952361 0.276407767,145.177864 L4.45796117,41.4257282 C4.63819184,37.6721816 7.71674206,34.7117979 11.474466,34.6782872 L159.678641,34.6782872 C161.456353,34.6627098 163.161935,35.3805699 164.393274,36.6628788 C165.624612,37.9451877 166.272741,39.6784689 166.184854,41.4540777 L162.010388,145.206214 C161.829996,148.96247 158.747266,151.923882 154.986796,151.953539 Z M11.474466,35.3870681 C8.0973452,35.4207766 5.33164473,38.0808211 5.16669903,41.4540777 L0.985145631,145.206214 C0.907050126,146.788436 1.48461659,148.332881 2.58174542,149.475612 C3.67887426,150.618342 5.19853189,151.258292 6.78262136,151.244874 L154.986796,151.244874 C158.366663,151.214896 161.136537,148.553827 161.30165,145.177864 L165.476117,41.4257282 C165.554212,39.8435062 164.976646,38.2990608 163.879517,37.15633 C162.782388,36.0135993 161.26273,35.3736499 159.678641,35.3870681 L11.474466,35.3870681 Z" id="Shape" fill="#3E3CDA" fill-rule="nonzero"></path>
                <path d="M155.504175,40.7238848 L15.1740777,40.7238848 C12.6579735,40.7437679 10.595424,42.7254331 10.4751456,45.2387379 L7.08737864,129.521845 L156.446796,129.521845 L159.84165,45.2387379 C159.900269,44.0552118 159.468116,42.8999144 158.647147,42.0454088 C157.826178,41.1909033 156.689099,40.712866 155.504175,40.7238848 L155.504175,40.7238848 Z" id="Path" fill="#3E3CDA" fill-rule="nonzero"></path>
                <path d="M28.2999029,34.6785437 L24.9475728,118.054466 C24.8948737,119.170467 25.3042705,120.258885 26.0793925,121.06351 C26.8545144,121.868135 27.9268873,122.317886 29.0440777,122.30709 L135.865049,122.30709 C138.237913,122.290953 140.185224,120.424521 140.301748,118.054466 L143.661165,34.6785437 L28.2999029,34.6785437 Z" id="Path" fill="#000000" fill-rule="nonzero" opacity="0.3"></path>
                <path d="M140.011165,0.559902913 L44.3315534,0.559902913 C33.3512336,0.649210462 24.3536191,9.30148091 23.8348544,20.2699029 L19.8375728,119.493204 C19.7869599,120.608646 20.1970469,121.695858 20.9717144,122.500011 C21.7463819,123.304164 22.817524,123.75456 23.9340777,123.745761 L130.783398,123.745761 C133.154826,123.726155 135.100101,121.861674 135.220097,119.493204 L139.217379,20.2699029 C139.743273,9.30193573 148.740988,0.652559371 159.721165,0.559902913 L140.011165,0.559902913 Z" id="Path" fill="#3E3CDA" fill-rule="nonzero"></path>
                <path d="M140.011165,0.559902913 L44.3315534,0.559902913 C33.3512336,0.649210462 24.3536191,9.30148091 23.8348544,20.2699029 L19.8375728,119.493204 C19.7869599,120.608646 20.1970469,121.695858 20.9717144,122.500011 C21.7463819,123.304164 22.817524,123.75456 23.9340777,123.745761 L130.783398,123.745761 C133.154826,123.726155 135.100101,121.861674 135.220097,119.493204 L139.217379,20.2699029 C139.743273,9.30193573 148.740988,0.652559371 159.721165,0.559902913 L140.011165,0.559902913 Z" id="Path" fill="#FFFFFF" fill-rule="nonzero" opacity="0.7"></path>
                <path d="M162.300971,129.876214 L1.2615534,129.876214 C1.06584084,129.876214 0.907184466,129.717557 0.907184466,129.521845 C0.907184466,129.326132 1.06584084,129.167476 1.2615534,129.167476 L162.300971,129.167476 C162.496683,129.167476 162.65534,129.326132 162.65534,129.521845 C162.65534,129.717557 162.496683,129.876214 162.300971,129.876214 Z" id="Path" fill="#3E3CDA" fill-rule="nonzero"></path>
                <path d="M128.841456,69.0453031 L30.3268932,69.0453031 C29.6965419,69.0498106 29.0920308,68.7950471 28.6550906,68.3406828 C28.2181504,67.8863186 27.9872075,67.2723125 28.0164078,66.6426214 L29.5401942,28.9165049 C29.6041189,27.5823933 30.6993449,26.5307274 32.0349515,26.5208476 L130.549515,26.5208476 C131.179213,26.514441 131.783793,26.7675979 132.220963,27.2208594 C132.658132,27.6741208 132.889278,28.2874534 132.86,28.9165049 L131.336214,66.6213592 C131.286959,67.9666096 130.187567,69.0347682 128.841456,69.0453031 Z" id="Path" fill="#3E3CDA" fill-rule="nonzero" opacity="0.1"></path>
                <path d="M84.2631959,111.64732 L28.5209629,111.64732 C27.8872975,111.65227 27.2798976,111.394407 26.8433766,110.935053 C26.4068556,110.475698 26.1802693,109.855951 26.2175648,109.223364 L27.5641668,76.1678301 C27.6349775,74.8446981 28.7198299,73.8032398 30.0447493,73.7864078 L85.8153318,73.7864078 C86.4450966,73.7817973 87.0489709,74.0367762 87.4848079,74.4913877 C87.9206448,74.9459992 88.1499439,75.5600842 88.1187299,76.1890923 L86.7933901,109.223364 C86.7363779,110.579068 85.6200979,111.648446 84.2631959,111.64732 Z" id="Path" fill="#3E3CDA" fill-rule="nonzero" opacity="0.6"></path>
                <g id="Group" transform="translate(16.291262, 157.980583)">
                    <polygon id="Path" points="0 0 23.3009709 0 23.3009709 23.3009709 0 23.3009709"></polygon>
                </g>
                <path d="M127.126311,111.569575 L94.0566019,111.569575 C93.4262507,111.574082 92.8217395,111.319319 92.3847993,110.864955 C91.9478591,110.41059 91.7169163,109.796584 91.7461165,109.166893 L93.0785437,76.0900971 C93.1459471,74.7536521 94.2423107,73.7007703 95.5803883,73.6874153 L128.650097,73.6874153 C129.280448,73.6829079 129.884959,73.9376714 130.3219,74.3920356 C130.75884,74.8463998 130.989783,75.460406 130.960583,76.0900971 L129.628155,109.145631 C129.575206,110.492013 128.473694,111.559201 127.126311,111.569575 Z" id="Path" fill="#FFFFFF" fill-rule="nonzero"></path>
                <path d="M95.4840137,77.3341302 C95.5141678,76.6627881 96.0744126,76.1314447 96.7603446,76.1236028 L127.371554,76.1236028 C127.6943,76.1236028 128.003084,76.2525552 128.225858,76.4813231 C128.448633,76.710091 128.565912,77.018334 128.550331,77.3341302 L127.29026,107.92286 C127.264158,108.595981 126.701544,109.129571 126.013929,109.133312 L95.4027188,109.133312 C95.0799736,109.133717 94.7711895,109.004435 94.5484147,108.775667 C94.3256399,108.546899 94.2083608,108.238656 94.2239418,107.92286 L95.4840137,77.3341302 Z" id="Path" fill="#3E3CDA" fill-rule="nonzero" opacity="0.3"></path>
            </g>
            <g id="freepik--Character--inject-224" transform="translate(4.252427, 24.097087)">
                <path d="M34.9478641,19.6036893 C35.8408738,23.7356311 36.7976699,31.3191262 33.9272816,34.1824272 C36.237767,36.351165 39.2428155,38.8459223 44.1968932,38.8601418 C49.1509709,38.8742718 48.2225243,35.5148544 46.8830097,33.7642718 C42.2195146,32.8074757 42.2762136,29.3700971 43.0274757,26.1169903 L34.9478641,19.6036893 Z" id="Path" fill="#FF8B7B" fill-rule="nonzero"></path>
                <path d="M33.1760194,41.9785437 C31.4112621,45.522233 29.6323301,49.1651456 27.8959223,52.765534 C26.1595146,56.3659223 24.4939806,59.9946602 23.0268932,63.6092233 C22.835534,64.0557282 22.6654369,64.5093204 22.4953398,64.9558252 L22.0771845,66.0685437 C21.905691,66.6084821 21.8383479,67.1760879 21.8787379,67.741165 C22.0242826,69.4181668 22.4035854,71.0665834 23.0056311,72.6385437 C24.3894101,76.2444348 26.0701664,79.7292187 28.0305825,83.0569903 L24.6924272,85.7572816 C21.6158696,82.6955108 18.9908319,79.2113698 16.8963107,75.4097087 C15.7321383,73.3024895 14.9137668,71.0220568 14.4724272,68.6554369 C14.2149448,67.1999118 14.2365915,65.7087002 14.5362136,64.2612621 L14.6779612,63.658835 C14.7346602,63.453301 14.7630097,63.3753398 14.805534,63.2335922 L15.0394175,62.461068 C15.1953398,61.9436893 15.3441748,61.4263107 15.5142718,60.9231068 C16.846699,56.8762136 18.4130097,53.0206796 20.0785437,49.2147573 C21.7440777,45.408835 23.5584466,41.6879612 25.5145631,37.9883495 L33.1760194,41.9785437 Z" id="Path" fill="#FF8B7B" fill-rule="nonzero"></path>
                <path d="M27.01,34.5580583 C21.8007767,36.1881553 18.6327184,47.3153398 18.6327184,47.3153398 L29.3559223,56.3163107 C31.4143535,52.2885776 33.2088787,48.1313398 34.7281553,43.8708738 C37.2512621,36.6133981 33.3106796,32.6019417 27.01,34.5580583 Z" id="Path" fill="#3E3CDA" fill-rule="nonzero"></path>
                <g id="Group" opacity="0.2" transform="translate(18.427184, 34.019417)" fill="#000000" fill-rule="nonzero">
                    <path d="M8.58281553,0.538640777 C3.37359223,2.16873786 0.205533981,13.2959223 0.205533981,13.2959223 L10.9287379,22.2968932 C12.987169,18.2691601 14.7816942,14.1119223 16.3009709,9.85145631 C18.8240777,2.59398058 14.8834951,-1.41747573 8.58281553,0.538640777 Z" id="Path"></path>
                </g>
                <path d="M26.8540777,81.7741748 L31.1065049,85.6934951 L25.3373786,89.3009709 C25.3373786,89.3009709 21.8787379,85.2824272 23.6505825,83.1066019 L26.8540777,81.7741748 Z" id="Path" fill="#FF8B7B" fill-rule="nonzero"></path>
                <path d="M31.5459223,91.7106796 L29.2992233,92.6249515 C28.3911159,92.9858564 27.35531,92.6345831 26.8540777,91.7957282 L25.3373786,89.3009709 L31.1348544,85.6864078 L32.5523301,89.0529126 C32.7763422,89.5381615 32.795915,90.0930852 32.6066477,90.5929109 C32.4173803,91.0927366 32.0351581,91.4955139 31.5459223,91.7106796 L31.5459223,91.7106796 Z" id="Path" fill="#FF8B7B" fill-rule="nonzero"></path>
                <path d="M53.6939806,34.0690291 C45.26,32.6515534 34.9762136,32.1979612 27.1163107,34.4375728 C24.9659592,35.0669411 23.6959478,37.2816408 24.238835,39.4554369 C28.9732039,59.9379612 27.6053398,80.6260194 28.0660194,85.0060194 L58.4850485,84.5169903 C59.9875728,59.4701942 58.2724272,43.9275728 57.3227184,37.7402913 C57.0268685,35.8643418 55.566356,34.386714 53.6939806,34.0690291 Z" id="Path" fill="#3E3CDA" fill-rule="nonzero"></path>
                <path d="M55.9406796,36.967767 C58.605534,39.5121359 61.3483495,42.1061165 64.0769903,44.6079612 C65.4472168,45.8695146 66.8221683,47.0956311 68.2018447,48.2863107 C69.5697087,49.4769903 70.9730097,50.632233 72.326699,51.6102913 C72.9068594,52.0448821 73.5153622,52.4402905 74.1481553,52.7938835 L74.3182524,52.8860194 L74.403301,52.8860194 L74.4458252,52.8860194 L74.3253398,52.8860194 L74.1339806,52.8860194 C73.9284466,52.8860194 73.9993204,52.9498058 74.1339806,52.9214563 C74.7304048,52.7765571 75.2998474,52.5372955 75.8207767,52.2127184 C76.5557394,51.8323776 77.270189,51.4136439 77.961165,50.9582524 C80.8819927,48.790884 83.6876874,46.4725191 86.3667961,44.0126214 L89.6978641,46.6845631 C88.6839737,48.3900768 87.5643421,50.0304673 86.345534,51.5961165 C85.1219428,53.2114921 83.7811724,54.7346641 82.3340777,56.153301 C81.5638617,56.917413 80.7421613,57.6278167 79.8747573,58.2795146 C78.8459678,59.0693979 77.7100622,59.7089414 76.501165,60.178932 C75.6147752,60.5052897 74.6741833,60.6592484 73.73,60.6325243 C73.4283115,60.6210148 73.1276666,60.5902401 72.8299029,60.5403883 L72.3692233,60.4340777 L72.0715534,60.3490291 L71.483301,60.1576699 L70.9942718,59.9592233 C69.9176832,59.4912921 68.8797034,58.9391247 67.89,58.3078641 C64.543896,56.1107542 61.3583461,53.6783678 58.3574757,51.0291262 C55.4162136,48.4705825 52.616699,45.8695146 49.8526214,43.0841748 L55.9406796,36.967767 Z" id="Path" fill="#FF8B7B" fill-rule="nonzero"></path>
                <path d="M46.4365049,39.2640777 C45.6781553,44.6717476 58.4850485,54.9838835 58.4850485,54.9838835 L65.381068,44.4095146 C65.381068,44.4095146 63.9635922,41.7092233 58.8535922,36.9181553 C53.608932,31.9995146 47.2728155,33.3106796 46.4365049,39.2640777 Z" id="Path" fill="#3E3CDA" fill-rule="nonzero"></path>
                <path d="M93.8439806,67.9183495 C93.2157787,67.963172 92.5967393,67.7480119 92.131758,67.3232307 C91.6667768,66.8984495 91.3966699,66.3013349 91.3846602,65.6716505 L90.4342285,27.9313592 C90.4123569,26.5957236 91.4347052,25.4739371 92.766699,25.3728155 L191.089903,18.9303883 C191.717431,18.8855087 192.335772,19.1008662 192.799649,19.5258641 C193.263527,19.950862 193.532052,20.5480372 193.542136,21.1770874 L194.499637,58.9173786 C194.52129,60.2555548 193.4949,61.3783635 192.160097,61.4759223 L93.8439806,67.9183495 Z" id="Path" fill="#FFFFFF" fill-rule="nonzero" opacity="0.6"></path>
                <g id="Group" transform="translate(116.135922, 45.805825) rotate(-5.000000) translate(-116.135922, -45.805825) translate(104.485437, 34.155340)">
                    <polygon id="Path" points="0 0 23.3009709 0 23.3009709 23.3009709 0 23.3009709"></polygon>
                    <polyline id="Path" stroke="#3E3CDA" stroke-width="1.5" stroke-linecap="round" stroke-linejoin="round" points="6.7961165 7.76699029 2.91262136 11.6504854 6.7961165 15.5339806"></polyline>
                    <polyline id="Path" stroke="#3E3CDA" stroke-width="1.5" stroke-linecap="round" stroke-linejoin="round" points="16.5048544 7.76699029 20.3883495 11.6504854 16.5048544 15.5339806"></polyline>
                    <line x1="13.592233" y1="3.88349515" x2="9.70873786" y2="19.4174757" id="Path" stroke="#3E3CDA" stroke-width="1.5" stroke-linecap="round" stroke-linejoin="round"></line>
                </g>
                <path d="M85.6438835,44.792233 L89.5702913,39.6184466 L93.9219417,44.473301 C93.9219417,44.473301 91.4271845,48.8745631 87.4086408,47.6909709 L85.6438835,44.792233 Z" id="Path" fill="#FF8B7B" fill-rule="nonzero"></path>
                <path d="M95.2118447,37.8040777 L96.3529126,40.6390291 C96.5544629,41.1182489 96.4605278,41.6708083 96.1119417,42.0565049 L93.9219417,44.4874757 L89.5702913,39.6326214 L93.2982524,37.1874757 C93.6253508,36.9754608 94.0304596,36.9218037 94.401474,37.0413528 C94.7724884,37.1609019 95.0700608,37.4409785 95.2118447,37.8040777 L95.2118447,37.8040777 Z" id="Path" fill="#FF8B7B" fill-rule="nonzero"></path>
                <path d="M49.1367961,14.543301 C49.1367961,15.0039806 49.4202913,15.3654369 49.7179612,15.3583495 C50.0156311,15.3512621 50.2424272,14.9685437 50.221165,14.5078641 C50.1999029,14.0471845 49.9376699,13.6857282 49.64,13.6928155 C49.3423301,13.6999029 49.115534,14.0826214 49.1367961,14.543301 Z" id="Path" fill="#252482" fill-rule="nonzero"></path>
                <path d="M49.434466,14.8834951 C50.0495769,16.2670586 50.8481749,17.5615026 51.8087379,18.7319417 C51.193809,19.2078412 50.3986106,19.3845519 49.64,19.2138835 L49.434466,14.8834951 Z" id="Path" fill="#FF5652" fill-rule="nonzero"></path>
                <path d="M48.1941748,12.1832039 C48.282054,12.1929106 48.3684571,12.1551093 48.4209709,12.0839806 C48.8236672,11.536417 49.4710279,11.2233491 50.1502913,11.2476699 C50.22177,11.2535372 50.2926366,11.2306523 50.3471836,11.1840878 C50.4017306,11.1375233 50.4354522,11.0711255 50.4408738,10.9996117 C50.445336,10.8507754 50.3338916,10.7238526 50.1857282,10.7090291 C49.3291175,10.668514 48.5083691,11.0563109 47.9957282,11.7437864 C47.9363881,11.8242513 47.9251257,11.9304887 47.9662758,12.0216067 C48.0074259,12.1127248 48.0945735,12.1745189 48.1941748,12.1832039 L48.1941748,12.1832039 Z" id="Path" fill="#252482" fill-rule="nonzero"></path>
                <path d="M33.6863107,13.345534 C34.2958252,18.9658252 34.3950485,22.2827184 37.3433981,25.0751456 C41.8297087,29.2850485 48.6832039,26.4926214 49.7392233,20.8227184 C50.7101942,15.7268932 49.5478641,7.35669903 43.9346602,5.32970874 C41.4469384,4.37701851 38.6418739,4.79814852 36.5435778,6.43934689 C34.4452818,8.08054525 33.3608914,10.7015823 33.6863107,13.345534 Z" id="Path" fill="#FF8B7B" fill-rule="nonzero"></path>
                <path d="M44.9623301,16.5348544 C45.671068,18.7035922 44.1756311,23.3458252 43.7078641,24.763301 C43.2400971,26.1807767 41.2627184,27.4281553 37.7969903,27.1021359 C36.5776408,27.0204862 35.4443704,26.44494 34.6591227,25.5085288 C33.873875,24.5721176 33.5046171,23.3558924 33.636699,22.1409709 C32.0916505,21.9070874 30.4332039,19.0792233 30.5182524,17.1160194 C30.603301,15.1528155 27.683301,13.1116505 27.328932,11.1980583 C26.9745631,9.28446602 28.5833981,6.62669903 30.7096117,7.96621359 C29.3346602,6.54873786 29.2141748,3.00504854 33.431165,2.29631068 C36.7976699,1.76475728 40.2775728,3.55786408 42.8786408,2.53728155 C45.4797087,1.51669903 48.9241748,0.843398058 49.6825243,2.92708738 C51.1,2.09786408 53.2262136,3.75631068 52.5174757,6.31485437 C51.8087379,8.87339806 46.6136893,10.368835 46.6136893,10.368835 C46.6136893,10.368835 48.5485437,15.3937864 44.9623301,16.5348544 Z" id="Path" fill="#252482" fill-rule="nonzero"></path>
                <path d="M31.0285437,9.0931068 C30.8177422,9.09344914 30.6177284,8.99993618 30.4828155,8.83796117 C29.1929126,7.27873786 27.477767,3.60747573 30.1709709,0.878834951 C30.4474052,0.604040559 30.8938569,0.604040559 31.1702913,0.878834951 C31.3044643,1.01191225 31.3799347,1.19306272 31.3799347,1.38203883 C31.3799347,1.57101495 31.3044643,1.75216542 31.1702913,1.88524272 C28.7038835,4.38 31.446699,7.80320388 31.5671845,7.94495146 C31.7388503,8.15655027 31.7740109,8.44782657 31.6576276,8.69419647 C31.5412443,8.94056638 31.2939265,9.09840194 31.0214563,9.10019417 L31.0285437,9.0931068 Z" id="Path" fill="#252482" fill-rule="nonzero"></path>
                <path d="M31.6593204,9.84436893 C31.4436713,9.84337473 31.2402064,9.7442508 31.1065049,9.57504854 C30.9860194,9.43330097 28.207767,6.03135922 25.2523301,7.94495146 C24.9215759,8.15632098 24.4820978,8.05954058 24.2707282,7.72878638 C24.0593587,7.39803218 24.156139,6.95855404 24.4868932,6.74718447 C27.7116505,4.6776699 30.9505825,7.11572816 32.2121359,8.68912621 C32.3302455,8.83643357 32.3846948,9.02477948 32.3634061,9.21238575 C32.3421175,9.39999202 32.2468508,9.57134889 32.0987379,9.6884466 C31.974043,9.78849245 31.8191863,9.84344162 31.6593204,9.84436893 Z" id="Path" fill="#252482" fill-rule="nonzero"></path>
                <path d="M41.9643689,17.1231068 C42.3968405,18.3111861 43.2769866,19.282908 44.4166019,19.8304854 C45.933301,20.5392233 46.9538835,19.2776699 46.7483495,17.7042718 C46.571165,16.2867961 45.5576699,14.2314563 43.9133981,14.1605825 C42.2691262,14.0897087 41.4540777,15.6631068 41.9643689,17.1231068 Z" id="Path" fill="#FF8B7B" fill-rule="nonzero"></path>
                <path d="M8.86631068,202.628155 C8.84098991,202.584298 8.84098991,202.530265 8.86631068,202.486408 C8.89012192,202.434493 8.944093,202.403246 9.00097087,202.408447 C9.2915534,202.408447 11.8359223,202.621068 12.2540777,203.308544 C12.3315329,203.43971 12.3315329,203.60262 12.2540777,203.733786 L12.2540777,203.733786 C12.1616494,203.961552 11.9578062,204.125163 11.7154369,204.166117 C10.893301,204.307864 9.5892233,203.273107 8.88048544,202.64233 L8.86631068,202.628155 Z M11.9634951,203.407767 C11.6658252,203.060485 10.3546602,202.819515 9.36242718,202.699029 C10.3475728,203.528252 11.1838835,203.96767 11.6445631,203.882621 C11.8042667,203.856893 11.9387747,203.749287 11.998932,203.599126 C12.0279269,203.546134 12.0279269,203.482021 11.998932,203.429029 L11.9634951,203.407767 Z" id="Shape" fill="#3E3CDA" fill-rule="nonzero"></path>
                <path d="M8.86631068,202.628155 C8.84484368,202.585835 8.84484368,202.535815 8.86631068,202.493495 C8.90883495,202.443883 9.80184466,201.21068 10.7302913,201.076019 C10.9986869,201.03156 11.2734729,201.100898 11.4886408,201.267379 L11.4886408,201.267379 C11.7933981,201.487087 11.7933981,201.706796 11.736699,201.848544 C11.5099029,202.450971 9.71679612,202.798252 8.96553398,202.706117 C8.9215769,202.698193 8.88440882,202.66899 8.86631068,202.628155 L8.86631068,202.628155 Z M11.4248544,201.543786 C11.3923209,201.509876 11.3567337,201.479034 11.3185437,201.45165 L11.3185437,201.45165 C11.1605,201.327049 10.9569354,201.275513 10.7586408,201.309903 C10.1380033,201.506278 9.59655214,201.896222 9.21359223,202.422621 C10.0286408,202.422621 11.3398058,202.082427 11.4532039,201.713883 C11.4815534,201.692621 11.5028155,201.635922 11.4248544,201.543786 Z" id="Shape" fill="#3E3CDA" fill-rule="nonzero"></path>
                <polygon id="Path" fill="#FF8B7B" fill-rule="nonzero" points="2.84912621 202.174563 8.39145631 203.485728 13.7282524 191.23165 8.18592233 189.920485"></polygon>
                <path d="M9.04349515,202.528932 L3.4161165,199.786117 C3.21543171,199.681764 2.96823269,199.749743 2.84912621,199.942039 L0.15592233,204.194466 C0.025365912,204.420947 -0.00527456575,204.691475 0.0713210757,204.941419 C0.147916717,205.191362 0.32486895,205.398273 0.559902913,205.512718 C2.60106796,206.462427 3.3168932,206.61835 5.86834951,207.865728 C8.85213592,209.318641 8.70330097,210.154951 12.1973786,211.86301 C14.3235922,212.89068 15.6701942,210.955825 14.862233,210.317961 C12.7245004,208.505699 11.0953246,206.168186 10.1349515,203.53534 C9.91149981,203.073912 9.52149701,202.714299 9.04349515,202.528932 L9.04349515,202.528932 Z" id="Path" fill="#252482" fill-rule="nonzero"></path>
                <polygon id="Path" fill="#000000" fill-rule="nonzero" opacity="0.2" points="13.7282524 191.23165 10.8224272 197.907961 5.42893204 196.242427 8.17883495 189.920485"></polygon>
                <path d="M20.6667961,139.380388 C25.0467961,114.050097 24.3664078,90.7184466 28.0660194,85.0060194 L48.1658252,84.68 C48.1658252,84.68 38.1513592,125.389903 33.4595146,142.144466 C28.5904854,159.558155 13.8912621,195.377767 13.8912621,195.377767 L5.08165049,192.656214 C5.08165049,192.656214 13.7636893,158.757282 20.6667961,139.380388 Z" id="Path" fill="#252482" fill-rule="nonzero"></path>
                <path d="M40.0436893,101.229029 C35.7274757,106.898932 36.0180583,122.77466 36.5,130.896796 C38.2009709,124.418932 40.093301,117.019709 41.8438835,110.06699 L40.0436893,101.229029 Z" id="Path" fill="#000000" fill-rule="nonzero" opacity="0.2"></path>
                <path d="M45.111165,210.587282 C45.0613304,210.566211 45.0289467,210.517359 45.0289467,210.463252 C45.0289467,210.409146 45.0613304,210.360294 45.111165,210.339223 C45.3663107,210.204563 47.6059223,209.006796 48.3075728,209.382427 C48.4439554,209.450723 48.5351667,209.584857 48.5485437,209.736796 L48.5485437,209.736796 C48.593678,209.981068 48.5076315,210.231141 48.3217476,210.395922 C47.7193204,210.962913 46.0821359,210.764466 45.1607767,210.594369 L45.111165,210.587282 Z M48.1091262,209.602136 C47.6767961,209.460388 46.457767,209.949417 45.5718447,210.395922 C46.8333981,210.587282 47.768932,210.516408 48.1091262,210.197476 C48.2246175,210.085458 48.2776204,209.923799 48.2508738,209.765146 C48.2506652,209.703902 48.2146227,209.648452 48.1587379,209.623398 L48.1091262,209.602136 Z" id="Shape" fill="#3E3CDA" fill-rule="nonzero"></path>
                <path d="M45.111165,210.587282 L45.0757282,210.587282 C45.0357047,210.560952 45.0138065,210.514418 45.0190291,210.466796 C45.0190291,210.395922 45.111165,208.865049 45.8128155,208.262621 C46.0049545,208.086086 46.2612622,207.996378 46.5215534,208.014563 L46.5215534,208.014563 C46.8900971,208.014563 47.0034951,208.234272 47.038932,208.383107 C47.1665049,209.028058 45.8553398,210.275437 45.1820388,210.594369 C45.1582399,210.599203 45.1335355,210.596733 45.111165,210.587282 L45.111165,210.587282 Z M46.6703883,208.298058 L46.5357282,208.298058 L46.5357282,208.298058 C46.3359353,208.27946 46.1376221,208.346423 45.99,208.48233 C45.5728458,208.980695 45.3246798,209.598628 45.2812621,210.247087 C45.99,209.814757 46.8475728,208.829612 46.7696117,208.446893 C46.776699,208.368932 46.776699,208.368932 46.6703883,208.298058 L46.6703883,208.298058 Z" id="Shape" fill="#3E3CDA" fill-rule="nonzero"></path>
                <polygon id="Path" fill="#FF8B7B" fill-rule="nonzero" points="39.0727184 211.210971 44.7567961 211.125922 44.997767 197.929223 39.3207767 198.014272"></polygon>
                <path d="M45.1962136,210.495146 L38.9947573,210.594369 C38.7678184,210.590084 38.5775187,210.764785 38.5624272,210.991262 L38.1442718,216.058738 C38.1284373,216.32089 38.2226883,216.577762 38.4043154,216.767461 C38.5859424,216.95716 38.8384758,217.062485 39.101068,217.058058 C41.3335922,216.987184 44.5441748,216.802913 47.3578641,216.760388 C50.6393204,216.710777 50.3274757,216.845437 54.1830097,216.760388 C56.5076699,216.724951 56.8336893,214.357767 55.8272816,214.15932 C51.248835,213.252136 50.7881553,213.202524 46.6136893,210.892039 C46.1827199,210.641157 45.6948,210.504539 45.1962136,210.495146 Z" id="Path" fill="#252482" fill-rule="nonzero"></path>
                <polygon id="Path" fill="#000000" fill-rule="nonzero" opacity="0.2" points="44.997767 197.929223 44.8772816 204.733107 39.1932039 204.825243 39.3136893 198.021359"></polygon>
                <path d="M40.6602913,140.982136 C39.7885437,114.439903 34.2178641,99.223301 34.7281553,84.8997087 L58.4637864,84.5169903 C58.4637864,84.5169903 56.0895146,125.737184 54.3531068,143.044563 C52.5529126,161.039417 47.0034951,202.450971 47.0034951,202.450971 L37.3646602,202.599806 C37.3646602,202.599806 38.2718447,163.562524 40.6602913,140.982136 Z" id="Path" fill="#252482" fill-rule="nonzero"></path>
                <path d="M45.3096117,201.416214 L45.3096117,201.416214 C45.2625614,201.412601 45.2188959,201.390369 45.1882955,201.354447 C45.1576952,201.318525 45.1426884,201.271881 45.1466019,201.224854 C45.7915534,194.619417 46.9751456,184.810485 48.236699,174.434563 C49.6045631,163.094757 51.0291262,151.372233 51.83,143.030388 C53.3608738,127.090874 55.8485437,93.291165 55.9194175,89.4498058 C54.0938552,89.0873033 52.5656167,87.8456095 51.8370874,86.1329126 C51.8214517,86.0878168 51.8246709,86.0383201 51.8460162,85.9956295 C51.8673615,85.9529389 51.9050274,85.9206654 51.9504854,85.9061165 C51.9936887,85.8903708 52.0414263,85.8927875 52.0828184,85.912816 C52.1242106,85.9328444 52.1557304,85.968778 52.1701942,86.0124272 C52.8769169,87.6549206 54.3688309,88.8265669 56.1320388,89.1237864 C56.2171721,89.1404519 56.2791531,89.2142388 56.2808738,89.3009709 C56.2808738,92.3272816 53.7365049,126.864078 52.1843689,143.065825 C51.3764078,151.414757 49.958932,163.137282 48.5839806,174.47 C47.3295146,184.85301 46.1459223,194.654854 45.5009709,201.260291 C45.4974641,201.306835 45.474985,201.349893 45.4388003,201.379377 C45.4026155,201.408861 45.3559047,201.42218 45.3096117,201.416214 Z" id="Path" fill="#FFFFFF" fill-rule="nonzero" opacity="0.3"></path>
                <polygon id="Path" fill="#252482" fill-rule="nonzero" points="47.6130097 203.592039 36.1598058 203.769223 35.6778641 200.062524 48.4634951 199.665631"></polygon>
                <polygon id="Path" fill="#252482" fill-rule="nonzero" points="14.5574757 197.567767 3.55786408 194.187087 4.00436893 190.459126 16.322233 194.038252"></polygon>
                <line x1="134.142816" y1="34.1687987" x2="181.763467" y2="30.9857371" id="Path-3" stroke="#B6B6F0" stroke-width="3" stroke-linecap="round" stroke-linejoin="round"></line>
                <line x1="171.648446" y1="46.2898478" x2="182.734341" y2="45.5488439" id="Path-3-Copy-3" stroke="#B6B6F0" stroke-width="3" stroke-linecap="round" stroke-linejoin="round"></line>
                <line x1="150.392554" y1="47.9995345" x2="166.25149" y2="46.747508" id="Path-3-Copy-5" stroke="#B6B6F0" stroke-width="3" stroke-linecap="round" stroke-linejoin="round"></line>
                <line x1="134.142816" y1="49.2514564" x2="145.099557" y2="48.5190854" id="Path-3-Copy-3" stroke="#B6B6F0" stroke-width="3" stroke-linecap="round" stroke-linejoin="round"></line>
                <line x1="134.142816" y1="56.2982616" x2="153.753875" y2="54.9874184" id="Path-3-Copy-4" stroke="#B6B6F0" stroke-width="3" stroke-linecap="round" stroke-linejoin="round"></line>
                <line x1="134.142816" y1="41.935789" x2="150.804427" y2="40.8220928" id="Path-3-Copy" stroke="#B6B6F0" stroke-width="3" stroke-linecap="round" stroke-linejoin="round"></line>
                <line x1="156.035728" y1="40.4080671" x2="172.69734" y2="39.294371" id="Path-3-Copy-2" stroke="#B6B6F0" stroke-width="3" stroke-linecap="round" stroke-linejoin="round"></line>
            </g>
        </g>
    </g>
</svg>