<?xml version="1.0" encoding="UTF-8"?>
<svg width="300px" height="224px" viewBox="0 0 300 224" version="1.1" xmlns="http://www.w3.org/2000/svg" xmlns:xlink="http://www.w3.org/1999/xlink">
    <!-- Generator: Sketch 63.1 (92452) - https://sketch.com -->
    <title>Projections-rafiki Copy</title>
    <desc>Created with Sketch.</desc>
    <g id="Page-1" stroke="none" stroke-width="1" fill="none" fill-rule="evenodd">
        <g id="Projections-rafiki-Copy" fill-rule="nonzero">
            <g id="freepik--background-complete--inject-74">
                <path d="M142.2,169.68 L26.346,169.68 C24.456216,169.67669 22.926,168.143787 22.926,166.254 L22.926,3.396 C22.9424433,1.51793508 24.4678659,0.00321722384 26.346,8.52651283e-15 L142.2,8.52651283e-15 C144.092128,8.52651283e-15 145.626,1.53387245 145.626,3.426 L145.626,166.254 C145.626,168.146128 144.092128,169.68 142.2,169.68 Z M26.346,0.12 C24.5390587,0.123309422 23.076,1.58905572 23.076,3.396 L23.076,166.254 C23.076,168.060944 24.5390587,169.526691 26.346,169.53 L142.2,169.53 C144.007915,169.526698 145.472698,168.061915 145.476,166.254 L145.476,3.396 C145.472698,1.58808472 144.007915,0.123302137 142.2,0.12 L26.346,0.12 Z" id="Shape" fill="#E5E3FF"></path>
                <path d="M271.986,169.68 L156.126,169.68 C154.235242,169.676697 152.703303,168.144758 152.7,166.254 L152.7,3.396 C152.719709,1.51696822 154.246868,0.00318184625 156.126,0 L271.986,0 C273.861794,0.00649842712 275.383586,1.5202666 275.4,3.396 L275.4,166.254 C275.4,168.141451 273.87344,169.673389 271.986,169.68 Z M156.126,0.12 C154.318085,0.123302137 152.853302,1.58808472 152.85,3.396 L152.85,166.254 C152.853302,168.061915 154.318085,169.526698 156.126,169.53 L271.986,169.53 C273.793915,169.526698 275.258698,168.061915 275.262,166.254 L275.262,3.396 C275.258698,1.58808472 273.793915,0.123302137 271.986,0.12 L156.126,0.12 Z" id="Shape" fill="#E7E5FE"></path>
                <rect id="Rectangle" fill="#E5E3FF" x="0" y="196.44" width="300" height="1"></rect>
                <path d="M271.986,169.68 L156.126,169.68 C154.235242,169.676697 152.703303,168.144758 152.7,166.254 L152.7,3.396 C152.719709,1.51696822 154.246868,0.00318184625 156.126,0 L271.986,0 C273.861794,0.00649842712 275.383586,1.5202666 275.4,3.396 L275.4,166.254 C275.4,168.141451 273.87344,169.673389 271.986,169.68 Z M156.126,0.12 C154.318085,0.123302137 152.853302,1.58808472 152.85,3.396 L152.85,166.254 C152.853302,168.061915 154.318085,169.526698 156.126,169.53 L271.986,169.53 C273.793915,169.526698 275.258698,168.061915 275.262,166.254 L275.262,3.396 C275.258698,1.58808472 273.793915,0.123302137 271.986,0.12 L156.126,0.12 Z" id="Shape" fill="#E5E3FF"></path>
                <rect id="Rectangle" fill="#E7E5FE" x="250.068" y="206.094" width="19.872" height="1"></rect>
                <rect id="Rectangle" fill="#E7E5FE" x="193.518" y="207.726" width="5.214" height="1"></rect>
                <rect id="Rectangle" fill="#E7E5FE" x="237.954" y="200.526" width="11.514" height="1"></rect>
                <rect id="Rectangle" fill="#E7E5FE" x="31.476" y="201.534" width="25.914" height="1"></rect>
                <rect id="Rectangle" fill="#E5E3FF" x="78.882" y="204.066" width="56.208" height="1"></rect>
                <rect id="Rectangle" fill="#D9D5FF" x="162.492" y="151.29" width="109.62" height="49.206" rx="11.802"></rect>
                <rect id="Rectangle" fill="#D0CBFF" x="156.714" y="151.656" width="109.62" height="49.206" rx="11.802"></rect>
                <path d="M170.628,156.294 L253.068,156.294 C255.254445,156.294 257.351338,157.162562 258.897388,158.708612 C260.443438,160.254662 261.312,162.351555 261.312,164.538 L261.312,174.654 L162.384,174.654 L162.384,164.538 C162.384,162.351555 163.252562,160.254662 164.798612,158.708612 C166.344662,157.162562 168.441555,156.294 170.628,156.294 L170.628,156.294 Z" id="Path" fill="#E7E5FC"></path>
                <path d="M162.384,177.132 L261.306,177.132 L261.306,187.248 C261.306,191.801035 257.615035,195.492 253.062,195.492 L170.628,195.492 C166.074965,195.492 162.384,191.801035 162.384,187.248 L162.384,177.132 Z" id="Path" fill="#E7E5FC"></path>
                <rect id="Rectangle" fill="#C5C0FA" x="221.016" y="159.846" width="14.022" height="14.922"></rect>
                <rect id="Rectangle" fill="#DDDAFE" x="217.422" y="159.846" width="3.594" height="14.922"></rect>
                <rect id="Rectangle" fill="#C5C0FA" x="228.18" y="157.548" width="10.53" height="17.226"></rect>
                <rect id="Rectangle" fill="#DDDAFE" x="225.138" y="157.548" width="3.048" height="17.226"></rect>
                <rect id="Rectangle" fill="#C5C0FA" x="231.282" y="159.846" width="8.88" height="14.922"></rect>
                <rect id="Rectangle" fill="#DDDAFE" x="229.254" y="159.846" width="2.028" height="14.922"></rect>
                <rect id="Rectangle" fill="#C5C0FA" x="238.548" y="162.372" width="11.646" height="12.402"></rect>
                <rect id="Rectangle" fill="#DDDAFE" x="235.566" y="162.372" width="2.982" height="12.402"></rect>
                <rect id="Rectangle" fill="#C5C0FA" x="244.5" y="160.458" width="8.748" height="14.31"></rect>
                <rect id="Rectangle" fill="#DDDAFE" x="241.974" y="160.458" width="2.532" height="14.31"></rect>
                <rect id="Rectangle" fill="#C5C0FA" x="247.08" y="162.372" width="8.502" height="12.402"></rect>
                <rect id="Rectangle" fill="#DDDAFE" x="245.394" y="162.372" width="1.686" height="12.402"></rect>
                <rect id="Rectangle" fill="#C5C0FA" x="177.384" y="180" width="14.022" height="14.922"></rect>
                <rect id="Rectangle" fill="#DDDAFE" x="173.79" y="180" width="3.594" height="14.922"></rect>
                <rect id="Rectangle" fill="#C5C0FA" x="184.548" y="177.702" width="10.53" height="17.226"></rect>
                <rect id="Rectangle" fill="#DDDAFE" x="181.506" y="177.702" width="3.042" height="17.226"></rect>
                <rect id="Rectangle" fill="#C5C0FA" x="225.216" y="180" width="14.022" height="14.922"></rect>
                <rect id="Rectangle" fill="#DDDAFE" x="221.622" y="180" width="3.594" height="14.922"></rect>
                <rect id="Rectangle" fill="#C5C0FA" x="232.38" y="177.702" width="10.53" height="17.226"></rect>
                <rect id="Rectangle" fill="#DDDAFE" x="229.338" y="177.702" width="3.042" height="17.226"></rect>
                <rect id="Rectangle" fill="#C5C0FA" x="187.65" y="180" width="8.88" height="14.922"></rect>
                <rect id="Rectangle" fill="#DDDAFE" x="185.622" y="180" width="2.028" height="14.922"></rect>
                <rect id="Rectangle" fill="#C5C0FA" x="194.922" y="182.526" width="11.646" height="12.402"></rect>
                <rect id="Rectangle" fill="#DDDAFE" x="191.94" y="182.526" width="2.982" height="12.402"></rect>
                <rect id="Rectangle" fill="#C5C0FA" x="200.868" y="180.618" width="8.748" height="14.31"></rect>
                <rect id="Rectangle" fill="#DDDAFE" x="198.348" y="180.618" width="2.532" height="14.31"></rect>
                <rect id="Rectangle" fill="#C5C0FA" x="203.448" y="182.526" width="8.502" height="12.402"></rect>
                <rect id="Rectangle" fill="#DDDAFE" x="201.762" y="182.526" width="1.686" height="12.402"></rect>
                <path d="M191.292,160.302 C190.991117,159.713129 190.341286,159.389431 189.69,159.504 C189.039014,159.664926 188.558972,160.216975 188.49,160.884 C188.040468,160.558242 187.436469,160.543918 186.972,160.848 C186.508969,161.184219 186.276485,161.753804 186.372,162.318 C186.117806,162.129599 185.795587,162.057951 185.485507,162.120882 C185.175428,162.183814 184.906635,162.375408 184.746,162.648 C184.436783,163.245661 184.657077,163.980858 185.244,164.31 C184.828286,164.354196 184.515809,164.709606 184.525201,165.127557 C184.534593,165.545508 184.862721,165.886522 185.28,165.912 C184.867357,165.945519 184.534518,166.263342 184.482,166.674 C184.440986,167.090191 184.688299,167.480945 185.082,167.622 C184.888033,167.731354 184.754975,167.923672 184.721029,168.143738 C184.687082,168.363805 184.756002,168.587279 184.908,168.75 C185.078639,168.884264 185.304789,168.925086 185.511602,168.858954 C185.718414,168.792822 185.878921,168.62836 185.94,168.42 C185.97175,168.48033 186.030118,168.522131 186.097458,168.532763 C186.164799,168.543396 186.233207,168.521613 186.282,168.474 C186.326638,168.419456 186.345044,168.348048 186.332334,168.278722 C186.319624,168.209396 186.277084,168.149162 186.216,168.114 C186.315695,168.225141 186.468774,168.271875 186.613545,168.235367 C186.758316,168.19886 186.870929,168.085126 186.906,167.94 C186.856423,168.28641 186.994552,168.633086 187.26877,168.850484 C187.542988,169.067882 187.912032,169.123289 188.238,168.996 C188.17151,169.155309 188.176859,169.335538 188.252679,169.490624 C188.328498,169.64571 188.467442,169.760625 188.634,169.806 C188.969853,169.866302 189.316138,169.800038 189.606,169.62 C189.892191,169.440069 190.217196,169.331048 190.554,169.302 C190.846318,169.336222 191.131645,169.415142 191.4,169.536 C192.322002,169.814699 193.322363,169.550102 193.986,168.852 C194.232883,169.13956 194.610612,169.279468 194.985249,169.222113 C195.359885,169.164758 195.678456,168.918251 195.828,168.57 C195.901307,168.924138 196.194499,169.190676 196.554,169.23 C196.912832,169.233497 197.231835,169.002159 197.34,168.66 C197.34,168.822 197.34,168.978 197.34,169.134 C197.853004,168.294256 198.516025,167.555984 199.296,166.956 C199.351104,166.464965 199.052431,166.003151 198.582,165.852 C199.3772,165.597804 199.920249,164.862937 199.929909,164.028151 C199.939314,163.193365 199.413188,162.446289 198.624,162.174 C198.328975,162.059254 197.995646,162.104605 197.742,162.294 C197.620863,162.399959 197.551374,162.553061 197.551374,162.714 C197.551374,162.874939 197.620863,163.028041 197.742,163.134 C197.956921,162.371088 197.647515,161.557375 196.98,161.13 C196.298132,160.764866 195.452118,160.947788 194.982,161.562 C195.204066,161.22532 195.204066,160.78868 194.982,160.452 C194.76029,160.13279 194.355767,159.996324 193.986,160.116 C193.891751,159.602683 193.419268,159.247667 192.9,159.3 C192.388686,159.412749 192.041398,159.888663 192.09,160.41 C192.044724,160.212564 191.886896,160.060638 191.687879,160.022916 C191.488862,159.985193 191.286385,160.068827 191.172,160.236 C190.938,160.164 191.292,160.302 191.292,160.302 Z" id="Path" fill="#C5C0FA"></path>
                <path d="M191.472,165.09 C191.27296,164.945809 191.024413,164.887454 190.782,164.928 C190.53846,164.972591 190.343617,165.155696 190.284,165.396 C190.235246,165.640451 190.37701,165.882739 190.614,165.96 C190.902,166.026 191.214,165.792 191.478,165.834 C191.58002,165.856801 191.680276,165.886878 191.778,165.924 C192.220988,165.973161 192.662357,165.818682 192.978,165.504 C193.104686,165.419201 193.216236,165.313735 193.308,165.192 C193.39661,165.064878 193.410347,164.900035 193.344,164.76 C193.206278,164.592517 192.984001,164.519984 192.774,164.574 C192.347428,164.621045 191.943377,164.789747 191.61,165.06 L191.64,164.856 L191.472,165.09 Z" id="Path" fill="#DDDAFE"></path>
                <path d="M197.55,164.73 C197.4394,164.646291 197.315737,164.581418 197.184,164.538 C197.047718,164.500494 196.901897,164.542157 196.806,164.646 C196.705893,164.815328 196.74993,165.032922 196.908,165.15 C197.067553,165.254937 197.25148,165.316934 197.442,165.33 C197.634,165.36 197.88,165.366 197.976,165.198 C198.03124,165.062028 197.995237,164.906016 197.886,164.808 C197.773029,164.722439 197.644718,164.659302 197.508,164.622 L197.55,164.73 Z" id="Path" fill="#DDDAFE"></path>
                <path d="M187.944,161.568 C187.551964,161.736175 187.264195,162.081945 187.17,162.498 C187.123845,162.620241 187.157164,162.758274 187.254,162.846 C187.336823,162.879057 187.429177,162.879057 187.512,162.846 L188.628,162.582 C188.445237,162.638361 188.274396,162.727849 188.124,162.846 C187.974846,162.970216 187.903834,163.164926 187.938,163.356 C188.012811,163.57435 188.223527,163.71646 188.454,163.704 C188.67394,163.683195 188.882758,163.59758 189.054,163.458 C189.264617,163.33907 189.4069,163.127868 189.438,162.888 C189.438,162.648 189.144,162.432 188.958,162.582 C189.38593,162.468979 189.791655,162.284374 190.158,162.036 C190.297122,161.955859 190.416139,161.845051 190.506,161.712 C190.597814,161.579304 190.611549,161.407605 190.542,161.262 C190.158,160.572 189.678,161.586 189.444,161.676 C189,161.85 188.508,161.334 187.944,161.568 Z" id="Path" fill="#DDDAFE"></path>
                <path d="M186.216,164.52 C186.168448,164.655686 186.20619,164.806655 186.312,164.904 C186.366315,164.948028 186.437473,164.96546 186.505988,164.951525 C186.574504,164.93759 186.633198,164.893746 186.666,164.832 C186.41016,164.885852 186.177406,165.017955 186,165.21 C185.844,165.42 185.88,165.81 186.132,165.864 C186.29347,165.894716 186.460472,165.857846 186.594,165.762 C186.995747,165.539029 187.378974,165.284213 187.74,165 C187.632,165.252 187.896,165.54 188.172,165.564 C188.451821,165.556796 188.722411,165.462404 188.946,165.294 C189.24,165.12 189.546,164.85 189.492,164.52 C189.38501,164.229266 189.063548,164.079251 188.772,164.184 C188.496656,164.296965 188.256406,164.481295 188.076,164.718 C188.232,164.49 188.01,164.154 187.74,164.118 C187.469798,164.102969 187.209509,164.221894 187.044,164.436 C187.35,164.268 187.422,163.836 187.008,163.776 C186.738,163.746 186.282,164.298 186.216,164.52 Z" id="Path" fill="#DDDAFE"></path>
                <path d="M194.706,163.53 C194.585965,163.486845 194.453429,163.495238 194.339797,163.55319 C194.226165,163.611143 194.141549,163.713497 194.106,163.836 C194.081245,163.957743 194.105911,164.084334 194.174564,164.187876 C194.243217,164.291418 194.350222,164.363415 194.472,164.388 C194.288659,164.407383 194.119383,164.495235 193.998,164.634 C193.929692,164.709054 193.895013,164.808757 193.902,164.91 C193.938373,165.062434 194.075293,165.169481 194.232,165.168 C194.38355,165.158486 194.531098,165.115451 194.664,165.042 C194.513575,165.046965 194.366924,165.090341 194.238,165.168 C194.177645,165.211249 194.137261,165.276992 194.12597,165.35038 C194.11468,165.423768 194.133435,165.49861 194.178,165.558 C194.279827,165.634727 194.415047,165.650771 194.532,165.6 C194.804107,165.522048 195.054589,165.382435 195.264,165.192 C195.409996,165.370087 195.634627,165.464432 195.864,165.444 C195.97743,165.426583 196.078794,165.363509 196.144528,165.269441 C196.210262,165.175373 196.234642,165.058504 196.212,164.946 C196.146885,164.792009 196.000786,164.687652 195.834,164.676 C195.668678,164.664 195.502742,164.688583 195.348,164.748 C195.520447,164.651658 195.657219,164.502262 195.738,164.322 C195.798,164.136 195.672,163.884 195.474,163.896 C195.276,163.908 195.144,164.214 194.97,164.322 C194.778,164.124 195.18,163.704 194.706,163.53 Z" id="Path" fill="#DDDAFE"></path>
                <path d="M190.74,162.6 C190.503782,162.796201 190.3839,163.0993 190.422,163.404 C190.4177,163.745676 190.602317,164.061832 190.902,164.226 C191.111933,164.293539 191.340892,164.266045 191.528867,164.150723 C191.716842,164.035401 191.845091,163.84375 191.88,163.626 C191.925161,163.177569 191.685538,162.748644 191.28,162.552 C191.102621,162.481133 190.902098,162.498957 190.74,162.6 Z" id="Path" fill="#DDDAFE"></path>
                <path d="M193.554,162.252 L193.656,162.342 C193.541429,162.186622 193.348168,162.110341 193.15836,162.145578 C192.968551,162.180816 192.815548,162.32138 192.76438,162.507527 C192.713212,162.693675 192.772871,162.892695 192.918,163.02 C193.137579,163.206222 193.465867,163.182201 193.656,162.966 C193.951634,163.112104 194.30817,163.046169 194.532,162.804 C194.704602,162.542628 194.647113,162.192464 194.4,162 C194.259213,161.928045 194.091407,161.933082 193.95519,162.013353 C193.818973,162.093624 193.733265,162.237978 193.728,162.396 L193.608,162.264 L193.554,162.252 Z" id="Path" fill="#DDDAFE"></path>
                <path d="M196.65,162.75 C196.435574,162.930794 196.272167,163.164529 196.176,163.428 C196.085899,163.702541 196.225297,163.999747 196.494,164.106 C196.758,164.178 197.016,163.956 197.166,163.722 C197.32481,163.525216 197.386519,163.267359 197.334,163.02 C197.256,162.78 196.914,162.642 196.734,162.822 L196.65,162.75 Z" id="Path" fill="#DDDAFE"></path>
                <path d="M192.186,161.124 C192.125558,161.015718 192.024122,160.936281 191.904508,160.903557 C191.784895,160.870832 191.657147,160.887568 191.55,160.95 C191.34108,161.09638 191.261364,161.367915 191.358,161.604 C191.456861,161.836757 191.676078,161.995978 191.928,162.018 C192.234,162.054 192.594,161.808 192.528,161.508 C192.676371,161.680465 192.903105,161.764357 193.128,161.73 C193.341464,161.695742 193.545655,161.61815 193.728,161.502 C193.986,161.352 194.256,161.124 194.232,160.83 C194.190424,160.590363 193.988859,160.411194 193.746,160.398 C193.508175,160.386783 193.276145,160.473524 193.104,160.638 C192.966,160.758 192.846,160.902 192.696,161.01 C192.54777,161.126507 192.348235,161.154029 192.174,161.082 L192.186,161.124 Z" id="Path" fill="#DDDAFE"></path>
                <polygon id="Path" fill="#DDDAFE" points="196.002 174.768 188.316 174.768 187.566 167.028 196.752 167.028"></polygon>
                <polygon id="Path" fill="#E0DDFF" points="197.346 167.424 186.894 167.424 186.708 166.392 197.538 166.392"></polygon>
                <polygon id="Path" fill="#E2E0FF" points="257.718 151.104 248.898 151.104 251.664 142.2 252.066 140.898 254.064 140.898"></polygon>
                <polygon id="Path" fill="#E0E0E0" points="252.066 140.898 251.664 142.2 248.898 151.104 240.744 150.984 238.122 142.2 237.72 140.898"></polygon>
                <polygon id="Path" fill="#FAFAFA" points="252.066 140.898 251.664 142.2 248.898 151.104 232.152 150.858 235.722 140.898"></polygon>
                <polygon id="Path" fill="#C5C0FA" points="252.066 140.898 251.664 142.2 235.26 142.2 235.722 140.898"></polygon>
                <path d="M237.78,146.43 L234.102,146.43 L235.386,142.83 L238.902,142.872 L237.78,146.43 Z M234.528,146.13 L237.558,146.13 L238.494,143.13 L235.596,143.1 L234.528,146.13 Z" id="Shape" fill="#EAE8FF"></path>
                <path d="M241.89,146.43 L238.2,146.43 L239.478,142.83 L243,142.872 L241.89,146.43 Z M238.638,146.13 L241.674,146.13 L242.61,143.13 L239.712,143.1 L238.638,146.13 Z" id="Shape" fill="#EAE8FF"></path>
                <path d="M246,146.43 L242.322,146.43 L243.606,142.83 L247.122,142.872 L246,146.43 Z M242.748,146.13 L245.778,146.13 L246.714,143.13 L243.816,143.1 L242.748,146.13 Z" id="Shape" fill="#EAE8FF"></path>
                <path d="M250.122,146.43 L246.444,146.43 L247.728,142.83 L251.244,142.872 L250.122,146.43 Z M246.87,146.13 L249.9,146.13 L250.836,143.13 L247.938,143.1 L246.87,146.13 Z" id="Shape" fill="#EAE8FF"></path>
                <path d="M236.496,150.276 L232.8,150.276 L234.084,146.676 L237.6,146.718 L236.496,150.276 Z M233.244,149.976 L236.274,149.976 L237.21,146.976 L234.312,146.94 L233.244,149.976 Z" id="Shape" fill="#EAE8FF"></path>
                <path d="M240.6,150.276 L236.922,150.276 L238.206,146.676 L241.722,146.718 L240.6,150.276 Z M237.342,149.976 L240.378,149.976 L241.314,146.976 L238.416,146.94 L237.342,149.976 Z" id="Shape" fill="#EAE8FF"></path>
                <path d="M244.722,150.276 L241.044,150.276 L242.328,146.676 L245.844,146.718 L244.722,150.276 Z M241.47,149.976 L244.506,149.976 L245.436,146.976 L242.538,146.94 L241.47,149.976 Z" id="Shape" fill="#EAE8FF"></path>
                <path d="M248.838,150.276 L245.16,150.276 L246.444,146.676 L249.96,146.718 L248.838,150.276 Z M245.586,149.976 L248.616,149.976 L249.552,146.976 L246.654,146.94 L245.586,149.976 Z" id="Shape" fill="#EAE8FF"></path>
                <path d="M215.964,151.29 L205.674,151.29 L205.674,145.386 C205.674,142.546152 207.976152,140.244 210.816,140.244 L210.816,140.244 C213.65682,140.244 215.960689,142.545182 215.964,145.386 L215.964,151.29 Z" id="Path" fill="#D0CBFF"></path>
                <circle id="Oval" fill="#FFFFFF" cx="210.756" cy="145.662" r="4.338"></circle>
                <path d="M214.200005,145.662 C214.196688,147.583166 212.637175,149.138205 210.716007,149.136 C208.794839,149.13379 207.238904,147.575172 207.240005,145.654003 C207.241108,143.732835 208.798831,142.176 210.72,142.176 C211.643994,142.176 212.530056,142.543464 213.182855,143.197389 C213.835655,143.851314 214.201593,144.738007 214.200005,145.662 Z" id="Path" fill="#DDDAFE"></path>
                <path d="M211.104,145.74 C211.104,145.948764 210.934764,146.118 210.726,146.118 C210.517236,146.118 210.348,145.948764 210.348,145.74 C210.348,145.531236 210.517236,145.362 210.726,145.362 C210.934764,145.362 211.104,145.531236 211.104,145.74 L211.104,145.74 Z" id="Path" fill="#FAFAFA"></path>
                <polygon id="Path" fill="#FAFAFA" points="210.684 145.878 209.094 144.378 209.25 144.216 210.69 145.572 213.276 143.286 213.426 143.454"></polygon>
            </g>
            <g id="freepik--Shadow--inject-74" transform="translate(33.600000, 201.000000)">
                <rect id="Rectangle" fill="#E7E5FE" x="29.136" y="0.534" width="3.798" height="1"></rect>
                <ellipse id="freepik--path--inject-74" fill="#F5F4FF" cx="116.4" cy="15.414" rx="116.334" ry="6.792"></ellipse>
            </g>
            <g id="freepik--Projection--inject-74" transform="translate(30.000000, 4.800000)">
                <polygon id="Path" fill="#3E3CDA" points="239.094 121.512 0.87 121.512 0.198 0.45 238.422 0.45"></polygon>
                <polygon id="Path" fill="#867BF0" opacity="0.7" points="239.094 121.512 0.87 121.512 0.198 0.45 238.422 0.45"></polygon>
                <rect id="Rectangle" fill="#FFFFFF" x="3.654" y="4.152" width="230.496" height="91.41"></rect>
                <polygon id="Path" fill="#FFFFFF" opacity="0.5" points="3.654 95.562 234.144 95.562 112.05 120.462"></polygon>
                <polygon id="Path" fill="#252482" points="99.072 85.35 60.912 35.976 23.46 53.868 22.944 52.782 61.272 34.476 99.402 83.814 136.758 63.96 174.84 69.474 174.672 70.662 136.974 65.208"></polygon>
                <circle id="Oval" fill="#3E3CDA" cx="23.202" cy="53.322" r="3.18"></circle>
                <path d="M64.272,35.556 C64.272,37.3122655 62.8482655,38.736 61.092,38.736 C59.3357345,38.736 57.912,37.3122655 57.912,35.556 C57.912,33.7997345 59.3357345,32.376 61.092,32.376 C62.8482655,32.376 64.272,33.7997345 64.272,35.556 L64.272,35.556 Z" id="Path" fill="#3E3CDA"></path>
                <path d="M102.156006,84.222 C102.156006,85.5087355 101.380565,86.6686566 100.191543,87.1605066 C99.0025221,87.6523565 97.6342779,87.3791877 96.7252781,86.4684696 C95.8162783,85.5577515 95.545694,84.1889938 96.0397886,83.0009035 C96.5338833,81.8128131 97.6952668,81.0395722 98.982,81.0419943 C99.8248377,81.0419943 100.633068,81.3772246 101.228481,81.9737634 C101.823894,82.5703022 102.157593,83.3791638 102.156006,84.222 Z" id="Path" fill="#3E3CDA"></path>
                <path d="M140.046006,65.226 C140.046006,66.9822655 138.622266,68.406 136.866,68.406 C135.109734,68.406 133.686,66.9822655 133.686,65.226 C133.686,63.4697345 135.109734,62.0459943 136.866,62.0459943 C137.709877,62.0444033 138.51965,62.3789252 139.116363,62.9756374 C139.713075,63.5723496 140.047597,64.3821231 140.046006,65.226 L140.046006,65.226 Z" id="Path" fill="#3E3CDA"></path>
                <path d="M177.936,70.386 C177.936,72.1422655 176.512266,73.566 174.756,73.566 C172.999734,73.566 171.576,72.1422655 171.576,70.386 C171.576,68.6297345 172.999734,67.206 174.756,67.206 C175.599388,67.206 176.408234,67.5410348 177.0046,68.1374004 C177.600965,68.7337661 177.936,69.5426116 177.936,70.386 L177.936,70.386 Z" id="Path" fill="#3E3CDA"></path>
                <path d="M215.820006,29.694 C215.820006,30.9807355 215.044565,32.1406566 213.855543,32.6325066 C212.666522,33.1243565 211.298278,32.8511877 210.389278,31.9404696 C209.480278,31.0297515 209.209694,29.6609938 209.703789,28.4729035 C210.197883,27.2848131 211.359267,26.5115722 212.646,26.5139943 C213.488838,26.5139943 214.297068,26.8492246 214.892481,27.4457634 C215.487894,28.0423022 215.821593,28.8511638 215.820006,29.694 Z" id="Path" fill="#3E3CDA"></path>
                <polygon id="Path" fill="#3E3CDA" points="204.558 48.744 201.702 45.744 174.756 70.38 196.422 40.212 193.566 37.212 209.052 33.456"></polygon>
                <path d="M18.786,8.928 C19.578,8.928 19.914,9.396 19.914,10.158 L19.914,10.758 C19.914,11.562 19.542,11.958 18.714,11.958 L18.222,11.958 L18.222,13.944 L17.658,13.944 L17.658,8.928 L18.786,8.928 Z M18.738,11.472 C19.158,11.472 19.338,11.28 19.338,10.794 L19.338,10.128 C19.338,9.666 19.17,9.438 18.738,9.438 L18.198,9.438 L18.198,11.472 L18.738,11.472 Z" id="Shape" fill="#3E3CDA"></path>
                <path d="M20.85,12.948 L20.658,13.962 L20.136,13.962 L21.102,8.928 L21.918,8.928 L22.878,13.962 L22.32,13.962 L22.122,12.948 L20.85,12.948 Z M20.922,12.468 L22.044,12.468 L21.474,9.558 L20.922,12.468 Z" id="Shape" fill="#3E3CDA"></path>
                <path d="M25.5,10.134 L25.5,10.272 L24.966,10.272 L24.966,10.104 C24.966,9.654 24.798,9.384 24.366,9.384 C23.934,9.384 23.766,9.654 23.766,10.098 C23.766,11.226 25.458,11.334 25.458,12.756 C25.458,13.518 25.092,14.01 24.324,14.01 C23.556,14.01 23.196,13.518 23.196,12.756 L23.196,12.468 L23.718,12.468 L23.718,12.78 C23.718,13.236 23.904,13.5 24.318,13.5 C24.732,13.5 24.918,13.236 24.918,12.78 C24.918,11.658 23.232,11.58 23.232,10.134 C23.232,9.36 23.592,8.874 24.348,8.874 C25.104,8.874 25.5,9.372 25.5,10.134 Z" id="Path" fill="#3E3CDA"></path>
                <polygon id="Path" fill="#3E3CDA" points="26.724 13.962 26.724 9.438 25.8 9.438 25.8 8.928 28.2 8.928 28.2 9.438 27.282 9.438 27.282 13.962"></polygon>
                <polygon id="Path" fill="#3E3CDA" points="113.82 13.962 113.316 13.962 113.316 8.928 114.03 8.928 115.2 12.564 115.2 8.928 115.698 8.928 115.698 13.962 115.098 13.962 113.808 9.888"></polygon>
                <path d="M116.226,10.14 C116.226,9.372 116.604,8.874 117.378,8.874 C118.152,8.874 118.536,9.372 118.536,10.14 L118.536,12.744 C118.536,13.512 118.152,14.01 117.378,14.01 C116.604,14.01 116.226,13.512 116.226,12.744 L116.226,10.14 Z M116.778,12.774 C116.778,13.236 116.976,13.5 117.378,13.5 C117.78,13.5 117.978,13.236 117.978,12.774 L117.978,10.11 C117.978,9.66 117.792,9.384 117.378,9.384 C116.964,9.384 116.778,9.66 116.778,10.11 L116.778,12.774 Z" id="Shape" fill="#3E3CDA"></path>
                <polygon id="Path" fill="#3E3CDA" points="120.408 13.962 119.64 13.962 118.944 8.928 119.496 8.928 120.096 13.212 120.66 8.934 121.2 8.934 121.752 13.224 122.352 8.928 122.844 8.928 122.16 13.962 121.416 13.962 120.936 10.542"></polygon>
                <polygon id="Path" fill="#3E3CDA" points="207.366 11.046 207.366 11.556 206.208 11.556 206.208 13.74 205.644 13.74 205.644 8.7 207.648 8.7 207.648 9.21 206.208 9.21 206.208 11.046"></polygon>
                <path d="M208.626,12.552 C208.626,13.002 208.806,13.278 209.226,13.278 C209.646,13.278 209.826,13.002 209.826,12.552 L209.826,8.7 L210.348,8.7 L210.348,12.522 C210.348,13.284 209.994,13.794 209.22,13.794 C208.446,13.794 208.098,13.284 208.098,12.522 L208.098,8.7 L208.65,8.7 L208.626,12.552 Z" id="Path" fill="#3E3CDA"></path>
                <polygon id="Path" fill="#3E3CDA" points="211.608 13.74 211.608 9.21 210.678 9.21 210.678 8.7 213.078 8.7 213.078 9.21 212.16 9.21 212.16 13.74"></polygon>
                <path d="M214.008,12.552 C214.008,13.002 214.188,13.278 214.608,13.278 C215.028,13.278 215.208,13.002 215.208,12.552 L215.208,8.7 L215.736,8.7 L215.736,12.522 C215.736,13.284 215.382,13.794 214.602,13.794 C213.822,13.794 213.48,13.284 213.48,12.522 L213.48,8.7 L214.038,8.7 L214.008,12.552 Z" id="Path" fill="#3E3CDA"></path>
                <path d="M217.38,8.7 C218.172,8.7 218.502,9.102 218.502,9.852 L218.502,10.26 C218.502,10.818 218.31,11.16 217.902,11.298 C218.364,11.436 218.538,11.808 218.538,12.348 L218.538,13.134 C218.522906,13.3387441 218.555776,13.5441868 218.634,13.734 L218.07,13.734 C217.991126,13.5443708 217.95823,13.3387723 217.974,13.134 L217.974,12.336 C217.974,11.736 217.71,11.586 217.242,11.586 L216.846,11.586 L216.846,13.74 L216.282,13.74 L216.282,8.7 L217.38,8.7 Z M217.236,11.1 C217.686,11.1 217.95,10.956 217.95,10.41 L217.95,9.9 C217.95,9.45 217.782,9.21 217.35,9.21 L216.804,9.21 L216.804,11.076 L217.236,11.1 Z" id="Shape" fill="#3E3CDA"></path>
                <polygon id="Path" fill="#3E3CDA" points="220.89 10.932 220.89 11.436 219.69 11.436 219.69 13.236 221.196 13.236 221.196 13.746 219.126 13.746 219.126 8.7 221.196 8.7 221.196 9.21 219.66 9.21 219.66 10.932"></polygon>
            </g>
            <g id="freepik--Table--inject-74" transform="translate(21.600000, 113.400000)">
                <g id="freepik--monitor-screen--inject-74" transform="translate(16.800000, 0.000000)">
                    <g id="freepik--PC--inject-74">
                        <polygon id="Path" fill="#3E3CDA" points="37.542 24.288 2.184 24.45 4.044 2.022 39.408 1.866"></polygon>
                        <path d="M37.062,26.046 L2.22,26.202 C1.75248664,26.2138258 1.30282853,26.0222877 0.987443178,25.6769752 C0.672057826,25.3316628 0.521956218,24.8665297 0.576,24.402 L2.43,2.118 C2.52698469,1.11381207 3.35939442,0.340676097 4.368,0.318 L39.21,0.162 C39.6775134,0.150174198 40.1271715,0.34171234 40.4425568,0.687024769 C40.7579422,1.0323372 40.9080438,1.49747028 40.854,1.962 L39,24.246 C38.9004422,25.2489132 38.0695241,26.0206638 37.062,26.046 Z" id="Path" fill="#3E3CDA"></path>
                        <g id="Group" opacity="0.7" transform="translate(1.800000, 1.800000)">
                            <polygon id="Path" fill="#3E3CDA" points="35.742 22.488 0.384 22.65 2.244 0.222 37.608 0.066"></polygon>
                            <path d="M34.152,22.494 L2.28,22.6380103 C1.79245497,22.6396727 1.32657326,22.4367201 0.995784484,22.0785557 C0.664995708,21.7203913 0.499648339,21.2398752 0.54,20.754 L2.112,1.8 C2.18671193,0.900261948 2.93717076,0.207129832 3.84,0.204 L35.706,0.0599897414 C36.193545,0.0583272879 36.6594267,0.26127987 36.9902155,0.619444268 C37.3210043,0.977608667 37.4863517,1.45812482 37.446,1.944 L35.874,20.892 C35.8052069,21.7931647 35.0557793,22.4903674 34.152,22.494 L34.152,22.494 Z" id="Path" fill="#FFFFFF" opacity="0.9"></path>
                        </g>
                        <polygon id="Path" fill="#FFFFFF" opacity="0.1" points="31.656 0.174 24.864 26.04 27.186 26.028 33.9 0.168"></polygon>
                        <polygon id="Path" fill="#FFFFFF" opacity="0.1" points="35.238 0.162 28.452 26.022 33.06 26.004 39.774 0.144"></polygon>
                    </g>
                </g>
                <path d="M42.81,25.92 L54.57,26.022 C54.72,27.39 54.12,27.882 53.37,27.876 L10.326,27.81 C9.87143832,27.8100028 9.43558137,27.6290192 9.11472113,27.3070331 C8.79386089,26.9850471 8.61440505,26.5485589 8.61598946,26.094 L8.61598946,26.094 L42.81,25.92 Z" id="Path" fill="#3E3CDA"></path>
                <path d="M54.6,26.022 C54.75,27.39 54.15,27.882 53.4,27.876 L38.496,27.876 C39.48,27.876 40.722,26.922 40.722,25.944 L54.6,26.022 Z" id="Path" fill="#FFFFFF" opacity="0.2"></path>
                <path d="M42.81,25.92 L54.57,26.022 C54.72,27.39 54.12,27.882 53.37,27.876 L10.326,27.81 C9.87143832,27.8100028 9.43558137,27.6290192 9.11472113,27.3070331 C8.79386089,26.9850471 8.61440505,26.5485589 8.61598946,26.094 L8.61598946,26.094 L42.81,25.92 Z" id="Path" fill="#FFFFFF" opacity="0.2"></path>
                <g id="freepik--Group--inject-74" transform="translate(0.000000, 27.600000)">
                    <polygon id="Path" fill="#3E3CDA" points="14.922 2.424 14.922 75.828 16.83 75.828 19.23 2.424"></polygon>
                    <polygon id="Path" fill="#3E3CDA" points="37.446 4.824 37.446 72.828 39.354 72.828 41.754 4.824"></polygon>
                    <polygon id="Path" fill="#000000" opacity="0.5" points="37.446 4.824 37.446 72.828 39.354 72.828 41.754 4.824"></polygon>
                    <polygon id="Path" fill="#3E3CDA" points="129.342 2.424 129.342 72.828 127.434 72.828 125.034 2.424"></polygon>
                    <polygon id="Path" fill="#000000" opacity="0.5" points="129.342 2.424 129.342 72.828 127.434 72.828 125.034 2.424"></polygon>
                    <polygon id="Path" fill="#3E3CDA" points="106.818 4.824 106.818 75.384 104.91 75.384 102.51 4.824"></polygon>
                    <rect id="Rectangle" fill="#3E3CDA" x="0.354" y="0.216" width="142.164" height="3.078"></rect>
                    <polygon id="Path" fill="#3E3CDA" points="133.17 6.588 10.422 6.588 5.442 3.294 138.15 3.294"></polygon>
                    <polygon id="Path" fill="#000000" opacity="0.5" points="133.17 6.588 10.422 6.588 5.442 3.294 138.15 3.294"></polygon>
                </g>
                <rect id="Rectangle" fill="#252482" x="124.878" y="26.844" width="3.168" height="1.254"></rect>
                <path d="M127.842,27.462 L103.896,27.204 C100.95,27.204 99.99,21.642 99.99,19.494 L99.99,19.494 C99.99,15.8489207 102.944921,12.894 106.59,12.894 L129.6,12.894 C131.752158,12.900569 133.496123,14.6418543 133.506,16.794 C133.506,16.794 133.02,27.462 127.842,27.462 Z" id="Path" fill="#3E3CDA"></path>
                <g id="Group" opacity="0.5" transform="translate(99.600000, 12.600000)" fill="#FFFFFF">
                    <g opacity="0.7" id="Path">
                        <path d="M28.242,14.862 L4.296,14.604 C1.35,14.604 0.39,9.042 0.39,6.894 L0.39,6.894 C0.39,3.24892065 3.34492065,0.294 6.99,0.294 L30,0.294 C32.1521583,0.300568967 33.8961226,2.0418543 33.906,4.194 C33.906,4.194 33.42,14.862 28.242,14.862 Z"></path>
                    </g>
                </g>
                <path d="M130.248,12.96 L106.95,12.912 C103.676492,12.8985597 100.487669,13.9516715 97.866,15.912 L95.052,18 C94.7660118,18.2165077 94.6519538,18.5925395 94.7694757,18.9314399 C94.8869976,19.2703402 95.2093701,19.4950293 95.568,19.488 L118.908,18.888 L130.248,12.96 Z" id="Path" fill="#3E3CDA"></path>
                <path d="M130.248,12.96 L107.448,12.912 C103.71,12.912 100.608,13.662 97.446,16.224 L94.32,18.6 C94.132165,18.7407518 94.0567643,18.9867219 94.1334493,19.2085607 C94.2101343,19.4303995 94.4213407,19.5772957 94.656,19.572 L118.518,19.146 L130.248,12.96 Z" id="Path" fill="#FFFFFF" opacity="0.5"></path>
                <rect id="Rectangle" fill="#252482" x="95.64" y="26.844" width="3.168" height="1.254"></rect>
                <rect id="Rectangle" fill="#252482" x="116.7" y="26.844" width="3.168" height="1.254"></rect>
                <rect id="Rectangle" fill="#252482" x="104.472" y="26.844" width="3.168" height="1.254"></rect>
                <path d="M118.308,27.462 L96.972,27.462 C94.2840057,27.4554037 92.1065963,25.2779943 92.1,22.59 L92.1,22.59 C92.10989,19.9043492 94.286339,17.7305805 96.972,17.724 L118.308,17.724 C120.992681,17.7305963 123.167404,19.9053194 123.174,22.59 L123.174,22.59 C123.16742,25.275661 120.993651,27.45211 118.308,27.462 Z" id="Path" fill="#3E3CDA"></path>
                <g id="Group" transform="translate(97.200000, 20.400000)" fill="#252482">
                    <rect id="Rectangle" x="0.438" y="0.348" width="20.736" height="1"></rect>
                    <rect id="Rectangle" x="0.438" y="1.626" width="20.736" height="1"></rect>
                    <rect id="Rectangle" x="0.438" y="2.898" width="20.736" height="1"></rect>
                    <rect id="Rectangle" x="0.438" y="4.176" width="20.736" height="1"></rect>
                </g>
                <path d="M124.626,12.828 L124.494,12.96 L120.654,14.688 C116.94,16.41 114.912,16.236 115.542,14.688 C115.542,14.688 116.208,8.508 120.306,8.508 C122.6905,8.51130492 124.622695,10.4435002 124.626,12.828 L124.626,12.828 Z" id="Path" fill="#3E3CDA"></path>
                <g id="Group" opacity="0.7" transform="translate(115.200000, 8.400000)" fill="#FFFFFF">
                    <path d="M9.426,4.428 L9.294,4.56 L5.454,6.288 C1.74,8.01 -0.288,7.836 0.342,6.288 C0.342,6.288 1.008,0.108 5.106,0.108 C7.49049983,0.111304925 9.42269508,2.04350017 9.426,4.428 L9.426,4.428 Z" id="Path"></path>
                </g>
            </g>
            <g id="freepik--Character--inject-74" transform="translate(55.800000, 40.200000)">
                <rect id="Rectangle" fill="#3E3CDA" transform="translate(73.134544, 14.831295) rotate(-13.530000) translate(-73.134544, -14.831295) " x="64.8845438" y="13.8142953" width="16.5" height="2.034"></rect>
                <rect id="Rectangle" fill="#FFFFFF" opacity="0.3" transform="translate(73.134544, 14.831295) rotate(-13.530000) translate(-73.134544, -14.831295) " x="64.8845438" y="13.8142953" width="16.5" height="2.034"></rect>
                <rect id="Rectangle" fill="#3E3CDA" transform="translate(87.042871, 11.600506) rotate(-13.530000) translate(-87.042871, -11.600506) " x="74.6858708" y="9.98350612" width="24.714" height="3.234"></rect>
                <rect id="Rectangle" fill="#FFFFFF" opacity="0.2" transform="translate(87.042871, 11.600506) rotate(-13.530000) translate(-87.042871, -11.600506) " x="74.6858708" y="9.98350612" width="24.714" height="3.234"></rect>
                <path d="M115.248,9.546 L88.95,13.278 L87.96,9.162 L113.076,0.522 L114.096,2.124 C115.120541,3.7288893 115.586656,5.62709685 115.422,7.524 L115.248,9.546 Z" id="Path" fill="#3E3CDA"></path>
                <path d="M115.248,9.546 L88.95,13.278 L87.96,9.162 L113.076,0.522 L114.096,2.124 C115.120541,3.7288893 115.586656,5.62709685 115.422,7.524 L115.248,9.546 Z" id="Path" fill="#FFFFFF" opacity="0.2"></path>
                <g id="freepik--character-2--inject-170--inject-74" transform="translate(0.000000, 2.400000)">
                    <path d="M46.698,33.678 C42.672,36.456 36.852,40.35 34.056,42.63 L34.02,42.63 C32.7016766,44.0543999 31.4656693,45.5528333 30.318,47.118 L29.808,47.838 L29.76,47.904 L29.7,48.024 C29.6519502,48.1131161 29.609858,48.2053181 29.574,48.3 C29.3829497,48.8151829 29.2422919,49.3476733 29.154,49.89 C28.962,51.09 28.956,55.794 29.43,61.122 C29.4959459,61.8698362 28.9715709,62.5410362 28.23,62.658 L26.928,62.874 C26.2239347,62.9956355 25.5395518,62.5736852 25.332,61.89 C24.5804582,59.3387984 24.0406281,56.7299538 23.718,54.09 C23.5101163,52.4829118 23.4458622,50.860495 23.526,49.242 C23.5724808,48.2492159 23.7314986,47.2649157 24,46.308 C24.049322,46.1180114 24.1114644,45.9315841 24.186,45.75 L24.342,45.354 L24.546,44.928 C24.708,44.604 24.786,44.484 24.888,44.328 L25.2,43.8 C25.5905908,43.0958645 26.0213,42.414743 26.49,41.76 C26.952,41.16 27.414,40.5 27.9,39.864 C28.89,38.544 29.976,37.32 31.074,36.12 C31.542,35.61 32.016,35.118 32.502,34.626 L32.502,34.626 C36.204,30.06 41.658,23.97 44.316,24.114 C48.648,24.312 50.448,29.4 46.698,33.678 Z" id="Path" fill="#3E3CDA"></path>
                    <path d="M26.676,62.1 C25.428,63.45 26.676,65.658 26.676,65.658 L30.738,64.644 L28.53,61.872 L26.676,62.1 Z" id="Path" fill="#FF8B7B"></path>
                    <polygon id="Path" fill="#FF8B7B" points="30.738 64.644 26.7 65.67 28.152 68.946 31.164 68.274"></polygon>
                    <path d="M64.8,13.386 C65.052,13.452 65.184,13.806 65.082,14.208 C64.98,14.61 64.716,14.874 64.44,14.808 C64.164,14.742 64.062,14.376 64.164,13.986 C64.266,13.596 64.53,13.32 64.8,13.386 Z" id="Path" fill="#252482"></path>
                    <path d="M63.204,18.402 C63.8022003,18.7269366 64.5128595,18.7729978 65.148,18.528 C64.638373,17.317057 64.3010884,16.0406265 64.146,14.736 L63.204,18.402 Z" id="Path" fill="#FF5652"></path>
                    <path d="M63.174,11.352 L63.174,11.352 C63.150465,11.2939559 63.1511822,11.2288995 63.1759909,11.1713882 C63.2007997,11.113877 63.247629,11.0687121 63.306,11.046 C64.0037908,10.7523166 64.8009409,10.817253 65.442,11.22 L65.49,11.256 C65.5746126,11.3456809 65.5751218,11.4856302 65.491164,11.5759244 C65.4072062,11.6662186 65.2675896,11.6758755 65.172,11.598 C64.6563878,11.2919658 64.0258934,11.2496358 63.474,11.484 C63.4277012,11.5020732 63.3762988,11.5020732 63.33,11.484 C63.2591585,11.4689362 63.2005815,11.419371 63.174,11.352 L63.174,11.352 Z" id="Path" fill="#252482"></path>
                    <path d="M57.168,22.098 C55.548,24.498 54.432,27.306 57.918,29.592 C57.918,29.592 60.318,34.392 53.334,31.854 C46.98,29.568 47.292,25.764 47.292,25.764 C50.508,24.348 51.294,18.738 51.852,15.078 L57.168,22.098 Z" id="Path" fill="#FF8B7B"></path>
                    <path d="M57.948,29.844 C57.948,29.844 59.004,26.808 57.144,25.332 C55.284,23.856 49.344,23.31 48.084,23.31 C46.944,23.31 47.034,24.576 47.13,25.71 L57.948,29.844 Z" id="Path" fill="#3E3CDA"></path>
                    <path d="M57.948,29.844 C57.948,29.844 59.004,26.808 57.144,25.332 C55.284,23.856 49.344,23.31 48.084,23.31 C46.944,23.31 47.034,24.576 47.13,25.71 L57.948,29.844 Z" id="Path" fill="#FFFFFF" opacity="0.5"></path>
                    <path d="M43.8,36.714 C41.148,39.318 38.856,41.118 38.856,41.118 L38.556,40.752 L45.186,31.8 L43.8,36.714 Z" id="Path" fill="#000000" opacity="0.3"></path>
                    <path d="M55.8,65.628 L48.354,64.302 L39.018,62.658 L32.874,61.572 L32.874,61.572 C33.042,58.434 34.764,45.372 37.86,30.612 C38.718,26.532 41.88,23.412 45.966,24.21 L46.08,24.21 C49.3431797,24.8512683 52.5665574,25.680652 55.734,26.694 C57.537224,27.3487717 59.293355,28.1266015 60.99,29.022 C61.7295314,29.3771469 62.236422,30.085436 62.334,30.9 C62.694,33.972 57,49.386 55.8,65.628 Z" id="Path" fill="#3E3CDA"></path>
                    <path d="M55.254,37.302 C55.4981583,40.972764 56.7023463,44.5149804 58.746,47.574 C59.136,45.672 61.224,37.416 61.62,35.766 L55.254,37.302 Z" id="Path" fill="#000000" opacity="0.3"></path>
                    <path d="M79.86,17.358 L80.982,17.49 C82.926,14.922 81.702,11.49 81.702,11.49 L76.2,12.804 L77.202,15.33 C77.6460712,16.4445526 78.6677383,17.2240639 79.86,17.358 Z" id="Path" fill="#FF8B7B"></path>
                    <polygon id="Path" fill="#FF8B7B" points="76.23 12.804 81.702 11.496 81.246 8.574 76.386 7.998"></polygon>
                    <path d="M91.068,29.262 C90.9111158,28.7022144 90.6896263,28.1625855 90.408,27.654 C90.1993023,27.2421229 89.968981,26.8415642 89.718,26.454 C89.37,25.914 85.8,20.568 83.082,17.076 C82.5267021,16.3668385 81.7021553,15.9197444 80.8048771,15.8412752 C79.9075988,15.762806 79.017963,16.0599906 78.348,16.662 C80.052,19.062 83.076,26.358 83.808,27.576 L84.18,28.176 C84.5130667,28.1406882 84.8489333,28.1406882 85.182,28.176 C85.884,28.32 86.586,27.756 87.258,27.882 L87.522,27.936 L87.654,27.936 L87.72,27.936 C87.6300999,27.9300022 87.5399001,27.9300022 87.45,27.936 C87.1964997,27.9671924 86.949482,28.0380581 86.718,28.146 C86.2907474,28.3507744 85.9291683,28.6707927 85.674,29.07 C85.4872198,29.3684997 85.3684107,29.7044428 85.326,30.054 C85.3174584,30.173848 85.3174584,30.294152 85.326,30.414 C85.3013742,30.2990026 85.2609932,30.1879547 85.206,30.084 C85.0918164,29.8096172 84.9636484,29.5412653 84.822,29.28 C84.636,28.908 84.42,28.524 84.186,28.134 L83.988,28.134 L83.814,27.492 C83.814,27.492 52.14,28.758 52.806,33.318 C48.828,45.09 84.204,34.854 85.632,34.434 L85.674,34.434 C87.0952997,34.0909709 88.4972911,33.6723763 89.874,33.18 C90.6883641,32.5594157 91.1868827,31.6106931 91.236,30.588 C91.2501209,30.1399136 91.1934232,29.6924066 91.068,29.262 Z M85.35,30.648 C85.3333547,30.6078653 85.3232271,30.5653295 85.32,30.522 C85.3356467,30.5624517 85.3457385,30.6048375 85.35,30.648 L85.35,30.648 Z" id="Shape" fill="#3E3CDA"></path>
                    <path d="M87.72,28.026 C87.6300999,28.0200022 87.5399001,28.0200022 87.45,28.026 C87.1964997,28.0571924 86.949482,28.1280581 86.718,28.236 C86.2907474,28.4407744 85.9291683,28.7607927 85.674,29.16 C85.4872198,29.4584997 85.3684107,29.7944428 85.326,30.144 C85.3174584,30.263848 85.3174584,30.384152 85.326,30.504 C85.3013742,30.3890026 85.2609932,30.2779547 85.206,30.174 C85.0918164,29.8996172 84.9636484,29.6312653 84.822,29.37 C84.636,28.998 84.42,28.614 84.186,28.224 C84.5190667,28.1886882 84.8549333,28.1886882 85.188,28.224 C85.89,28.368 86.592,27.804 87.264,27.93 L87.528,27.984 L87.66,27.984 L87.72,28.026 Z" id="Path" fill="#3E3CDA"></path>
                    <path d="M52.656,7.014 C53.722669,5.58540343 55.3133249,4.63924199 57.077813,4.38379633 C58.8423011,4.12835066 60.6359789,4.58456073 62.064,5.652 C66.264,8.748 65.064,15.984 62.964,20.004 C60.606,24.468 54.162,25.146 51.486,20.538 C49.686,17.478 50.496,14.688 51.426,9.852 C51.6110173,8.82361128 52.0320507,7.85215392 52.656,7.014 Z" id="Path" fill="#FF8B7B"></path>
                    <path d="M53.334,3.072 C50.832,4.512 49.134,7.062 48.222,9.81 C47.376,12.384 47.292,23.184 57.528,20.652 C57.716128,17.7195239 58.7870377,14.9125691 60.6,12.6 C61.602,16.518 61.566,10.404 63.27,9.198 C64.548,8.292 66.27,8.334 67.668,7.602 C69.7927506,6.35560747 70.5157672,3.6295672 69.288,1.494 C69.402,2.046 68.544,3.66 68.016,3.852 C68.3830236,2.82752975 68.4434894,1.71829521 68.19,0.66 C68.016,1.506 67.302,3.384 66.516,3.474 C66.786,2.952 66.516,1.26 66.084,0.522 C66.444,1.188 65.316,3.054 64.884,3.474 C63.6,4.644 59.352,-0.396 53.334,3.072 Z" id="Path" fill="#252482"></path>
                    <path d="M60.084,11.28 C61.284,12.12 61.338,14.346 60.978,15.612 C60.582,17.022 59.352,17.598 58.452,16.26 C57.7793453,15.236212 57.4610763,14.0200451 57.546,12.798 C57.678,11.328 58.866,10.44 60.084,11.28 Z" id="Path" fill="#FF8B7B"></path>
                    <path d="M7.674,162.786 C7.65078298,162.751546 7.65078298,162.706454 7.674,162.672 C7.7004071,162.640394 7.74117786,162.624539 7.782,162.63 C7.83,162.63 9.288,162.936 9.63,163.506 C9.70786902,163.625163 9.72562312,163.773853 9.678,163.908 C9.6,164.172 9.444,164.256 9.33,164.256 C9.048,164.298 8.694,164.022 8.382,163.698 C8.11304052,163.421082 7.87559182,163.115216 7.674,162.786 Z M7.986,162.894 C8.364,163.452 8.994,164.094 9.306,164.052 C9.306,164.052 9.426,164.052 9.48,163.848 C9.51555586,163.774052 9.51555586,163.687948 9.48,163.614 C9.4553275,163.577391 9.42719855,163.543235 9.396,163.512 C8.97833956,163.202786 8.49642588,162.991564 7.986,162.894 L7.986,162.894 Z" id="Shape" fill="#3E3CDA"></path>
                    <path d="M7.656,162.726 C7.65007916,162.688109 7.66360698,162.64978 7.692,162.624 C7.734,162.588 8.724,161.778 9.378,161.856 C9.54081053,161.868637 9.68991431,161.95196 9.786,162.084 C9.89207109,162.201904 9.9067807,162.375968 9.822,162.51 C9.528,162.918 8.226,162.96 7.728,162.804 L7.686,162.804 C7.666487,162.782735 7.65576594,162.75486 7.656,162.726 L7.656,162.726 Z M9.354,162.078 C8.85336053,162.135715 8.38232022,162.345066 8.004,162.678 C8.562,162.768 9.48,162.678 9.648,162.42 C9.648,162.42 9.702,162.348 9.648,162.24 L9.648,162.204 C9.57451039,162.119133 9.46613767,162.072688 9.354,162.078 Z" id="Shape" fill="#3E3CDA"></path>
                    <polygon id="Path" fill="#FF8B7B" points="8.358 151.92 12.438 153.402 7.26 162.546 3.18 161.064"></polygon>
                    <path d="M8.19,162.876 C8.256,164.304 9.36,167.118 11.19,170.076 C11.598,170.736 10.11,171.876 8.826,170.508 C7.542,169.14 4.77,165.912 3.84,164.952 C2.322,163.386 1.644,162.828 0.444,161.628 C0.409003111,161.594226 0.378729333,161.55588 0.354,161.514 C0.260757437,161.368872 0.229840493,161.192327 0.268216468,161.02415 C0.306592444,160.855973 0.411032316,160.710315 0.558,160.62 L3.978,158.52 C4.1339181,158.42789 4.33272844,158.455226 4.458,158.586 L7.902,162.144 C8.08711602,162.342799 8.19002488,162.604359 8.19,162.876 Z" id="Path" fill="#252482"></path>
                    <polygon id="Path" fill="#000000" opacity="0.2" points="5.682 156.636 9.57 158.466 12.438 153.402 8.358 151.92"></polygon>
                    <path d="M48.366,64.302 C48.366,64.302 39.714,96.066 35.766,108.36 C31.416,121.818 12.564,157.116 12.564,157.116 L5.166,153.894 C5.166,153.894 19.434,121.758 22.482,108.294 C25.764,93.714 22.926,68.226 32.874,61.572 L32.904,61.572 L32.904,61.572 L39.048,62.658 L48.366,64.302 Z" id="Path" fill="#3E3CDA"></path>
                    <path d="M48.366,64.302 C48.366,64.302 44.202,79.59 40.326,93.06 C38.616,99.006 36.96,104.598 35.748,108.36 C31.398,121.818 12.546,157.116 12.546,157.116 L5.148,153.894 C5.148,153.894 19.416,121.758 22.464,108.294 C25.746,93.714 22.908,68.226 32.856,61.572 L32.886,61.572 L32.886,61.572 L39.03,62.658 L48.366,64.302 Z" id="Path" fill="#FFFFFF" opacity="0.5"></path>
                    <polygon id="Path" fill="#252482" points="5.298 152.016 4.026 154.482 12.33 158.154 14.346 155.658"></polygon>
                    <path d="M44.946,74.952 C42.24,85.446 38.346,100.224 35.904,107.868 C36.3,96.756 37.806,75.228 43.674,74.67 C44.1177199,74.6168512 44.5663164,74.7163042 44.946,74.952 L44.946,74.952 Z" id="Path" fill="#000000" opacity="0.3"></path>
                    <path d="M49.59,174.114 C49.5470797,174.108385 49.5116582,174.077687 49.5,174.036 C49.4908986,173.993084 49.507231,173.948753 49.542,173.922 C49.608,173.88 51.09,172.908 51.834,173.058 C51.977009,173.08545 52.1038585,173.16715 52.188,173.286 C52.2842964,173.422748 52.2842964,173.605252 52.188,173.742 C52.02,174 51.48,174.114 50.916,174.15 C50.473739,174.172724 50.0303765,174.160687 49.59,174.114 L49.59,174.114 Z M51.588,173.256 C50.9825268,173.363246 50.403746,173.587422 49.884,173.916 C50.712,173.976 51.828,173.916 52.014,173.61 C52.056,173.568 52.086,173.502 52.014,173.376 C51.9657706,173.30433 51.8894943,173.256385 51.804,173.244 C51.7383046,173.235033 51.6716954,173.235033 51.606,173.244 L51.588,173.256 Z" id="Shape" fill="#3E3CDA"></path>
                    <path d="M49.518,174.108 C49.4884892,174.084755 49.4708892,174.049555 49.47,174.012 C49.47,173.964 49.512,172.77 50.07,172.272 C50.2312904,172.119744 50.4486728,172.041487 50.67,172.056 C50.964,172.056 51.072,172.206 51.078,172.326 C51.192,172.812 50.202,173.838 49.68,174.126 L49.638,174.126 C49.5973664,174.138851 49.5530748,174.132207 49.518,174.108 Z M50.562,172.26 C50.4441413,172.271476 50.3328845,172.319757 50.244,172.398 C49.932756,172.797791 49.7525479,173.283934 49.728,173.79 C50.232,173.436 50.928,172.644 50.838,172.344 C50.838,172.344 50.838,172.236 50.628,172.242 L50.562,172.242 L50.562,172.26 Z" id="Shape" fill="#3E3CDA"></path>
                    <polygon id="Path" fill="#FF8B7B" points="44.568 164.094 48.966 163.824 49.158 174.036 44.76 174.312"></polygon>
                    <path d="M50.19,173.802 C53.28,175.452 54.99,175.428 58.494,175.962 C59.262,176.088 58.866,177.942 57.066,178.056 C54.066,178.242 52.962,178.17 50.412,178.332 C48.234,178.464 45.738,178.746 44.004,178.854 C43.9561741,178.859781 43.9078259,178.859781 43.86,178.854 C43.6915439,178.828931 43.5401801,178.737346 43.4398068,178.599756 C43.3394335,178.462165 43.2984375,178.290066 43.326,178.122 L43.926,174.156 C43.9562738,173.977545 44.1053531,173.843374 44.286,173.832 L49.086,173.538 C49.4715652,173.519782 49.8543871,173.611326 50.19,173.802 Z" id="Path" fill="#252482"></path>
                    <polygon id="Path" fill="#000000" opacity="0.2" points="44.562 164.1 44.676 169.836 49.074 169.566 48.966 163.824"></polygon>
                    <path d="M55.8,65.628 C55.8,65.628 56.886,97.692 55.926,111.108 C54.918,125.064 50.874,167.058 50.874,167.058 L43.422,167.52 C43.422,167.52 42.276,125.406 42.438,111.672 C42.498,106.992 42.12,100.566 41.592,93.93 C40.392,79.296 38.412,63.666 38.412,63.666 L48.354,64.302 L55.8,65.628 Z" id="Path" fill="#3E3CDA"></path>
                    <path d="M55.8,65.628 C55.8,65.628 56.886,97.692 55.926,111.108 C54.918,125.064 50.874,167.058 50.874,167.058 L43.422,167.52 C43.422,167.52 42.276,125.406 42.438,111.672 C42.498,106.992 42.12,100.566 41.592,93.93 C40.392,79.296 38.412,63.666 38.412,63.666 L48.354,64.302 L55.8,65.628 Z" id="Path" fill="#FFFFFF" opacity="0.5"></path>
                    <path d="M42.186,165.852 L42.6,168.6 L51.66,168.036 C51.66,168.036 51.924,164.916 51.894,164.916 L42.186,165.852 Z" id="Path" fill="#252482"></path>
                </g>
            </g>
        </g>
    </g>
</svg>