<svg width="40px" height="40px" viewBox="0 0 40 40" version="1.1" xmlns="http://www.w3.org/2000/svg" xmlns:xlink="http://www.w3.org/1999/xlink"><title>Group 47 Copy 2</title> <desc>Created with Sketch.</desc> <g id="Page-1" stroke="none" stroke-width="1" fill="none" fill-rule="evenodd"><g id="Group-47-Copy-2"><rect id="Rectangle-2-Copy-34" fill="#00D2CC" opacity="0.1" x="0" y="0" width="40" height="40" rx="12"></rect> <g id="Group-45" transform="translate(8.000000, 9.000000)"><path d="M19.0433473,20.3333333 L5.13664301,20.3333333 C3.55868658,20.3333333 2.27950015,19.0541469 2.27950015,17.4761905 C2.27950015,16.9436449 2.42833794,16.4216983 2.70921829,15.9692484 L9.90360491,4.38032816 C10.7358661,3.0396985 12.4973421,2.6275844 13.8379717,3.45984555 C14.2366418,3.70733938 14.5682178,4.04921555 14.8034039,4.45526789 L21.5157215,16.0441881 C22.3065946,17.4096427 21.8408042,19.1576917 20.4753496,19.9485647 C20.0401942,20.2006073 19.5462246,20.3333333 19.0433473,20.3333333 Z" id="Path-20" fill="#00D2CC"></path> <rect id="Rectangle" fill="#AEF9F7" x="11" y="7.33333333" width="2" height="5" rx="1"></rect> <rect id="Rectangle-Copy-21" fill="#AEF9F7" x="11" y="14.3333333" width="2" height="2" rx="1"></rect></g></g></g></svg>