<?xml version="1.0" encoding="UTF-8"?>
<svg width="200px" height="42px" viewBox="0 0 200 42" version="1.1" xmlns="http://www.w3.org/2000/svg" xmlns:xlink="http://www.w3.org/1999/xlink">
    <!-- Generator: Sketch 63.1 (92452) - https://sketch.com -->
    <title>Artboard Copy 3</title>
    <desc>Created with Sketch.</desc>
    <defs>
        <linearGradient x1="50%" y1="28.0683666%" x2="34.2819406%" y2="73.9082019%" id="linearGradient-1">
            <stop stop-color="#2FC5DB" offset="0%"></stop>
            <stop stop-color="#00D080" offset="100%"></stop>
        </linearGradient>
        <path d="M29.306,0 L23.052,6.299 L9.70455725,6.30005852 C7.90512445,6.30005852 6.43174566,7.69606169 6.30836224,9.46412669 L6.3004561,9.6483152 L6.29999999,9.70461578 C6.29999999,11.5849008 7.82427219,13.109173 9.70455725,13.109173 L9.70455725,13.109173 L16.292,13.109 L10.037,19.409 L9.70455725,19.409173 C4.43728653,19.409173 0.150125054,15.2128266 0.0038576753,9.98091849 L8.19966315e-14,9.70461578 C8.19966315e-14,4.34493681 4.34487828,5.85312887e-05 9.70455725,5.85312887e-05 L9.70455725,5.85312887e-05 L29.306,0 Z" id="path-2"></path>
        <linearGradient x1="5.29223118%" y1="69.6323187%" x2="116.449395%" y2="28.7611038%" id="linearGradient-4">
            <stop stop-color="#3F4BEE" offset="0%"></stop>
            <stop stop-color="#00CBF2" offset="100%"></stop>
        </linearGradient>
        <path d="M22.8075681,10.4389242 C29.3067599,10.0561696 34.2152445,14.7112806 34.2152445,20.0709596 C34.2152445,25.4306385 29.8703662,29.7755168 24.5106873,29.7755168 L3.20550546,29.8480387 L9.45958544,23.5481042 L24.5106873,23.4755168 C26.3535547,23.4755168 27.8544375,22.011307 27.9134429,20.1827804 L27.9147884,20.1272601 L27.9152445,20.0709596 C27.9152445,18.1906745 26.3909723,16.6664023 24.5106873,16.6664023 L16.2193454,16.7387842 L22.4732854,10.4389242 L22.8075681,10.4389242 Z" id="path-5"></path>
    </defs>
    <g id="Artboard-Copy-3" stroke="none" stroke-width="1" fill="none" fill-rule="evenodd">
        <g id="Group-6">
            <g id="Group-79-Copy-9" transform="translate(22.500000, 21.000000) rotate(-25.000000) translate(-22.500000, -21.000000) translate(5.000000, 6.000000)">
                <mask id="mask-3" fill="white">
                    <use xlink:href="#path-2"></use>
                </mask>
                <use id="Combined-Shape-Copy-4" fill="url(#linearGradient-1)" fill-rule="nonzero" xlink:href="#path-2"></use>
                <mask id="mask-6" fill="white">
                    <use xlink:href="#path-5"></use>
                </mask>
                <use id="Combined-Shape-Copy-5" fill="url(#linearGradient-4)" fill-rule="nonzero" xlink:href="#path-5"></use>
            </g>
            <g id="Group-Copy-4" transform="translate(54.000000, 12.000000)" fill="#FFFFFF" fill-rule="nonzero">
                <path d="M96.5081967,0 L96.5081967,3.27241146 L87.95,3.272 L87.9508197,19 L84.147541,19 L84.147,3.272 L76.5409836,3.27241146 L76.5409836,0 L96.5081967,0 Z M70.8360656,0 L70.8360656,3.27241146 L62.278,3.272 L62.2786885,19 L58.4754098,19 L58.475,3.272 L49.9180328,3.27241146 L49.9180328,0 L70.8360656,0 Z M119.372887,0 L124.081967,0.0626270004 L113.508,11.916 L113.559767,18.8057223 L109.81868,18.8270095 L109.765,11.706 L99.3606557,0.0626270004 L104.113373,0 L111.61936,8.68568157 L119.372887,0 Z M131.688525,0 L131.688,15.543 L145,15.5439544 L145,18.8163659 L127.885246,18.8163659 L127.885246,0 L131.688525,0 Z M21.3934426,0 L21.3934426,3.27241146 L6.31073276,3.27241146 C4.92590412,3.27241146 3.80327869,4.23833918 3.80327869,5.42987141 C3.80327869,6.59161533 4.87047449,7.53889397 6.20737569,7.58553181 L6.31073276,7.58733136 L16.7697492,7.58733136 C20.373591,7.58733136 23.295082,10.1010364 23.295082,13.2018486 C23.295082,16.260184 20.4530836,18.7473871 16.9174624,18.8149557 L16.7697492,18.8163659 L1.90163934,18.8163659 L1.90163934,15.5439544 L16.7697492,15.5439544 C18.2730981,15.5439544 19.4918033,14.4953579 19.4918033,13.2018486 C19.4918033,11.9384209 18.329123,10.9086472 16.8741604,10.8614341 L16.7697492,10.8597428 L6.31073276,10.8597428 C2.8254113,10.8597428 0,8.42870658 0,5.42987141 C0,2.47327335 2.74638273,0.0685925301 6.16386443,0.00144155246 L6.31073276,0 L21.3934426,0 Z" id="Combined-Shape"></path>
                <rect id="Rectangle-Copy-84" x="27" y="0" width="17" height="3"></rect>
                <rect id="Rectangle-Copy-85" x="27" y="8" width="17" height="3"></rect>
                <rect id="Rectangle-Copy-86" x="27" y="16" width="17" height="3"></rect>
            </g>
        </g>
    </g>
</svg>