<svg width="40px" height="40px" viewBox="0 0 40 40" version="1.1" xmlns="http://www.w3.org/2000/svg" xmlns:xlink="http://www.w3.org/1999/xlink"><title>Group 48 Copy 2</title> <desc>Created with Sketch.</desc> <g id="Page-1" stroke="none" stroke-width="1" fill="none" fill-rule="evenodd"><g id="Group-48-Copy-2"><rect id="Rectangle-2-Copy-36" fill="#09AEF1" opacity="0.1" x="0" y="0" width="40" height="40" rx="12"></rect> <g id="Group-12-Copy" transform="translate(12.000000, 10.000000)"><path d="M3.2,0 L8.98116957,0 L8.98116957,0 L16,6.9018153 L16,16.8 C16,18.5673112 14.5673112,20 12.8,20 L3.2,20 C1.4326888,20 2.164332e-16,18.5673112 0,16.8 L0,3.2 C-2.164332e-16,1.4326888 1.4326888,1.65691743e-15 3.2,0 Z" id="Rectangle" fill="#09AEF1"></path> <path d="M16,6.9018153 L12.0595212,6.9018153 C10.29221,6.9018153 8.85952121,5.4691265 8.85952121,3.7018153 L8.85952121,-1.65793305e-14 L8.85952121,-1.65793305e-14" id="Path-21" fill="#2BB9F3"></path> <rect id="Rectangle" fill="#47C9FD" x="3.2" y="5.6" width="3.2" height="1.66666667" rx="0.833333333"></rect> <rect id="Rectangle-Copy-35" fill="#47C9FD" x="3.2" y="10.0444444" width="8.88888889" height="1.66666667" rx="0.833333333"></rect> <rect id="Rectangle-Copy-36" fill="#47C9FD" x="3.2" y="14.4888889" width="8.88888889" height="1.66666667" rx="0.833333333"></rect></g></g></g></svg>