<?xml version="1.0" encoding="UTF-8"?>
<svg width="90px" height="90px" viewBox="0 0 90 90" version="1.1" xmlns="http://www.w3.org/2000/svg" xmlns:xlink="http://www.w3.org/1999/xlink">
    <!-- Generator: Sketch 63.1 (92452) - https://sketch.com -->
    <title>Artboard</title>
    <desc>Created with Sketch.</desc>
    <defs>
        <linearGradient x1="104.761773%" y1="50%" x2="-4.76177275%" y2="50%" id="linearGradient-1">
            <stop stop-color="#8631FF" offset="0%"></stop>
            <stop stop-color="#8631FF" offset="100%"></stop>
        </linearGradient>
    </defs>
    <g id="Artboard" stroke="none" stroke-width="1" fill="none" fill-rule="evenodd">
        <g id="Group">
            <g id="temperature" fill="#E8D8FF" fill-rule="nonzero">
                <circle id="Oval-Copy-106" cx="45" cy="45" r="45"></circle>
            </g>
            <g id="Temprature-Tracking" transform="translate(32.000000, 27.000000)">
                <path d="M4.0087,21.042 C0.86671,22.856 -0.66515,26.5542 0.27386,30.0587 C1.21288,33.5632 4.3886,36 8.0167,36 C11.6448,36 14.8205,33.5632 15.7596,30.0587 C16.6986,26.5542 15.1667,22.856 12.0247,21.042 L12.0247,4.00799 C12.0247,1.79444 10.2303,0 8.0167,0 C5.8032,0 4.0087,1.79444 4.0087,4.00799 L4.0087,21.042" id="Path" stroke="#8631FF" stroke-width="2.5" stroke-linecap="round" stroke-linejoin="round"></path>
                <line x1="8.0156" y1="23.7043" x2="8.0156" y2="12.1384" id="Path" stroke="#8631FF" stroke-width="2.5" stroke-linecap="round" stroke-linejoin="round"></line>
                <line x1="15.9736" y1="3.0918" x2="23.7033" y2="3.0918" id="Path" stroke="#8631FF" stroke-width="2" stroke-linecap="round"></line>
                <line x1="16.4902" y1="8.2451" x2="20.6127" y2="8.2451" id="Path" stroke="#8631FF" stroke-width="2" stroke-linecap="round"></line>
                <line x1="15.9736" y1="13.3982" x2="26.7952" y2="13.3982" id="Path" stroke="url(#linearGradient-1)" stroke-width="2" stroke-linecap="round"></line>
                <line x1="16.4902" y1="18.5513" x2="21.6434" y2="18.5513" id="Path" stroke="#8631FF" stroke-width="2" stroke-linecap="round"></line>
                <circle id="Oval" stroke="#8631FF" stroke-width="2" fill="#8631FF" fill-rule="nonzero" cx="7.7296" cy="28.3422" r="3.63782"></circle>
            </g>
        </g>
    </g>
</svg>